<?xml version="1.0" encoding="UTF-8" ?>
<!DOCTYPE svg PUBLIC "-//W3C//DTD SVG 1.1//EN" "http://www.w3.org/Graphics/SVG/1.1/DTD/svg11.dtd">
<svg width="656pt" height="656pt" viewBox="0 0 656 656" version="1.1" xmlns="http://www.w3.org/2000/svg">
<g id="#000000ff">
<path fill="#000000" opacity="1.00" d=" M 221.00 15.24 C 282.65 3.23 348.54 14.46 402.64 46.41 C 439.35 67.96 470.71 98.61 492.90 134.96 C 514.11 169.28 526.82 208.70 530.27 248.86 C 534.20 293.75 526.36 339.65 507.55 380.61 C 501.67 393.65 494.46 406.04 486.62 417.99 C 534.37 465.40 581.78 513.15 629.45 560.65 C 638.12 568.78 643.88 580.10 644.82 592.00 C 646.38 605.58 641.80 619.67 632.74 629.88 C 625.52 637.88 615.75 643.70 605.10 645.61 C 589.56 648.77 572.54 643.89 561.27 632.69 C 513.64 585.01 465.99 537.35 418.31 489.72 C 416.72 487.14 414.37 489.46 412.63 490.49 C 376.71 514.02 334.83 528.19 292.06 531.71 C 249.16 535.36 205.36 528.21 165.86 511.07 C 138.40 499.11 112.94 482.47 91.24 461.81 C 50.14 423.48 22.17 371.36 12.97 315.90 C 2.20 253.73 14.72 187.70 48.15 134.12 C 64.32 107.88 85.36 84.75 109.53 65.67 C 141.98 40.33 180.51 22.83 221.00 15.24 M 256.20 77.08 C 208.54 80.20 162.33 101.86 129.50 136.57 C 94.72 172.31 74.72 222.08 75.29 271.97 C 75.05 298.33 80.62 324.69 91.05 348.87 C 106.91 386.27 135.19 418.07 169.89 439.05 C 209.58 463.01 257.95 471.86 303.59 463.90 C 341.92 457.42 378.13 439.01 405.98 411.89 C 433.07 385.81 452.32 351.68 460.55 314.97 C 468.92 277.78 466.35 238.11 452.77 202.45 C 435.26 155.70 398.98 116.37 353.75 95.23 C 323.55 80.85 289.55 74.54 256.20 77.08 Z" />
</g>
</svg>
