<?xml version="1.0" encoding="UTF-8" ?>
<!DOCTYPE svg PUBLIC "-//W3C//DTD SVG 1.1//EN" "http://www.w3.org/Graphics/SVG/1.1/DTD/svg11.dtd">
<svg width="820pt" height="842pt" viewBox="0 0 820 842" version="1.1" xmlns="http://www.w3.org/2000/svg">
<g id="#f6f6f6ff">
</g>
<g id="#000000ff">
<path fill="#000000" opacity="1.00" d=" M 19.82 41.73 C 22.42 40.79 25.13 40.04 27.92 40.14 C 68.07 40.23 108.22 40.01 148.37 40.26 C 148.48 40.97 148.69 42.39 148.80 43.10 C 152.05 55.65 154.95 68.30 158.20 80.86 C 159.19 86.00 160.74 91.01 161.87 96.12 C 162.23 97.44 162.52 98.77 162.82 100.11 C 165.77 111.90 168.62 123.72 171.55 135.52 C 367.35 135.58 563.14 135.53 758.94 135.55 C 764.61 135.62 770.38 135.14 775.95 136.55 C 787.02 138.77 797.00 145.50 803.24 154.91 C 808.60 163.53 810.52 174.18 808.18 184.09 C 806.83 189.74 805.36 195.37 804.11 201.05 C 803.68 202.67 803.34 204.31 802.91 205.92 C 801.64 211.59 800.19 217.22 798.85 222.88 C 797.64 228.56 796.16 234.18 794.78 239.82 C 794.50 241.17 794.24 242.52 793.90 243.86 C 788.28 267.28 782.71 290.71 777.13 314.14 C 775.84 319.77 774.38 325.36 773.10 331.00 C 772.69 332.64 772.37 334.30 771.92 335.93 C 770.67 341.61 769.14 347.24 767.86 352.92 C 766.81 358.35 765.05 363.61 764.15 369.06 C 763.66 370.65 763.26 372.27 762.84 373.88 C 761.61 379.57 760.11 385.20 758.84 390.89 C 754.61 408.61 750.34 426.34 746.16 444.08 C 744.92 449.78 743.28 455.38 742.14 461.10 C 741.69 462.70 741.35 464.34 740.93 465.95 C 739.63 471.61 738.21 477.25 736.87 482.90 C 735.64 488.59 734.13 494.23 732.82 499.91 C 732.51 501.22 732.26 502.56 731.92 503.88 C 730.54 509.54 729.16 515.20 727.82 520.87 C 726.76 526.00 725.27 531.02 724.21 536.14 C 720.93 549.15 710.64 559.72 698.11 564.22 C 697.08 564.49 696.07 564.79 695.07 565.13 C 691.45 566.02 687.76 566.78 684.02 566.71 C 589.34 566.58 494.66 566.17 399.98 566.21 C 397.97 566.17 395.90 566.43 393.99 565.71 C 390.03 567.05 385.81 565.14 381.74 565.95 C 339.52 565.55 297.23 565.71 254.99 565.58 C 236.63 565.44 218.93 577.01 211.78 593.94 C 207.19 604.96 206.86 617.73 211.21 628.87 C 216.88 643.99 230.97 655.48 246.89 658.16 C 249.57 658.50 252.28 658.70 254.99 658.71 C 399.00 658.70 543.01 658.71 687.02 658.71 C 699.73 658.85 712.61 657.88 725.08 660.90 C 726.66 661.34 728.24 661.72 729.83 662.18 C 752.60 668.90 771.85 686.13 781.34 707.85 C 788.13 723.55 789.74 741.31 786.15 758.01 C 784.81 763.44 783.11 768.79 780.77 773.88 C 770.33 797.34 748.19 814.92 723.10 820.19 C 712.14 822.25 700.83 822.35 689.88 820.16 C 664.05 814.86 641.35 796.34 631.25 771.95 C 625.15 757.86 623.55 742.04 625.85 726.92 C 626.41 725.30 626.59 723.59 626.84 721.92 C 627.95 717.82 629.30 713.80 630.72 709.81 C 632.93 704.47 635.83 699.48 638.76 694.52 C 639.07 694.34 639.68 694.00 639.98 693.83 C 589.35 693.40 538.70 693.77 488.06 693.65 C 432.72 693.66 377.38 693.63 322.04 693.66 C 324.60 698.50 327.77 703.03 329.76 708.18 C 332.29 713.82 333.89 719.82 335.23 725.84 C 336.29 733.21 336.80 740.68 336.11 748.12 C 335.63 750.40 335.44 752.74 335.17 755.07 C 334.77 756.44 334.48 757.85 334.25 759.28 C 333.22 762.84 332.26 766.45 330.83 769.89 C 323.14 789.70 307.35 806.26 287.87 814.79 C 282.52 817.24 276.86 818.94 271.12 820.20 C 269.41 820.44 267.71 820.68 266.03 821.05 C 256.69 822.34 247.19 821.88 237.94 820.12 C 215.99 815.41 196.25 801.40 184.74 782.10 C 180.88 775.51 177.85 768.45 175.86 761.07 C 175.57 759.71 175.29 758.38 174.93 757.05 C 172.34 744.77 172.78 731.97 175.77 719.80 C 177.03 715.50 178.36 711.20 180.29 707.15 C 185.51 695.35 193.62 684.74 203.84 676.84 C 203.70 676.40 203.43 675.51 203.30 675.06 C 192.76 667.29 185.08 656.05 179.73 644.20 C 178.45 640.78 176.98 637.41 176.16 633.84 C 171.37 616.63 172.42 597.81 179.32 581.31 C 186.56 563.47 200.47 548.52 217.57 539.72 C 222.43 537.42 227.35 534.95 232.71 534.07 C 232.61 528.17 230.09 522.66 229.17 516.88 C 228.72 515.28 228.35 513.68 227.94 512.08 C 226.63 506.70 225.25 501.35 223.93 495.98 C 222.69 490.32 221.14 484.74 219.82 479.10 C 218.77 473.99 217.18 469.00 216.12 463.89 C 215.67 462.30 215.30 460.68 214.87 459.09 C 213.83 453.98 212.31 448.99 211.19 443.89 C 209.77 437.97 208.28 432.07 206.80 426.16 C 205.30 419.44 203.54 412.77 201.85 406.10 C 200.85 400.97 199.30 395.98 198.18 390.88 C 196.76 384.97 195.30 379.08 193.78 373.19 C 193.50 371.82 193.22 370.47 192.88 369.12 C 191.66 364.04 190.22 359.01 189.12 353.90 C 188.72 352.56 188.45 351.18 188.19 349.82 C 187.12 345.86 186.10 341.88 185.18 337.88 C 182.19 325.55 179.06 313.25 176.14 300.90 C 174.45 293.93 172.63 286.98 170.95 280.00 C 168.35 269.30 165.74 258.59 163.08 247.90 C 162.65 246.31 162.33 244.68 161.93 243.09 C 157.95 227.03 154.06 210.95 150.06 194.90 C 149.71 193.59 149.43 192.26 149.15 190.94 C 147.88 185.57 146.41 180.24 145.18 174.86 C 143.44 167.62 141.58 160.41 139.83 153.18 C 138.75 148.05 137.17 143.03 136.13 137.90 C 134.85 132.54 133.45 127.21 132.16 121.86 C 130.46 114.61 128.59 107.40 126.80 100.18 C 125.72 95.05 124.22 90.03 123.11 84.91 C 122.67 83.31 122.36 81.68 121.94 80.07 C 121.53 78.45 121.18 76.82 120.85 75.18 C 89.88 74.90 58.90 75.21 27.93 75.03 C 20.76 75.18 13.75 70.71 11.22 63.95 C 7.81 55.68 11.90 45.68 19.82 41.73 M 180.26 170.54 C 181.08 175.77 182.81 180.81 183.85 186.00 C 184.28 187.63 184.68 189.27 185.16 190.89 C 187.69 201.92 190.50 212.89 193.20 223.88 C 193.49 225.20 193.78 226.54 194.12 227.86 C 195.46 233.20 196.81 238.55 198.12 243.90 C 201.05 256.23 204.19 268.52 207.14 280.85 C 208.30 285.95 209.80 290.97 210.88 296.09 C 212.50 302.79 214.29 309.45 215.78 316.19 C 218.58 327.13 221.20 338.12 223.90 349.09 C 224.36 350.68 224.70 352.30 225.11 353.91 C 226.22 359.02 227.71 364.04 228.78 369.17 C 230.28 375.07 231.76 380.98 233.19 386.90 C 234.28 391.98 235.78 396.96 236.89 402.04 C 237.30 403.65 237.64 405.30 238.10 406.91 C 239.22 412.00 240.70 417.01 241.83 422.10 C 243.13 427.75 244.65 433.35 245.96 439.00 C 246.38 440.61 246.72 442.24 247.13 443.86 C 248.48 449.20 249.82 454.55 251.12 459.91 C 252.21 465.01 253.70 470.01 254.82 475.11 C 256.26 481.00 257.69 486.89 259.22 492.75 C 259.49 494.13 259.79 495.51 260.15 496.88 C 261.33 501.96 262.79 506.98 263.89 512.09 C 264.34 513.67 264.67 515.29 265.06 516.90 C 266.25 521.49 267.29 526.12 268.54 530.70 C 298.03 530.73 327.52 530.69 356.99 531.19 C 465.34 531.22 573.68 531.68 682.03 531.88 C 685.23 532.06 689.25 530.99 690.28 527.55 C 691.22 524.02 692.08 520.46 692.83 516.89 C 694.15 511.22 695.62 505.58 696.89 499.90 C 698.57 492.61 700.43 485.36 702.09 478.08 C 703.40 472.42 704.82 466.78 706.15 461.13 C 707.35 455.74 708.76 450.39 709.97 445.00 C 710.38 443.37 710.70 441.73 711.12 440.12 C 716.69 416.71 722.39 393.32 727.82 369.87 C 729.23 364.23 730.58 358.57 731.94 352.91 C 732.34 351.30 732.66 349.66 733.08 348.06 C 734.23 342.65 735.80 337.35 736.89 331.93 C 738.21 326.28 739.66 320.65 740.96 314.99 C 741.36 313.37 741.68 311.73 742.11 310.12 C 747.70 286.71 753.28 263.30 758.85 239.89 C 760.13 234.21 761.61 228.57 762.92 222.90 C 763.32 221.29 763.64 219.66 764.07 218.05 C 765.17 212.62 766.86 207.33 767.82 201.88 C 769.25 196.27 770.65 190.65 771.91 185.01 C 772.31 183.37 772.65 181.72 773.09 180.09 C 773.47 178.35 773.86 176.60 774.34 174.88 C 772.79 171.84 769.33 170.30 766.02 170.54 C 570.77 170.55 375.52 170.54 180.26 170.54 M 235.88 697.73 C 224.63 702.86 215.35 712.39 211.17 724.09 C 207.16 734.51 207.22 746.42 211.22 756.85 C 215.76 769.09 225.85 779.16 238.04 783.81 C 239.32 784.24 240.60 784.68 241.86 785.19 C 250.64 787.54 260.07 787.58 268.77 784.79 C 271.97 783.85 275.01 782.43 277.93 780.82 C 287.58 775.34 295.03 766.30 298.82 755.89 C 301.84 747.24 302.33 737.80 300.15 728.90 C 299.04 724.70 297.37 720.67 295.26 716.88 C 290.07 708.21 282.18 701.11 272.81 697.25 C 261.08 692.26 247.51 692.68 235.88 697.73 M 681.16 701.19 C 673.93 705.87 667.95 712.53 664.27 720.33 C 659.16 730.79 658.49 743.10 661.75 754.22 C 665.26 764.94 672.53 774.46 682.28 780.22 C 693.18 786.94 706.88 788.64 719.18 785.19 C 720.16 784.86 721.16 784.54 722.17 784.26 C 731.88 780.60 740.44 773.87 745.90 765.01 C 753.11 753.70 754.85 739.19 750.82 726.44 C 746.84 713.29 736.63 702.29 723.90 697.17 C 722.66 696.70 721.41 696.25 720.19 695.79 C 707.19 691.77 692.58 693.82 681.16 701.19 Z" />
</g>
</svg>
