<?xml version="1.0" encoding="UTF-8" ?>
<!DOCTYPE svg PUBLIC "-//W3C//DTD SVG 1.1//EN" "http://www.w3.org/Graphics/SVG/1.1/DTD/svg11.dtd">
<svg width="820pt" height="842pt" viewBox="0 0 820 842" version="1.1" xmlns="http://www.w3.org/2000/svg">
<g id="#f6f6f6ff">
</g>
<g id="#000000ff">
<path fill="#000000" opacity="1.00" d=" M 19.81 41.73 C 22.43 40.79 25.14 40.03 27.95 40.14 C 68.09 40.23 108.23 40.01 148.37 40.25 C 148.47 40.96 148.69 42.38 148.79 43.09 C 152.04 55.65 154.96 68.29 158.18 80.85 C 159.21 85.98 160.72 91.00 161.88 96.10 C 162.23 97.43 162.51 98.76 162.82 100.10 C 165.78 111.90 168.60 123.73 171.56 135.52 C 367.73 135.58 563.89 135.53 760.05 135.54 C 765.07 135.60 770.16 135.21 775.10 136.37 C 787.14 138.59 798.23 146.06 804.28 156.77 C 807.95 163.21 809.46 170.73 809.16 178.09 C 808.73 180.07 808.45 182.07 808.17 184.08 C 806.83 189.73 805.36 195.36 804.11 201.03 C 803.68 202.66 803.34 204.31 802.92 205.93 C 801.65 211.61 800.14 217.23 798.86 222.91 C 797.62 228.57 796.16 234.18 794.78 239.81 C 789.03 264.60 782.99 289.32 777.14 314.09 C 775.76 320.04 774.28 325.98 772.85 331.92 C 772.54 333.26 772.28 334.61 771.94 335.94 C 770.64 341.62 769.14 347.25 767.86 352.93 C 766.28 359.93 764.52 366.88 762.85 373.86 C 761.59 379.56 760.13 385.21 758.82 390.90 C 756.28 401.65 753.70 412.38 751.13 423.13 C 749.56 430.13 747.72 437.07 746.14 444.08 C 744.90 449.78 743.29 455.40 742.14 461.13 C 741.69 462.72 741.35 464.35 740.93 465.95 C 739.65 471.62 738.16 477.24 736.89 482.91 C 735.32 489.92 733.43 496.87 731.91 503.89 C 729.16 514.95 726.69 526.08 723.89 537.13 C 720.46 549.74 710.27 559.81 698.11 564.22 C 697.08 564.50 696.06 564.81 695.07 565.15 C 691.45 566.01 687.78 566.78 684.05 566.71 C 600.06 566.59 516.07 566.25 432.08 566.21 C 418.07 566.18 404.05 566.38 390.06 565.83 C 344.74 565.77 299.39 565.60 254.06 565.59 C 236.02 565.82 218.83 577.31 211.78 593.93 C 207.19 604.95 206.88 617.70 211.19 628.86 C 217.70 646.21 235.35 658.80 253.97 658.70 C 404.96 658.72 555.95 658.70 706.94 658.71 C 713.04 658.74 719.10 659.67 725.07 660.90 C 726.65 661.35 728.23 661.72 729.83 662.17 C 752.59 668.90 771.85 686.11 781.33 707.84 C 788.14 723.53 789.73 741.29 786.16 757.99 C 784.83 763.43 783.08 768.77 780.78 773.88 C 770.32 797.33 748.21 814.92 723.11 820.18 C 712.15 822.24 700.83 822.37 689.89 820.14 C 673.80 816.76 658.74 808.48 647.44 796.52 C 629.76 778.44 621.72 751.82 625.86 726.93 C 626.36 725.30 626.59 723.60 626.85 721.93 C 627.93 717.82 629.31 713.80 630.74 709.80 C 632.94 704.47 635.82 699.47 638.76 694.53 C 639.07 694.35 639.70 694.00 640.01 693.82 C 588.68 693.42 537.33 693.76 485.99 693.65 C 431.34 693.64 376.70 693.65 322.06 693.64 C 324.58 698.51 327.75 703.04 329.77 708.17 C 332.26 713.83 333.91 719.81 335.22 725.84 C 336.30 733.21 336.79 740.68 336.11 748.13 C 335.63 750.41 335.42 752.74 335.18 755.07 C 330.77 778.45 315.79 799.47 295.10 811.21 C 292.73 812.47 290.34 813.73 287.87 814.80 C 272.33 821.81 254.62 823.45 237.95 820.12 C 215.99 815.43 196.27 801.40 184.74 782.11 C 180.88 775.52 177.85 768.44 175.86 761.06 C 175.56 759.70 175.28 758.37 174.93 757.05 C 172.33 744.76 172.78 731.96 175.76 719.79 C 177.00 715.49 178.39 711.21 180.28 707.15 C 185.53 695.35 193.62 684.74 203.84 676.83 C 203.70 676.39 203.42 675.52 203.29 675.08 C 192.77 667.26 185.07 656.05 179.72 644.19 C 178.40 640.78 177.03 637.38 176.14 633.83 C 171.40 616.64 172.42 597.88 179.28 581.40 C 187.09 562.10 202.70 546.18 221.71 537.74 C 225.30 536.28 228.84 534.59 232.72 534.06 C 232.59 528.16 230.10 522.65 229.16 516.87 C 228.72 515.27 228.35 513.67 227.93 512.09 C 223.99 496.02 220.03 479.97 216.11 463.90 C 215.67 462.28 215.30 460.64 214.88 459.02 C 213.80 453.96 212.30 448.99 211.23 443.93 C 209.75 438.00 208.29 432.07 206.80 426.15 C 205.33 419.46 203.53 412.84 201.87 406.19 C 199.30 395.16 196.55 384.17 193.78 373.19 C 193.51 371.83 193.25 370.48 192.90 369.15 C 191.64 364.07 190.25 359.02 189.12 353.91 C 188.74 352.56 188.46 351.19 188.18 349.83 C 184.05 333.55 180.10 317.22 176.13 300.91 C 174.44 293.94 172.66 286.98 170.96 280.01 C 168.35 269.31 165.76 258.60 163.07 247.91 C 162.66 246.30 162.34 244.68 161.93 243.08 C 159.19 232.15 156.62 221.19 153.81 210.29 C 152.78 205.11 151.25 200.05 150.08 194.90 C 149.65 193.28 149.29 191.65 148.86 190.03 C 145.94 177.73 142.85 165.47 139.83 153.19 C 138.73 148.06 137.19 143.04 136.12 137.91 C 133.01 125.34 129.96 112.75 126.81 100.19 C 125.72 95.06 124.23 90.03 123.11 84.92 C 122.68 83.31 122.35 81.69 121.93 80.08 C 121.54 78.44 121.17 76.79 120.79 75.15 C 89.82 74.94 58.83 75.19 27.86 75.02 C 20.72 75.16 13.74 70.69 11.23 63.95 C 7.80 55.68 11.91 45.69 19.81 41.73 M 180.26 170.54 C 181.09 175.78 182.80 180.83 183.86 186.02 C 184.30 187.64 184.69 189.27 185.14 190.89 C 188.00 203.25 191.21 215.52 194.15 227.87 C 195.42 233.22 196.85 238.54 198.10 243.91 C 202.33 261.31 206.66 278.68 210.89 296.08 C 212.46 302.80 214.30 309.45 215.78 316.19 C 218.58 327.13 221.17 338.12 223.91 349.08 C 224.34 350.68 224.69 352.30 225.10 353.92 C 226.23 359.03 227.71 364.05 228.79 369.18 C 231.55 380.14 234.25 391.13 236.88 402.12 C 237.30 403.71 237.67 405.33 238.11 406.92 C 240.70 417.62 243.37 428.30 245.96 439.01 C 247.64 445.98 249.45 452.93 251.11 459.92 C 252.23 465.01 253.69 470.02 254.83 475.11 C 257.84 487.44 260.92 499.74 263.89 512.08 C 265.41 518.29 266.92 524.51 268.54 530.70 C 297.02 530.76 325.52 530.65 353.98 531.19 C 463.33 531.21 572.68 531.68 682.04 531.88 C 685.21 532.05 689.24 531.00 690.26 527.58 C 691.23 524.05 692.08 520.49 692.81 516.90 C 694.16 511.24 695.60 505.59 696.91 499.91 C 698.52 492.61 700.47 485.38 702.09 478.08 C 703.38 472.40 704.86 466.77 706.15 461.09 C 707.34 455.70 708.78 450.37 709.98 444.99 C 710.37 443.37 710.70 441.73 711.13 440.12 C 716.70 416.71 722.37 393.31 727.83 369.87 C 729.21 364.22 730.59 358.58 731.93 352.92 C 732.33 351.30 732.65 349.66 733.08 348.05 C 734.24 342.65 735.78 337.35 736.90 331.95 C 738.20 326.28 739.67 320.65 740.96 314.98 C 741.35 313.36 741.68 311.73 742.11 310.12 C 747.69 286.72 753.30 263.32 758.83 239.90 C 760.15 234.22 761.60 228.57 762.92 222.90 C 763.32 221.28 763.64 219.65 764.06 218.05 C 765.33 212.38 766.82 206.76 768.10 201.10 C 769.26 195.71 770.75 190.39 771.92 185.00 C 772.32 183.37 772.66 181.71 773.09 180.08 C 773.47 178.33 773.87 176.59 774.35 174.86 C 772.78 171.86 769.34 170.31 766.04 170.54 C 570.78 170.55 375.52 170.54 180.26 170.54 M 235.85 697.73 C 224.60 702.88 215.37 712.41 211.13 724.09 C 207.18 734.54 207.23 746.40 211.19 756.84 C 215.80 769.11 225.88 779.22 238.15 783.86 C 239.39 784.28 240.64 784.72 241.88 785.19 C 253.87 788.53 267.12 787.03 277.94 780.83 C 287.58 775.33 295.02 766.30 298.84 755.90 C 301.82 747.24 302.34 737.82 300.15 728.92 C 299.05 724.70 297.36 720.68 295.26 716.87 C 288.73 705.87 277.72 697.53 265.14 694.85 C 255.39 692.41 245.04 693.94 235.85 697.73 M 689.15 697.14 C 686.33 698.17 683.68 699.57 681.15 701.18 C 673.93 705.89 667.94 712.53 664.26 720.36 C 659.15 730.81 658.49 743.12 661.75 754.23 C 665.17 764.64 672.11 773.94 681.47 779.71 C 692.50 786.85 706.58 788.73 719.19 785.19 C 720.17 784.86 721.16 784.55 722.17 784.26 C 730.28 781.13 737.71 776.02 743.01 769.09 C 751.76 758.23 754.95 743.29 751.73 729.77 C 749.08 718.14 741.74 707.63 731.66 701.24 C 719.26 693.09 702.87 691.42 689.15 697.14 Z" />
</g>
</svg>
