<?xml version="1.0" encoding="UTF-8" ?>
<!DOCTYPE svg PUBLIC "-//W3C//DTD SVG 1.1//EN" "http://www.w3.org/Graphics/SVG/1.1/DTD/svg11.dtd">
<svg width="576pt" height="616pt" viewBox="0 0 576 616" version="1.1" xmlns="http://www.w3.org/2000/svg">
<g id="#fefefeff">
</g>
<g id="#020202ff">
<path fill="#020202" opacity="1.00" d=" M 69.88 58.68 C 76.50 41.30 94.40 28.84 113.01 28.71 C 239.32 28.88 365.63 28.61 491.94 28.84 C 512.93 28.61 531.92 45.03 536.87 65.05 C 538.39 70.57 538.09 76.34 538.12 82.00 C 538.22 232.65 538.17 383.29 538.15 533.94 C 538.09 556.61 519.12 576.73 497.03 580.04 C 492.41 580.89 487.70 580.57 483.03 580.61 C 360.00 580.62 236.96 580.66 113.93 580.59 C 90.03 580.40 67.66 560.25 66.46 536.10 C 65.83 516.74 66.45 497.35 66.30 477.98 C 56.52 477.57 45.81 479.40 37.03 473.98 C 25.87 467.49 20.49 453.46 22.98 441.01 C 24.56 430.93 31.83 421.91 41.46 418.48 C 49.43 415.89 57.94 416.96 66.17 416.56 C 66.27 389.42 66.21 362.28 66.25 335.14 C 57.30 334.59 47.87 336.16 39.41 332.45 C 33.64 329.69 28.69 325.04 25.82 319.29 C 21.25 310.14 21.24 298.87 25.78 289.71 C 28.64 283.90 33.67 279.31 39.42 276.46 C 47.87 272.70 57.33 274.42 66.27 273.82 C 66.27 246.76 66.25 219.70 66.27 192.63 C 57.30 192.05 47.85 193.26 39.38 189.62 C 32.19 186.17 26.47 179.68 24.07 172.06 C 19.28 158.40 24.78 141.72 37.64 134.61 C 46.36 129.74 56.70 131.16 66.26 130.90 C 67.91 106.88 62.59 82.12 69.88 58.68 M 83.98 67.94 C 82.83 71.50 82.85 75.30 82.70 79.00 C 82.35 96.42 82.91 113.84 82.66 131.26 C 95.78 131.21 108.96 130.27 122.04 131.71 C 126.27 132.12 130.34 133.80 133.79 136.27 C 147.42 146.13 150.78 167.90 139.91 180.98 C 135.07 187.13 127.66 190.81 120.00 191.90 C 107.60 193.67 95.11 191.38 82.67 192.16 C 82.58 219.46 82.70 246.77 82.58 274.08 C 93.74 274.41 104.91 273.46 116.06 274.09 C 121.99 274.64 128.29 275.09 133.30 278.67 C 145.10 286.39 148.82 302.73 144.36 315.64 C 141.45 324.69 133.66 332.50 124.03 333.85 C 110.34 336.43 96.40 334.22 82.60 334.95 C 82.75 362.28 82.62 389.61 82.66 416.94 C 94.12 417.30 105.59 416.25 117.04 416.99 C 122.91 417.59 129.15 418.28 133.99 421.99 C 148.69 432.44 150.33 456.15 138.07 469.09 C 134.70 472.63 130.33 475.22 125.54 476.27 C 111.47 479.94 96.90 476.95 82.61 477.77 C 82.90 496.50 82.22 515.25 82.85 533.98 C 83.30 550.32 98.62 564.62 114.98 563.76 C 239.30 563.78 363.61 563.69 487.92 563.81 C 504.79 565.29 521.27 550.99 521.77 533.99 C 522.00 382.68 521.70 231.37 521.89 80.05 C 523.34 64.92 512.61 49.89 498.02 45.95 C 493.78 44.63 489.31 45.09 484.95 45.05 C 361.31 45.04 237.68 45.03 114.04 45.05 C 100.44 44.97 87.83 55.04 83.98 67.94 M 65.27 147.29 C 59.41 147.55 53.55 148.01 47.75 148.87 C 41.62 149.46 38.36 156.40 38.81 161.98 C 38.80 168.61 43.87 175.57 50.93 175.53 C 73.30 175.63 95.68 176.11 118.04 175.34 C 121.77 175.37 125.52 173.63 127.59 170.47 C 131.07 165.18 130.80 157.79 127.33 152.57 C 125.29 149.49 121.72 147.47 118.01 147.56 C 100.43 148.16 82.85 146.67 65.27 147.29 M 53.54 290.75 C 50.49 291.22 47.33 291.51 44.45 292.69 C 35.32 298.81 37.58 316.24 48.99 318.13 C 71.65 319.38 94.35 318.35 117.03 318.66 C 122.16 318.89 126.79 315.31 128.84 310.77 C 132.15 304.26 129.89 295.24 123.15 291.92 C 115.88 288.60 107.70 290.91 100.02 290.29 C 84.54 291.16 68.98 288.91 53.54 290.75 M 48.54 433.69 C 36.59 436.10 35.63 455.15 46.10 460.15 C 47.59 460.93 49.29 461.00 50.94 461.05 C 74.32 461.30 97.74 462.01 121.08 460.69 C 129.79 458.75 132.10 447.49 128.57 440.35 C 126.68 435.82 121.85 433.11 117.01 433.42 C 94.19 433.01 71.33 432.66 48.54 433.69 Z" />
<path fill="#020202" opacity="1.00" d=" M 462.30 96.36 C 473.87 96.09 485.46 96.35 497.02 96.94 C 504.66 97.43 505.47 110.91 498.21 112.72 C 481.43 113.44 464.48 114.55 447.79 112.15 C 443.51 108.46 443.03 100.32 448.44 97.40 C 453.02 96.72 457.67 96.60 462.30 96.36 Z" />
<path fill="#020202" opacity="1.00" d=" M 291.55 171.77 C 306.28 169.51 321.65 172.17 334.87 179.02 C 349.91 186.71 362.03 200.01 368.19 215.75 C 374.29 231.28 374.93 248.99 369.61 264.83 C 364.98 278.29 356.31 290.36 344.87 298.86 C 330.48 309.68 311.92 315.25 293.97 312.89 C 282.43 311.20 271.03 307.31 261.53 300.41 C 245.56 288.99 234.57 270.90 231.69 251.49 C 229.10 234.42 233.78 216.64 243.34 202.40 C 254.30 186.12 272.20 174.87 291.55 171.77 M 291.49 188.66 C 275.01 191.87 260.54 203.24 253.28 218.34 C 247.73 229.30 246.89 242.12 249.13 254.06 C 254.40 279.54 280.13 298.90 306.10 296.67 C 336.48 295.02 361.95 263.98 356.20 233.80 C 354.30 220.10 346.63 207.49 335.57 199.26 C 323.21 189.82 306.82 185.54 291.49 188.66 Z" />
<path fill="#020202" opacity="1.00" d=" M 449.34 177.24 C 465.49 175.63 481.76 176.20 497.94 176.92 C 502.84 178.02 504.11 184.37 502.55 188.53 C 501.60 191.69 498.07 192.95 495.06 192.90 C 479.34 193.41 463.60 192.99 447.87 192.80 C 446.24 189.74 444.63 186.67 442.99 183.62 C 445.09 181.48 447.21 179.35 449.34 177.24 Z" />
<path fill="#020202" opacity="1.00" d=" M 446.52 256.64 C 463.38 256.45 480.26 255.78 497.11 256.65 C 503.77 257.49 505.44 267.55 500.27 271.28 C 497.56 273.16 494.11 272.84 490.99 272.96 C 476.10 273.15 461.21 272.90 446.32 272.69 C 444.92 267.41 445.13 261.89 446.52 256.64 Z" />
<path fill="#020202" opacity="1.00" d=" M 289.60 315.76 C 314.63 312.98 340.54 318.80 362.01 331.96 C 396.03 352.55 417.97 391.92 416.57 431.77 C 415.38 436.29 410.32 438.16 406.06 437.91 C 335.70 437.72 265.35 438.09 194.99 437.72 C 192.70 437.89 190.47 436.49 189.54 434.42 C 187.60 430.56 188.15 426.11 188.25 421.96 C 189.56 393.71 202.81 366.65 223.07 347.12 C 240.92 329.58 264.74 318.47 289.60 315.76 M 242.83 351.76 C 220.87 368.14 207.57 394.33 204.15 421.23 C 269.46 421.56 334.78 421.44 400.10 421.29 C 397.01 391.59 380.54 362.98 354.96 347.13 C 321.54 325.12 274.30 327.01 242.83 351.76 Z" />
<path fill="#020202" opacity="1.00" d=" M 446.60 336.47 C 464.32 336.53 482.12 335.20 499.79 337.09 C 503.02 339.78 504.18 344.54 502.30 348.35 C 501.06 351.12 498.03 352.66 495.08 352.63 C 480.37 353.22 465.63 353.17 450.93 352.56 C 448.52 352.62 446.06 351.28 445.41 348.86 C 444.37 344.72 445.43 340.45 446.60 336.47 Z" />
<path fill="#020202" opacity="1.00" d=" M 447.23 417.17 C 463.96 414.07 481.05 415.45 497.91 416.44 C 503.60 417.95 504.73 426.10 501.13 430.16 C 499.09 432.53 495.69 432.07 492.91 432.39 C 479.62 433.03 466.29 433.09 453.02 432.22 C 450.82 431.99 448.27 432.18 446.67 430.37 C 443.07 426.79 443.85 420.63 447.23 417.17 Z" />
<path fill="#020202" opacity="1.00" d=" M 455.50 495.72 C 468.63 493.66 481.92 496.85 495.08 495.24 C 501.65 495.52 505.75 504.45 501.61 509.58 C 498.98 512.68 494.56 512.10 490.94 512.46 C 477.62 512.97 464.24 513.09 450.95 512.05 C 444.69 511.74 442.24 502.91 446.26 498.64 C 449.12 497.10 452.32 496.32 455.50 495.72 Z" />
</g>
</svg>
