<?xml version="1.0" encoding="UTF-8" ?>
<!DOCTYPE svg PUBLIC "-//W3C//DTD SVG 1.1//EN" "http://www.w3.org/Graphics/SVG/1.1/DTD/svg11.dtd">
<svg width="304pt" height="531pt" viewBox="0 0 304 531" version="1.1" xmlns="http://www.w3.org/2000/svg">
<g id="#030104ff">
<path fill="#030104" opacity="1.00" d=" M 28.59 13.63 C 38.81 8.86 51.18 9.00 61.28 14.03 C 68.60 17.55 73.78 23.94 79.39 29.57 C 145.55 97.03 211.66 164.56 277.84 232.00 C 282.77 237.19 288.36 242.02 291.48 248.61 C 297.03 259.61 296.84 273.27 291.08 284.16 C 287.59 290.94 281.65 295.93 276.47 301.39 C 209.59 369.60 142.73 437.83 75.86 506.07 C 71.85 510.35 67.64 514.60 62.39 517.36 C 50.81 523.75 35.91 523.21 24.67 516.30 C 9.66 507.42 2.66 487.58 8.40 471.17 C 10.45 464.70 14.53 459.08 19.37 454.40 C 76.89 391.56 134.75 329.02 192.18 266.12 C 191.19 264.05 189.21 262.68 187.77 260.94 C 133.80 202.21 79.84 143.48 25.86 84.76 C 21.28 79.18 15.48 74.57 11.80 68.28 C 5.54 57.88 4.73 44.46 9.55 33.34 C 13.10 24.68 20.06 17.49 28.59 13.63 Z" />
</g>
</svg>
