<?xml version="1.0" encoding="UTF-8" ?>
<!DOCTYPE svg PUBLIC "-//W3C//DTD SVG 1.1//EN" "http://www.w3.org/Graphics/SVG/1.1/DTD/svg11.dtd">
<svg width="397pt" height="207pt" viewBox="0 0 397 207" version="1.1" xmlns="http://www.w3.org/2000/svg">
<g id="#010101ff">
<path fill="#010101" opacity="1.00" d=" M 90.56 11.11 C 153.37 10.76 216.20 11.10 279.01 10.94 C 287.27 10.73 294.83 17.71 295.11 26.02 C 293.78 33.24 292.77 40.59 293.01 47.97 C 304.68 48.00 316.34 47.99 328.01 47.97 C 330.53 48.03 333.16 47.63 335.58 48.58 C 341.66 49.88 347.64 52.46 351.98 57.04 C 359.89 65.45 367.29 74.31 375.25 82.69 C 379.68 88.62 386.29 93.18 388.42 100.59 C 390.64 105.14 390.33 110.25 390.16 115.15 C 389.02 126.08 387.36 136.98 386.98 147.99 C 385.65 152.76 386.27 158.11 383.39 162.38 C 381.97 165.30 379.08 166.90 376.63 168.83 C 370.01 172.23 362.40 169.39 355.43 171.11 C 352.30 183.47 340.87 192.93 328.58 195.37 C 313.62 198.92 296.45 186.42 295.72 170.91 C 294.17 170.69 292.61 170.51 291.05 170.52 C 247.68 170.61 204.31 170.47 160.94 170.58 C 158.45 170.62 158.24 173.67 157.39 175.41 C 153.41 184.25 145.40 190.76 136.49 194.24 C 131.96 195.40 127.05 197.11 122.43 195.40 C 110.30 193.80 99.69 183.19 98.78 170.89 C 91.28 170.08 83.69 170.81 76.16 170.52 C 67.83 169.92 61.16 161.01 63.35 152.86 C 64.11 149.12 63.70 145.28 64.14 141.51 C 65.70 137.89 64.49 133.70 65.76 129.93 C 65.67 125.66 66.70 121.53 66.89 117.30 C 48.26 117.22 29.63 117.24 11.00 117.29 C 9.24 117.44 7.65 116.66 6.18 115.79 C 5.51 114.77 4.80 113.78 4.08 112.80 C 4.05 112.13 3.98 110.81 3.95 110.14 C 5.84 108.20 7.96 105.89 10.91 106.00 C 42.64 105.96 74.37 105.95 106.09 106.00 C 109.63 105.87 113.17 109.59 111.76 113.14 C 110.87 116.39 107.07 117.60 104.04 117.29 C 95.34 117.31 86.63 117.07 77.94 117.42 C 78.28 120.67 76.84 123.77 77.11 127.04 C 77.27 130.73 75.71 134.24 76.04 137.95 C 75.50 144.79 73.70 151.57 74.15 158.48 C 75.39 159.04 76.58 159.91 78.02 159.84 C 84.79 159.97 91.58 159.72 98.35 159.95 C 99.15 159.10 100.39 158.51 100.58 157.24 C 104.66 146.24 114.36 137.23 126.05 135.06 C 132.16 134.04 138.91 134.30 144.46 137.29 C 152.32 140.75 158.07 148.52 159.81 156.87 C 159.95 158.45 161.07 160.30 162.94 159.88 C 197.70 159.83 232.46 159.88 267.23 159.85 C 268.10 159.44 268.97 159.03 269.85 158.63 C 269.95 152.03 270.95 145.48 271.83 138.96 C 271.91 135.90 271.75 132.80 272.69 129.84 C 273.94 116.87 275.25 103.96 276.79 91.01 C 276.41 86.91 278.08 83.06 277.97 78.99 C 278.77 71.00 279.89 63.04 280.19 55.01 C 282.17 48.52 281.10 41.64 282.83 35.12 C 283.01 32.06 282.78 28.95 283.66 25.96 C 284.35 23.87 281.91 21.90 279.94 22.16 C 217.63 22.15 155.31 22.16 92.99 22.16 C 91.19 21.91 89.38 22.82 88.55 24.44 C 87.25 27.76 86.89 31.33 87.11 34.86 C 105.08 35.02 123.07 34.88 141.04 34.93 C 143.12 34.92 145.39 35.35 146.85 36.94 C 148.83 38.75 148.91 42.32 146.76 44.03 C 145.07 45.94 142.38 46.14 140.00 46.09 C 109.98 46.00 79.97 46.14 49.96 46.02 C 45.68 46.34 43.00 42.07 43.89 38.18 C 45.05 37.14 46.19 36.08 47.31 35.00 C 56.41 34.74 65.53 35.15 74.62 34.82 C 74.90 34.52 75.47 33.91 75.75 33.61 C 76.37 28.77 76.16 23.42 79.17 19.28 C 81.11 16.26 84.12 14.22 87.03 12.24 C 88.23 11.96 89.41 11.58 90.56 11.11 M 291.49 59.91 C 290.95 68.33 289.54 76.64 288.87 85.04 C 287.06 98.35 286.42 111.79 284.53 125.08 C 283.93 133.04 282.62 140.94 282.18 148.91 C 282.12 152.32 280.43 155.88 281.72 159.19 C 286.25 159.80 290.84 159.19 295.39 159.57 C 297.50 156.16 298.49 152.16 300.97 148.96 C 308.72 137.67 323.68 131.23 337.07 135.15 C 346.46 137.57 354.16 145.45 356.43 154.86 C 356.99 156.29 356.85 158.12 357.99 159.26 C 361.66 159.63 365.37 159.51 369.05 159.35 C 371.47 159.34 373.05 157.38 374.49 155.71 C 375.58 142.09 377.32 128.53 378.51 114.93 C 379.50 109.28 378.50 102.86 374.41 98.60 C 366.98 90.60 359.97 82.23 352.46 74.30 C 349.03 70.51 345.93 66.37 342.01 63.07 C 338.89 60.61 334.88 59.66 330.97 59.82 C 317.81 59.88 304.65 59.72 291.49 59.91 M 128.30 146.15 C 117.80 148.00 109.05 158.22 110.03 169.05 C 110.08 176.97 117.18 183.84 124.95 184.36 C 137.32 185.63 149.34 174.42 148.92 161.99 C 148.97 156.32 145.74 150.74 140.86 147.89 C 136.90 146.40 132.52 144.62 128.30 146.15 M 326.14 145.86 C 315.47 147.22 306.49 157.14 306.53 167.94 C 306.37 175.99 312.98 183.60 321.04 184.30 C 325.65 184.86 330.46 183.92 334.38 181.36 C 343.58 176.41 348.96 163.69 343.65 154.15 C 340.42 147.94 332.85 144.86 326.14 145.86 Z" />
<path fill="#010101" opacity="1.00" d=" M 19.94 62.13 C 21.50 60.93 22.75 58.74 24.96 58.87 C 58.32 58.87 91.69 58.86 125.05 58.87 C 127.46 58.83 129.36 60.93 130.27 62.97 C 130.92 67.08 127.05 70.45 123.07 69.95 C 92.05 70.08 61.03 69.94 30.00 70.02 C 27.39 70.05 24.81 69.52 22.28 68.92 C 21.57 67.84 20.82 66.79 20.05 65.76 C 20.01 64.55 19.97 63.34 19.94 62.13 Z" />
<path fill="#010101" opacity="1.00" d=" M 302.31 73.40 C 302.97 72.81 303.64 72.22 304.30 71.63 C 311.51 71.58 318.73 71.61 325.94 71.57 C 330.77 71.36 335.96 73.10 339.07 76.94 C 347.29 86.16 355.59 95.31 363.85 104.49 C 363.06 105.22 362.09 105.70 360.99 105.54 C 341.65 105.45 322.30 105.51 302.96 105.51 C 301.77 105.21 299.46 105.96 299.30 104.17 C 298.66 99.08 300.18 94.04 300.44 88.97 C 300.58 83.73 301.76 78.60 302.31 73.40 Z" />
<path fill="#010101" opacity="1.00" d=" M 31.84 86.96 C 33.08 83.80 36.56 81.74 39.94 81.98 C 76.30 82.01 112.66 82.01 149.02 81.98 C 152.34 81.72 155.63 83.78 157.07 86.73 C 157.97 89.80 155.19 91.68 153.26 93.44 C 114.07 93.33 74.88 93.33 35.69 93.44 C 33.69 91.88 31.17 89.85 31.84 86.96 Z" />
</g>
</svg>
