<?xml version="1.0" encoding="UTF-8" ?>
<!DOCTYPE svg PUBLIC "-//W3C//DTD SVG 1.1//EN" "http://www.w3.org/Graphics/SVG/1.1/DTD/svg11.dtd">
<svg width="991pt" height="691pt" viewBox="0 0 991 691" version="1.1" xmlns="http://www.w3.org/2000/svg">
<g id="#060707ff">
<path fill="#060707" opacity="1.00" d=" M 634.29 28.54 C 632.64 22.31 635.75 13.80 642.95 13.14 C 654.19 13.75 665.03 17.08 676.11 18.83 C 682.02 20.05 689.66 19.97 692.98 26.01 C 696.14 30.96 693.22 37.03 689.54 40.78 C 695.92 42.70 702.50 44.25 708.42 47.41 C 709.90 46.95 710.86 47.51 711.30 49.10 C 711.61 48.88 712.23 48.46 712.53 48.25 C 766.25 68.38 815.50 100.29 855.89 141.02 C 867.00 152.03 877.60 163.65 886.52 176.54 C 896.04 186.27 903.28 197.88 910.82 209.14 C 945.06 262.05 967.47 322.73 974.82 385.37 C 973.78 385.41 972.86 385.70 972.05 386.24 C 972.78 386.29 974.25 386.40 974.98 386.46 C 980.90 439.47 976.10 493.85 959.47 544.61 C 958.32 548.26 954.74 550.84 950.99 551.13 C 899.74 550.01 848.21 547.36 797.95 536.65 C 755.10 569.89 712.26 603.16 669.42 636.41 C 658.57 644.61 648.32 653.76 636.24 660.17 C 619.09 669.59 599.61 674.73 580.04 674.95 C 567.72 675.12 555.51 673.29 543.26 672.23 C 543.26 672.11 543.26 671.87 543.26 671.74 C 544.17 669.76 544.82 667.69 545.26 665.57 C 558.10 667.14 571.02 668.87 583.99 668.22 C 604.15 667.27 623.82 660.50 640.90 649.89 C 690.52 611.84 739.54 573.01 788.95 534.69 C 768.61 530.28 748.33 525.64 728.01 521.15 C 718.12 518.96 709.15 514.08 699.95 510.04 C 700.96 508.07 701.87 506.05 702.65 503.98 C 734.84 443.77 758.03 378.56 769.16 311.13 C 771.03 301.80 771.25 292.13 774.11 283.00 C 773.71 277.70 774.15 272.39 774.75 267.12 C 777.06 242.48 777.39 217.69 776.41 192.98 C 774.44 148.50 760.14 104.61 735.42 67.57 C 734.59 66.41 733.95 65.02 732.64 64.32 C 725.17 59.46 716.37 57.42 708.31 53.78 C 673.48 41.42 636.94 33.76 600.03 31.61 C 597.55 31.52 595.01 31.70 592.71 32.66 C 553.20 49.56 516.64 73.12 484.44 101.52 C 444.66 136.38 412.19 178.95 386.16 224.86 C 381.68 226.46 378.02 229.82 373.34 230.91 C 409.18 164.92 459.20 105.74 521.96 63.94 C 539.87 52.09 559.02 42.22 578.68 33.62 C 580.50 32.72 582.55 32.22 584.22 31.01 C 527.74 30.29 471.03 40.17 418.38 60.72 C 382.78 74.65 349.12 93.67 319.22 117.53 C 317.70 116.30 316.22 115.03 314.78 113.71 L 314.06 112.92 C 364.74 72.54 425.72 45.84 489.12 33.18 C 527.53 25.55 566.98 22.32 606.06 25.65 C 609.89 26.05 613.81 26.08 617.48 27.40 C 617.85 27.19 618.58 26.76 618.95 26.55 C 624.07 27.12 629.18 27.81 634.29 28.54 M 740.81 67.56 C 741.87 69.65 743.21 71.59 744.37 73.64 C 763.36 105.50 775.76 141.21 780.77 177.96 C 784.66 206.10 784.67 234.62 783.33 262.95 C 779.98 349.32 758.15 434.24 724.73 513.71 C 748.86 518.99 772.92 524.59 797.09 529.67 C 847.27 540.75 898.82 543.25 950.04 544.52 C 953.07 544.40 953.82 540.79 954.57 538.46 C 968.11 494.63 973.16 448.23 969.78 402.50 C 965.18 340.46 945.46 279.76 913.65 226.36 C 873.28 158.06 812.79 101.30 740.81 67.56 Z" />
</g>
<g id="#464646ff">
<path fill="#464646" opacity="1.00" d=" M 304.47 121.06 C 307.51 118.30 310.75 115.76 313.86 113.07 L 314.78 113.71 C 316.22 115.03 317.70 116.30 319.22 117.53 C 315.23 120.98 311.17 124.35 307.07 127.68 C 306.16 125.49 305.31 123.28 304.47 121.06 Z" />
</g>
<g id="#090909ff">
<path fill="#090909" opacity="1.00" d=" M 253.29 177.38 C 267.96 156.61 285.26 137.71 304.47 121.06 C 305.31 123.28 306.16 125.49 307.07 127.68 C 279.02 151.96 255.98 181.76 238.27 214.30 C 220.20 249.69 211.58 288.76 201.89 327.01 C 193.26 361.09 183.46 395.46 165.38 425.90 C 211.81 395.23 264.42 372.14 320.15 366.25 C 321.07 365.28 320.94 363.78 321.40 362.60 C 332.43 320.36 347.90 279.25 368.12 240.55 C 370.35 240.24 372.62 240.67 374.86 240.84 C 375.28 241.52 376.11 242.87 376.52 243.55 C 356.96 282.20 342.31 323.26 331.98 365.31 C 369.45 362.84 406.66 371.10 442.03 382.85 C 480.61 395.39 517.70 412.06 554.04 430.01 C 572.44 438.92 590.84 447.91 608.43 458.38 C 610.90 459.19 613.38 460.04 615.72 461.20 C 644.43 476.00 673.17 490.78 702.65 503.98 C 701.87 506.05 700.96 508.07 699.95 510.04 C 664.73 494.32 630.57 476.38 596.33 458.67 C 535.07 427.47 473.01 396.09 405.93 379.40 C 385.73 374.12 364.87 371.29 343.98 371.61 C 306.89 372.01 270.21 380.85 236.13 395.21 C 211.36 406.00 187.19 418.48 165.16 434.19 C 161.79 436.48 158.77 439.27 155.18 441.24 C 143.26 448.31 132.91 457.60 122.11 466.20 C 92.12 491.59 62.92 518.72 40.74 551.42 C 74.00 525.84 113.58 508.45 155.07 501.95 C 181.35 497.65 208.42 499.50 234.23 505.75 C 271.64 514.75 306.33 532.60 338.03 554.08 C 353.99 564.86 369.29 576.58 384.08 588.91 C 397.58 600.60 411.57 611.79 426.57 621.50 C 462.37 644.49 503.18 659.47 545.26 665.57 C 544.82 667.69 544.17 669.76 543.26 671.74 C 502.50 666.06 463.02 651.75 428.00 630.14 C 412.13 620.81 397.84 609.09 383.74 597.33 C 353.05 571.40 320.14 547.63 283.75 530.34 C 261.07 519.62 236.95 511.66 212.06 508.19 C 169.92 501.82 126.70 511.44 88.60 529.63 C 63.54 541.60 39.98 557.69 22.10 579.13 C 20.55 580.79 18.56 582.03 16.34 582.55 C 17.62 576.46 20.67 570.96 23.79 565.65 C 42.24 533.70 67.34 506.12 94.53 481.39 C 109.20 468.05 124.57 455.50 140.14 443.23 C 145.24 439.36 150.70 435.75 154.65 430.61 C 172.04 404.00 182.65 373.67 190.83 343.14 C 202.03 301.85 209.76 259.17 228.31 220.29 C 235.64 205.44 243.69 190.90 253.29 177.38 Z" />
</g>
<g id="#202020ff">
<path fill="#202020" opacity="1.00" d=" M 373.34 230.91 C 378.02 229.82 381.68 226.46 386.16 224.86 C 383.15 231.19 379.77 237.34 376.52 243.55 C 376.11 242.87 375.28 241.52 374.86 240.84 C 372.71 240.35 370.48 240.44 368.30 240.30 C 369.81 237.09 371.57 233.99 373.34 230.91 Z" />
</g>
</svg>
