<?xml version="1.0" encoding="UTF-8" ?>
<!DOCTYPE svg PUBLIC "-//W3C//DTD SVG 1.1//EN" "http://www.w3.org/Graphics/SVG/1.1/DTD/svg11.dtd">
<svg width="796pt" height="724pt" viewBox="0 0 796 724" version="1.1" xmlns="http://www.w3.org/2000/svg">
<g id="#000000ff">
<path fill="#000000" opacity="1.00" d=" M 355.11 26.11 C 366.34 16.15 380.75 8.84 396.03 8.91 C 409.95 7.97 423.68 13.05 434.76 21.26 C 458.67 40.09 482.88 58.55 506.89 77.24 C 507.82 74.93 507.90 72.42 508.25 69.98 C 511.93 50.62 530.19 35.26 550.00 35.51 C 568.98 35.45 587.97 35.51 606.96 35.46 C 613.69 35.26 620.51 36.42 626.57 39.43 C 641.20 45.74 651.23 61.07 651.69 76.92 C 651.85 114.28 651.52 151.64 651.85 189.00 C 688.77 217.39 725.57 245.94 761.99 274.96 C 767.81 279.76 774.37 283.96 778.71 290.28 C 784.82 300.05 786.18 311.75 787.76 322.93 C 788.32 331.12 788.34 339.59 785.70 347.47 C 783.41 356.87 777.48 365.05 770.17 371.24 C 765.69 375.20 760.11 377.53 754.74 380.00 C 754.43 379.88 753.80 379.65 753.49 379.54 C 752.16 380.64 750.65 381.54 748.94 381.89 C 734.48 385.66 718.93 387.97 704.34 383.53 C 699.79 382.25 696.11 379.20 692.15 376.78 C 692.09 468.87 692.28 560.96 692.05 653.04 C 693.19 674.50 681.35 695.98 662.80 706.76 C 651.83 713.53 638.72 715.99 625.96 715.22 C 571.65 715.19 517.33 715.29 463.02 715.17 C 448.78 715.46 436.33 702.08 436.92 688.01 C 436.71 684.60 438.06 681.36 438.02 677.97 C 437.92 605.73 438.11 533.49 437.93 461.24 C 415.97 460.68 393.98 461.16 372.00 461.00 C 366.02 461.05 360.04 460.83 354.07 461.26 C 354.00 533.52 354.06 605.77 354.04 678.03 C 354.42 682.98 355.40 687.91 354.86 692.92 C 352.58 705.01 341.56 715.34 328.97 715.21 C 273.32 715.23 217.67 715.23 162.02 715.21 C 154.19 715.32 146.36 713.79 139.14 710.76 C 117.34 702.06 101.81 679.57 101.87 656.02 C 101.79 568.68 101.84 481.34 101.87 393.99 C 102.09 389.13 100.71 384.40 100.34 379.58 C 88.78 386.37 74.91 385.87 62.00 385.05 C 48.09 384.03 33.69 379.57 23.73 369.39 C 11.21 357.27 7.24 338.86 8.06 321.99 C 9.20 312.98 10.05 303.59 14.46 295.46 C 17.94 288.61 23.73 283.34 29.55 278.49 C 100.79 221.91 173.17 166.80 245.17 111.21 C 281.88 82.93 318.42 54.44 355.11 26.11 M 385.26 38.24 C 378.01 41.08 372.75 47.00 366.48 51.35 C 345.22 67.78 324.06 84.34 302.77 100.72 C 299.58 102.82 296.40 104.96 293.70 107.67 C 283.04 116.04 272.19 124.18 261.63 132.68 C 258.45 135.63 254.48 137.50 251.15 140.24 C 248.78 142.92 245.51 144.47 242.78 146.72 C 237.94 151.71 231.60 154.87 226.53 159.57 C 220.60 162.81 216.11 168.00 210.38 171.53 C 203.92 177.47 196.28 181.92 189.76 187.83 C 141.09 225.43 92.35 262.94 44.21 301.21 C 40.22 304.42 37.01 308.97 36.35 314.15 C 35.40 320.42 34.13 326.80 35.40 333.13 C 36.19 341.78 40.50 351.10 49.07 354.38 C 48.71 354.82 47.97 355.70 47.61 356.14 C 48.82 355.60 50.08 354.72 51.38 355.59 C 60.17 358.98 69.76 358.60 79.01 358.32 C 84.87 358.36 89.52 354.29 93.53 350.51 C 190.57 275.65 287.11 200.14 384.04 125.13 C 391.96 119.00 403.84 119.07 411.83 125.06 C 487.08 183.54 562.47 241.85 637.69 300.38 C 661.23 318.44 684.38 337.01 708.12 354.82 C 710.53 356.99 713.53 358.49 716.82 358.63 C 727.30 359.44 737.97 357.62 747.72 353.75 C 756.89 349.99 761.60 339.54 761.22 330.05 C 761.01 322.75 759.67 315.45 757.50 308.49 C 755.82 302.61 749.91 299.92 745.58 296.27 C 705.51 264.54 665.11 233.21 624.68 201.93 C 624.76 160.94 624.76 119.94 624.65 78.95 C 625.11 70.70 618.38 62.82 610.04 62.47 C 590.02 62.39 569.99 62.43 549.97 62.46 C 541.36 62.35 533.90 70.45 534.45 79.00 C 534.54 96.81 534.43 114.62 534.50 132.43 C 530.88 130.21 527.73 127.34 524.31 124.85 C 489.61 97.79 454.61 71.10 420.02 43.88 C 410.59 35.89 396.70 33.11 385.26 38.24 M 380.20 169.36 C 373.74 173.47 367.81 178.36 361.57 182.79 C 356.21 186.78 350.95 190.89 345.57 194.85 C 343.15 196.31 340.99 198.12 338.91 200.01 C 323.55 211.02 308.70 222.64 293.48 233.83 C 259.13 259.46 224.92 285.32 190.47 310.81 C 186.48 313.78 182.73 317.09 178.57 319.82 C 165.45 329.64 152.41 339.54 139.25 349.31 C 134.38 352.91 131.10 358.27 128.78 363.77 C 126.50 370.95 126.82 378.78 128.59 386.01 C 128.64 476.01 128.57 566.01 128.64 656.01 C 128.63 673.40 144.57 689.03 161.98 688.42 C 217.33 688.47 272.67 688.50 328.02 688.41 C 327.70 686.30 327.37 684.19 327.36 682.06 C 327.38 606.05 327.34 530.03 327.37 454.03 C 327.41 443.30 337.44 434.10 348.05 434.37 C 380.37 434.42 412.68 434.36 444.99 434.40 C 455.25 434.54 464.46 443.69 464.63 453.95 C 464.63 527.29 464.68 600.62 464.61 673.96 C 464.70 678.78 464.83 683.64 463.93 688.41 C 520.28 688.50 576.64 688.46 632.99 688.43 C 650.12 688.51 665.41 673.05 665.40 655.96 C 665.47 562.63 665.41 469.30 665.43 375.97 C 665.46 369.94 664.25 363.80 661.15 358.57 C 657.12 351.39 650.06 346.74 643.46 342.17 C 626.26 329.00 608.81 316.20 591.51 303.19 C 580.78 295.25 570.24 287.04 559.42 279.25 C 555.70 275.89 551.38 273.32 547.51 270.16 C 508.82 241.20 470.08 212.30 431.47 183.24 C 426.96 179.53 421.91 176.54 417.44 172.77 C 416.04 171.92 414.77 170.88 413.55 169.79 C 403.41 164.34 390.35 163.41 380.20 169.36 Z" />
</g>
</svg>
