<?xml version="1.0" encoding="UTF-8" ?>
<!DOCTYPE svg PUBLIC "-//W3C//DTD SVG 1.1//EN" "http://www.w3.org/Graphics/SVG/1.1/DTD/svg11.dtd">
<svg width="960pt" height="969pt" viewBox="0 0 960 969" version="1.1" xmlns="http://www.w3.org/2000/svg">
<g id="#000000ff">
<path fill="#000000" opacity="1.00" d=" M 473.30 40.34 C 534.89 38.56 596.80 49.80 653.83 73.15 C 710.97 96.36 762.94 131.89 806.01 175.99 C 811.87 182.77 818.31 189.02 824.01 195.95 C 865.67 244.19 896.72 301.59 914.34 362.86 C 929.58 415.25 934.70 470.41 930.22 524.76 C 926.02 575.52 912.88 625.54 891.76 671.90 C 871.43 716.40 843.78 757.57 810.16 793.12 C 744.73 862.96 656.21 910.81 561.84 926.94 C 512.10 935.55 460.86 935.72 411.06 927.42 C 349.62 917.30 290.52 893.74 238.58 859.47 C 179.07 819.91 129.04 766.12 94.38 703.60 C 65.26 651.45 46.93 593.31 40.71 533.91 C 34.20 471.01 40.77 406.71 60.75 346.66 C 81.94 282.28 118.27 223.00 165.63 174.55 C 219.25 119.69 287.15 78.81 360.92 57.62 C 397.44 47.06 435.30 41.17 473.30 40.34 M 354.27 199.40 C 318.90 200.86 284.01 214.03 256.84 236.79 C 239.63 251.20 225.01 268.91 215.05 289.08 C 204.07 310.46 198.29 334.35 197.48 358.34 C 197.34 437.89 197.46 517.45 197.42 597.01 C 197.50 607.05 197.06 617.13 198.34 627.12 C 201.81 662.95 217.47 697.59 242.55 723.48 C 269.40 751.99 306.86 770.29 345.91 773.61 C 355.23 774.63 364.62 774.39 373.99 774.42 C 448.64 774.42 523.30 774.42 597.95 774.42 C 613.00 774.54 628.18 774.13 642.92 770.86 C 674.58 764.16 704.24 747.88 726.57 724.42 C 749.87 700.68 765.42 669.50 770.56 636.65 C 773.36 619.91 772.58 602.89 772.68 585.99 C 772.67 512.67 772.69 439.35 772.67 366.03 C 772.72 348.40 770.46 330.72 765.09 313.91 C 755.41 282.52 735.89 254.25 709.91 234.16 C 684.35 213.93 652.53 201.60 619.96 199.75 C 608.67 198.84 597.33 199.35 586.02 199.22 C 508.77 199.34 431.52 198.98 354.27 199.40 Z" />
<path fill="#000000" opacity="1.00" d=" M 354.41 247.51 C 430.60 247.07 506.82 247.45 583.02 247.32 C 593.30 247.38 603.59 247.20 613.87 247.40 C 645.64 248.40 676.54 263.65 696.92 287.98 C 714.82 308.52 724.85 335.72 724.59 362.96 C 724.64 444.31 724.65 525.65 724.58 607.00 C 724.90 621.97 722.89 637.14 717.35 651.13 C 701.52 695.42 656.10 727.32 608.94 726.30 C 526.64 726.34 444.33 726.33 362.03 726.30 C 333.77 726.99 305.65 716.05 284.51 697.45 C 265.18 680.31 251.60 656.60 247.25 631.08 C 244.89 619.20 245.51 607.03 245.44 594.99 C 245.44 520.98 245.44 446.98 245.44 372.97 C 245.45 362.28 245.21 351.45 247.53 340.95 C 254.47 303.07 281.97 269.98 317.62 255.65 C 329.40 251.18 341.77 247.99 354.41 247.51 M 631.52 296.76 C 620.24 299.11 610.69 307.65 606.53 318.31 C 602.98 327.67 603.54 338.66 608.47 347.43 C 615.45 360.54 631.58 368.34 646.14 364.73 C 657.25 362.65 666.79 354.49 671.17 344.16 C 674.48 335.78 674.84 326.09 671.23 317.74 C 667.67 308.34 659.52 301.03 650.08 297.81 C 644.16 295.67 637.66 295.77 631.52 296.76 M 467.51 340.82 C 445.20 343.62 423.39 351.20 404.68 363.74 C 374.30 383.54 351.58 414.92 342.66 450.11 C 336.62 472.90 336.70 497.11 341.71 520.08 C 349.97 554.99 371.15 586.93 400.83 607.24 C 427.09 625.99 459.90 635.27 492.08 633.64 C 520.33 632.39 548.14 622.67 571.02 606.04 C 597.75 586.72 617.95 558.26 626.67 526.39 C 637.58 487.47 631.71 444.07 610.28 409.74 C 600.76 394.42 588.36 380.95 574.12 369.90 C 544.20 346.75 505.02 336.30 467.51 340.82 Z" />
<path fill="#000000" opacity="1.00" d=" M 472.51 388.80 C 491.64 386.46 511.48 389.61 528.72 398.30 C 542.36 405.18 554.60 415.05 563.72 427.34 C 575.23 442.11 581.91 460.40 583.60 478.98 C 585.06 498.40 580.78 518.24 571.12 535.17 C 562.65 550.05 550.37 562.84 535.60 571.55 C 515.04 584.26 489.55 588.40 465.90 583.74 C 434.69 577.69 407.23 555.53 394.57 526.40 C 387.46 510.53 385.00 492.74 386.85 475.50 C 389.32 455.33 397.85 435.76 411.71 420.81 C 427.28 403.30 449.33 391.89 472.51 388.80 Z" />
</g>
</svg>
