<?xml version="1.0" encoding="UTF-8" ?>
<!DOCTYPE svg PUBLIC "-//W3C//DTD SVG 1.1//EN" "http://www.w3.org/Graphics/SVG/1.1/DTD/svg11.dtd">
<svg width="1054pt" height="1306pt" viewBox="0 0 1054 1306" version="1.1" xmlns="http://www.w3.org/2000/svg">
<g id="#000000ff">
<path fill="#000000" opacity="1.00" d=" M 275.57 13.46 C 280.34 10.95 285.89 11.98 291.06 11.80 C 482.70 11.77 674.35 11.86 865.98 11.79 C 883.31 11.23 900.91 16.67 914.47 27.56 C 933.15 41.83 943.72 65.62 942.89 89.00 C 942.86 337.35 942.89 585.71 942.87 834.06 C 943.24 843.22 933.68 850.36 924.93 848.87 C 917.60 848.26 911.40 841.36 911.37 834.03 C 911.38 586.02 911.38 338.02 911.37 90.01 C 911.69 78.44 908.12 66.48 900.15 57.90 C 891.83 48.09 878.79 42.94 866.04 43.42 C 676.47 43.33 486.91 43.44 297.35 43.35 C 297.55 84.89 297.36 126.43 297.44 167.97 C 297.62 185.33 291.96 202.77 281.35 216.54 C 268.33 233.46 247.40 244.03 226.03 244.18 C 183.40 244.24 140.76 244.15 98.13 244.22 C 98.30 555.13 98.15 866.05 98.20 1176.97 C 98.25 1185.67 97.67 1194.71 100.89 1202.99 C 106.83 1219.61 123.33 1231.77 140.97 1232.44 C 153.97 1232.77 166.98 1232.94 179.99 1232.58 C 202.66 1232.99 225.33 1232.46 248.01 1232.61 C 412.02 1232.62 576.02 1232.61 740.03 1232.61 C 752.70 1232.50 765.36 1233.08 778.02 1232.60 C 805.32 1232.94 832.62 1232.45 859.93 1232.61 C 867.90 1232.61 876.15 1232.80 883.65 1229.66 C 895.72 1224.94 905.48 1214.50 909.17 1202.05 C 910.93 1196.53 911.52 1190.73 911.37 1184.97 C 911.36 1165.33 911.39 1145.69 911.36 1126.05 C 911.37 1122.45 911.02 1118.69 912.52 1115.32 C 914.76 1109.48 920.77 1105.20 927.07 1105.33 C 933.36 1105.16 939.22 1109.51 941.77 1115.13 C 943.30 1118.19 942.83 1121.70 942.90 1125.02 C 942.85 1144.68 942.89 1164.34 942.88 1184.01 C 943.29 1194.05 942.16 1204.20 938.89 1213.74 C 930.73 1238.92 908.02 1258.82 881.81 1262.97 C 873.64 1264.72 865.26 1264.10 856.98 1264.20 C 618.65 1264.20 380.32 1264.21 141.99 1264.19 C 121.15 1264.10 100.43 1255.04 86.48 1239.53 C 74.03 1226.23 66.90 1208.19 66.61 1190.00 C 66.61 869.98 66.62 549.96 66.60 229.95 C 66.59 226.86 67.32 223.70 69.19 221.20 C 71.74 217.43 75.96 215.34 78.91 211.94 C 105.63 184.63 132.47 157.43 159.40 130.33 C 195.12 93.76 231.30 57.64 267.00 21.05 C 269.55 18.22 271.92 14.97 275.57 13.46 M 257.87 75.84 C 212.97 121.55 167.49 166.70 122.78 212.59 C 156.18 212.53 189.58 212.58 222.97 212.55 C 230.62 212.71 238.42 210.98 244.95 206.91 C 254.50 201.34 261.28 191.66 264.08 181.05 C 265.98 174.22 265.76 167.06 265.80 160.04 C 265.77 129.55 265.83 99.05 265.80 68.56 C 262.63 70.37 260.61 73.52 257.87 75.84 Z" />
<path fill="#000000" opacity="1.00" d=" M 362.42 251.47 C 363.03 251.39 364.27 251.22 364.89 251.13 C 503.28 251.10 641.67 251.15 780.06 251.11 C 785.88 251.03 791.45 254.86 793.81 260.13 C 796.87 267.02 794.70 276.19 787.99 280.09 C 783.00 283.58 776.71 282.52 771.00 282.63 C 687.00 282.64 603.00 282.63 519.00 282.64 C 497.70 282.25 476.38 282.17 455.07 282.64 C 426.06 282.64 397.05 282.61 368.04 282.65 C 364.04 282.88 360.05 281.55 356.80 279.26 C 350.32 274.34 349.03 264.25 353.67 257.66 C 355.68 254.58 359.04 252.69 362.42 251.47 Z" />
<path fill="#000000" opacity="1.00" d=" M 238.25 412.30 C 239.49 411.99 240.75 411.82 242.04 411.80 C 386.68 411.79 531.34 411.81 675.98 411.79 C 680.79 411.76 685.93 413.12 689.15 416.92 C 694.88 423.01 693.82 433.93 686.98 438.76 C 684.30 440.46 681.22 441.77 678.00 441.79 C 535.03 441.79 392.06 441.79 249.08 441.79 C 244.57 441.70 239.80 442.41 235.60 440.32 C 227.73 437.30 224.58 426.83 228.61 419.65 C 230.57 415.94 234.24 413.36 238.25 412.30 Z" />
<path fill="#000000" opacity="1.00" d=" M 535.31 505.07 C 565.96 488.62 601.35 481.42 636.02 483.22 C 693.30 485.66 748.41 515.28 782.77 561.04 C 786.23 566.10 790.57 570.74 792.75 576.54 L 793.23 576.70 C 794.05 579.15 795.74 581.16 796.83 583.50 C 802.59 591.65 806.29 600.99 809.95 610.22 C 812.08 615.41 813.71 620.78 814.77 626.29 C 819.60 639.64 821.18 653.90 822.32 667.98 C 824.19 700.01 818.25 732.55 804.79 761.70 C 797.17 778.44 787.05 793.96 775.21 808.02 C 785.45 818.17 795.62 828.40 805.83 838.58 C 828.01 825.34 858.53 828.84 876.93 847.04 C 905.36 875.26 933.61 903.67 961.96 931.99 C 983.08 952.88 1003.73 974.22 1024.85 995.11 C 1029.70 999.93 1034.52 1004.96 1037.80 1011.03 C 1046.61 1026.67 1047.74 1046.34 1040.78 1062.90 C 1034.37 1078.38 1021.13 1091.01 1005.14 1096.21 C 984.69 1103.40 960.57 1098.14 945.04 1083.00 C 897.01 1035.00 849.02 986.97 800.99 938.98 C 795.41 933.28 789.27 927.91 785.28 920.90 C 783.77 917.77 782.41 914.59 780.71 911.57 C 774.31 895.53 775.38 876.72 783.69 861.54 C 773.31 851.09 762.83 840.77 752.50 830.28 C 710.79 866.08 653.45 882.54 599.06 874.88 C 566.08 870.38 534.30 857.35 507.72 837.31 C 479.43 816.13 456.98 787.19 443.57 754.48 C 430.25 722.29 425.91 686.49 430.90 652.04 C 439.06 589.99 479.50 533.27 535.31 505.07 M 568.85 524.82 C 568.52 524.77 567.86 524.67 567.54 524.62 C 563.41 527.44 558.44 528.57 554.14 531.07 C 535.08 540.23 517.98 553.25 503.51 568.63 C 502.13 570.07 501.17 572.09 499.12 572.72 C 498.86 573.43 498.61 574.16 498.37 574.90 C 488.21 587.45 479.56 601.32 473.05 616.11 C 471.81 618.97 471.45 622.20 469.68 624.85 C 468.99 627.95 468.19 631.05 466.72 633.90 C 465.84 639.65 464.01 645.21 463.19 650.97 C 456.79 686.62 462.53 724.40 479.59 756.39 C 480.45 757.92 481.17 759.54 481.73 761.22 C 483.67 763.04 484.68 765.55 486.12 767.74 C 500.83 790.87 521.24 810.41 545.17 823.81 C 571.52 838.82 602.19 846.02 632.47 844.71 C 662.08 843.68 691.29 834.16 716.03 817.90 C 738.75 803.06 757.74 782.53 770.69 758.69 C 785.38 732.08 792.30 701.29 790.59 670.97 C 790.14 659.01 787.70 647.26 785.36 635.57 C 782.79 630.80 782.41 625.23 779.92 620.43 C 777.07 614.56 775.13 608.29 772.38 602.37 L 771.70 602.40 C 770.17 598.09 766.18 594.95 765.23 590.27 C 764.90 589.92 764.23 589.23 763.90 588.88 C 763.03 587.35 762.07 585.86 761.19 584.36 C 758.06 581.88 756.05 578.40 753.51 575.40 C 735.79 553.80 712.65 536.62 686.64 526.35 C 649.36 511.32 606.51 510.79 568.85 524.82 M 825.94 864.02 C 822.50 864.69 820.24 867.61 817.10 868.93 C 815.25 871.67 812.90 874.06 811.16 876.87 C 809.97 880.51 808.14 884.07 808.25 888.00 C 807.62 896.89 811.80 905.73 818.56 911.43 C 866.06 958.93 913.59 1006.39 961.04 1053.94 C 964.93 1057.44 968.13 1061.85 972.91 1064.26 C 983.03 1070.01 996.69 1068.09 1004.99 1059.96 C 1015.09 1050.76 1016.42 1033.92 1007.84 1023.27 C 1003.22 1018.16 998.14 1013.49 993.34 1008.57 C 949.38 964.59 905.40 920.63 861.43 876.65 C 857.57 873.13 854.45 868.73 849.82 866.14 C 842.71 862.00 833.65 860.98 825.94 864.02 Z" />
<path fill="#000000" opacity="1.00" d=" M 529.41 572.22 C 562.29 541.83 610.14 528.93 653.95 537.92 C 691.98 545.36 726.49 568.88 747.40 601.49 C 749.24 604.79 750.91 608.19 752.78 611.49 C 753.69 613.13 754.51 614.83 755.32 616.55 C 759.14 623.75 761.71 631.49 764.40 639.16 C 767.18 644.99 765.52 652.32 760.91 656.73 C 755.65 662.00 746.66 662.61 740.65 658.29 C 737.05 655.99 735.03 652.00 734.08 647.96 C 724.33 614.00 697.51 585.67 664.30 573.75 C 647.96 567.82 630.21 565.48 612.93 567.65 C 571.65 572.02 534.25 601.18 520.03 640.19 C 518.29 646.81 511.89 652.06 504.95 651.86 C 497.76 652.36 490.76 647.08 489.22 640.05 C 487.60 634.56 490.08 629.12 492.17 624.15 C 495.93 615.02 500.71 606.32 506.28 598.17 C 507.70 596.13 509.51 594.42 511.20 592.62 C 513.07 587.68 517.63 584.78 520.53 580.57 C 521.37 579.34 522.77 578.70 523.99 577.92 C 525.11 575.43 527.29 573.81 529.41 572.22 Z" />
<path fill="#000000" opacity="1.00" d=" M 240.50 557.52 C 287.99 557.14 335.52 557.49 383.03 557.35 C 387.51 557.17 392.23 558.25 395.57 561.42 C 402.18 567.25 402.79 578.36 397.08 585.02 C 394.15 588.51 389.64 590.68 385.06 590.63 C 337.70 590.61 290.33 590.63 242.97 590.63 C 234.16 590.93 226.65 582.67 226.91 574.03 C 226.71 566.22 232.67 558.64 240.50 557.52 Z" />
<path fill="#000000" opacity="1.00" d=" M 240.45 709.52 C 286.30 709.23 332.17 709.50 378.03 709.37 C 382.52 709.23 387.31 710.14 390.69 713.33 C 397.28 718.81 397.65 729.85 391.82 736.01 C 389.02 738.88 385.18 741.03 381.07 740.86 C 334.70 740.89 288.33 740.86 241.95 740.89 C 233.27 741.08 225.89 732.52 226.94 723.98 C 227.25 716.76 233.33 710.39 240.45 709.52 Z" />
<path fill="#000000" opacity="1.00" d=" M 241.09 857.10 C 244.04 856.66 247.02 856.60 249.99 856.58 C 319.00 856.56 388.02 856.61 457.03 856.56 C 467.75 856.38 476.32 869.09 472.06 878.95 C 470.34 885.20 464.70 890.42 458.16 891.04 C 453.47 891.52 448.75 891.36 444.04 891.40 C 377.03 891.40 310.02 891.36 243.01 891.42 C 236.94 891.63 231.59 887.31 228.88 882.14 C 223.50 872.65 229.72 857.94 241.09 857.10 Z" />
<path fill="#000000" opacity="1.00" d=" M 238.31 1008.43 C 241.46 1007.48 244.79 1007.83 248.04 1007.78 C 376.01 1007.79 503.97 1007.78 631.94 1007.78 C 636.31 1007.91 640.72 1007.43 645.08 1008.04 C 653.82 1009.66 659.79 1019.35 657.91 1027.93 C 656.73 1035.47 649.79 1042.07 641.98 1041.78 C 508.63 1041.74 375.28 1041.79 241.94 1041.77 C 231.95 1041.38 224.92 1030.29 227.31 1020.90 C 228.57 1015.25 232.83 1010.35 238.31 1008.43 Z" />
</g>
</svg>
