<?xml version="1.0" encoding="UTF-8" ?>
<!DOCTYPE svg PUBLIC "-//W3C//DTD SVG 1.1//EN" "http://www.w3.org/Graphics/SVG/1.1/DTD/svg11.dtd">
<svg width="512pt" height="512pt" viewBox="0 0 512 512" version="1.1" xmlns="http://www.w3.org/2000/svg">
<g id="#000000ff">
<path fill="#000000" opacity="1.00" d=" M 446.72 0.00 L 450.46 0.00 C 465.22 0.62 479.77 6.28 490.72 16.25 C 503.61 27.60 511.33 44.34 512.00 61.47 L 512.00 66.31 C 511.35 82.24 506.56 98.17 497.01 111.05 C 488.57 122.95 476.63 131.86 463.89 138.71 C 463.94 181.14 463.89 223.57 463.92 266.00 C 463.96 273.06 462.97 280.29 459.67 286.63 C 455.77 294.65 448.73 300.39 442.66 306.69 C 379.48 369.86 316.33 433.05 253.15 496.22 C 248.94 500.39 244.93 504.92 239.71 507.86 C 235.37 510.37 230.42 511.58 225.46 512.00 L 222.84 512.00 C 218.28 511.57 213.74 510.50 209.68 508.33 C 204.34 505.59 200.25 501.09 196.06 496.91 C 137.06 437.91 78.06 378.91 19.06 319.91 C 14.52 315.16 9.42 310.89 5.59 305.51 C 2.26 300.75 0.53 295.04 0.00 289.29 L 0.00 286.61 C 0.45 280.64 2.20 274.67 5.73 269.78 C 9.61 264.40 14.73 260.11 19.29 255.34 C 81.97 192.67 144.65 129.99 207.34 67.32 C 213.19 61.49 218.90 55.07 226.64 51.72 C 233.28 48.54 240.75 47.99 248.00 48.07 C 294.24 48.10 340.47 48.10 386.70 48.07 C 389.24 39.63 392.83 31.37 398.49 24.52 C 409.89 9.68 428.10 0.78 446.72 0.00 M 426.40 20.44 C 415.17 26.10 406.51 36.27 402.33 48.09 C 412.83 48.19 423.33 47.90 433.82 48.23 C 444.72 48.67 455.09 55.22 460.12 64.91 C 463.52 71.00 464.08 78.14 463.92 84.98 C 463.90 97.11 463.90 109.24 463.92 121.38 C 476.84 113.23 488.00 101.51 493.06 86.88 C 497.97 72.54 498.88 55.97 491.80 42.18 C 485.89 30.16 474.78 20.69 461.84 17.14 C 450.23 13.37 437.20 14.95 426.40 20.44 M 232.57 65.50 C 227.72 67.71 224.14 71.80 220.42 75.49 C 154.08 141.80 87.77 208.14 21.42 274.44 C 18.21 277.47 15.54 281.37 15.17 285.88 C 14.44 291.28 16.82 296.67 20.74 300.33 C 84.59 364.16 148.41 428.04 212.28 491.85 C 218.42 498.49 229.84 498.59 236.06 492.02 C 303.26 424.92 370.37 357.70 437.54 290.56 C 444.09 284.89 449.37 277.01 448.86 267.99 C 448.93 227.07 448.79 186.16 448.93 145.24 C 435.15 149.90 420.83 152.70 406.36 153.98 C 403.15 166.17 393.76 176.55 381.88 180.82 C 371.20 184.84 358.77 183.83 348.88 178.16 C 338.23 172.24 330.60 161.12 329.12 149.01 C 327.91 140.41 329.71 131.44 334.12 123.97 C 340.40 112.99 352.27 105.36 364.93 104.50 C 375.18 103.49 385.68 106.93 393.55 113.54 C 401.15 119.80 405.96 129.00 407.47 138.67 C 421.63 137.38 435.64 134.29 448.87 129.03 C 448.88 113.02 448.87 97.00 448.87 80.99 C 449.66 71.61 441.57 62.79 432.08 63.15 C 369.72 63.09 307.37 63.14 245.01 63.12 C 240.77 63.09 236.43 63.62 232.57 65.50 M 351.70 125.74 C 345.04 131.70 342.17 141.45 344.55 150.07 C 347.13 160.15 356.70 167.94 367.13 168.25 C 376.90 168.85 386.15 162.69 390.48 154.10 C 384.31 153.58 378.10 153.35 372.02 152.10 C 368.73 151.45 364.79 151.36 362.50 148.53 C 359.59 145.24 360.56 139.61 364.34 137.42 C 367.46 135.46 371.26 136.81 374.61 137.26 C 380.43 138.52 386.40 138.67 392.32 139.08 C 390.68 131.50 385.55 124.70 378.42 121.52 C 369.74 117.43 358.69 119.14 351.70 125.74 Z" />
</g>
</svg>
