<?xml version="1.0" encoding="UTF-8" ?>
<!DOCTYPE svg PUBLIC "-//W3C//DTD SVG 1.1//EN" "http://www.w3.org/Graphics/SVG/1.1/DTD/svg11.dtd">
<svg width="512pt" height="512pt" viewBox="0 0 512 512" version="1.1" xmlns="http://www.w3.org/2000/svg">
<g id="#202020ff">
<path fill="#202020" opacity="1.00" d=" M 211.38 73.51 C 216.74 70.45 222.68 67.80 229.00 68.10 C 237.70 68.59 246.35 69.68 255.04 70.34 C 261.04 70.36 266.98 69.24 272.96 68.90 C 280.15 68.23 287.92 67.00 294.62 70.47 C 312.47 79.61 330.56 88.69 350.01 93.95 C 354.41 95.04 359.07 95.64 363.00 98.10 C 369.08 101.59 372.48 107.96 376.75 113.26 C 391.54 133.50 406.11 154.10 417.17 176.67 C 419.89 182.14 422.89 187.47 425.40 193.04 C 426.07 195.24 423.94 196.50 422.34 197.38 C 405.24 206.92 388.20 216.56 371.10 226.10 C 369.40 227.29 367.14 226.71 366.10 224.97 C 359.99 217.13 353.77 209.33 348.40 200.95 C 349.27 269.98 347.71 339.01 348.00 408.03 C 348.14 414.36 347.85 420.71 348.74 427.00 C 349.20 431.52 345.14 434.76 341.41 436.37 C 332.72 440.05 323.21 441.06 313.92 442.10 C 289.68 444.42 265.30 444.07 240.98 444.05 C 221.11 443.68 201.07 443.45 181.48 439.72 C 175.59 438.29 168.91 437.02 164.76 432.20 C 161.57 428.39 164.15 423.32 163.76 418.92 C 164.27 356.94 163.11 294.97 163.19 233.00 C 163.18 222.62 163.61 212.23 163.09 201.86 C 157.46 209.94 151.60 217.87 145.41 225.52 C 144.37 227.02 142.28 227.01 140.88 226.07 C 123.58 216.38 106.30 206.65 89.00 196.98 C 87.11 196.19 85.71 194.05 86.97 192.11 C 91.44 183.24 95.97 174.41 100.54 165.60 C 112.41 144.39 126.59 124.59 141.26 105.25 C 144.66 100.53 149.63 96.89 155.32 95.50 C 175.09 91.36 193.53 82.71 211.38 73.51 M 220.53 75.90 C 220.76 83.20 222.03 90.43 223.65 97.54 C 225.65 105.37 227.72 113.64 233.14 119.88 C 240.41 128.53 247.60 137.24 254.84 145.91 C 263.03 136.11 271.23 126.29 279.41 116.47 C 283.62 111.53 285.14 105.01 286.54 98.84 C 288.11 90.97 288.93 82.89 288.27 74.87 C 282.76 74.03 277.22 74.93 271.74 75.53 C 271.74 79.02 271.94 82.51 271.70 85.99 C 271.72 87.84 269.80 89.02 268.10 88.82 C 260.40 88.94 252.71 88.82 245.01 88.88 C 243.25 88.98 240.93 88.69 240.40 86.65 C 239.96 82.96 240.29 79.22 240.27 75.51 C 233.72 74.80 226.91 73.54 220.53 75.90 M 246.61 76.00 C 246.61 78.16 246.61 80.31 246.61 82.46 C 252.87 82.48 259.13 82.46 265.39 82.47 C 265.38 80.33 265.39 78.19 265.39 76.05 C 259.15 76.90 252.85 76.92 246.61 76.00 M 294.89 77.73 C 295.06 88.28 293.68 98.89 290.49 108.96 C 289.17 113.12 287.23 117.12 284.40 120.47 C 275.47 131.20 266.54 141.93 257.57 152.61 C 256.37 154.45 253.55 154.68 252.28 152.81 C 244.19 143.23 236.24 133.51 228.18 123.90 C 225.32 120.58 223.10 116.74 221.57 112.63 C 217.48 101.96 215.31 90.62 214.26 79.27 C 195.92 88.68 176.96 97.47 156.69 101.76 C 152.10 102.86 148.39 106.09 145.76 109.90 C 128.86 132.40 112.24 155.38 99.94 180.79 C 116.85 189.94 133.72 199.15 150.63 208.28 C 154.36 203.11 158.25 198.01 161.38 192.44 C 162.51 190.80 161.46 188.82 161.14 187.09 C 159.67 181.15 156.44 175.92 153.58 170.59 C 152.20 168.37 154.53 165.39 157.02 166.01 C 159.23 166.67 159.90 169.19 161.07 170.92 C 165.56 178.56 168.59 187.16 169.10 196.05 C 170.18 208.00 169.57 220.00 169.59 231.97 C 169.53 292.28 170.52 352.59 170.27 412.90 C 200.59 420.00 231.84 422.73 262.95 422.38 C 289.41 421.92 315.86 418.90 341.63 412.82 C 341.37 353.22 342.31 293.62 342.30 234.02 C 342.22 209.31 340.59 184.06 346.96 159.94 C 348.56 157.35 353.15 158.94 352.65 161.96 C 351.38 170.99 349.18 179.95 349.03 189.11 C 351.98 196.14 356.99 202.07 361.32 208.28 C 378.22 199.08 395.14 189.91 412.04 180.71 C 399.55 155.13 382.74 131.99 365.75 109.26 C 362.98 105.24 358.70 102.32 353.89 101.39 C 333.06 96.87 313.73 87.43 294.89 77.73 M 93.98 192.47 C 110.06 201.39 126.06 210.45 142.11 219.41 C 143.70 217.44 145.22 215.41 146.66 213.34 C 130.01 204.57 113.61 195.32 96.98 186.50 C 95.97 188.48 94.96 190.47 93.98 192.47 M 365.23 213.42 C 366.77 215.43 368.32 217.45 369.90 219.45 C 385.95 210.49 401.94 201.42 418.01 192.48 C 417.03 190.45 416.01 188.43 414.98 186.43 C 398.38 195.40 381.82 204.44 365.23 213.42 M 262.01 428.79 C 231.20 429.07 200.26 426.37 170.19 419.44 C 170.06 422.32 169.82 425.20 169.38 428.06 C 172.89 431.21 177.63 432.26 182.09 433.30 C 211.41 438.76 241.41 437.35 271.07 437.65 C 289.41 437.32 307.86 437.05 326.01 434.04 C 331.72 432.88 337.92 431.99 342.51 428.07 C 342.07 425.19 341.81 422.28 341.67 419.38 C 315.57 425.42 288.79 428.41 262.01 428.79 Z" />
<path fill="#202020" opacity="1.00" d=" M 182.42 235.60 C 184.21 234.47 186.97 235.72 187.08 237.90 C 187.31 241.60 187.32 245.33 187.07 249.04 C 186.79 252.01 182.21 252.53 181.12 249.81 C 180.51 246.91 180.87 243.91 180.76 240.98 C 180.83 239.12 180.46 236.64 182.42 235.60 Z" />
<path fill="#202020" opacity="1.00" d=" M 182.27 268.48 C 184.56 266.80 187.80 269.25 187.20 271.93 C 187.15 290.63 187.32 309.34 187.11 328.03 C 187.21 331.84 180.77 331.83 180.89 328.02 C 180.66 310.02 180.89 292.01 180.78 274.01 C 180.92 272.13 180.34 269.64 182.27 268.48 Z" />
</g>
</svg>
