<?xml version="1.0" encoding="UTF-8" ?>
<!DOCTYPE svg PUBLIC "-//W3C//DTD SVG 1.1//EN" "http://www.w3.org/Graphics/SVG/1.1/DTD/svg11.dtd">
<svg width="512pt" height="512pt" viewBox="0 0 512 512" version="1.1" xmlns="http://www.w3.org/2000/svg">
<g id="#000000ff">
<path fill="#000000" opacity="1.00" d=" M 234.70 3.76 C 247.68 -1.17 263.01 0.66 274.39 8.64 C 285.62 16.26 292.89 29.40 293.22 42.99 C 293.35 50.00 293.28 57.01 293.25 64.02 C 301.45 64.62 309.79 63.31 317.91 64.82 C 329.06 67.26 337.85 77.61 338.38 89.03 C 338.59 96.03 338.39 103.04 338.48 110.04 C 338.46 113.07 338.68 116.42 336.78 119.00 C 333.12 124.23 324.44 124.46 320.37 119.61 C 318.82 117.81 318.22 115.40 318.24 113.07 C 318.16 105.72 318.28 98.36 318.20 91.01 C 318.43 87.59 315.48 84.36 312.05 84.39 C 305.80 84.25 299.54 84.38 293.29 84.34 C 293.21 91.54 293.43 98.76 293.19 105.96 C 293.07 111.57 287.26 115.47 281.96 114.68 C 277.51 114.39 273.37 110.76 273.14 106.19 C 272.86 98.91 273.16 91.61 272.99 84.33 C 257.53 84.44 242.06 84.13 226.61 84.48 C 226.76 90.66 226.64 96.85 226.69 103.03 C 226.72 105.72 226.58 108.63 224.86 110.85 C 220.97 116.10 211.93 116.04 208.15 110.69 C 206.75 108.81 206.42 106.39 206.44 104.10 C 206.44 97.53 206.41 90.97 206.47 84.40 C 200.31 84.28 194.15 84.31 188.00 84.36 C 184.45 84.20 181.26 87.44 181.52 91.00 C 181.49 139.00 181.49 187.00 181.52 234.99 C 181.25 238.51 184.37 241.82 187.91 241.65 C 228.96 241.69 270.00 241.65 311.05 241.67 C 314.82 242.15 318.48 238.86 318.20 235.02 C 318.30 221.65 318.10 208.28 318.29 194.92 C 318.33 189.88 323.06 185.94 327.95 186.00 C 333.11 185.60 338.44 189.63 338.40 195.04 C 338.57 205.69 338.41 216.36 338.47 227.01 C 338.39 232.94 339.00 239.12 336.71 244.75 C 333.02 254.82 322.76 261.99 312.03 261.92 C 270.33 261.93 228.63 261.98 186.93 261.89 C 173.33 261.75 161.32 249.63 161.30 236.03 C 161.23 187.35 161.24 138.66 161.29 89.97 C 161.36 77.00 172.26 65.29 185.18 64.25 C 192.26 63.97 199.35 64.22 206.43 64.13 C 206.80 54.26 205.51 44.23 207.60 34.49 C 210.78 20.58 221.32 8.68 234.70 3.76 M 238.36 24.32 C 231.40 28.24 226.76 35.96 226.71 43.97 C 226.65 50.69 226.69 57.41 226.70 64.13 C 242.14 64.14 257.59 64.14 273.03 64.13 C 273.03 57.42 273.08 50.71 273.01 44.00 C 272.95 35.83 268.15 27.96 260.96 24.10 C 254.06 20.25 245.18 20.33 238.36 24.32 Z" />
<path fill="#000000" opacity="1.00" d=" M 92.16 88.27 C 94.98 86.92 98.31 87.47 100.94 89.01 C 108.18 93.12 115.37 97.34 122.60 101.49 C 124.87 102.78 127.17 104.40 128.12 106.95 C 130.47 112.78 126.18 120.08 120.02 121.06 C 117.46 121.51 114.95 120.50 112.79 119.23 C 105.63 115.07 98.46 110.93 91.29 106.79 C 89.22 105.61 87.25 103.99 86.39 101.70 C 84.36 96.63 87.29 90.45 92.16 88.27 Z" />
<path fill="#000000" opacity="1.00" d=" M 404.22 88.32 C 409.76 85.59 416.33 89.90 417.62 95.55 C 418.88 99.60 417.00 104.22 413.30 106.27 C 405.74 110.78 398.05 115.08 390.44 119.51 C 387.35 121.46 383.20 121.72 380.01 119.85 C 375.33 117.23 373.51 110.64 376.15 105.98 C 377.47 103.37 380.20 102.03 382.62 100.65 C 389.85 96.60 396.91 92.22 404.22 88.32 Z" />
<path fill="#000000" opacity="1.00" d=" M 325.37 144.43 C 332.30 141.74 339.95 148.86 338.24 155.96 C 337.10 163.42 326.80 166.82 321.50 161.40 C 315.71 156.58 318.19 146.39 325.37 144.43 Z" />
<path fill="#000000" opacity="1.00" d=" M 90.29 147.40 C 92.75 146.55 95.40 146.85 97.95 146.79 C 105.95 146.89 113.96 146.65 121.96 146.90 C 127.37 147.21 131.00 152.88 130.30 157.99 C 130.05 162.77 125.95 167.07 121.05 166.95 C 112.34 167.07 103.63 166.96 94.92 167.00 C 92.26 167.07 89.42 166.56 87.43 164.65 C 82.13 160.04 83.42 149.81 90.29 147.40 Z" />
<path fill="#000000" opacity="1.00" d=" M 379.35 147.45 C 381.46 146.64 383.76 146.83 385.98 146.79 C 394.32 146.88 402.67 146.66 411.01 146.89 C 416.48 147.10 420.23 152.80 419.51 157.97 C 419.29 162.86 415.01 167.19 410.03 166.97 C 400.99 167.02 391.95 167.03 382.91 166.97 C 379.07 167.08 375.36 164.54 374.10 160.91 C 372.13 156.00 374.15 149.38 379.35 147.45 Z" />
<path fill="#000000" opacity="1.00" d=" M 227.41 156.70 C 229.46 155.74 231.78 155.81 234.00 155.79 C 245.01 155.82 256.03 155.79 267.04 155.80 C 269.53 155.77 272.18 156.17 274.14 157.85 C 279.19 161.90 278.91 170.86 273.48 174.47 C 271.32 175.98 268.59 176.07 266.05 176.08 C 255.02 176.05 243.99 176.08 232.96 176.07 C 230.25 176.10 227.33 175.67 225.29 173.73 C 220.14 169.30 221.06 159.58 227.41 156.70 Z" />
<path fill="#000000" opacity="1.00" d=" M 383.43 193.52 C 386.55 192.86 389.49 194.45 392.08 195.99 C 398.59 199.77 405.11 203.54 411.64 207.28 C 413.94 208.58 416.29 210.20 417.30 212.76 C 419.74 218.64 415.36 226.14 409.07 226.97 C 406.54 227.39 404.10 226.36 401.97 225.11 C 394.97 221.05 387.97 216.99 380.95 212.97 C 378.74 211.71 376.54 210.09 375.61 207.62 C 373.28 201.87 377.37 194.66 383.43 193.52 Z" />
<path fill="#000000" opacity="1.00" d=" M 114.37 194.51 C 119.43 191.51 126.05 194.83 127.93 200.07 C 129.94 204.35 128.29 209.88 124.10 212.16 C 116.33 216.74 108.51 221.24 100.67 225.69 C 96.97 228.00 91.86 227.26 88.96 224.02 C 84.73 219.96 84.48 212.01 89.78 208.74 C 97.90 203.88 106.13 199.18 114.37 194.51 Z" />
<path fill="#000000" opacity="1.00" d=" M 9.25 253.26 C 25.98 234.69 58.39 232.87 76.45 250.50 C 96.97 270.75 117.41 291.07 137.94 311.31 C 144.14 301.30 154.92 294.84 166.22 292.23 C 181.26 288.72 196.79 290.54 212.02 291.24 C 245.09 292.77 278.52 291.49 310.93 284.28 C 333.49 279.30 357.45 280.79 379.13 288.81 C 404.43 298.11 426.45 315.76 441.52 338.06 C 444.34 336.21 447.18 334.23 450.49 333.35 C 459.58 330.58 469.91 333.68 476.37 340.54 C 485.88 350.40 495.41 360.25 504.88 370.15 C 508.75 374.17 510.91 379.47 512.00 384.87 L 512.00 389.67 C 511.47 395.62 508.88 401.38 504.49 405.49 C 469.85 438.89 435.18 472.27 400.54 505.67 C 397.51 508.68 393.74 510.88 389.63 512.00 L 376.98 512.00 C 372.24 510.65 367.78 508.21 364.37 504.63 C 354.86 494.76 345.31 484.92 335.85 475.00 C 329.46 468.27 326.94 457.92 330.23 449.15 C 331.77 444.78 334.79 441.17 338.04 437.94 C 311.07 435.76 284.02 434.42 256.96 434.46 C 224.94 434.06 192.93 438.74 160.94 435.74 C 136.44 433.52 113.10 421.55 96.71 403.25 C 71.52 374.79 46.52 346.16 21.31 317.72 C 11.65 307.18 1.42 295.43 0.00 280.58 L 0.00 274.15 C 1.11 266.51 3.99 259.01 9.25 253.26 M 26.55 264.61 C 20.88 269.07 18.59 277.41 21.53 284.05 C 25.07 292.39 31.66 298.85 37.58 305.52 C 62.09 333.32 86.57 361.15 111.08 388.96 C 121.76 401.08 136.14 409.99 151.88 413.75 C 158.79 415.49 165.93 415.93 173.02 416.29 C 190.67 417.07 208.33 415.92 225.97 415.11 C 269.73 412.97 313.64 414.78 357.18 419.56 C 380.42 397.18 403.65 374.78 426.87 352.36 C 415.05 334.00 398.11 318.73 377.97 310.06 C 358.15 301.35 335.54 299.42 314.46 304.23 C 282.20 311.36 248.95 312.85 216.02 311.69 C 203.00 311.10 189.95 308.76 176.92 310.42 C 169.50 311.40 161.87 314.08 156.77 319.79 C 150.01 327.77 150.20 340.86 157.63 348.33 C 163.91 353.56 172.17 355.39 179.99 356.96 C 202.75 360.88 226.00 359.96 248.93 358.33 C 255.40 357.94 259.77 365.10 258.27 370.97 C 257.52 375.34 253.41 378.45 249.06 378.55 C 231.08 380.04 212.97 380.51 194.96 379.18 C 183.50 378.32 171.99 376.69 161.08 372.93 C 154.20 370.45 147.42 367.04 142.33 361.66 C 135.31 354.07 131.61 343.73 131.52 333.44 C 108.89 311.09 86.29 288.71 63.68 266.33 C 54.33 256.19 37.01 256.20 26.55 264.61 M 455.34 353.24 C 420.56 386.44 386.08 419.98 351.37 453.27 C 350.01 454.47 348.73 456.12 349.04 458.07 C 349.37 460.30 351.29 461.79 352.71 463.39 C 361.57 472.50 370.33 481.72 379.20 490.82 C 380.96 492.73 384.42 493.47 386.27 491.27 C 420.93 457.91 455.57 424.53 490.19 391.14 C 492.36 389.26 492.11 385.76 490.01 383.93 C 480.76 374.17 471.37 364.55 462.06 354.86 C 460.46 353.05 457.52 351.67 455.34 353.24 Z" />
<path fill="#000000" opacity="1.00" d=" M 288.37 358.55 C 295.75 356.60 302.78 364.77 299.77 371.80 C 297.58 378.79 287.56 380.65 282.93 375.01 C 277.47 369.78 280.88 359.53 288.37 358.55 Z" />
</g>
</svg>
