<?xml version="1.0" encoding="UTF-8" ?>
<!DOCTYPE svg PUBLIC "-//W3C//DTD SVG 1.1//EN" "http://www.w3.org/Graphics/SVG/1.1/DTD/svg11.dtd">
<svg width="512pt" height="512pt" viewBox="0 0 512 512" version="1.1" xmlns="http://www.w3.org/2000/svg">
<g id="#000000ff">
<path fill="#000000" opacity="1.00" d=" M 255.40 0.00 L 256.54 0.00 C 264.10 0.05 269.41 5.82 274.45 10.63 C 303.48 37.53 339.40 56.95 377.93 66.08 C 401.17 71.80 425.14 74.13 449.03 74.33 C 453.41 74.30 458.02 74.73 461.74 77.27 C 467.37 80.74 470.40 87.44 470.06 93.97 C 470.30 139.66 472.44 185.41 469.37 231.05 C 466.42 270.60 460.10 310.33 445.37 347.34 C 431.53 383.02 409.80 415.69 381.75 441.77 C 349.31 472.22 309.43 493.79 267.77 508.80 C 264.18 510.15 260.57 511.67 256.70 512.00 L 254.34 512.00 C 248.06 510.71 242.25 507.88 236.21 505.82 C 189.42 487.97 145.10 461.13 112.12 422.96 C 83.61 390.56 64.64 350.53 54.33 308.80 C 50.59 294.91 48.54 280.67 46.30 266.49 C 38.27 209.34 41.65 151.51 41.94 94.03 C 41.55 87.23 44.87 80.25 50.89 76.88 C 54.80 74.42 59.56 74.34 64.03 74.31 C 95.82 74.02 127.83 69.72 157.86 58.98 C 187.60 48.52 214.94 31.57 238.03 10.15 C 242.87 5.45 248.12 0.07 255.40 0.00 M 221.77 67.76 C 192.89 86.13 160.24 98.31 126.61 104.42 C 119.00 105.52 111.42 106.78 103.80 107.82 C 95.10 108.59 86.37 109.16 77.67 109.89 C 77.22 151.63 75.49 193.45 78.64 235.13 C 81.74 272.95 88.43 311.07 104.32 345.79 C 117.90 375.96 138.50 402.89 163.98 423.98 C 191.05 446.70 222.98 462.91 256.01 475.05 C 269.32 470.00 282.57 464.67 295.25 458.14 C 330.09 440.86 361.88 416.42 384.90 384.84 C 397.16 368.08 406.91 349.53 414.18 330.08 C 420.93 312.33 425.19 293.73 428.51 275.07 C 437.79 220.50 434.92 164.96 434.33 109.89 C 425.39 109.12 416.42 108.58 407.48 107.74 C 399.68 106.59 391.88 105.41 384.09 104.20 C 365.58 100.68 347.35 95.48 329.93 88.27 C 302.90 77.28 278.02 61.38 256.00 42.29 C 245.19 51.54 233.85 60.21 221.77 67.76 Z" />
<path fill="#000000" opacity="1.00" d=" M 317.23 194.26 C 320.56 190.81 325.19 188.59 330.02 188.55 C 336.34 188.35 342.59 191.84 345.74 197.32 C 348.80 202.41 349.06 209.04 346.38 214.34 C 344.93 217.37 342.44 219.69 340.10 222.04 C 308.07 254.02 276.11 286.07 244.07 318.03 C 237.50 325.06 225.35 325.23 218.65 318.32 C 202.92 302.72 187.31 287.00 171.61 271.37 C 165.17 266.18 161.58 257.05 165.12 249.17 C 167.63 242.83 174.10 238.33 180.92 238.15 C 185.99 237.88 190.99 240.03 194.53 243.61 C 206.78 255.79 218.97 268.04 231.21 280.23 C 259.91 251.60 288.54 222.89 317.23 194.26 Z" />
</g>
</svg>
