<?xml version="1.0" encoding="UTF-8" ?>
<!DOCTYPE svg PUBLIC "-//W3C//DTD SVG 1.1//EN" "http://www.w3.org/Graphics/SVG/1.1/DTD/svg11.dtd">
<svg width="656pt" height="460pt" viewBox="0 0 656 460" version="1.1" xmlns="http://www.w3.org/2000/svg">
<g id="#161616f3">
<path fill="#161616" opacity="0.95" d=" M 68.27 9.96 C 71.47 9.29 74.73 8.99 77.99 9.00 C 244.65 9.01 411.31 8.97 577.98 9.02 C 582.06 8.95 586.16 9.12 590.18 9.92 L 588.99 9.96 C 527.66 10.11 466.33 9.98 405.01 10.02 C 292.76 9.98 180.52 10.10 68.27 9.96 Z" />
</g>
<g id="#3030309d">
<path fill="#303030" opacity="0.62" d=" M 63.85 11.08 C 64.39 9.49 65.40 9.24 66.86 10.34 C 65.95 10.98 64.95 11.23 63.85 11.08 Z" />
</g>
<g id="#000000ff">
<path fill="#000000" opacity="1.00" d=" M 66.86 10.34 C 67.21 10.25 67.92 10.05 68.27 9.96 C 180.52 10.10 292.76 9.98 405.01 10.02 C 466.33 9.98 527.66 10.11 588.99 9.96 C 589.70 10.06 591.11 10.26 591.82 10.36 C 592.69 10.96 593.66 11.21 594.73 11.11 L 595.91 11.24 C 596.71 11.95 597.64 12.25 598.70 12.14 L 599.83 12.16 C 600.30 12.40 601.25 12.89 601.72 13.13 L 603.29 13.19 C 603.36 13.24 603.51 13.34 603.59 13.39 L 604.87 14.24 C 605.36 14.44 606.34 14.85 606.83 15.06 L 608.28 15.50 C 608.34 15.52 608.45 15.56 608.50 15.58 L 610.31 16.44 C 610.36 16.46 610.48 16.52 610.53 16.55 L 612.25 17.45 C 612.30 17.48 612.41 17.54 612.46 17.56 C 613.21 18.02 614.72 18.93 615.47 19.38 C 615.51 19.41 615.59 19.48 615.62 19.51 L 616.45 20.35 C 616.99 21.40 617.83 21.95 618.95 22.01 L 620.06 22.07 C 620.18 22.36 620.43 22.93 620.56 23.21 C 620.95 24.26 621.72 24.89 622.87 25.10 C 624.45 25.60 625.57 26.92 626.68 28.08 C 627.61 29.24 628.66 30.30 629.82 31.25 C 630.98 32.38 632.33 33.50 632.88 35.09 C 633.12 36.16 633.74 36.95 634.74 37.45 C 635.09 37.85 635.79 38.67 636.15 39.07 C 636.41 40.09 636.96 40.93 637.79 41.59 L 638.42 42.38 C 638.45 42.42 638.50 42.50 638.53 42.54 L 638.90 43.25 C 640.23 46.14 641.50 49.07 643.17 51.79 L 643.57 52.47 C 643.62 52.55 643.72 52.71 643.77 52.79 L 643.85 54.23 C 644.11 54.70 644.64 55.62 644.90 56.09 L 644.95 57.20 C 645.17 57.68 645.62 58.64 645.85 59.12 L 645.86 60.30 C 645.74 61.35 646.04 62.27 646.76 63.07 L 646.85 64.36 C 646.76 65.69 647.08 66.99 647.66 68.19 C 647.75 68.48 647.92 69.07 648.01 69.37 C 647.95 177.38 648.15 285.40 647.91 393.42 L 647.70 393.94 C 647.05 395.10 646.71 396.42 646.91 397.76 C 646.87 398.28 646.80 399.32 646.76 399.84 C 646.58 400.34 646.22 401.34 646.03 401.84 L 645.77 403.08 C 645.58 403.58 645.19 404.58 644.99 405.07 L 644.94 406.11 C 644.68 406.56 644.17 407.47 643.92 407.92 L 643.92 408.98 C 643.65 409.43 643.10 410.32 642.82 410.77 L 642.69 412.23 C 642.64 412.32 642.55 412.50 642.50 412.59 L 641.59 414.35 C 641.56 414.40 641.50 414.52 641.47 414.58 L 640.57 416.33 C 640.53 416.38 640.47 416.49 640.44 416.54 L 639.54 417.61 C 638.54 418.23 637.99 419.10 637.87 420.22 L 637.70 421.41 C 637.65 421.46 637.57 421.57 637.52 421.62 C 637.07 422.11 636.15 423.08 635.69 423.57 C 634.59 424.03 634.01 424.81 633.94 425.92 L 633.88 426.74 C 633.70 426.90 633.35 427.23 633.17 427.40 C 629.47 430.87 625.87 434.44 622.40 438.14 C 622.25 438.30 621.95 438.62 621.81 438.78 L 621.09 438.84 C 619.96 438.93 619.16 439.53 618.69 440.62 C 618.16 441.06 617.12 441.94 616.59 442.38 C 616.54 442.40 616.45 442.44 616.40 442.47 L 615.56 442.80 C 613.54 443.44 611.66 444.45 610.10 445.88 L 609.37 446.45 C 609.33 446.48 609.25 446.53 609.21 446.55 L 607.83 446.88 C 607.37 447.14 606.46 447.67 606.00 447.93 L 604.54 448.59 C 604.49 448.60 604.38 448.64 604.32 448.66 L 602.81 448.96 C 602.34 449.19 601.39 449.66 600.91 449.89 L 599.83 449.95 C 599.36 450.17 598.40 450.62 597.92 450.85 C 597.49 450.88 596.64 450.96 596.21 451.00 C 595.71 451.18 594.72 451.56 594.22 451.74 L 592.79 451.77 C 590.78 451.63 588.79 451.97 586.97 452.79 L 586.49 452.95 C 417.65 453.11 248.81 452.94 79.97 453.03 C 75.06 453.18 70.16 452.67 65.31 451.96 C 65.05 451.90 64.53 451.77 64.27 451.71 C 63.76 451.54 62.75 451.20 62.24 451.03 C 61.58 450.92 60.27 450.69 59.62 450.57 C 59.56 450.55 59.45 450.52 59.39 450.51 C 58.69 450.27 57.28 449.79 56.58 449.55 C 56.52 449.53 56.41 449.48 56.36 449.46 L 55.01 448.85 C 54.54 448.60 53.61 448.10 53.14 447.85 L 51.77 447.78 C 51.68 447.73 51.49 447.64 51.40 447.59 L 49.55 446.67 C 49.50 446.64 49.40 446.59 49.36 446.57 L 47.52 445.65 C 47.47 445.62 47.38 445.57 47.33 445.55 L 45.62 444.63 C 45.56 444.60 45.45 444.54 45.39 444.51 L 43.68 443.55 C 43.63 443.52 43.52 443.45 43.46 443.42 C 42.74 442.96 41.30 442.04 40.57 441.58 C 40.53 441.54 40.44 441.47 40.39 441.44 C 39.97 441.06 39.14 440.31 38.72 439.94 C 37.71 438.63 36.44 437.58 34.93 436.93 C 33.88 436.41 32.99 435.64 32.20 434.80 C 30.95 433.38 29.61 432.03 28.21 430.77 C 27.43 430.03 26.73 429.21 26.24 428.27 C 25.51 426.74 24.57 425.27 23.08 424.41 L 23.01 423.82 C 22.95 422.57 22.32 421.85 21.11 421.66 L 21.01 420.94 C 20.88 419.81 20.33 418.93 19.36 418.29 L 18.58 417.50 C 18.54 417.45 18.46 417.34 18.43 417.29 L 17.49 415.60 C 17.46 415.54 17.40 415.43 17.37 415.37 L 16.52 413.59 C 16.49 413.53 16.44 413.41 16.41 413.36 L 15.62 411.56 C 15.60 411.50 15.54 411.38 15.52 411.33 C 15.22 410.65 14.63 409.29 14.34 408.61 C 14.30 408.52 14.22 408.35 14.18 408.27 L 14.14 406.84 C 13.88 406.38 13.36 405.45 13.10 404.99 L 13.03 403.84 C 12.83 403.35 12.42 402.37 12.21 401.88 L 12.17 400.67 C 12.29 399.34 11.87 398.07 11.32 396.89 L 11.20 395.82 C 11.22 394.12 10.93 392.45 10.34 390.88 C 10.23 390.25 10.03 388.99 9.92 388.36 C 10.02 283.76 10.05 179.15 9.91 74.55 C 10.01 73.92 10.21 72.67 10.32 72.04 C 10.94 70.51 11.35 68.87 11.06 67.21 C 11.12 66.68 11.25 65.64 11.31 65.11 C 11.94 64.26 12.21 63.31 12.12 62.26 L 12.21 60.68 C 12.42 60.19 12.84 59.21 13.06 58.72 C 13.14 58.18 13.30 57.10 13.38 56.57 C 13.39 56.51 13.42 56.41 13.44 56.36 C 13.69 55.68 14.18 54.32 14.43 53.64 C 14.45 53.58 14.50 53.47 14.52 53.42 L 15.15 52.16 C 15.38 51.69 15.83 50.73 16.05 50.25 C 16.18 49.37 16.55 48.60 17.15 47.93 C 18.44 46.36 19.63 44.65 20.09 42.63 L 20.39 41.60 C 20.43 41.55 20.51 41.44 20.55 41.39 C 20.99 40.91 21.87 39.94 22.30 39.45 C 23.39 38.98 23.96 38.19 24.04 37.09 L 24.10 36.26 C 24.28 36.09 24.65 35.74 24.84 35.57 C 28.83 31.77 32.73 27.87 36.53 23.88 C 36.69 23.70 37.03 23.34 37.20 23.15 L 38.05 23.07 C 39.30 23.03 40.06 22.40 40.33 21.19 L 40.99 21.08 C 42.09 20.93 42.94 20.36 43.55 19.38 L 44.47 18.51 C 44.51 18.47 44.61 18.40 44.65 18.37 L 46.25 17.44 C 46.29 17.43 46.38 17.39 46.42 17.37 L 47.57 16.98 C 48.98 16.60 50.37 16.06 51.49 15.11 L 52.46 14.39 C 52.53 14.34 52.67 14.24 52.73 14.19 L 54.19 14.15 C 54.64 13.87 55.54 13.33 55.98 13.06 L 57.10 13.05 C 57.58 12.82 58.53 12.36 59.00 12.13 L 60.18 12.02 C 60.67 11.82 61.66 11.42 62.15 11.22 C 62.58 11.18 63.43 11.11 63.85 11.08 C 64.95 11.23 65.95 10.98 66.86 10.34 M 74.81 36.53 L 76.07 36.80 C 74.67 36.61 73.38 36.81 72.19 37.40 L 71.51 36.81 L 70.47 37.05 L 70.13 37.90 L 69.05 37.54 L 68.22 38.08 C 66.53 37.29 62.91 38.22 62.69 40.17 C 61.62 40.48 60.60 40.89 59.62 41.41 C 59.59 41.43 59.51 41.47 59.47 41.49 C 58.73 41.95 57.24 42.85 56.50 43.30 C 56.46 43.32 56.39 43.37 56.36 43.39 C 53.45 45.48 50.18 47.47 48.30 50.61 C 46.58 50.32 44.73 52.77 45.16 54.39 L 45.04 54.93 C 43.41 54.87 42.87 55.67 43.42 57.33 L 42.37 58.48 C 42.35 58.51 42.31 58.58 42.29 58.61 L 41.51 60.24 C 41.49 60.29 41.46 60.39 41.44 60.43 L 41.16 61.53 C 39.26 61.71 38.43 64.94 39.25 66.50 C 39.18 66.66 39.03 66.97 38.96 67.12 C 36.78 72.80 36.95 79.03 37.00 85.02 C 37.00 185.03 37.00 285.05 37.00 385.07 C 37.00 386.66 37.40 388.21 37.84 389.74 C 37.95 390.28 38.16 391.35 38.27 391.89 C 37.14 393.51 37.91 398.11 39.98 398.04 L 40.20 398.88 C 40.48 401.84 41.90 404.65 44.08 406.67 L 44.23 406.80 C 43.65 408.48 44.24 409.28 46.01 409.21 C 46.15 409.47 46.43 410.00 46.57 410.26 C 47.63 413.09 49.88 415.26 52.66 416.40 C 52.96 416.51 53.57 416.74 53.87 416.85 C 53.74 418.39 54.47 419.02 56.07 418.75 L 56.78 418.84 C 56.72 420.47 57.54 421.02 59.23 420.48 C 60.06 421.42 61.13 421.91 62.44 421.94 L 62.33 422.80 C 62.73 422.92 63.54 423.17 63.94 423.30 L 64.98 423.03 L 65.21 423.90 L 66.20 424.25 L 66.94 423.74 L 67.96 424.23 L 68.36 425.06 L 69.42 425.24 L 70.03 424.59 L 70.60 425.01 C 75.31 426.26 80.21 426.03 85.04 425.99 C 250.03 426.01 415.03 425.99 580.02 426.00 C 582.33 425.99 584.62 425.61 586.90 425.19 L 587.54 425.22 L 587.94 424.76 C 589.34 425.77 590.25 425.47 590.68 423.88 L 591.84 423.86 L 592.64 424.32 L 593.62 423.86 L 593.75 422.96 L 594.57 422.75 C 595.81 423.76 598.66 422.72 598.42 420.97 L 599.67 420.53 C 599.70 420.51 599.77 420.47 599.80 420.46 L 600.76 419.53 C 602.48 420.07 603.23 419.52 602.99 417.86 L 603.62 417.67 C 605.21 418.48 607.78 416.35 607.40 414.66 C 608.43 414.18 609.22 413.35 609.73 412.33 C 611.44 412.56 613.53 410.14 612.94 408.47 C 613.33 408.03 614.10 407.13 614.48 406.68 C 614.50 406.65 614.54 406.59 614.56 406.56 L 614.85 406.03 C 617.39 403.40 618.72 399.83 619.20 396.26 L 619.13 395.84 L 619.98 395.56 L 620.26 394.52 L 619.67 393.81 L 620.01 393.39 C 621.38 387.72 620.95 381.84 621.01 376.06 C 621.01 278.71 621.00 181.35 621.02 84.00 C 621.05 77.75 621.23 71.30 618.91 65.37 L 618.77 65.15 L 619.28 64.38 L 618.87 63.37 L 617.97 63.19 C 617.52 60.91 616.30 58.88 615.11 56.92 C 613.29 52.29 609.87 48.02 605.42 45.71 C 605.10 45.53 604.46 45.16 604.14 44.97 C 604.19 43.19 603.36 42.61 601.65 43.24 L 600.56 42.41 C 600.52 42.38 600.44 42.33 600.40 42.30 L 598.90 41.47 C 598.87 41.45 598.79 41.40 598.75 41.38 C 597.37 40.68 595.97 40.04 594.55 39.45 C 594.51 39.44 594.43 39.41 594.39 39.40 L 592.71 38.98 L 592.47 38.12 C 592.04 38.16 591.17 38.24 590.74 38.28 L 590.25 37.59 L 588.75 38.01 C 588.17 36.46 587.22 36.25 585.90 37.37 C 585.37 37.24 584.32 36.96 583.79 36.82 C 580.62 35.84 577.28 36.00 574.02 36.01 C 409.37 36.01 244.72 36.01 80.07 36.01 C 78.30 36.07 76.55 36.25 74.81 36.53 Z" />
<path fill="#000000" opacity="1.00" d=" M 114.02 107.26 C 114.28 107.20 114.81 107.09 115.07 107.04 C 132.04 106.81 149.01 107.11 165.98 106.96 C 172.59 107.05 179.29 106.44 185.79 107.97 L 186.01 108.23 C 186.48 108.46 187.43 108.92 187.90 109.15 C 189.31 109.29 190.62 110.15 191.39 111.34 C 192.16 112.71 193.41 113.73 194.93 114.17 C 195.84 114.43 196.48 115.00 196.84 115.87 C 197.55 117.36 198.55 118.69 199.79 119.79 L 200.44 120.47 C 200.47 120.50 200.51 120.56 200.54 120.59 C 201.25 121.65 201.73 122.80 201.96 124.05 C 202.16 124.54 202.56 125.52 202.75 126.01 L 203.09 126.33 C 203.60 129.50 204.03 132.71 204.01 135.93 C 203.99 148.62 203.99 161.31 204.01 174.00 C 204.03 177.22 203.56 180.41 203.01 183.57 L 202.71 183.88 C 202.54 184.38 202.19 185.38 202.01 185.88 L 201.49 187.38 C 201.47 187.42 201.43 187.49 201.41 187.53 L 200.49 188.56 C 199.58 189.17 199.04 190.02 198.86 191.09 C 198.67 191.44 198.28 192.14 198.08 192.49 C 196.04 194.22 194.11 196.08 192.29 198.04 C 191.84 198.39 190.95 199.09 190.51 199.43 C 190.47 199.46 190.39 199.50 190.35 199.53 L 188.74 200.39 C 188.71 200.41 188.63 200.45 188.60 200.47 L 187.73 200.84 C 184.28 202.02 180.72 203.09 177.04 203.01 C 156.84 202.94 136.64 203.11 116.45 202.92 L 116.03 202.69 C 115.22 202.03 114.29 201.74 113.25 201.82 L 112.67 201.70 C 111.24 200.79 109.72 200.03 108.05 199.69 C 107.42 199.42 106.15 198.87 105.52 198.60 C 105.49 198.58 105.42 198.53 105.39 198.51 C 104.28 197.70 103.21 196.82 102.28 195.79 C 101.36 194.67 100.37 193.61 99.34 192.58 L 99.16 192.08 C 98.93 191.01 98.36 190.17 97.44 189.57 L 96.51 188.65 C 96.49 188.62 96.45 188.56 96.43 188.53 C 95.74 187.40 95.28 186.18 95.05 184.88 C 94.84 184.39 94.44 183.42 94.23 182.93 C 94.18 182.68 94.08 182.18 94.03 181.92 C 93.72 163.79 93.72 145.65 94.09 127.52 L 94.18 126.98 C 94.40 126.50 94.82 125.54 95.04 125.05 L 95.22 124.51 C 96.40 122.65 97.45 120.72 98.24 118.67 C 98.42 118.39 98.77 117.83 98.94 117.55 C 100.93 115.80 102.82 113.94 104.59 111.97 C 105.05 111.61 105.97 110.88 106.43 110.51 C 106.47 110.49 106.55 110.44 106.59 110.41 C 108.34 109.51 110.07 108.19 112.10 108.12 C 112.58 107.91 113.54 107.48 114.02 107.26 M 120.30 133.88 C 120.40 147.92 120.22 161.96 120.41 175.99 C 139.27 176.01 158.13 176.00 177.00 176.00 C 176.92 161.82 177.17 147.63 176.88 133.46 C 160.91 133.51 144.95 133.49 128.99 133.47 C 126.08 133.42 123.16 133.35 120.30 133.88 Z" />
<path fill="#000000" opacity="1.00" d=" M 362.52 135.50 L 363.37 135.17 C 384.92 134.66 406.49 135.32 428.05 134.89 C 434.04 134.56 440.04 134.82 446.04 135.01 C 482.93 135.07 519.83 134.91 556.72 135.08 C 557.31 135.27 557.86 135.55 558.38 135.90 C 560.19 137.75 562.00 139.63 563.85 141.46 L 563.95 141.58 C 565.46 146.16 565.60 151.38 562.84 155.53 L 562.79 155.57 C 561.40 156.42 560.22 157.56 559.35 158.93 C 559.13 159.18 558.69 159.69 558.47 159.95 C 555.72 160.68 552.87 161.06 550.02 161.04 C 494.01 161.01 437.99 161.05 381.97 161.02 C 376.13 161.10 370.29 160.97 364.46 161.20 L 364.19 160.74 C 363.61 159.46 362.11 159.16 360.91 158.81 C 359.61 158.48 358.51 157.41 358.20 156.10 C 357.87 154.80 357.21 153.64 356.33 152.64 L 356.09 152.30 C 355.48 148.98 355.66 145.61 356.14 142.30 L 356.52 141.48 C 356.54 141.45 356.57 141.39 356.59 141.36 C 356.97 140.85 357.75 139.83 358.13 139.32 C 359.31 138.35 360.44 137.32 361.53 136.23 L 362.37 135.58 C 362.41 135.56 362.48 135.52 362.52 135.50 Z" />
<path fill="#000000" opacity="1.00" d=" M 102.60 273.38 C 123.32 272.58 144.18 273.40 164.95 273.02 C 169.63 273.06 174.34 272.71 178.99 273.28 C 179.49 273.47 180.47 273.86 180.96 274.05 C 181.89 274.08 182.73 274.37 183.46 274.92 C 185.26 276.85 187.08 278.75 188.98 280.58 L 189.02 280.62 C 190.32 284.65 190.27 288.98 189.07 293.03 C 188.73 293.55 188.35 294.03 187.91 294.47 C 186.72 295.53 185.60 296.68 184.56 297.90 C 184.11 298.12 183.21 298.56 182.75 298.77 C 182.35 299.07 181.54 299.67 181.13 299.97 L 180.52 299.97 C 154.39 300.16 128.25 299.78 102.12 300.19 C 100.53 299.96 99.01 299.38 97.65 298.52 C 97.62 298.49 97.55 298.45 97.51 298.42 C 96.92 298.00 95.75 297.15 95.16 296.73 L 95.11 295.87 C 95.06 294.77 94.48 294.01 93.38 293.60 C 92.64 293.15 92.19 292.49 92.02 291.61 C 91.81 288.76 91.79 285.90 91.70 283.04 L 92.12 281.99 C 92.36 281.51 92.83 280.57 93.06 280.10 C 93.33 279.66 93.87 278.77 94.14 278.32 C 95.31 277.38 96.50 276.44 97.38 275.22 L 97.90 275.16 C 99.63 275.11 101.13 274.19 102.60 273.38 Z" />
<path fill="#000000" opacity="1.00" d=" M 227.97 273.35 C 242.62 272.70 257.34 273.18 272.02 273.11 C 282.67 273.22 293.35 272.64 303.99 273.30 C 304.48 273.49 305.47 273.86 305.97 274.04 C 306.91 274.07 307.75 274.37 308.49 274.93 C 310.27 276.89 312.08 278.82 314.00 280.66 L 314.04 280.71 C 314.93 283.80 315.16 287.02 315.04 290.22 L 314.76 290.68 C 313.95 291.75 313.36 292.97 312.95 294.25 L 312.81 294.51 C 311.69 295.51 310.52 296.50 309.75 297.81 L 309.21 297.88 C 307.86 297.95 306.54 298.59 305.78 299.72 L 305.44 300.14 C 278.79 299.80 252.13 300.17 225.49 299.98 C 224.50 299.57 223.56 299.08 222.66 298.52 C 222.62 298.49 222.54 298.44 222.49 298.41 C 221.91 298.00 220.75 297.17 220.17 296.76 L 220.12 295.96 C 220.12 294.76 219.54 294.01 218.38 293.72 L 217.46 293.42 C 217.41 292.75 217.31 291.41 217.26 290.74 C 217.31 289.40 216.86 288.15 216.35 286.95 L 216.35 285.74 C 216.98 284.82 217.24 283.82 217.15 282.73 L 217.16 281.94 C 217.40 281.47 217.87 280.53 218.11 280.06 C 218.37 279.61 218.91 278.71 219.17 278.26 C 220.34 277.30 221.46 276.28 222.54 275.21 L 223.47 274.50 C 223.51 274.48 223.58 274.45 223.61 274.43 L 225.12 274.18 C 226.17 274.24 227.12 273.96 227.97 273.35 Z" />
<path fill="#000000" opacity="1.00" d=" M 352.06 273.28 C 367.02 272.69 382.02 273.25 397.00 273.12 C 407.65 272.96 418.32 272.91 428.97 273.27 C 429.46 273.46 430.45 273.84 430.94 274.03 C 433.29 274.43 435.86 275.82 436.82 278.10 C 437.03 279.32 437.70 280.08 438.83 280.37 L 438.78 281.12 C 439.04 281.57 439.55 282.48 439.81 282.93 L 439.94 284.18 C 439.92 286.00 439.93 287.82 439.92 289.65 L 439.64 290.44 C 438.84 291.61 438.20 292.89 437.86 294.28 L 437.73 294.62 C 436.66 295.62 435.62 296.66 434.63 297.73 L 434.28 297.85 C 432.98 298.17 431.53 298.51 430.72 299.69 L 430.39 300.14 C 403.77 299.81 377.14 300.16 350.53 300.00 C 349.53 299.59 348.58 299.10 347.66 298.54 C 347.62 298.51 347.55 298.47 347.51 298.44 C 346.95 298.05 345.82 297.28 345.26 296.89 L 345.19 296.11 C 345.10 295.00 344.52 294.21 343.44 293.73 C 342.68 293.24 342.20 292.55 342.00 291.65 C 341.57 288.13 341.68 284.58 342.29 281.10 L 342.55 280.55 C 342.56 280.52 342.59 280.47 342.61 280.44 C 343.00 279.91 343.80 278.84 344.19 278.31 C 345.09 277.81 345.76 277.09 346.22 276.17 C 346.78 275.76 347.90 274.93 348.46 274.52 C 348.49 274.50 348.56 274.47 348.60 274.45 L 350.07 274.01 C 350.57 273.83 351.56 273.46 352.06 273.28 Z" />
<path fill="#000000" opacity="1.00" d=" M 477.06 273.26 C 493.03 272.59 509.02 273.47 525.00 273.02 C 534.67 273.02 544.36 273.02 554.02 273.26 C 554.51 273.46 555.48 273.87 555.97 274.07 C 556.91 274.05 557.75 274.34 558.49 274.94 C 560.24 276.81 562.02 278.67 563.88 280.45 L 564.00 280.59 C 565.27 284.29 565.08 288.22 564.35 292.01 C 563.97 292.95 563.46 293.80 562.82 294.57 C 561.68 295.59 560.61 296.68 559.62 297.85 C 559.17 298.10 558.28 298.60 557.83 298.86 C 557.36 299.08 556.40 299.53 555.92 299.75 L 555.50 300.05 C 528.82 299.91 502.12 300.15 475.45 299.95 C 474.47 299.57 473.53 299.10 472.64 298.56 C 472.60 298.54 472.52 298.49 472.48 298.46 C 470.79 297.22 469.24 295.76 468.11 293.99 C 466.85 290.49 466.58 286.78 466.76 283.11 L 467.20 281.90 C 467.45 281.44 467.95 280.52 468.20 280.05 C 468.45 279.62 468.95 278.74 469.20 278.31 C 470.10 277.81 470.78 277.11 471.25 276.19 C 471.81 275.77 472.94 274.93 473.50 274.51 C 473.54 274.50 473.61 274.47 473.64 274.45 L 475.08 274.01 C 475.58 273.83 476.57 273.45 477.06 273.26 Z" />
<path fill="#000000" opacity="1.00" d=" M 98.40 344.41 C 99.17 343.17 100.79 343.11 102.08 342.92 C 165.18 343.06 228.30 342.98 291.41 342.96 L 291.45 342.96 C 295.76 344.90 299.19 348.33 301.06 352.68 L 301.06 353.21 C 300.93 355.38 300.91 357.56 300.89 359.75 L 300.57 361.35 C 300.56 361.39 300.52 361.47 300.50 361.50 L 299.59 362.52 C 298.67 363.12 298.09 363.95 297.84 365.02 C 297.59 365.98 297.00 366.62 296.05 366.94 C 294.85 367.35 293.76 367.99 292.77 368.76 L 291.98 368.95 C 291.49 369.15 290.51 369.54 290.02 369.74 C 228.00 370.19 165.94 369.57 103.91 370.05 C 103.45 369.96 102.52 369.77 102.05 369.67 C 101.55 369.49 100.55 369.13 100.05 368.95 L 98.62 368.55 C 98.58 368.54 98.51 368.50 98.47 368.49 C 97.92 368.07 96.81 367.24 96.26 366.83 C 95.80 365.90 95.11 365.19 94.21 364.71 C 93.97 364.34 93.49 363.60 93.25 363.24 C 92.65 361.07 92.11 358.88 91.25 356.81 L 90.86 355.83 L 91.43 354.91 C 92.06 354.00 92.30 352.99 92.16 351.89 C 92.41 349.63 93.85 347.10 95.98 346.18 C 97.05 345.95 97.86 345.36 98.40 344.41 Z" />
</g>
<g id="#31313177">
<path fill="#313131" opacity="0.47" d=" M 591.82 10.36 C 593.21 9.19 594.19 9.43 594.73 11.11 C 593.66 11.21 592.69 10.96 591.82 10.36 Z" />
<path fill="#313131" opacity="0.47" d=" M 37.00 85.02 C 36.95 79.03 36.78 72.80 38.96 67.12 C 37.65 73.00 37.98 79.04 38.00 85.01 C 37.98 151.67 37.99 218.33 37.99 284.99 C 37.89 319.90 38.19 354.83 37.84 389.74 C 37.40 388.21 37.00 386.66 37.00 385.07 C 37.00 285.05 37.00 185.03 37.00 85.02 Z" />
</g>
<g id="#3535357d">
<path fill="#353535" opacity="0.49" d=" M 60.37 11.13 L 61.38 10.72 L 62.15 11.22 C 61.66 11.42 60.67 11.82 60.18 12.02 L 60.37 11.13 Z" />
<path fill="#353535" opacity="0.49" d=" M 62.24 451.03 C 62.75 451.20 63.76 451.54 64.27 451.71 L 63.51 452.26 L 62.47 451.91 L 62.24 451.03 Z" />
</g>
<g id="#2d2d2d82">
<path fill="#2d2d2d" opacity="0.51" d=" M 595.91 11.24 C 597.36 10.17 598.29 10.47 598.70 12.14 C 597.64 12.25 596.71 11.95 595.91 11.24 Z" />
</g>
<g id="#3030309f">
<path fill="#303030" opacity="0.62" d=" M 57.24 12.15 L 58.21 11.68 L 59.00 12.13 C 58.53 12.36 57.58 12.82 57.10 13.05 L 57.24 12.15 Z" />
</g>
<g id="#33333372">
<path fill="#333333" opacity="0.45" d=" M 599.83 12.16 L 600.63 11.72 L 601.60 12.21 L 601.72 13.13 C 601.25 12.89 600.30 12.40 599.83 12.16 Z" />
</g>
<g id="#2d2d2d8e">
<path fill="#2d2d2d" opacity="0.56" d=" M 54.25 13.23 L 55.17 12.68 L 55.98 13.06 C 55.54 13.33 54.64 13.87 54.19 14.15 L 54.25 13.23 Z" />
</g>
<g id="#3a3a3a8a">
<path fill="#3a3a3a" opacity="0.54" d=" M 603.29 13.19 C 603.36 13.24 603.51 13.34 603.59 13.39 C 603.51 13.34 603.36 13.24 603.29 13.19 Z" />
</g>
<g id="#3939398f">
<path fill="#393939" opacity="0.56" d=" M 52.46 14.39 C 52.53 14.34 52.67 14.24 52.73 14.19 C 52.67 14.24 52.53 14.34 52.46 14.39 Z" />
</g>
<g id="#2d2d2d84">
<path fill="#2d2d2d" opacity="0.52" d=" M 604.87 14.24 L 605.69 13.73 L 606.70 14.16 L 606.83 15.06 C 606.34 14.85 605.36 14.44 604.87 14.24 Z" />
</g>
<g id="#24242467">
<path fill="#242424" opacity="0.40" d=" M 47.57 16.98 C 47.51 15.28 50.17 14.24 51.49 15.11 C 50.37 16.06 48.98 16.60 47.57 16.98 Z" />
</g>
<g id="#3535355f">
<path fill="#353535" opacity="0.37" d=" M 608.28 15.50 C 608.34 15.52 608.45 15.56 608.50 15.58 C 608.45 15.56 608.34 15.52 608.28 15.50 Z" />
</g>
<g id="#36363666">
<path fill="#363636" opacity="0.40" d=" M 610.31 16.44 C 610.36 16.46 610.48 16.52 610.53 16.55 C 610.48 16.52 610.36 16.46 610.31 16.44 Z" />
<path fill="#363636" opacity="0.40" d=" M 65.31 451.96 C 70.16 452.67 75.06 453.18 79.97 453.03 C 248.81 452.94 417.65 453.11 586.49 452.95 C 583.11 454.04 579.53 454.00 576.03 453.99 C 410.35 453.99 244.67 454.00 78.99 453.99 C 74.44 453.36 69.61 453.67 65.31 451.96 Z" />
</g>
<g id="#323232b5">
<path fill="#323232" opacity="0.71" d=" M 46.25 17.44 C 46.29 17.43 46.38 17.39 46.42 17.37 C 46.38 17.39 46.29 17.43 46.25 17.44 Z" />
</g>
<g id="#33333358">
<path fill="#333333" opacity="0.35" d=" M 612.25 17.45 C 612.30 17.48 612.41 17.54 612.46 17.56 C 612.41 17.54 612.30 17.48 612.25 17.45 Z" />
</g>
<g id="#3a3a3a88">
<path fill="#3a3a3a" opacity="0.53" d=" M 44.47 18.51 C 44.51 18.47 44.61 18.40 44.65 18.37 C 44.61 18.40 44.51 18.47 44.47 18.51 Z" />
<path fill="#3a3a3a" opacity="0.53" d=" M 16.41 413.36 C 16.44 413.41 16.49 413.53 16.52 413.59 C 16.49 413.53 16.44 413.41 16.41 413.36 Z" />
<path fill="#3a3a3a" opacity="0.53" d=" M 641.47 414.58 C 641.50 414.52 641.56 414.40 641.59 414.35 C 641.56 414.40 641.50 414.52 641.47 414.58 Z" />
</g>
<g id="#212121b5">
<path fill="#212121" opacity="0.71" d=" M 40.99 21.08 C 41.03 19.41 41.88 18.84 43.55 19.38 C 42.94 20.36 42.09 20.93 40.99 21.08 Z" />
</g>
<g id="#373737a0">
<path fill="#373737" opacity="0.63" d=" M 615.47 19.38 C 615.51 19.41 615.59 19.48 615.62 19.51 C 615.59 19.48 615.51 19.41 615.47 19.38 Z" />
</g>
<g id="#232323ac">
<path fill="#232323" opacity="0.67" d=" M 616.45 20.35 C 618.05 19.81 618.88 20.37 618.95 22.01 C 617.83 21.95 616.99 21.40 616.45 20.35 Z" />
</g>
<g id="#252525b0">
<path fill="#252525" opacity="0.69" d=" M 38.05 23.07 C 38.04 21.53 38.80 20.90 40.33 21.19 C 40.06 22.40 39.30 23.03 38.05 23.07 Z" />
</g>
<g id="#252525ba">
<path fill="#252525" opacity="0.73" d=" M 620.56 23.21 C 622.17 22.80 622.95 23.43 622.87 25.10 C 621.72 24.89 620.95 24.26 620.56 23.21 Z" />
</g>
<g id="#1b1b1bb3">
<path fill="#1b1b1b" opacity="0.70" d=" M 24.84 35.57 C 27.91 30.98 32.00 27.04 36.53 23.88 C 32.73 27.87 28.83 31.77 24.84 35.57 Z" />
</g>
<g id="#1b1b1b2a">
<path fill="#1b1b1b" opacity="0.16" d=" M 626.68 28.08 C 628.33 27.02 630.82 29.60 629.82 31.25 C 628.66 30.30 627.61 29.24 626.68 28.08 Z" />
</g>
<g id="#252525ab">
<path fill="#252525" opacity="0.67" d=" M 632.88 35.09 C 634.58 35.00 635.21 35.78 634.74 37.45 C 633.74 36.95 633.12 36.16 632.88 35.09 Z" />
</g>
<g id="#272727a3">
<path fill="#272727" opacity="0.64" d=" M 74.81 36.53 C 76.55 36.25 78.30 36.07 80.07 36.01 C 244.72 36.01 409.37 36.01 574.02 36.01 C 577.28 36.00 580.62 35.84 583.79 36.82 C 560.86 37.22 537.92 36.90 514.98 36.99 C 377.98 37.00 240.99 36.99 103.99 37.00 C 94.69 36.89 85.37 37.25 76.07 36.80 L 74.81 36.53 Z" />
</g>
<g id="#242424b7">
<path fill="#242424" opacity="0.72" d=" M 22.30 39.45 C 21.81 37.85 22.39 37.06 24.04 37.09 C 23.96 38.19 23.39 38.98 22.30 39.45 Z" />
</g>
<g id="#2e2e2e7a">
<path fill="#2e2e2e" opacity="0.48" d=" M 70.47 37.05 L 71.51 36.81 L 72.19 37.40 C 71.67 37.53 70.65 37.77 70.13 37.90 L 70.47 37.05 Z" />
</g>
<g id="#2b2b2b7a">
<path fill="#2b2b2b" opacity="0.48" d=" M 585.90 37.37 C 587.22 36.25 588.17 36.46 588.75 38.01 C 587.71 38.33 586.75 38.12 585.90 37.37 Z" />
</g>
<g id="#1f1f1f9b">
<path fill="#1f1f1f" opacity="0.61" d=" M 62.69 40.17 C 62.91 38.22 66.53 37.29 68.22 38.08 C 66.60 39.27 64.60 39.70 62.69 40.17 Z" />
</g>
<g id="#2727279a">
<path fill="#272727" opacity="0.60" d=" M 590.74 38.28 C 591.17 38.24 592.04 38.16 592.47 38.12 L 592.71 38.98 C 592.21 38.80 591.23 38.45 590.74 38.28 Z" />
</g>
<g id="#31313181">
<path fill="#313131" opacity="0.51" d=" M 594.39 39.40 C 594.43 39.41 594.51 39.44 594.55 39.45 C 594.51 39.44 594.43 39.41 594.39 39.40 Z" />
<path fill="#313131" opacity="0.51" d=" M 614.48 406.68 C 614.50 406.65 614.54 406.59 614.56 406.56 C 614.54 406.59 614.50 406.65 614.48 406.68 Z" />
</g>
<g id="#20202045">
<path fill="#202020" opacity="0.27" d=" M 636.15 39.07 C 637.95 39.09 638.50 39.93 637.79 41.59 C 636.96 40.93 636.41 40.09 636.15 39.07 Z" />
</g>
<g id="#39393977">
<path fill="#393939" opacity="0.47" d=" M 20.39 41.60 C 20.43 41.55 20.51 41.44 20.55 41.39 C 20.51 41.44 20.43 41.55 20.39 41.60 Z" />
<path fill="#393939" opacity="0.47" d=" M 18.43 417.29 C 18.46 417.34 18.54 417.45 18.58 417.50 C 18.54 417.45 18.46 417.34 18.43 417.29 Z" />
<path fill="#393939" opacity="0.47" d=" M 616.40 442.47 C 616.45 442.44 616.54 442.40 616.59 442.38 C 616.54 442.40 616.45 442.44 616.40 442.47 Z" />
</g>
<g id="#2f2f2f87">
<path fill="#2f2f2f" opacity="0.53" d=" M 59.47 41.49 C 59.51 41.47 59.59 41.43 59.62 41.41 C 59.59 41.43 59.51 41.47 59.47 41.49 Z" />
</g>
<g id="#2e2e2e54">
<path fill="#2e2e2e" opacity="0.33" d=" M 598.75 41.38 C 598.79 41.40 598.87 41.45 598.90 41.47 C 598.87 41.45 598.79 41.40 598.75 41.38 Z" />
</g>
<g id="#32323270">
<path fill="#323232" opacity="0.44" d=" M 600.40 42.30 C 600.44 42.33 600.52 42.38 600.56 42.41 C 600.52 42.38 600.44 42.33 600.40 42.30 Z" />
</g>
<g id="#3939398a">
<path fill="#393939" opacity="0.54" d=" M 638.42 42.38 C 638.45 42.42 638.50 42.50 638.53 42.54 C 638.50 42.50 638.45 42.42 638.42 42.38 Z" />
<path fill="#393939" opacity="0.54" d=" M 51.40 447.59 C 51.49 447.64 51.68 447.73 51.77 447.78 C 51.68 447.73 51.49 447.64 51.40 447.59 Z" />
</g>
<g id="#1e1e1e7f">
<path fill="#1e1e1e" opacity="0.50" d=" M 17.15 47.93 C 16.75 46.07 18.13 42.81 20.09 42.63 C 19.63 44.65 18.44 46.36 17.15 47.93 Z" />
</g>
<g id="#31313164">
<path fill="#313131" opacity="0.39" d=" M 56.36 43.39 C 56.39 43.37 56.46 43.32 56.50 43.30 C 56.46 43.32 56.39 43.37 56.36 43.39 Z" />
</g>
<g id="#1e1e1ea2">
<path fill="#1e1e1e" opacity="0.64" d=" M 601.65 43.24 C 603.36 42.61 604.19 43.19 604.14 44.97 C 603.11 44.67 602.28 44.09 601.65 43.24 Z" />
</g>
<g id="#20202092">
<path fill="#202020" opacity="0.57" d=" M 638.90 43.25 C 640.97 45.72 642.39 48.66 643.17 51.79 C 641.50 49.07 640.23 46.14 638.90 43.25 Z" />
</g>
<g id="#161616a9">
<path fill="#161616" opacity="0.66" d=" M 605.42 45.71 C 609.87 48.02 613.29 52.29 615.11 56.92 C 612.33 52.81 608.96 49.16 605.42 45.71 Z" />
</g>
<g id="#2d2d2d79">
<path fill="#2d2d2d" opacity="0.47" d=" M 15.15 50.38 L 16.05 50.25 C 15.83 50.73 15.38 51.69 15.15 52.16 L 14.69 51.36 L 15.15 50.38 Z" />
</g>
<g id="#1b1b1b6d">
<path fill="#1b1b1b" opacity="0.43" d=" M 45.16 54.39 C 44.73 52.77 46.58 50.32 48.30 50.61 C 47.60 52.11 46.66 53.58 45.16 54.39 Z" />
</g>
<g id="#39393991">
<path fill="#393939" opacity="0.57" d=" M 643.57 52.47 C 643.62 52.55 643.72 52.71 643.77 52.79 C 643.72 52.71 643.62 52.55 643.57 52.47 Z" />
<path fill="#393939" opacity="0.57" d=" M 45.39 444.51 C 45.45 444.54 45.56 444.60 45.62 444.63 C 45.56 444.60 45.45 444.54 45.39 444.51 Z" />
</g>
<g id="#3a3a3a83">
<path fill="#3a3a3a" opacity="0.51" d=" M 14.43 53.64 C 14.45 53.58 14.50 53.47 14.52 53.42 C 14.50 53.47 14.45 53.58 14.43 53.64 Z" />
<path fill="#3a3a3a" opacity="0.51" d=" M 40.39 441.44 C 40.44 441.47 40.53 441.54 40.57 441.58 C 40.53 441.54 40.44 441.47 40.39 441.44 Z" />
<path fill="#3a3a3a" opacity="0.51" d=" M 59.39 450.51 C 59.45 450.52 59.56 450.55 59.62 450.57 C 59.56 450.55 59.45 450.52 59.39 450.51 Z" />
</g>
<g id="#30303082">
<path fill="#303030" opacity="0.51" d=" M 643.85 54.23 L 644.78 54.33 L 645.30 55.28 L 644.90 56.09 C 644.64 55.62 644.11 54.70 643.85 54.23 Z" />
</g>
<g id="#1b1b1b46">
<path fill="#1b1b1b" opacity="0.27" d=" M 43.42 57.33 C 42.87 55.67 43.41 54.87 45.04 54.93 C 44.99 56.01 44.45 56.81 43.42 57.33 Z" />
</g>
<g id="#3737379b">
<path fill="#373737" opacity="0.61" d=" M 13.38 56.57 C 13.39 56.51 13.42 56.41 13.44 56.36 C 13.42 56.41 13.39 56.51 13.38 56.57 Z" />
</g>
<g id="#34343480">
<path fill="#343434" opacity="0.50" d=" M 644.95 57.20 L 645.85 57.34 L 646.31 58.32 L 645.85 59.12 C 645.62 58.64 645.17 57.68 644.95 57.20 Z" />
</g>
<g id="#3131316c">
<path fill="#313131" opacity="0.42" d=" M 42.29 58.61 C 42.31 58.58 42.35 58.51 42.37 58.48 C 42.35 58.51 42.31 58.58 42.29 58.61 Z" />
</g>
<g id="#303030ae">
<path fill="#303030" opacity="0.68" d=" M 12.17 58.88 L 13.06 58.72 C 12.84 59.21 12.42 60.19 12.21 60.68 L 11.74 59.88 L 12.17 58.88 Z" />
</g>
<g id="#31313170">
<path fill="#313131" opacity="0.44" d=" M 41.44 60.43 C 41.46 60.39 41.49 60.29 41.51 60.24 C 41.49 60.29 41.46 60.39 41.44 60.43 Z" />
<path fill="#313131" opacity="0.44" d=" M 472.48 298.46 C 472.52 298.49 472.60 298.54 472.64 298.56 C 472.60 298.54 472.52 298.49 472.48 298.46 Z" />
</g>
<g id="#2c2c2c7c">
<path fill="#2c2c2c" opacity="0.49" d=" M 645.86 60.30 C 647.53 60.69 647.83 61.61 646.76 63.07 C 646.04 62.27 645.74 61.35 645.86 60.30 Z" />
</g>
<g id="#2f2f2f84">
<path fill="#2f2f2f" opacity="0.52" d=" M 11.31 65.11 C 10.17 63.67 10.44 62.72 12.12 62.26 C 12.21 63.31 11.94 64.26 11.31 65.11 Z" />
</g>
<g id="#20202091">
<path fill="#202020" opacity="0.57" d=" M 39.25 66.50 C 38.43 64.94 39.26 61.71 41.16 61.53 C 40.83 63.29 40.13 64.95 39.25 66.50 Z" />
</g>
<g id="#28282886">
<path fill="#282828" opacity="0.53" d=" M 617.97 63.19 L 618.87 63.37 L 619.28 64.38 L 618.77 65.15 C 618.57 64.66 618.17 63.68 617.97 63.19 Z" />
</g>
<g id="#2e2e2e80">
<path fill="#2e2e2e" opacity="0.50" d=" M 646.85 64.36 C 648.62 64.27 648.91 67.31 647.66 68.19 C 647.08 66.99 646.76 65.69 646.85 64.36 Z" />
</g>
<g id="#10101018">
<path fill="#101010" opacity="0.09" d=" M 618.91 65.37 C 621.23 71.30 621.05 77.75 621.02 84.00 C 621.00 181.35 621.01 278.71 621.01 376.06 C 620.95 381.84 621.38 387.72 620.01 393.39 C 619.92 388.26 620.06 383.14 620.32 378.02 C 620.67 370.67 619.93 363.34 619.93 356.00 C 619.78 345.33 620.92 334.66 620.14 323.99 C 619.30 310.65 621.01 297.31 620.13 283.97 C 619.31 270.66 621.02 257.34 620.14 244.03 C 619.29 230.35 621.06 216.68 620.10 203.01 C 619.38 190.68 620.90 178.35 620.22 166.02 C 619.79 157.69 619.82 149.34 620.26 141.01 C 620.84 130.01 619.55 119.03 619.99 108.03 C 620.68 93.82 620.49 79.52 618.91 65.37 Z" />
</g>
<g id="#2f2f2f9d">
<path fill="#2f2f2f" opacity="0.62" d=" M 10.32 72.04 C 9.30 70.83 9.20 67.48 11.06 67.21 C 11.35 68.87 10.94 70.51 10.32 72.04 Z" />
</g>
<g id="#343434a8">
<path fill="#343434" opacity="0.66" d=" M 648.01 69.37 C 649.34 74.47 648.96 79.78 649.00 85.00 C 649.00 182.66 649.00 280.32 649.00 377.98 C 648.97 383.14 649.32 388.39 647.91 393.42 C 648.15 285.40 647.95 177.38 648.01 69.37 Z" />
</g>
<g id="#1c1c1c27">
<path fill="#1c1c1c" opacity="0.15" d=" M 9.05 84.03 C 8.98 80.86 8.57 77.54 9.91 74.55 C 10.05 179.15 10.02 283.76 9.92 388.36 C 9.42 386.62 9.06 384.82 9.11 383.01 C 9.43 369.32 8.66 355.64 9.11 341.95 C 9.44 329.62 8.74 317.30 9.03 304.97 C 9.53 291.64 8.73 278.31 9.03 264.98 C 9.54 251.32 8.69 237.66 9.05 224.00 C 9.50 210.99 8.73 197.99 9.03 184.99 C 9.55 170.99 8.66 156.99 9.08 143.00 C 9.47 132.01 8.83 121.02 8.99 110.03 C 9.04 101.37 9.43 92.69 9.05 84.03 Z" />
</g>
<g id="#2727279f">
<path fill="#272727" opacity="0.62" d=" M 115.07 107.04 C 116.96 106.28 118.98 105.91 121.03 105.98 C 139.35 106.01 157.67 106.01 175.99 105.98 C 179.36 105.91 182.71 106.60 185.79 107.97 C 179.29 106.44 172.59 107.05 165.98 106.96 C 149.01 107.11 132.04 106.81 115.07 107.04 Z" />
</g>
<g id="#2b2b2b7b">
<path fill="#2b2b2b" opacity="0.48" d=" M 112.25 107.22 L 113.24 106.78 L 114.02 107.26 C 113.54 107.48 112.58 107.91 112.10 108.12 L 112.25 107.22 Z" />
</g>
<g id="#25252584">
<path fill="#252525" opacity="0.52" d=" M 186.01 108.23 L 186.79 107.77 L 187.77 108.24 L 187.90 109.15 C 187.43 108.92 186.48 108.46 186.01 108.23 Z" />
</g>
<g id="#30303085">
<path fill="#303030" opacity="0.52" d=" M 106.43 110.51 C 106.47 110.49 106.55 110.44 106.59 110.41 C 106.55 110.44 106.47 110.49 106.43 110.51 Z" />
</g>
<g id="#181818ba">
<path fill="#181818" opacity="0.73" d=" M 191.39 111.34 C 192.87 110.67 195.42 112.56 194.93 114.17 C 193.41 113.73 192.16 112.71 191.39 111.34 Z" />
</g>
<g id="#1b1b1bac">
<path fill="#1b1b1b" opacity="0.67" d=" M 98.94 117.55 C 100.09 115.07 102.09 113.07 104.59 111.97 C 102.82 113.94 100.93 115.80 98.94 117.55 Z" />
</g>
<g id="#1919197b">
<path fill="#191919" opacity="0.48" d=" M 196.84 115.87 C 198.61 115.54 200.58 118.17 199.79 119.79 C 198.55 118.69 197.55 117.36 196.84 115.87 Z" />
</g>
<g id="#1d1d1d79">
<path fill="#1d1d1d" opacity="0.47" d=" M 95.22 124.51 C 94.36 122.56 96.11 118.67 98.24 118.67 C 97.45 120.72 96.40 122.65 95.22 124.51 Z" />
</g>
<g id="#3131317e">
<path fill="#313131" opacity="0.49" d=" M 200.44 120.47 C 200.47 120.50 200.51 120.56 200.54 120.59 C 200.51 120.56 200.47 120.50 200.44 120.47 Z" />
</g>
<g id="#2929298b">
<path fill="#292929" opacity="0.55" d=" M 201.96 124.05 L 202.86 124.24 L 203.26 125.25 L 202.75 126.01 C 202.56 125.52 202.16 124.54 201.96 124.05 Z" />
</g>
<g id="#2727278f">
<path fill="#272727" opacity="0.56" d=" M 94.14 125.22 L 95.04 125.05 C 94.82 125.54 94.40 126.50 94.18 126.98 L 93.70 126.20 L 94.14 125.22 Z" />
</g>
<g id="#1a1a1a36">
<path fill="#1a1a1a" opacity="0.21" d=" M 203.09 126.33 C 204.30 128.04 204.18 130.21 204.41 132.20 C 205.16 146.12 204.98 160.06 204.61 173.99 C 204.25 177.18 204.72 180.70 203.01 183.57 C 203.56 180.41 204.03 177.22 204.01 174.00 C 203.99 161.31 203.99 148.62 204.01 135.93 C 204.03 132.71 203.60 129.50 203.09 126.33 Z" />
</g>
<g id="#1a1a1ab9">
<path fill="#1a1a1a" opacity="0.73" d=" M 92.98 134.01 C 92.92 131.79 93.31 129.59 94.09 127.52 C 93.72 145.65 93.72 163.79 94.03 181.92 C 93.36 180.03 92.94 178.05 92.99 176.03 C 93.00 162.02 93.02 148.02 92.98 134.01 Z" />
</g>
<g id="#1c1c1c7f">
<path fill="#1c1c1c" opacity="0.50" d=" M 120.30 133.88 C 123.16 133.35 126.08 133.42 128.99 133.47 C 144.95 133.49 160.91 133.51 176.88 133.46 C 177.17 147.63 176.92 161.82 177.00 176.00 C 158.13 176.00 139.27 176.01 120.41 175.99 C 120.22 161.96 120.40 147.92 120.30 133.88 M 121.03 134.02 C 120.98 147.84 121.00 161.66 121.02 175.48 C 139.35 175.82 157.70 175.37 176.04 175.63 C 176.18 161.76 176.07 147.89 176.07 134.01 C 157.72 134.00 139.37 133.99 121.03 134.02 Z" />
</g>
<g id="#161616df">
<path fill="#161616" opacity="0.87" d=" M 363.37 135.17 C 367.30 133.30 371.78 134.34 375.97 134.11 C 393.65 133.61 411.34 134.44 429.02 133.93 C 445.02 134.16 461.03 134.06 477.03 133.94 C 493.02 134.46 509.02 133.60 525.01 134.09 C 531.67 134.09 538.33 134.17 544.99 133.94 C 548.91 133.94 552.99 133.57 556.72 135.08 C 519.83 134.91 482.93 135.07 446.04 135.01 C 440.04 134.82 434.04 134.56 428.05 134.89 C 406.49 135.32 384.92 134.66 363.37 135.17 Z" />
</g>
<g id="#3232326e">
<path fill="#323232" opacity="0.43" d=" M 362.37 135.58 C 362.41 135.56 362.48 135.52 362.52 135.50 C 362.48 135.52 362.41 135.56 362.37 135.58 Z" />
</g>
<g id="#1b1b1b33">
<path fill="#1b1b1b" opacity="0.20" d=" M 358.13 139.32 C 357.19 137.59 359.88 135.14 361.53 136.23 C 360.44 137.32 359.31 138.35 358.13 139.32 Z" />
<path fill="#1b1b1b" opacity="0.20" d=" M 94.14 278.32 C 93.20 276.67 95.77 274.20 97.38 275.22 C 96.50 276.44 95.31 277.38 94.14 278.32 Z" />
</g>
<g id="#18181896">
<path fill="#181818" opacity="0.59" d=" M 558.38 135.90 C 560.95 136.81 562.89 138.93 563.85 141.46 C 562.00 139.63 560.19 137.75 558.38 135.90 Z" />
</g>
<g id="#31313172">
<path fill="#313131" opacity="0.45" d=" M 356.52 141.48 C 356.54 141.45 356.57 141.39 356.59 141.36 C 356.57 141.39 356.54 141.45 356.52 141.48 Z" />
<path fill="#313131" opacity="0.45" d=" M 300.50 361.50 C 300.52 361.47 300.56 361.39 300.57 361.35 C 300.56 361.39 300.52 361.47 300.50 361.50 Z" />
</g>
<g id="#1f1f1f6f">
<path fill="#1f1f1f" opacity="0.44" d=" M 563.95 141.58 C 566.82 145.67 566.64 152.28 562.84 155.53 C 565.60 151.38 565.46 146.16 563.95 141.58 Z" />
</g>
<g id="#1f1f1fa7">
<path fill="#1f1f1f" opacity="0.65" d=" M 355.15 152.49 C 355.08 149.09 354.31 145.40 356.14 142.30 C 355.66 145.61 355.48 148.98 356.09 152.30 L 355.15 152.49 Z" />
</g>
<g id="#1c1c1ca5">
<path fill="#1c1c1c" opacity="0.65" d=" M 356.33 152.64 C 357.21 153.64 357.87 154.80 358.20 156.10 C 356.53 156.57 355.26 153.83 356.33 152.64 Z" />
</g>
<g id="#1f1f1f9e">
<path fill="#1f1f1f" opacity="0.62" d=" M 559.35 158.93 C 560.22 157.56 561.40 156.42 562.79 155.57 C 563.35 157.22 561.01 159.58 559.35 158.93 Z" />
<path fill="#1f1f1f" opacity="0.62" d=" M 38.27 391.89 C 39.09 393.86 39.65 395.92 39.98 398.04 C 37.91 398.11 37.14 393.51 38.27 391.89 Z" />
</g>
<g id="#1e1e1e9a">
<path fill="#1e1e1e" opacity="0.60" d=" M 360.91 158.81 C 362.11 159.16 363.61 159.46 364.19 160.74 C 363.00 161.67 360.53 160.33 360.91 158.81 Z" />
</g>
<g id="#232323ab">
<path fill="#232323" opacity="0.67" d=" M 550.02 161.04 C 552.87 161.06 555.72 160.68 558.47 159.95 C 555.94 161.47 552.98 162.06 550.06 162.01 C 489.71 162.00 429.36 161.99 369.01 162.02 C 367.44 162.07 365.92 161.71 364.46 161.20 C 370.29 160.97 376.13 161.10 381.97 161.02 C 437.99 161.05 494.01 161.01 550.02 161.04 Z" />
</g>
<g id="#2c2c2c79">
<path fill="#2c2c2c" opacity="0.47" d=" M 94.23 182.93 C 94.44 183.42 94.84 184.39 95.05 184.88 L 94.15 184.70 L 93.73 183.70 L 94.23 182.93 Z" />
</g>
<g id="#28282875">
<path fill="#282828" opacity="0.46" d=" M 202.01 185.88 C 202.19 185.38 202.54 184.38 202.71 183.88 L 203.26 184.61 L 202.90 185.64 L 202.01 185.88 Z" />
</g>
<g id="#31313162">
<path fill="#313131" opacity="0.38" d=" M 201.41 187.53 C 201.43 187.49 201.47 187.42 201.49 187.38 C 201.47 187.42 201.43 187.49 201.41 187.53 Z" />
</g>
<g id="#2e2e2e91">
<path fill="#2e2e2e" opacity="0.57" d=" M 96.43 188.53 C 96.45 188.56 96.49 188.62 96.51 188.65 C 96.49 188.62 96.45 188.56 96.43 188.53 Z" />
</g>
<g id="#1a1a1a9a">
<path fill="#1a1a1a" opacity="0.60" d=" M 198.86 191.09 C 199.04 190.02 199.58 189.17 200.49 188.56 C 201.11 190.25 200.56 191.09 198.86 191.09 Z" />
</g>
<g id="#1d1d1da6">
<path fill="#1d1d1d" opacity="0.65" d=" M 97.44 189.57 C 98.36 190.17 98.93 191.01 99.16 192.08 C 97.44 192.10 96.87 191.26 97.44 189.57 Z" />
</g>
<g id="#1919192c">
<path fill="#191919" opacity="0.17" d=" M 99.34 192.58 C 100.37 193.61 101.36 194.67 102.28 195.79 C 100.61 196.92 98.09 194.16 99.34 192.58 Z" />
</g>
<g id="#1c1c1ca6">
<path fill="#1c1c1c" opacity="0.65" d=" M 192.29 198.04 C 194.11 196.08 196.04 194.22 198.08 192.49 C 196.84 194.94 194.84 196.97 192.29 198.04 Z" />
</g>
<g id="#2e2e2e8f">
<path fill="#2e2e2e" opacity="0.56" d=" M 105.39 198.51 C 105.42 198.53 105.49 198.58 105.52 198.60 C 105.49 198.58 105.42 198.53 105.39 198.51 Z" />
</g>
<g id="#31313168">
<path fill="#313131" opacity="0.41" d=" M 190.35 199.53 C 190.39 199.50 190.47 199.46 190.51 199.43 C 190.47 199.46 190.39 199.50 190.35 199.53 Z" />
</g>
<g id="#2020208e">
<path fill="#202020" opacity="0.56" d=" M 108.05 199.69 C 109.72 200.03 111.24 200.79 112.67 201.70 C 111.20 202.64 108.00 201.54 108.05 199.69 Z" />
</g>
<g id="#31313178">
<path fill="#313131" opacity="0.47" d=" M 188.60 200.47 C 188.63 200.45 188.71 200.41 188.74 200.39 C 188.71 200.41 188.63 200.45 188.60 200.47 Z" />
<path fill="#313131" opacity="0.47" d=" M 347.51 298.44 C 347.55 298.47 347.62 298.51 347.66 298.54 C 347.62 298.51 347.55 298.47 347.51 298.44 Z" />
</g>
<g id="#28282853">
<path fill="#282828" opacity="0.33" d=" M 177.04 203.01 C 180.72 203.09 184.28 202.02 187.73 200.84 C 181.63 204.78 173.98 203.94 167.06 204.00 C 152.03 203.64 137.00 204.14 121.97 203.98 C 120.07 204.02 118.18 203.72 116.45 202.92 C 136.64 203.11 156.84 202.94 177.04 203.01 Z" />
</g>
<g id="#2424248a">
<path fill="#242424" opacity="0.54" d=" M 113.25 201.82 C 114.29 201.74 115.22 202.03 116.03 202.69 C 114.59 203.82 113.66 203.53 113.25 201.82 Z" />
</g>
<g id="#1e1e1eab">
<path fill="#1e1e1e" opacity="0.67" d=" M 97.90 275.16 C 97.96 273.33 101.16 272.51 102.60 273.38 C 101.13 274.19 99.63 275.11 97.90 275.16 Z" />
</g>
<g id="#2b2b2b8b">
<path fill="#2b2b2b" opacity="0.55" d=" M 178.99 273.28 L 179.76 272.76 L 180.77 273.16 L 180.96 274.05 C 180.47 273.86 179.49 273.47 178.99 273.28 Z" />
</g>
<g id="#22222298">
<path fill="#222222" opacity="0.60" d=" M 225.12 274.18 C 225.58 272.47 226.53 272.19 227.97 273.35 C 227.12 273.96 226.17 274.24 225.12 274.18 Z" />
</g>
<g id="#2e2e2e87">
<path fill="#2e2e2e" opacity="0.53" d=" M 303.99 273.30 L 304.75 272.77 L 305.76 273.15 L 305.97 274.04 C 305.47 273.86 304.48 273.49 303.99 273.30 Z" />
</g>
<g id="#2d2d2d7e">
<path fill="#2d2d2d" opacity="0.49" d=" M 350.29 273.13 L 351.30 272.75 L 352.06 273.28 C 351.56 273.46 350.57 273.83 350.07 274.01 L 350.29 273.13 Z" />
</g>
<g id="#2c2c2c85">
<path fill="#2c2c2c" opacity="0.52" d=" M 428.97 273.27 L 429.73 272.75 L 430.74 273.13 L 430.94 274.03 C 430.45 273.84 429.46 273.46 428.97 273.27 Z" />
</g>
<g id="#2b2b2b7d">
<path fill="#2b2b2b" opacity="0.49" d=" M 475.29 273.12 L 476.30 272.74 L 477.06 273.26 C 476.57 273.45 475.58 273.83 475.08 274.01 L 475.29 273.12 Z" />
</g>
<g id="#2e2e2e85">
<path fill="#2e2e2e" opacity="0.52" d=" M 554.02 273.26 L 554.80 272.76 L 555.80 273.17 L 555.97 274.07 C 555.48 273.87 554.51 273.46 554.02 273.26 Z" />
</g>
<g id="#31313176">
<path fill="#313131" opacity="0.46" d=" M 223.47 274.50 C 223.51 274.48 223.58 274.45 223.61 274.43 C 223.58 274.45 223.51 274.48 223.47 274.50 Z" />
<path fill="#313131" opacity="0.46" d=" M 97.51 298.42 C 97.55 298.45 97.62 298.49 97.65 298.52 C 97.62 298.49 97.55 298.45 97.51 298.42 Z" />
<path fill="#313131" opacity="0.46" d=" M 599.67 420.53 C 599.70 420.51 599.77 420.47 599.80 420.46 C 599.77 420.47 599.70 420.51 599.67 420.53 Z" />
</g>
<g id="#3131317c">
<path fill="#313131" opacity="0.49" d=" M 348.46 274.52 C 348.49 274.50 348.56 274.47 348.60 274.45 C 348.56 274.47 348.49 274.50 348.46 274.52 Z" />
</g>
<g id="#32323274">
<path fill="#323232" opacity="0.45" d=" M 473.50 274.51 C 473.54 274.50 473.61 274.47 473.64 274.45 C 473.61 274.47 473.54 274.50 473.50 274.51 Z" />
</g>
<g id="#181818bb">
<path fill="#181818" opacity="0.73" d=" M 183.46 274.92 C 186.01 275.98 187.85 278.11 188.98 280.58 C 187.08 278.75 185.26 276.85 183.46 274.92 Z" />
</g>
<g id="#1b1b1b30">
<path fill="#1b1b1b" opacity="0.19" d=" M 219.17 278.26 C 218.18 276.54 220.91 274.11 222.54 275.21 C 221.46 276.28 220.34 277.30 219.17 278.26 Z" />
</g>
<g id="#171717b8">
<path fill="#171717" opacity="0.72" d=" M 308.49 274.93 C 311.08 275.96 312.85 278.19 314.00 280.66 C 312.08 278.82 310.27 276.89 308.49 274.93 Z" />
</g>
<g id="#171717bc">
<path fill="#171717" opacity="0.74" d=" M 558.49 274.94 C 560.93 276.01 562.87 277.96 563.88 280.45 C 562.02 278.67 560.24 276.81 558.49 274.94 Z" />
</g>
<g id="#1f1f1f3a">
<path fill="#1f1f1f" opacity="0.23" d=" M 344.19 278.31 C 343.74 276.52 344.42 275.81 346.22 276.17 C 345.76 277.09 345.09 277.81 344.19 278.31 Z" />
</g>
<g id="#1f1f1f3b">
<path fill="#1f1f1f" opacity="0.23" d=" M 469.20 278.31 C 468.76 276.52 469.44 275.82 471.25 276.19 C 470.78 277.11 470.10 277.81 469.20 278.31 Z" />
</g>
<g id="#1d1d1d9a">
<path fill="#1d1d1d" opacity="0.60" d=" M 436.82 278.10 C 438.40 278.00 439.08 278.76 438.83 280.37 C 437.70 280.08 437.03 279.32 436.82 278.10 Z" />
</g>
<g id="#27272791">
<path fill="#272727" opacity="0.57" d=" M 92.16 280.22 L 93.06 280.10 C 92.83 280.57 92.36 281.51 92.12 281.99 L 91.67 281.18 L 92.16 280.22 Z" />
</g>
<g id="#25252593">
<path fill="#252525" opacity="0.58" d=" M 217.20 280.17 L 218.11 280.06 C 217.87 280.53 217.40 281.47 217.16 281.94 L 216.71 281.14 L 217.20 280.17 Z" />
</g>
<g id="#3030305c">
<path fill="#303030" opacity="0.36" d=" M 342.55 280.55 C 342.56 280.52 342.59 280.47 342.61 280.44 C 342.59 280.47 342.56 280.52 342.55 280.55 Z" />
</g>
<g id="#2828288f">
<path fill="#282828" opacity="0.56" d=" M 467.30 280.14 L 468.20 280.05 C 467.95 280.52 467.45 281.44 467.20 281.90 L 466.78 281.09 L 467.30 280.14 Z" />
</g>
<g id="#22222267">
<path fill="#222222" opacity="0.40" d=" M 189.02 280.62 C 191.55 284.27 191.64 289.37 189.07 293.03 C 190.27 288.98 190.32 284.65 189.02 280.62 Z" />
</g>
<g id="#22222277">
<path fill="#222222" opacity="0.47" d=" M 314.04 280.71 C 315.73 283.53 316.64 287.15 315.04 290.22 C 315.16 287.02 314.93 283.80 314.04 280.71 Z" />
</g>
<g id="#2a2a2a81">
<path fill="#2a2a2a" opacity="0.51" d=" M 438.78 281.12 L 439.69 281.21 L 440.20 282.13 L 439.81 282.93 C 439.55 282.48 439.04 281.57 438.78 281.12 Z" />
</g>
<g id="#21212173">
<path fill="#212121" opacity="0.45" d=" M 564.00 280.59 C 566.67 284.24 565.98 289.03 564.46 292.99 L 564.35 292.01 C 565.08 288.22 565.27 284.29 564.00 280.59 Z" />
</g>
<g id="#24242495">
<path fill="#242424" opacity="0.58" d=" M 342.00 291.65 C 340.39 288.41 340.44 284.23 342.29 281.10 C 341.68 284.58 341.57 288.13 342.00 291.65 Z" />
</g>
<g id="#212121a5">
<path fill="#212121" opacity="0.65" d=" M 91.45 282.10 L 91.70 283.04 C 91.79 285.90 91.81 288.76 92.02 291.61 C 90.34 288.70 91.01 285.23 91.45 282.10 Z" />
</g>
<g id="#232323a6">
<path fill="#232323" opacity="0.65" d=" M 216.35 285.74 C 215.27 284.20 215.53 283.20 217.15 282.73 C 217.24 283.82 216.98 284.82 216.35 285.74 Z" />
</g>
<g id="#2020209b">
<path fill="#202020" opacity="0.61" d=" M 466.36 282.09 L 466.76 283.11 C 466.58 286.78 466.85 290.49 468.11 293.99 C 465.29 290.68 465.82 286.06 466.36 282.09 Z" />
</g>
<g id="#2b2b2b50">
<path fill="#2b2b2b" opacity="0.31" d=" M 439.94 284.18 C 441.86 284.47 441.84 289.29 439.92 289.65 C 439.93 287.82 439.92 286.00 439.94 284.18 Z" />
</g>
<g id="#2121219d">
<path fill="#212121" opacity="0.62" d=" M 216.35 286.95 C 216.86 288.15 217.31 289.40 217.26 290.74 C 215.42 290.99 215.12 287.85 216.35 286.95 Z" />
</g>
<g id="#1c1c1c5b">
<path fill="#1c1c1c" opacity="0.36" d=" M 312.95 294.25 C 313.36 292.97 313.95 291.75 314.76 290.68 C 315.91 291.86 314.67 294.68 312.95 294.25 Z" />
</g>
<g id="#21212192">
<path fill="#212121" opacity="0.57" d=" M 437.86 294.28 C 438.20 292.89 438.84 291.61 439.64 290.44 C 440.60 291.68 439.60 294.56 437.86 294.28 Z" />
</g>
<g id="#1c1c1cb2">
<path fill="#1c1c1c" opacity="0.70" d=" M 93.38 293.60 C 94.48 294.01 95.06 294.77 95.11 295.87 C 93.46 295.94 92.88 295.19 93.38 293.60 Z" />
</g>
<g id="#1c1c1cae">
<path fill="#1c1c1c" opacity="0.68" d=" M 218.38 293.72 C 219.54 294.01 220.12 294.76 220.12 295.96 C 218.53 296.00 217.95 295.25 218.38 293.72 Z" />
</g>
<g id="#1c1c1cbd">
<path fill="#1c1c1c" opacity="0.74" d=" M 343.44 293.73 C 344.52 294.21 345.10 295.00 345.19 296.11 C 343.54 296.13 342.96 295.34 343.44 293.73 Z" />
</g>
<g id="#1d1d1d3c">
<path fill="#1d1d1d" opacity="0.24" d=" M 184.56 297.90 C 185.60 296.68 186.72 295.53 187.91 294.47 C 188.79 296.16 186.28 298.75 184.56 297.90 Z" />
</g>
<g id="#1d1d1d3b">
<path fill="#1d1d1d" opacity="0.23" d=" M 309.75 297.81 C 310.52 296.50 311.69 295.51 312.81 294.51 C 313.79 296.10 311.38 298.73 309.75 297.81 Z" />
</g>
<g id="#1b1b1b35">
<path fill="#1b1b1b" opacity="0.21" d=" M 434.63 297.73 C 435.62 296.66 436.66 295.62 437.73 294.62 C 438.91 296.25 436.25 298.92 434.63 297.73 Z" />
</g>
<g id="#1c1c1c35">
<path fill="#1c1c1c" opacity="0.21" d=" M 559.62 297.85 C 560.61 296.68 561.68 295.59 562.82 294.57 C 563.83 296.23 561.29 298.85 559.62 297.85 Z" />
</g>
<g id="#31313174">
<path fill="#313131" opacity="0.45" d=" M 222.49 298.41 C 222.54 298.44 222.62 298.49 222.66 298.52 C 222.62 298.49 222.54 298.44 222.49 298.41 Z" />
</g>
<g id="#1f1f1f99">
<path fill="#1f1f1f" opacity="0.60" d=" M 305.78 299.72 C 306.54 298.59 307.86 297.95 309.21 297.88 C 309.55 299.44 306.96 300.47 305.78 299.72 Z" />
</g>
<g id="#2020209c">
<path fill="#202020" opacity="0.61" d=" M 430.72 299.69 C 431.53 298.51 432.98 298.17 434.28 297.85 C 434.55 299.44 431.92 300.54 430.72 299.69 Z" />
</g>
<g id="#2929296f">
<path fill="#292929" opacity="0.44" d=" M 181.13 299.97 C 181.54 299.67 182.35 299.07 182.75 298.77 C 182.55 299.14 182.14 299.89 181.94 300.26 L 181.13 299.97 Z" />
</g>
<g id="#2a2a2a6d">
<path fill="#2a2a2a" opacity="0.43" d=" M 555.92 299.75 C 556.40 299.53 557.36 299.08 557.83 298.86 L 557.70 299.76 L 556.71 300.23 L 555.92 299.75 Z" />
</g>
<g id="#2c2c2c91">
<path fill="#2c2c2c" opacity="0.57" d=" M 102.12 300.19 C 128.25 299.78 154.39 300.16 180.52 299.97 C 178.76 300.71 176.88 301.08 174.97 301.01 C 154.31 300.99 133.65 301.00 112.99 301.00 C 108.97 300.98 104.92 301.21 100.92 300.60 L 102.12 300.19 Z" />
</g>
<g id="#2c2c2c90">
<path fill="#2c2c2c" opacity="0.56" d=" M 225.49 299.98 C 252.13 300.17 278.79 299.80 305.44 300.14 C 303.67 300.72 301.83 301.07 299.96 301.02 C 276.64 300.99 253.32 300.99 229.99 301.02 C 228.41 301.09 226.87 300.72 225.49 299.98 Z" />
</g>
<g id="#2c2c2c8f">
<path fill="#2c2c2c" opacity="0.56" d=" M 350.53 300.00 C 377.14 300.16 403.77 299.81 430.39 300.14 C 428.63 300.75 426.79 301.07 424.94 301.02 C 401.62 300.98 378.30 300.99 354.99 301.02 C 353.42 301.10 351.92 300.67 350.53 300.00 Z" />
<path fill="#2c2c2c" opacity="0.56" d=" M 475.45 299.95 C 502.12 300.15 528.82 299.91 555.50 300.05 C 553.76 300.77 551.90 301.08 550.02 301.02 C 526.67 300.98 503.31 301.00 479.96 301.02 C 478.37 301.10 476.84 300.66 475.45 299.95 Z" />
</g>
<g id="#2d2d2d91">
<path fill="#2d2d2d" opacity="0.57" d=" M 100.87 342.38 C 105.25 341.77 109.67 342.04 114.07 342.00 C 171.38 342.00 228.68 342.03 285.99 341.99 C 287.84 341.93 289.70 342.20 291.41 342.96 C 228.30 342.98 165.18 343.06 102.08 342.92 L 100.87 342.38 Z" />
</g>
<g id="#1a1a1a83">
<path fill="#1a1a1a" opacity="0.51" d=" M 291.45 342.96 C 296.28 343.69 300.45 347.81 301.06 352.68 C 299.19 348.33 295.76 344.90 291.45 342.96 Z" />
</g>
<g id="#1c1c1caf">
<path fill="#1c1c1c" opacity="0.69" d=" M 95.98 346.18 C 95.92 344.46 96.73 343.87 98.40 344.41 C 97.86 345.36 97.05 345.95 95.98 346.18 Z" />
</g>
<g id="#2a2a2a90">
<path fill="#2a2a2a" opacity="0.56" d=" M 91.43 354.91 C 90.32 353.44 90.57 352.43 92.16 351.89 C 92.30 352.99 92.06 354.00 91.43 354.91 Z" />
</g>
<g id="#2c2c2c61">
<path fill="#2c2c2c" opacity="0.38" d=" M 301.06 353.21 C 302.88 354.05 302.81 358.97 300.89 359.75 C 300.91 357.56 300.93 355.38 301.06 353.21 Z" />
</g>
<g id="#21212175">
<path fill="#212121" opacity="0.46" d=" M 91.25 356.81 C 92.11 358.88 92.65 361.07 93.25 363.24 C 90.98 362.80 90.16 358.71 91.25 356.81 Z" />
</g>
<g id="#1d1d1dac">
<path fill="#1d1d1d" opacity="0.67" d=" M 297.84 365.02 C 298.09 363.95 298.67 363.12 299.59 362.52 C 300.16 364.20 299.57 365.04 297.84 365.02 Z" />
</g>
<g id="#1f1f1f39">
<path fill="#1f1f1f" opacity="0.22" d=" M 94.21 364.71 C 95.11 365.19 95.80 365.90 96.26 366.83 C 94.45 367.18 93.76 366.47 94.21 364.71 Z" />
</g>
<g id="#1f1f1f5d">
<path fill="#1f1f1f" opacity="0.36" d=" M 292.77 368.76 C 293.76 367.99 294.85 367.35 296.05 366.94 C 296.67 368.61 293.88 370.12 292.77 368.76 Z" />
</g>
<g id="#3131317a">
<path fill="#313131" opacity="0.48" d=" M 98.47 368.49 C 98.51 368.50 98.58 368.54 98.62 368.55 C 98.58 368.54 98.51 368.50 98.47 368.49 Z" />
</g>
<g id="#2b2b2b7c">
<path fill="#2b2b2b" opacity="0.49" d=" M 100.05 368.95 C 100.55 369.13 101.55 369.49 102.05 369.67 L 101.31 370.21 L 100.28 369.84 L 100.05 368.95 Z" />
</g>
<g id="#2c2c2c8d">
<path fill="#2c2c2c" opacity="0.55" d=" M 290.02 369.74 C 290.51 369.54 291.49 369.15 291.98 368.95 L 291.80 369.84 L 290.80 370.25 L 290.02 369.74 Z" />
</g>
<g id="#30303087">
<path fill="#303030" opacity="0.53" d=" M 10.34 390.88 C 10.93 392.45 11.22 394.12 11.20 395.82 C 9.25 395.54 9.23 392.12 10.34 390.88 Z" />
</g>
<g id="#2d2d2d7c">
<path fill="#2d2d2d" opacity="0.49" d=" M 619.13 395.84 C 619.26 395.33 619.53 394.32 619.67 393.81 L 620.26 394.52 L 619.98 395.56 L 619.13 395.84 Z" />
</g>
<g id="#2f2f2f94">
<path fill="#2f2f2f" opacity="0.58" d=" M 646.91 397.76 C 646.71 396.42 647.05 395.10 647.70 393.94 C 648.82 394.83 648.66 397.85 646.91 397.76 Z" />
</g>
<g id="#2c2c2c86">
<path fill="#2c2c2c" opacity="0.53" d=" M 11.32 396.89 C 11.87 398.07 12.29 399.34 12.17 400.67 C 10.40 400.79 10.05 397.76 11.32 396.89 Z" />
</g>
<g id="#1b1b1b9f">
<path fill="#1b1b1b" opacity="0.62" d=" M 614.85 406.03 C 616.31 402.78 617.79 399.53 619.20 396.26 C 618.72 399.83 617.39 403.40 614.85 406.03 Z" />
</g>
<g id="#1b1b1b96">
<path fill="#1b1b1b" opacity="0.59" d=" M 40.20 398.88 C 41.48 401.48 42.78 404.07 44.08 406.67 C 41.90 404.65 40.48 401.84 40.20 398.88 Z" />
</g>
<g id="#35353582">
<path fill="#353535" opacity="0.51" d=" M 646.03 401.84 C 646.22 401.34 646.58 400.34 646.76 399.84 L 647.28 400.58 L 646.92 401.61 L 646.03 401.84 Z" />
</g>
<g id="#36363685">
<path fill="#363636" opacity="0.52" d=" M 12.21 401.88 C 12.42 402.37 12.83 403.35 13.03 403.84 L 12.14 403.67 L 11.72 402.67 L 12.21 401.88 Z" />
</g>
<g id="#333333a6">
<path fill="#333333" opacity="0.65" d=" M 644.99 405.07 C 645.19 404.58 645.58 403.58 645.77 403.08 L 646.28 403.84 L 645.88 404.86 L 644.99 405.07 Z" />
</g>
<g id="#3030308f">
<path fill="#303030" opacity="0.56" d=" M 13.10 404.99 C 13.36 405.45 13.88 406.38 14.14 406.84 L 13.21 406.74 L 12.70 405.79 L 13.10 404.99 Z" />
</g>
<g id="#2f2f2fa7">
<path fill="#2f2f2f" opacity="0.65" d=" M 643.92 407.92 C 644.17 407.47 644.68 406.56 644.94 406.11 L 645.32 406.93 L 644.80 407.85 L 643.92 407.92 Z" />
</g>
<g id="#1e1e1e99">
<path fill="#1e1e1e" opacity="0.60" d=" M 44.23 406.80 C 45.14 407.36 45.74 408.16 46.01 409.21 C 44.24 409.28 43.65 408.48 44.23 406.80 Z" />
</g>
<g id="#343434ae">
<path fill="#343434" opacity="0.68" d=" M 14.18 408.27 C 14.22 408.35 14.30 408.52 14.34 408.61 C 14.30 408.52 14.22 408.35 14.18 408.27 Z" />
</g>
<g id="#1b1b1b6c">
<path fill="#1b1b1b" opacity="0.42" d=" M 609.73 412.33 C 610.44 410.78 611.58 409.50 612.94 408.47 C 613.53 410.14 611.44 412.56 609.73 412.33 Z" />
</g>
<g id="#2e2e2e84">
<path fill="#2e2e2e" opacity="0.52" d=" M 642.82 410.77 C 643.10 410.32 643.65 409.43 643.92 408.98 L 644.31 409.80 L 643.75 410.72 L 642.82 410.77 Z" />
</g>
<g id="#3838386e">
<path fill="#383838" opacity="0.43" d=" M 15.52 411.33 C 15.54 411.38 15.60 411.50 15.62 411.56 C 15.60 411.50 15.54 411.38 15.52 411.33 Z" />
<path fill="#383838" opacity="0.43" d=" M 642.50 412.59 C 642.55 412.50 642.64 412.32 642.69 412.23 C 642.64 412.32 642.55 412.50 642.50 412.59 Z" />
</g>
<g id="#1a1a1ab5">
<path fill="#1a1a1a" opacity="0.71" d=" M 46.57 410.26 C 48.62 412.29 50.64 414.34 52.66 416.40 C 49.88 415.26 47.63 413.09 46.57 410.26 Z" />
</g>
<g id="#3838389b">
<path fill="#383838" opacity="0.61" d=" M 17.37 415.37 C 17.40 415.43 17.46 415.54 17.49 415.60 C 17.46 415.54 17.40 415.43 17.37 415.37 Z" />
<path fill="#383838" opacity="0.61" d=" M 604.32 448.66 C 604.38 448.64 604.49 448.60 604.54 448.59 C 604.49 448.60 604.38 448.64 604.32 448.66 Z" />
</g>
<g id="#1a1a1a72">
<path fill="#1a1a1a" opacity="0.45" d=" M 603.62 417.67 C 604.67 416.43 605.88 415.32 607.40 414.66 C 607.78 416.35 605.21 418.48 603.62 417.67 Z" />
</g>
<g id="#3a3a3a81">
<path fill="#3a3a3a" opacity="0.51" d=" M 640.44 416.54 C 640.47 416.49 640.53 416.38 640.57 416.33 C 640.53 416.38 640.47 416.49 640.44 416.54 Z" />
</g>
<g id="#1d1d1d43">
<path fill="#1d1d1d" opacity="0.26" d=" M 53.87 416.85 C 55.12 416.97 55.85 417.60 56.07 418.75 C 54.47 419.02 53.74 418.39 53.87 416.85 Z" />
</g>
<g id="#1a1a1a49">
<path fill="#1a1a1a" opacity="0.29" d=" M 600.76 419.53 C 601.20 418.56 601.95 418.01 602.99 417.86 C 603.23 419.52 602.48 420.07 600.76 419.53 Z" />
</g>
<g id="#202020b8">
<path fill="#202020" opacity="0.72" d=" M 637.87 420.22 C 637.99 419.10 638.54 418.23 639.54 417.61 C 640.06 419.27 639.51 420.15 637.87 420.22 Z" />
</g>
<g id="#202020b1">
<path fill="#202020" opacity="0.69" d=" M 19.36 418.29 C 20.33 418.93 20.88 419.81 21.01 420.94 C 19.33 420.79 18.78 419.91 19.36 418.29 Z" />
</g>
<g id="#1a1a1a4b">
<path fill="#1a1a1a" opacity="0.29" d=" M 56.78 418.84 C 57.87 418.93 58.68 419.47 59.23 420.48 C 57.54 421.02 56.72 420.47 56.78 418.84 Z" />
</g>
<g id="#1e1e1eaf">
<path fill="#1e1e1e" opacity="0.69" d=" M 594.57 422.75 C 595.76 421.98 597.03 421.33 598.42 420.97 C 598.66 422.72 595.81 423.76 594.57 422.75 Z" />
</g>
<g id="#3a3a3a8f">
<path fill="#3a3a3a" opacity="0.56" d=" M 637.52 421.62 C 637.57 421.57 637.65 421.46 637.70 421.41 C 637.65 421.46 637.57 421.57 637.52 421.62 Z" />
</g>
<g id="#242424b8">
<path fill="#242424" opacity="0.72" d=" M 21.11 421.66 C 22.32 421.85 22.95 422.57 23.01 423.82 C 21.47 423.91 20.84 423.19 21.11 421.66 Z" />
</g>
<g id="#26262675">
<path fill="#262626" opacity="0.46" d=" M 62.44 421.94 C 62.81 422.28 63.56 422.96 63.94 423.30 C 63.54 423.17 62.73 422.92 62.33 422.80 L 62.44 421.94 Z" />
</g>
<g id="#29292960">
<path fill="#292929" opacity="0.38" d=" M 64.98 423.03 C 65.47 423.21 66.45 423.56 66.94 423.74 L 66.20 424.25 L 65.21 423.90 L 64.98 423.03 Z" />
</g>
<g id="#29292989">
<path fill="#292929" opacity="0.54" d=" M 591.84 423.86 C 592.32 423.64 593.27 423.18 593.75 422.96 L 593.62 423.86 L 592.64 424.32 L 591.84 423.86 Z" />
</g>
<g id="#2d2d2d78">
<path fill="#2d2d2d" opacity="0.47" d=" M 67.96 424.23 C 68.48 424.32 69.51 424.50 70.03 424.59 L 69.42 425.24 L 68.36 425.06 L 67.96 424.23 Z" />
</g>
<g id="#2828287a">
<path fill="#282828" opacity="0.48" d=" M 587.94 424.76 C 588.64 423.93 589.55 423.64 590.68 423.88 C 590.25 425.47 589.34 425.77 587.94 424.76 Z" />
</g>
<g id="#242424bc">
<path fill="#242424" opacity="0.74" d=" M 633.94 425.92 C 634.01 424.81 634.59 424.03 635.69 423.57 C 636.16 425.16 635.58 425.94 633.94 425.92 Z" />
</g>
<g id="#1e1e1e80">
<path fill="#1e1e1e" opacity="0.50" d=" M 23.08 424.41 C 24.57 425.27 25.51 426.74 26.24 428.27 C 24.50 428.47 22.63 426.06 23.08 424.41 Z" />
</g>
<g id="#28282843">
<path fill="#282828" opacity="0.26" d=" M 70.60 425.01 C 228.07 425.06 385.54 425.03 543.01 425.03 C 557.64 425.30 572.28 424.65 586.90 425.19 C 584.62 425.61 582.33 425.99 580.02 426.00 C 415.03 425.99 250.03 426.01 85.04 425.99 C 80.21 426.03 75.31 426.26 70.60 425.01 Z" />
</g>
<g id="#1d1d1da7">
<path fill="#1d1d1d" opacity="0.65" d=" M 622.40 438.14 C 625.87 434.44 629.47 430.87 633.17 427.40 C 630.37 431.64 626.66 435.36 622.40 438.14 Z" />
</g>
<g id="#1a1a1a2a">
<path fill="#1a1a1a" opacity="0.16" d=" M 28.21 430.77 C 29.61 432.03 30.95 433.38 32.20 434.80 C 30.14 435.79 27.25 432.83 28.21 430.77 Z" />
</g>
<g id="#1f1f1f86">
<path fill="#1f1f1f" opacity="0.53" d=" M 34.93 436.93 C 36.44 437.58 37.71 438.63 38.72 439.94 C 37.12 440.69 34.62 438.63 34.93 436.93 Z" />
</g>
<g id="#242424b5">
<path fill="#242424" opacity="0.71" d=" M 618.69 440.62 C 619.16 439.53 619.96 438.93 621.09 438.84 C 621.10 440.47 620.30 441.06 618.69 440.62 Z" />
</g>
<g id="#3a3a3a7c">
<path fill="#3a3a3a" opacity="0.49" d=" M 43.46 443.42 C 43.52 443.45 43.63 443.52 43.68 443.55 C 43.63 443.52 43.52 443.45 43.46 443.42 Z" />
</g>
<g id="#1e1e1e84">
<path fill="#1e1e1e" opacity="0.52" d=" M 610.10 445.88 C 611.66 444.45 613.54 443.44 615.56 442.80 C 615.23 444.78 612.04 446.21 610.10 445.88 Z" />
</g>
<g id="#353535a9">
<path fill="#353535" opacity="0.66" d=" M 47.33 445.55 C 47.38 445.57 47.47 445.62 47.52 445.65 C 47.47 445.62 47.38 445.57 47.33 445.55 Z" />
</g>
<g id="#333333b0">
<path fill="#333333" opacity="0.69" d=" M 49.36 446.57 C 49.40 446.59 49.50 446.64 49.55 446.67 C 49.50 446.64 49.40 446.59 49.36 446.57 Z" />
</g>
<g id="#3434345b">
<path fill="#343434" opacity="0.36" d=" M 609.21 446.55 C 609.25 446.53 609.33 446.48 609.37 446.45 C 609.33 446.48 609.25 446.53 609.21 446.55 Z" />
</g>
<g id="#2c2c2c8c">
<path fill="#2c2c2c" opacity="0.55" d=" M 606.00 447.93 C 606.46 447.67 607.37 447.14 607.83 446.88 L 607.77 447.78 L 606.84 448.32 L 606.00 447.93 Z" />
</g>
<g id="#30303095">
<path fill="#303030" opacity="0.58" d=" M 53.14 447.85 C 53.61 448.10 54.54 448.60 55.01 448.85 L 54.20 449.28 L 53.24 448.77 L 53.14 447.85 Z" />
</g>
<g id="#39393985">
<path fill="#393939" opacity="0.52" d=" M 56.36 449.46 C 56.41 449.48 56.52 449.53 56.58 449.55 C 56.52 449.53 56.41 449.48 56.36 449.46 Z" />
</g>
<g id="#30303088">
<path fill="#303030" opacity="0.53" d=" M 600.91 449.89 C 601.39 449.66 602.34 449.19 602.81 448.96 L 602.68 449.86 L 601.71 450.33 L 600.91 449.89 Z" />
</g>
<g id="#3434347f">
<path fill="#343434" opacity="0.50" d=" M 597.92 450.85 C 598.40 450.62 599.36 450.17 599.83 449.95 L 599.69 450.85 L 598.71 451.30 L 597.92 450.85 Z" />
</g>
<g id="#35353599">
<path fill="#353535" opacity="0.60" d=" M 594.22 451.74 C 594.72 451.56 595.71 451.18 596.21 451.00 L 596.02 451.87 L 595.00 452.25 L 594.22 451.74 Z" />
</g>
<g id="#2a2a2a8a">
<path fill="#2a2a2a" opacity="0.54" d=" M 586.97 452.79 C 588.79 451.97 590.78 451.63 592.79 451.77 C 592.07 453.68 588.58 453.72 586.97 452.79 Z" />
</g>
</svg>
