<?xml version="1.0" encoding="UTF-8" ?>
<!DOCTYPE svg PUBLIC "-//W3C//DTD SVG 1.1//EN" "http://www.w3.org/Graphics/SVG/1.1/DTD/svg11.dtd">
<svg width="225pt" height="225pt" viewBox="0 0 225 225" version="1.1" xmlns="http://www.w3.org/2000/svg">
<g id="#ffffffff">
</g>
<g id="#231f20ff">
<path fill="#231f20" opacity="1.00" d=" M 78.55 38.84 C 82.69 29.31 92.48 22.38 102.99 22.55 C 112.66 22.36 121.87 28.01 126.54 36.40 C 136.31 33.86 147.41 35.08 155.61 41.27 C 161.71 45.65 165.54 53.82 163.22 61.23 C 161.87 66.38 158.05 70.42 153.78 73.38 C 153.76 74.98 153.76 76.57 153.75 78.17 C 160.83 78.25 167.91 78.02 174.98 78.27 C 180.32 78.58 184.83 83.59 184.50 88.96 C 184.52 111.98 184.50 135.01 184.50 158.03 C 184.90 163.46 180.56 168.76 175.06 169.06 C 167.96 169.26 160.86 169.09 153.77 169.11 C 153.63 174.54 154.02 179.98 153.54 185.39 C 152.45 194.91 143.55 202.62 133.97 202.42 C 113.99 202.41 94.01 202.47 74.03 202.39 C 63.80 202.37 54.85 193.19 54.91 183.00 C 54.89 147.70 54.88 112.40 54.92 77.10 C 48.83 74.31 42.89 69.75 41.05 63.01 C 39.16 56.48 42.03 49.37 47.16 45.15 C 55.74 37.95 67.88 36.41 78.55 38.84 M 84.14 40.92 C 83.45 42.29 83.10 43.91 81.97 45.01 C 80.27 45.59 78.56 44.73 76.89 44.46 C 68.04 42.36 57.81 43.67 50.76 49.76 C 47.04 52.83 44.82 58.31 47.13 62.88 C 50.25 69.66 57.99 72.61 64.92 73.61 C 66.71 73.70 68.61 74.90 68.20 76.94 C 68.38 97.30 68.04 117.67 68.36 138.02 C 69.06 141.78 74.00 141.81 75.99 139.09 C 76.07 127.71 75.88 116.32 76.07 104.95 C 76.40 101.85 80.32 101.24 81.92 103.78 C 82.20 105.12 82.02 106.75 83.15 107.76 C 85.22 110.51 90.35 108.55 89.89 105.06 C 90.01 93.71 89.86 82.35 89.94 71.00 C 89.62 69.17 91.04 67.36 92.93 67.33 C 95.64 68.12 98.27 69.26 101.11 69.57 C 106.85 70.30 112.29 67.84 117.01 64.83 C 119.62 66.60 122.07 68.66 124.98 69.94 C 130.32 72.37 136.41 72.51 142.13 71.67 C 148.42 70.37 154.97 66.83 157.40 60.54 C 159.26 55.89 157.33 50.54 153.73 47.30 C 146.35 40.38 134.94 39.47 125.71 42.80 C 123.37 43.93 122.36 40.97 121.40 39.44 C 117.44 31.43 107.78 26.76 99.05 28.73 C 92.47 29.98 86.64 34.70 84.14 40.92 M 95.85 74.67 C 95.82 85.11 95.96 95.55 95.79 105.98 C 95.54 112.53 87.93 116.84 82.02 114.32 C 82.11 121.89 82.08 129.46 82.06 137.03 C 82.19 141.38 79.11 145.52 74.92 146.66 C 69.17 148.66 62.36 143.75 62.43 137.65 C 62.29 118.11 62.45 98.55 62.36 79.01 L 60.62 79.00 C 60.63 113.35 60.61 147.70 60.63 182.05 C 60.29 189.50 66.53 196.43 74.01 196.66 C 93.35 196.77 112.69 196.64 132.03 196.72 C 139.94 197.63 148.06 191.18 147.91 183.00 C 147.91 147.42 147.62 111.82 147.99 76.23 C 137.65 79.78 125.76 78.41 116.76 72.12 C 110.29 75.30 102.91 76.48 95.85 74.67 M 153.76 84.00 C 153.76 86.65 153.76 89.30 153.76 91.95 C 159.25 91.90 164.75 91.97 170.24 91.89 C 170.98 93.14 171.88 94.40 171.69 95.94 C 171.67 114.63 171.72 133.33 171.66 152.03 C 171.81 153.63 170.81 155.49 168.98 155.34 C 163.90 155.57 158.82 155.36 153.75 155.42 C 153.75 158.09 153.76 160.76 153.77 163.43 C 160.53 163.32 167.28 163.56 174.03 163.34 C 176.82 163.41 179.02 160.78 178.79 158.08 C 178.81 135.05 178.83 112.02 178.79 89.00 C 178.91 86.45 176.78 83.81 174.09 84.05 C 167.32 83.93 160.54 84.04 153.76 84.00 M 153.76 97.72 C 153.78 115.05 153.71 132.37 153.80 149.70 C 157.82 149.65 161.84 149.67 165.87 149.68 C 165.87 132.36 165.83 115.05 165.89 97.73 C 161.85 97.72 157.80 97.73 153.76 97.72 Z" />
<path fill="#231f20" opacity="1.00" d=" M 101.50 103.00 C 101.17 100.61 103.76 98.92 105.85 100.09 C 107.65 101.12 107.05 103.35 107.20 105.05 C 107.11 128.39 107.25 151.74 107.13 175.08 C 107.44 177.52 104.81 178.21 102.93 178.30 C 102.19 176.96 101.30 175.61 101.47 174.00 C 101.49 150.34 101.42 126.67 101.50 103.00 Z" />
<path fill="#231f20" opacity="1.00" d=" M 124.27 100.34 C 126.16 98.78 129.25 100.50 128.86 102.93 C 128.94 126.64 128.87 150.36 128.90 174.07 C 129.18 175.83 128.11 178.28 126.02 178.05 C 124.02 178.25 122.76 175.87 123.01 174.11 C 123.01 150.73 123.03 127.36 123.00 103.99 C 122.92 102.65 123.15 101.21 124.27 100.34 Z" />
</g>
</svg>
