<?xml version="1.0" encoding="UTF-8" ?>
<!DOCTYPE svg PUBLIC "-//W3C//DTD SVG 1.1//EN" "http://www.w3.org/Graphics/SVG/1.1/DTD/svg11.dtd">
<svg width="960pt" height="540pt" viewBox="0 0 960 540" version="1.1" xmlns="http://www.w3.org/2000/svg">
<g id="#b4b7b7ff">
<path fill="#b4b7b7" opacity="1.00" d=" M 0.00 0.00 L 0.06 0.00 C 0.04 0.01 0.01 0.04 0.00 0.06 L 0.00 0.00 Z" />
<path fill="#b4b7b7" opacity="1.00" d=" M 45.17 326.54 C 60.01 326.50 74.86 326.50 89.70 326.53 C 89.53 338.93 89.61 351.32 89.59 363.72 C 89.49 366.23 89.16 368.72 88.87 371.22 C 74.24 371.51 59.59 371.18 44.95 371.34 C 44.66 361.91 44.85 352.47 44.85 343.04 C 44.94 337.54 44.51 332.02 45.17 326.54 Z" />
<path fill="#b4b7b7" opacity="1.00" d=" M 44.99 415.70 C 59.89 415.62 74.79 415.69 89.68 415.65 C 89.72 430.56 89.51 445.47 89.80 460.38 C 81.53 460.42 73.26 460.35 64.99 460.42 C 58.29 460.37 51.55 460.84 44.90 459.79 C 44.81 445.09 44.62 430.39 44.99 415.70 Z" />
</g>
<g id="#e8ebeaff">
<path fill="#e8ebea" opacity="1.00" d=" M 0.06 0.00 L 418.63 0.00 C 418.55 6.81 418.70 13.62 418.52 20.43 C 414.18 20.35 409.83 20.32 405.49 20.40 C 404.29 29.40 405.59 38.44 405.45 47.49 C 409.80 47.43 414.15 47.45 418.51 47.47 C 418.72 54.15 418.55 60.83 418.62 67.51 C 441.24 67.66 463.88 67.57 486.50 67.58 C 486.53 89.76 486.41 111.93 486.57 134.11 C 486.43 134.37 486.16 134.90 486.03 135.16 C 483.05 135.72 480.00 135.39 477.00 135.45 C 457.55 135.49 438.10 135.38 418.65 135.51 C 418.69 157.85 418.70 180.20 418.64 202.54 C 435.45 202.82 452.26 202.58 469.06 202.67 C 473.00 202.75 477.02 202.22 480.89 203.27 C 480.54 207.72 480.16 212.32 481.55 216.64 C 485.70 216.64 489.89 216.36 494.00 217.14 C 498.76 216.23 503.63 216.82 508.44 216.52 C 508.49 207.55 508.55 198.58 508.45 189.61 C 505.81 188.31 502.82 188.61 499.98 188.61 C 495.51 188.70 491.01 188.32 486.56 188.93 C 486.20 172.95 486.56 156.95 486.37 140.96 C 486.39 139.30 486.04 137.48 487.06 136.02 C 487.47 135.83 488.31 135.47 488.72 135.29 C 510.44 135.40 532.17 135.12 553.89 135.43 C 553.52 157.82 553.85 180.23 553.72 202.62 C 553.65 225.19 553.69 247.76 553.70 270.33 C 576.27 270.55 598.85 270.21 621.42 270.52 C 644.07 270.54 666.72 270.66 689.37 270.46 C 687.93 273.80 689.21 277.48 689.17 280.96 C 689.29 300.09 689.09 319.22 689.26 338.35 C 666.69 338.35 644.11 338.22 621.53 338.40 C 621.64 360.79 621.60 383.19 621.55 405.59 C 626.28 405.44 631.03 405.61 635.69 406.52 C 635.62 414.48 635.77 422.43 635.66 430.39 C 648.58 430.78 661.52 430.66 674.45 430.47 C 674.42 422.49 674.55 414.51 674.46 406.54 C 679.36 405.47 684.39 405.52 689.39 405.50 C 689.15 428.11 689.49 450.74 689.23 473.35 C 707.62 473.40 726.01 473.30 744.40 473.39 C 748.39 473.47 752.39 473.48 756.40 473.42 C 756.87 485.61 756.48 497.82 756.61 510.02 C 756.48 520.01 756.88 530.01 756.39 540.00 L 268.25 540.00 C 266.97 528.35 268.25 516.63 268.13 504.96 C 259.78 504.46 251.40 504.89 243.04 504.79 C 236.49 504.92 229.92 504.44 223.39 505.06 C 223.16 516.71 223.81 528.38 223.05 540.00 L 178.75 540.00 C 178.79 528.39 178.68 516.78 178.80 505.17 C 179.50 496.45 179.03 487.71 179.16 478.99 C 179.13 472.75 179.39 466.50 178.69 460.30 C 164.01 460.08 149.31 460.00 134.63 460.30 C 119.69 460.48 104.75 460.54 89.80 460.38 C 89.51 445.47 89.72 430.56 89.68 415.65 C 104.52 415.74 119.36 415.62 134.19 415.74 C 134.72 401.06 134.25 386.34 134.43 371.65 C 121.31 370.83 108.14 371.35 95.00 371.31 C 93.50 371.13 91.72 371.64 90.42 370.72 C 89.78 368.45 89.70 366.06 89.59 363.72 C 89.61 351.32 89.53 338.93 89.70 326.53 C 74.86 326.50 60.01 326.50 45.17 326.54 C 44.51 332.02 44.94 337.54 44.85 343.04 C 44.85 352.47 44.66 361.91 44.95 371.34 C 29.96 371.16 14.98 371.55 0.00 371.13 L 0.00 0.06 C 0.01 0.04 0.04 0.01 0.06 0.00 M 209.63 49.48 C 209.65 53.02 209.64 56.57 209.63 60.11 C 210.16 60.43 211.21 61.07 211.74 61.39 C 215.05 61.14 218.53 61.87 221.69 60.60 C 221.60 56.85 221.64 53.11 221.59 49.37 C 217.60 49.35 213.61 49.31 209.63 49.48 M 304.38 54.44 C 304.37 64.44 304.19 74.45 304.45 84.44 C 314.42 84.34 324.39 84.41 334.36 84.40 C 334.52 74.45 334.39 64.49 334.43 54.53 C 324.41 54.34 314.40 54.48 304.38 54.44 M 395.69 114.75 C 395.61 118.69 395.74 122.62 395.64 126.56 C 399.57 126.61 403.51 126.63 407.45 126.53 C 407.41 122.79 407.35 119.05 407.48 115.32 C 403.72 114.01 399.59 115.02 395.69 114.75 M 209.63 237.60 C 209.79 241.21 209.72 244.82 209.75 248.44 C 213.68 248.55 217.62 248.47 221.56 248.52 C 221.60 244.58 221.63 240.65 221.55 236.72 C 217.62 237.09 213.25 235.71 209.63 237.60 M 529.72 270.69 C 529.59 274.59 529.56 278.50 529.76 282.41 C 533.67 282.42 537.58 282.42 541.50 282.41 C 541.49 278.48 541.48 274.54 541.52 270.61 C 537.58 270.66 533.65 270.62 529.72 270.69 M 595.70 308.01 C 595.73 315.12 595.74 322.23 595.68 329.35 C 604.38 329.66 613.10 329.56 621.80 329.41 C 621.56 320.77 621.89 312.13 621.60 303.50 C 613.28 303.60 604.95 303.61 596.63 303.49 C 596.03 304.93 595.56 306.43 595.70 308.01 M 576.53 332.42 C 576.51 336.14 576.55 339.86 576.40 343.58 C 580.24 344.67 584.66 344.64 588.51 343.59 C 588.39 339.87 588.44 336.15 588.43 332.43 C 584.46 332.31 580.49 332.33 576.53 332.42 M 593.47 408.66 C 593.41 412.24 593.42 415.83 593.60 419.41 C 597.36 419.17 601.51 420.36 605.03 418.98 C 606.36 415.88 605.13 412.10 605.50 408.74 C 601.66 406.89 597.46 408.23 593.47 408.66 M 655.70 477.99 C 655.81 483.99 655.75 490.00 655.72 496.01 C 655.64 497.23 655.95 498.36 656.65 499.39 C 664.93 499.24 673.22 499.28 681.51 499.37 C 681.72 490.77 681.62 482.17 681.57 473.57 C 673.21 473.55 664.85 473.70 656.49 473.49 C 655.98 474.94 655.54 476.42 655.70 477.99 M 531.74 479.48 C 531.63 484.17 531.61 488.87 531.76 493.57 C 536.71 493.67 541.66 493.60 546.61 493.62 C 546.51 488.88 546.53 484.14 546.60 479.40 C 541.65 479.44 536.69 479.34 531.74 479.48 Z" />
<path fill="#e8ebea" opacity="1.00" d=" M 554.23 0.00 L 621.22 0.00 C 621.91 22.21 621.08 44.47 621.64 66.70 C 619.00 68.27 615.84 67.55 612.95 67.66 C 593.36 67.60 573.78 67.65 554.19 67.65 C 554.21 45.10 554.13 22.55 554.23 0.00 Z" />
<path fill="#e8ebea" opacity="1.00" d=" M 689.20 0.00 L 960.00 0.00 L 960.00 203.65 C 955.47 202.17 950.68 202.57 946.00 202.57 C 928.12 202.71 910.23 202.33 892.36 202.73 C 892.07 180.30 892.32 157.88 892.21 135.45 C 869.57 135.42 846.93 135.34 824.29 135.49 C 824.33 112.90 824.27 90.31 824.33 67.73 C 801.79 67.65 779.24 67.88 756.70 67.58 C 734.24 67.50 711.78 67.43 689.32 67.61 L 689.33 66.42 C 689.40 44.28 689.29 22.14 689.20 0.00 M 863.49 25.61 C 863.29 29.56 863.36 33.52 863.36 37.47 C 867.12 37.44 870.89 37.43 874.67 37.48 C 874.74 33.51 874.84 29.53 874.52 25.57 C 870.84 25.67 867.16 25.67 863.49 25.61 M 832.49 37.50 C 832.41 46.16 832.37 54.81 832.50 63.46 C 841.11 63.38 849.72 63.51 858.33 63.39 C 858.17 54.78 858.30 46.17 858.26 37.56 C 849.67 37.47 841.08 37.58 832.49 37.50 M 898.58 120.69 C 898.50 124.65 898.51 128.61 898.57 132.56 C 902.56 132.59 906.55 132.57 910.54 132.53 C 910.50 128.59 910.54 124.65 910.46 120.72 C 906.49 120.61 902.53 120.63 898.58 120.69 Z" />
<path fill="#e8ebea" opacity="1.00" d=" M 892.34 338.34 C 914.89 338.06 937.46 338.55 960.00 338.10 L 960.00 406.23 C 959.26 406.12 957.79 405.90 957.05 405.79 C 935.43 405.57 913.78 406.06 892.16 405.55 C 892.68 383.16 892.32 360.74 892.34 338.34 Z" />
<path fill="#e8ebea" opacity="1.00" d=" M 811.65 472.23 C 815.33 471.76 819.27 471.27 822.57 473.41 C 819.14 473.67 815.71 473.68 812.29 473.46 L 811.65 472.23 Z" />
<path fill="#e8ebea" opacity="1.00" d=" M 824.51 473.40 C 831.17 473.37 837.83 473.25 844.49 473.57 C 844.44 480.86 844.34 488.15 844.57 495.44 C 853.59 495.80 862.62 495.39 871.65 495.65 C 872.39 493.52 872.55 491.28 872.47 489.05 C 872.32 483.89 872.62 478.73 872.28 473.58 C 878.94 473.28 885.61 473.28 892.27 473.48 C 892.36 495.65 892.29 517.83 892.31 540.00 L 824.35 540.00 C 824.45 517.80 824.15 495.60 824.51 473.40 Z" />
</g>
<g id="#ffac28ff">
<path fill="#ffac28" opacity="1.00" d=" M 418.63 0.00 L 486.54 0.00 C 486.49 22.53 486.56 45.06 486.50 67.58 C 463.88 67.57 441.24 67.66 418.62 67.51 C 418.55 60.83 418.72 54.15 418.51 47.47 C 414.15 47.45 409.80 47.43 405.45 47.49 C 405.59 38.44 404.29 29.40 405.49 20.40 C 409.83 20.32 414.18 20.35 418.52 20.43 C 418.70 13.62 418.55 6.81 418.63 0.00 Z" />
<path fill="#ffac28" opacity="1.00" d=" M 621.22 0.00 L 689.20 0.00 C 689.29 22.14 689.40 44.28 689.33 66.42 C 681.83 66.00 674.47 67.86 666.99 67.40 C 655.98 67.39 644.98 67.36 633.98 67.42 C 629.84 67.49 625.78 66.14 621.64 66.70 C 621.08 44.47 621.91 22.21 621.22 0.00 Z" />
<path fill="#ffac28" opacity="1.00" d=" M 689.33 66.42 L 689.32 67.61 C 711.78 67.43 734.24 67.50 756.70 67.58 C 756.73 89.05 756.74 110.52 756.70 131.98 C 756.72 133.20 756.89 134.39 757.21 135.57 C 734.51 135.41 711.81 135.54 689.12 135.50 C 689.29 112.48 688.87 89.44 689.33 66.42 Z" />
<path fill="#ffac28" opacity="1.00" d=" M 757.21 135.57 C 779.57 135.40 801.93 135.54 824.29 135.49 C 823.07 137.09 823.53 139.20 823.43 141.06 C 823.67 161.31 823.47 181.58 823.44 201.83 L 824.39 202.39 C 801.83 202.75 779.27 202.33 756.72 202.63 C 757.69 199.87 757.30 196.90 757.34 194.03 C 757.24 187.02 757.55 180.00 757.08 173.00 C 757.47 166.01 757.48 159.00 757.07 152.01 C 757.33 146.54 757.64 141.04 757.21 135.57 Z" />
<path fill="#ffac28" opacity="1.00" d=" M 481.33 189.64 C 483.07 189.41 484.81 189.16 486.56 188.93 C 491.01 188.32 495.51 188.70 499.98 188.61 C 502.82 188.61 505.81 188.31 508.45 189.61 C 508.55 198.58 508.49 207.55 508.44 216.52 C 503.63 216.82 498.76 216.23 494.00 217.14 C 489.89 216.36 485.70 216.64 481.55 216.64 C 480.16 212.32 480.54 207.72 480.89 203.27 C 481.44 198.74 481.23 194.19 481.33 189.64 Z" />
<path fill="#ffac28" opacity="1.00" d=" M 553.72 202.62 C 576.32 202.52 598.92 202.70 621.52 202.54 C 621.19 225.19 621.38 247.86 621.42 270.52 C 598.85 270.21 576.27 270.55 553.70 270.33 C 553.69 247.76 553.65 225.19 553.72 202.62 Z" />
<path fill="#ffac28" opacity="1.00" d=" M 824.39 202.39 C 826.56 202.87 828.79 202.94 831.02 202.91 C 851.46 202.73 871.92 203.06 892.36 202.73 C 892.69 216.14 892.39 229.56 892.48 242.98 C 892.40 252.18 892.72 261.39 892.31 270.59 L 892.05 270.59 C 869.50 270.46 846.94 270.60 824.40 270.53 C 824.22 247.82 824.23 225.10 824.39 202.39 Z" />
<path fill="#ffac28" opacity="1.00" d=" M 756.51 270.37 C 779.13 270.54 801.77 270.25 824.40 270.53 C 824.68 293.15 824.44 315.79 824.52 338.41 C 801.85 338.26 779.18 338.38 756.51 338.35 C 756.44 315.69 756.45 293.03 756.51 270.37 Z" />
<path fill="#ffac28" opacity="1.00" d=" M 635.70 393.77 C 642.99 391.91 650.59 393.12 658.04 392.79 C 663.49 393.12 669.19 391.90 674.45 393.79 C 674.30 398.04 674.38 402.29 674.46 406.54 C 674.55 414.51 674.42 422.49 674.45 430.47 C 661.52 430.66 648.58 430.78 635.66 430.39 C 635.77 422.43 635.62 414.48 635.69 406.52 C 635.74 402.27 635.79 398.02 635.70 393.77 Z" />
<path fill="#ffac28" opacity="1.00" d=" M 744.35 406.15 C 748.60 405.14 752.97 405.73 757.28 405.62 C 775.38 405.46 793.47 405.58 811.57 405.56 C 811.68 427.78 811.51 450.00 811.65 472.23 L 812.29 473.46 C 793.66 473.33 775.03 473.40 756.40 473.42 C 752.39 473.48 748.39 473.47 744.40 473.39 C 744.35 450.98 744.45 428.56 744.35 406.15 Z" />
<path fill="#ffac28" opacity="1.00" d=" M 844.84 468.15 C 853.74 468.25 862.64 468.28 871.54 468.22 C 871.80 470.00 872.05 471.78 872.28 473.58 C 872.62 478.73 872.32 483.89 872.47 489.05 C 872.55 491.28 872.39 493.52 871.65 495.65 C 862.62 495.39 853.59 495.80 844.57 495.44 C 844.34 488.15 844.44 480.86 844.49 473.57 C 844.56 471.75 844.71 469.95 844.84 468.15 Z" />
</g>
<g id="#00aaaaff">
<path fill="#00aaaa" opacity="1.00" d=" M 486.54 0.00 L 554.23 0.00 C 554.13 22.55 554.21 45.10 554.19 67.65 C 531.63 67.56 509.06 67.79 486.50 67.58 C 486.56 45.06 486.49 22.53 486.54 0.00 Z" />
<path fill="#00aaaa" opacity="1.00" d=" M 395.69 114.75 C 399.59 115.02 403.72 114.01 407.48 115.32 C 407.35 119.05 407.41 122.79 407.45 126.53 C 403.51 126.63 399.57 126.61 395.64 126.56 C 395.74 122.62 395.61 118.69 395.69 114.75 Z" />
<path fill="#00aaaa" opacity="1.00" d=" M 621.52 135.46 C 644.05 135.38 666.58 135.31 689.12 135.50 C 689.59 157.90 689.19 180.30 689.33 202.70 C 666.74 202.18 644.12 202.49 621.52 202.54 C 621.18 180.18 621.07 157.81 621.52 135.46 Z" />
<path fill="#00aaaa" opacity="1.00" d=" M 689.33 202.70 C 692.17 203.54 695.11 202.80 698.00 202.75 C 717.57 202.65 737.15 202.87 756.72 202.63 C 756.40 225.21 756.82 247.79 756.51 270.37 C 738.67 270.06 720.82 270.35 702.98 270.21 C 698.45 270.15 693.85 269.46 689.37 270.46 C 689.63 247.88 689.71 225.27 689.33 202.70 Z" />
<path fill="#00aaaa" opacity="1.00" d=" M 621.53 338.40 C 644.11 338.22 666.69 338.35 689.26 338.35 C 689.60 360.73 689.35 383.12 689.39 405.50 C 684.39 405.52 679.36 405.47 674.46 406.54 C 674.38 402.29 674.30 398.04 674.45 393.79 C 669.19 391.90 663.49 393.12 658.04 392.79 C 650.59 393.12 642.99 391.91 635.70 393.77 C 635.79 398.02 635.74 402.27 635.69 406.52 C 631.03 405.61 626.28 405.44 621.55 405.59 C 621.60 383.19 621.64 360.79 621.53 338.40 Z" />
<path fill="#00aaaa" opacity="1.00" d=" M 689.39 405.50 L 689.51 406.31 C 707.79 406.24 726.09 406.48 744.35 406.15 C 744.45 428.56 744.35 450.98 744.40 473.39 C 726.01 473.30 707.62 473.40 689.23 473.35 C 689.49 450.74 689.15 428.11 689.39 405.50 Z" />
</g>
<g id="#ffab22ff">
<path fill="#ffab22" opacity="1.00" d=" M 863.49 25.61 C 867.16 25.67 870.84 25.67 874.52 25.57 C 874.84 29.53 874.74 33.51 874.67 37.48 C 870.89 37.43 867.12 37.44 863.36 37.47 C 863.36 33.52 863.29 29.56 863.49 25.61 Z" />
</g>
<g id="#ff3e2aff">
<path fill="#ff3e2a" opacity="1.00" d=" M 832.49 37.50 C 841.08 37.58 849.67 37.47 858.26 37.56 C 858.30 46.17 858.17 54.78 858.33 63.39 C 849.72 63.51 841.11 63.38 832.50 63.46 C 832.37 54.81 832.41 46.16 832.49 37.50 Z" />
<path fill="#ff3e2a" opacity="1.00" d=" M 304.38 54.44 C 314.40 54.48 324.41 54.34 334.43 54.53 C 334.39 64.49 334.52 74.45 334.36 84.40 C 324.39 84.41 314.42 84.34 304.45 84.44 C 304.19 74.45 304.37 64.44 304.38 54.44 Z" />
<path fill="#ff3e2a" opacity="1.00" d=" M 486.50 67.58 C 509.06 67.79 531.63 67.56 554.19 67.65 C 554.18 85.45 554.18 103.24 554.18 121.04 C 554.14 125.84 554.44 130.65 553.89 135.43 C 532.17 135.12 510.44 135.40 488.72 135.29 C 488.31 135.47 487.47 135.83 487.06 136.02 C 486.04 137.48 486.39 139.30 486.37 140.96 C 486.56 156.95 486.20 172.95 486.56 188.93 C 484.81 189.16 483.07 189.41 481.33 189.64 C 481.23 194.19 481.44 198.74 480.89 203.27 C 477.02 202.22 473.00 202.75 469.06 202.67 C 452.26 202.58 435.45 202.82 418.64 202.54 C 418.70 180.20 418.69 157.85 418.65 135.51 C 438.10 135.38 457.55 135.49 477.00 135.45 C 480.00 135.39 483.05 135.72 486.03 135.16 C 486.16 134.90 486.43 134.37 486.57 134.11 C 486.41 111.93 486.53 89.76 486.50 67.58 Z" />
<path fill="#ff3e2a" opacity="1.00" d=" M 824.29 135.49 C 846.93 135.34 869.57 135.42 892.21 135.45 C 892.32 157.88 892.07 180.30 892.36 202.73 C 871.92 203.06 851.46 202.73 831.02 202.91 C 828.79 202.94 826.56 202.87 824.39 202.39 L 823.44 201.83 C 823.47 181.58 823.67 161.31 823.43 141.06 C 823.53 139.20 823.07 137.09 824.29 135.49 Z" />
<path fill="#ff3e2a" opacity="1.00" d=" M 621.52 202.54 C 644.12 202.49 666.74 202.18 689.33 202.70 C 689.71 225.27 689.63 247.88 689.37 270.46 C 666.72 270.66 644.07 270.54 621.42 270.52 C 621.38 247.86 621.19 225.19 621.52 202.54 Z" />
<path fill="#ff3e2a" opacity="1.00" d=" M 892.31 270.59 C 914.87 270.56 937.44 270.45 960.00 270.67 L 960.00 338.10 C 937.46 338.55 914.89 338.06 892.34 338.34 C 892.38 315.76 892.44 293.19 892.31 270.61 L 892.31 270.59 Z" />
<path fill="#ff3e2a" opacity="1.00" d=" M 689.26 338.35 C 690.79 337.64 692.47 337.91 694.10 338.06 C 700.75 338.42 707.39 337.92 714.03 337.81 C 720.01 338.93 726.01 337.10 732.00 338.01 C 737.30 338.83 742.62 337.33 747.92 338.22 C 750.77 338.81 753.80 337.15 756.51 338.35 C 757.54 341.48 757.47 344.80 756.88 348.01 C 757.88 352.32 756.83 356.65 756.73 360.98 C 757.47 367.62 757.61 374.34 756.79 380.99 C 757.12 389.20 756.53 397.44 757.28 405.62 C 752.97 405.73 748.60 405.14 744.35 406.15 C 726.09 406.48 707.79 406.24 689.51 406.31 L 689.39 405.50 C 689.35 383.12 689.60 360.73 689.26 338.35 Z" />
<path fill="#ff3e2a" opacity="1.00" d=" M 824.55 405.50 C 847.08 405.30 869.63 405.21 892.16 405.55 C 892.41 428.19 892.20 450.84 892.27 473.48 C 885.61 473.28 878.94 473.28 872.28 473.58 C 872.05 471.78 871.80 470.00 871.54 468.22 C 862.64 468.28 853.74 468.25 844.84 468.15 C 844.71 469.95 844.56 471.75 844.49 473.57 C 837.83 473.25 831.17 473.37 824.51 473.40 C 824.56 450.77 824.48 428.13 824.55 405.50 Z" />
<path fill="#ff3e2a" opacity="1.00" d=" M 655.70 477.99 C 655.54 476.42 655.98 474.94 656.49 473.49 C 664.85 473.70 673.21 473.55 681.57 473.57 C 681.62 482.17 681.72 490.77 681.51 499.37 C 673.22 499.28 664.93 499.24 656.65 499.39 C 655.95 498.36 655.64 497.23 655.72 496.01 C 655.75 490.00 655.81 483.99 655.70 477.99 Z" />
</g>
<g id="#ffab2fff">
<path fill="#ffab2f" opacity="1.00" d=" M 209.63 49.48 C 213.61 49.31 217.60 49.35 221.59 49.37 C 221.64 53.11 221.60 56.85 221.69 60.60 C 218.53 61.87 215.05 61.14 211.74 61.39 C 211.21 61.07 210.16 60.43 209.63 60.11 C 209.64 56.57 209.65 53.02 209.63 49.48 Z" />
</g>
<g id="#ffd797ff">
<path fill="#ffd797" opacity="1.00" d=" M 554.19 67.65 C 573.78 67.65 593.36 67.60 612.95 67.66 C 615.84 67.55 619.00 68.27 621.64 66.70 C 621.43 89.62 621.67 112.54 621.52 135.46 C 598.97 135.52 576.43 135.57 553.89 135.43 C 554.44 130.65 554.14 125.84 554.18 121.04 C 554.18 103.24 554.18 85.45 554.19 67.65 Z" />
<path fill="#ffd797" opacity="1.00" d=" M 892.36 202.73 C 910.23 202.33 928.12 202.71 946.00 202.57 C 950.68 202.57 955.47 202.17 960.00 203.65 L 960.00 270.67 C 937.44 270.45 914.87 270.56 892.31 270.59 C 892.72 261.39 892.40 252.18 892.48 242.98 C 892.39 229.56 892.69 216.14 892.36 202.73 Z" />
<path fill="#ffd797" opacity="1.00" d=" M 824.52 338.41 C 847.12 338.46 869.74 338.61 892.34 338.34 C 892.32 360.74 892.68 383.16 892.16 405.55 C 869.63 405.21 847.08 405.30 824.55 405.50 C 824.47 383.14 824.48 360.77 824.52 338.41 Z" />
<path fill="#ffd797" opacity="1.00" d=" M 756.40 473.42 C 775.03 473.40 793.66 473.33 812.29 473.46 C 815.71 473.68 819.14 473.67 822.57 473.41 C 823.06 473.41 824.03 473.40 824.51 473.40 C 824.15 495.60 824.45 517.80 824.35 540.00 L 756.39 540.00 C 756.88 530.01 756.48 520.01 756.61 510.02 C 756.48 497.82 756.87 485.61 756.40 473.42 Z" />
</g>
<g id="#90000fff">
<path fill="#90000f" opacity="1.00" d=" M 621.64 66.70 C 625.78 66.14 629.84 67.49 633.98 67.42 C 644.98 67.36 655.98 67.39 666.99 67.40 C 674.47 67.86 681.83 66.00 689.33 66.42 C 688.87 89.44 689.29 112.48 689.12 135.50 C 666.58 135.31 644.05 135.38 621.52 135.46 C 621.67 112.54 621.43 89.62 621.64 66.70 Z" />
<path fill="#90000f" opacity="1.00" d=" M 756.72 202.63 C 779.27 202.33 801.83 202.75 824.39 202.39 C 824.23 225.10 824.22 247.82 824.40 270.53 C 801.77 270.25 779.13 270.54 756.51 270.37 C 756.82 247.79 756.40 225.21 756.72 202.63 Z" />
</g>
<g id="#002735ff">
<path fill="#002735" opacity="1.00" d=" M 756.70 67.58 C 779.24 67.88 801.79 67.65 824.33 67.73 C 824.27 90.31 824.33 112.90 824.29 135.49 C 801.93 135.54 779.57 135.40 757.21 135.57 C 756.89 134.39 756.72 133.20 756.70 131.98 C 756.74 110.52 756.73 89.05 756.70 67.58 Z" />
<path fill="#002735" opacity="1.00" d=" M 553.89 135.43 C 576.43 135.57 598.97 135.52 621.52 135.46 C 621.07 157.81 621.18 180.18 621.52 202.54 C 598.92 202.70 576.32 202.52 553.72 202.62 C 553.85 180.23 553.52 157.82 553.89 135.43 Z" />
<path fill="#002735" opacity="1.00" d=" M 689.12 135.50 C 711.81 135.54 734.51 135.41 757.21 135.57 C 757.64 141.04 757.33 146.54 757.07 152.01 C 757.48 159.00 757.47 166.01 757.08 173.00 C 757.55 180.00 757.24 187.02 757.34 194.03 C 757.30 196.90 757.69 199.87 756.72 202.63 C 737.15 202.87 717.57 202.65 698.00 202.75 C 695.11 202.80 692.17 203.54 689.33 202.70 C 689.19 180.30 689.59 157.90 689.12 135.50 Z" />
<path fill="#002735" opacity="1.00" d=" M 756.51 338.35 C 779.18 338.38 801.85 338.26 824.52 338.41 C 824.48 360.77 824.47 383.14 824.55 405.50 C 820.22 405.57 815.89 405.56 811.57 405.56 C 793.47 405.58 775.38 405.46 757.28 405.62 C 756.53 397.44 757.12 389.20 756.79 380.99 C 757.61 374.34 757.47 367.62 756.73 360.98 C 756.83 356.65 757.88 352.32 756.88 348.01 C 757.47 344.80 757.54 341.48 756.51 338.35 Z" />
<path fill="#002735" opacity="1.00" d=" M 892.27 473.48 C 914.84 473.84 937.43 473.40 960.00 473.70 L 960.00 540.00 L 892.31 540.00 C 892.29 517.83 892.36 495.65 892.27 473.48 Z" />
</g>
<g id="#00aaadff">
<path fill="#00aaad" opacity="1.00" d=" M 898.58 120.69 C 902.53 120.63 906.49 120.61 910.46 120.72 C 910.54 124.65 910.50 128.59 910.54 132.53 C 906.55 132.57 902.56 132.59 898.57 132.56 C 898.51 128.61 898.50 124.65 898.58 120.69 Z" />
</g>
<g id="#ff3b28ff">
<path fill="#ff3b28" opacity="1.00" d=" M 209.63 237.60 C 213.25 235.71 217.62 237.09 221.55 236.72 C 221.63 240.65 221.60 244.58 221.56 248.52 C 217.62 248.47 213.68 248.55 209.75 248.44 C 209.72 244.82 209.79 241.21 209.63 237.60 Z" />
</g>
<g id="#00aaacff">
<path fill="#00aaac" opacity="1.00" d=" M 529.72 270.69 C 533.65 270.62 537.58 270.66 541.52 270.61 C 541.48 274.54 541.49 278.48 541.50 282.41 C 537.58 282.42 533.67 282.42 529.76 282.41 C 529.56 278.50 529.59 274.59 529.72 270.69 Z" />
<path fill="#00aaac" opacity="1.00" d=" M 531.74 479.48 C 536.69 479.34 541.65 479.44 546.60 479.40 C 546.53 484.14 546.51 488.88 546.61 493.62 C 541.66 493.60 536.71 493.67 531.76 493.57 C 531.61 488.87 531.63 484.17 531.74 479.48 Z" />
</g>
<g id="#008b95ff">
<path fill="#008b95" opacity="1.00" d=" M 689.37 270.46 C 693.85 269.46 698.45 270.15 702.98 270.21 C 720.82 270.35 738.67 270.06 756.51 270.37 C 756.45 293.03 756.44 315.69 756.51 338.35 C 753.80 337.15 750.77 338.81 747.92 338.22 C 742.62 337.33 737.30 338.83 732.00 338.01 C 726.01 337.10 720.01 338.93 714.03 337.81 C 707.39 337.92 700.75 338.42 694.10 338.06 C 692.47 337.91 690.79 337.64 689.26 338.35 C 689.09 319.22 689.29 300.09 689.17 280.96 C 689.21 277.48 687.93 273.80 689.37 270.46 Z" />
<path fill="#008b95" opacity="1.00" d=" M 824.40 270.53 C 846.94 270.60 869.50 270.46 892.05 270.59 C 892.11 270.60 892.25 270.61 892.31 270.61 C 892.44 293.19 892.38 315.76 892.34 338.34 C 869.74 338.61 847.12 338.46 824.52 338.41 C 824.44 315.79 824.68 293.15 824.40 270.53 Z" />
</g>
<g id="#7a8d71ff">
<path fill="#7a8d71" opacity="1.00" d=" M 892.05 270.59 L 892.31 270.59 L 892.31 270.61 C 892.25 270.61 892.11 270.60 892.05 270.59 Z" />
</g>
<g id="#ffab2aff">
<path fill="#ffab2a" opacity="1.00" d=" M 595.70 308.01 C 595.56 306.43 596.03 304.93 596.63 303.49 C 604.95 303.61 613.28 303.60 621.60 303.50 C 621.89 312.13 621.56 320.77 621.80 329.41 C 613.10 329.56 604.38 329.66 595.68 329.35 C 595.74 322.23 595.73 315.12 595.70 308.01 Z" />
</g>
<g id="#ff3e2bff">
<path fill="#ff3e2b" opacity="1.00" d=" M 576.53 332.42 C 580.49 332.33 584.46 332.31 588.43 332.43 C 588.44 336.15 588.39 339.87 588.51 343.59 C 584.66 344.64 580.24 344.67 576.40 343.58 C 576.55 339.86 576.51 336.14 576.53 332.42 Z" />
</g>
<g id="#c0c2c3ff">
<path fill="#c0c2c3" opacity="1.00" d=" M 88.87 371.22 C 89.16 368.72 89.49 366.23 89.59 363.72 C 89.70 366.06 89.78 368.45 90.42 370.72 C 91.72 371.64 93.50 371.13 95.00 371.31 C 108.14 371.35 121.31 370.83 134.43 371.65 C 134.25 386.34 134.72 401.06 134.19 415.74 C 119.36 415.62 104.52 415.74 89.68 415.65 C 74.79 415.69 59.89 415.62 44.99 415.70 C 44.85 406.81 44.79 397.92 44.81 389.04 C 44.67 383.13 45.49 377.23 44.95 371.34 C 59.59 371.18 74.24 371.51 88.87 371.22 Z" />
<path fill="#c0c2c3" opacity="1.00" d=" M 44.90 459.79 C 51.55 460.84 58.29 460.37 64.99 460.42 C 73.26 460.35 81.53 460.42 89.80 460.38 C 104.75 460.54 119.69 460.48 134.63 460.30 C 134.49 475.25 134.67 490.21 134.56 505.17 C 134.65 516.77 133.94 528.43 134.95 540.00 L 89.62 540.00 C 89.73 528.40 89.69 516.80 89.62 505.21 C 74.60 505.44 59.56 504.75 44.54 505.50 C 46.22 494.39 44.32 483.16 44.97 472.01 C 45.20 468.38 45.18 464.75 44.82 461.14 C 30.15 460.50 15.46 461.16 0.78 460.61 C 6.42 459.17 12.24 460.28 17.97 460.07 C 26.95 459.92 35.92 460.01 44.90 459.79 Z" />
</g>
<g id="#a7a9a9ff">
<path fill="#a7a9a9" opacity="1.00" d=" M 0.00 371.13 C 14.98 371.55 29.96 371.16 44.95 371.34 C 45.49 377.23 44.67 383.13 44.81 389.04 C 44.79 397.92 44.85 406.81 44.99 415.70 C 34.66 415.73 24.34 415.70 14.01 415.72 C 9.34 415.76 4.62 415.33 0.00 416.26 L 0.00 371.13 Z" />
<path fill="#a7a9a9" opacity="1.00" d=" M 0.00 460.77 L 0.78 460.61 C 15.46 461.16 30.15 460.50 44.82 461.14 C 45.18 464.75 45.20 468.38 44.97 472.01 C 44.32 483.16 46.22 494.39 44.54 505.50 C 29.70 505.66 14.85 505.48 0.00 505.70 L 0.00 460.77 Z" />
<path fill="#a7a9a9" opacity="1.00" d=" M 44.54 505.50 C 59.56 504.75 74.60 505.44 89.62 505.21 C 89.69 516.80 89.73 528.40 89.62 540.00 L 44.87 540.00 C 44.06 535.70 44.55 531.33 44.52 527.00 C 44.58 519.83 44.17 512.66 44.54 505.50 Z" />
<path fill="#a7a9a9" opacity="1.00" d=" M 134.56 505.17 C 149.31 505.27 164.06 505.35 178.80 505.17 C 178.68 516.78 178.79 528.39 178.75 540.00 L 134.95 540.00 C 133.94 528.43 134.65 516.77 134.56 505.17 Z" />
</g>
<g id="#eaeaeaff">
<path fill="#eaeaea" opacity="1.00" d=" M 811.57 405.56 C 815.89 405.56 820.22 405.57 824.55 405.50 C 824.48 428.13 824.56 450.77 824.51 473.40 C 824.03 473.40 823.06 473.41 822.57 473.41 C 819.27 471.27 815.33 471.76 811.65 472.23 C 811.51 450.00 811.68 427.78 811.57 405.56 Z" />
</g>
<g id="#ff852fff">
<path fill="#ff852f" opacity="1.00" d=" M 892.16 405.55 C 913.78 406.06 935.43 405.57 957.05 405.79 C 957.79 405.90 959.26 406.12 960.00 406.23 L 960.00 473.70 C 937.43 473.40 914.84 473.84 892.27 473.48 C 892.20 450.84 892.41 428.19 892.16 405.55 Z" />
</g>
<g id="#ffd795ff">
<path fill="#ffd795" opacity="1.00" d=" M 593.47 408.66 C 597.46 408.23 601.66 406.89 605.50 408.74 C 605.13 412.10 606.36 415.88 605.03 418.98 C 601.51 420.36 597.36 419.17 593.60 419.41 C 593.42 415.83 593.41 412.24 593.47 408.66 Z" />
</g>
<g id="#d7dadaff">
<path fill="#d7dada" opacity="1.00" d=" M 0.00 416.26 C 4.62 415.33 9.34 415.76 14.01 415.72 C 24.34 415.70 34.66 415.73 44.99 415.70 C 44.62 430.39 44.81 445.09 44.90 459.79 C 35.92 460.01 26.95 459.92 17.97 460.07 C 12.24 460.28 6.42 459.17 0.78 460.61 L 0.00 460.77 L 0.00 416.26 Z" />
<path fill="#d7dada" opacity="1.00" d=" M 134.63 460.30 C 149.31 460.00 164.01 460.08 178.69 460.30 C 179.39 466.50 179.13 472.75 179.16 478.99 C 179.03 487.71 179.50 496.45 178.80 505.17 C 164.06 505.35 149.31 505.27 134.56 505.17 C 134.67 490.21 134.49 475.25 134.63 460.30 Z" />
</g>
<g id="#d3d6d8ff">
<path fill="#d3d6d8" opacity="1.00" d=" M 0.00 505.70 C 14.85 505.48 29.70 505.66 44.54 505.50 C 44.17 512.66 44.58 519.83 44.52 527.00 C 44.55 531.33 44.06 535.70 44.87 540.00 L 0.00 540.00 L 0.00 505.70 Z" />
</g>
<g id="#c1c3c4ff">
<path fill="#c1c3c4" opacity="1.00" d=" M 223.39 505.06 C 229.92 504.44 236.49 504.92 243.04 504.79 C 251.40 504.89 259.78 504.46 268.13 504.96 C 268.25 516.63 266.97 528.35 268.25 540.00 L 223.05 540.00 C 223.81 528.38 223.16 516.71 223.39 505.06 Z" />
</g>
</svg>
