<?xml version="1.0" encoding="UTF-8" ?>
<!DOCTYPE svg PUBLIC "-//W3C//DTD SVG 1.1//EN" "http://www.w3.org/Graphics/SVG/1.1/DTD/svg11.dtd">
<svg width="464pt" height="464pt" viewBox="0 0 464 464" version="1.1" xmlns="http://www.w3.org/2000/svg">
<g id="#25252585">
<path fill="#252525" opacity="0.52" d=" M 214.63 39.03 C 219.94 37.48 225.51 38.11 230.95 38.00 C 236.75 38.11 242.66 37.50 248.33 39.03 C 242.54 39.10 236.77 38.70 230.99 38.60 C 225.54 38.73 220.09 39.09 214.63 39.03 Z" />
</g>
<g id="#20202083">
<path fill="#202020" opacity="0.51" d=" M 198.64 41.11 C 203.35 39.65 208.48 38.93 213.42 39.17 C 208.53 40.03 203.58 40.59 198.64 41.11 Z" />
</g>
<g id="#020202ff">
<path fill="#020202" opacity="1.00" d=" M 213.42 39.17 C 213.73 39.14 214.33 39.06 214.63 39.03 C 220.09 39.09 225.54 38.73 230.99 38.60 C 236.77 38.70 242.54 39.10 248.33 39.03 C 248.76 39.11 249.63 39.28 250.07 39.36 C 252.18 40.09 254.40 40.29 256.63 40.16 L 257.42 40.18 C 261.38 41.04 265.36 41.75 269.40 42.07 C 269.81 42.15 270.62 42.32 271.02 42.40 C 271.53 42.55 272.53 42.85 273.04 43.00 C 273.39 43.02 274.10 43.06 274.46 43.08 C 276.99 44.05 279.62 44.73 282.32 45.05 L 283.00 45.36 C 283.49 45.54 284.48 45.89 284.97 46.07 L 286.24 46.24 C 286.72 46.45 287.70 46.89 288.18 47.10 C 288.63 47.14 289.51 47.21 289.96 47.25 C 290.43 47.49 291.37 47.96 291.84 48.20 L 292.62 48.41 C 293.96 49.41 295.52 50.08 297.22 50.09 C 297.76 50.19 298.83 50.39 299.36 50.48 C 299.40 50.50 299.48 50.52 299.52 50.54 L 300.93 51.25 C 301.42 51.46 302.40 51.88 302.88 52.09 C 304.00 52.18 305.00 52.56 305.90 53.25 C 306.38 53.48 307.33 53.94 307.81 54.17 C 311.90 55.36 315.59 57.66 319.48 59.40 C 319.52 59.43 319.62 59.47 319.67 59.50 C 321.94 60.81 324.49 61.74 326.48 63.49 C 327.12 64.37 327.98 64.90 329.04 65.11 C 331.39 65.71 333.30 67.30 335.36 68.49 C 335.40 68.52 335.47 68.56 335.51 68.59 C 337.24 69.81 339.30 70.71 340.60 72.44 C 341.10 73.49 341.89 74.03 342.99 74.08 L 343.81 74.13 C 344.07 75.17 344.78 75.80 345.94 76.00 C 346.35 76.36 347.16 77.08 347.57 77.44 C 348.19 78.86 349.39 79.89 350.97 80.10 C 351.39 80.41 352.23 81.04 352.65 81.36 C 353.04 82.37 353.76 82.99 354.84 83.19 C 355.94 83.45 356.73 84.31 357.50 85.09 C 359.79 87.78 362.44 90.14 365.30 92.23 C 366.62 93.29 367.87 94.44 368.96 95.74 C 371.65 99.22 374.52 102.55 377.87 105.41 C 378.65 106.17 379.39 107.00 379.85 108.01 C 380.36 109.41 381.36 110.50 382.61 111.31 C 382.95 111.74 383.63 112.61 383.97 113.04 C 384.52 114.40 385.22 115.84 386.73 116.33 L 386.81 117.04 C 386.92 118.10 387.50 118.86 388.53 119.34 C 389.01 119.86 389.98 120.90 390.46 121.42 C 390.48 121.45 390.53 121.51 390.55 121.54 C 390.87 122.07 391.52 123.14 391.84 123.67 C 393.24 126.53 394.98 129.20 396.89 131.74 L 397.00 131.97 C 397.26 132.95 397.80 133.78 398.60 134.43 C 400.24 136.51 401.11 139.07 402.56 141.28 C 402.59 141.32 402.63 141.40 402.65 141.44 C 402.90 142.14 403.40 143.53 403.65 144.23 C 403.72 145.83 404.57 147.17 405.75 148.22 C 406.47 149.03 406.85 149.99 406.91 151.10 C 406.77 153.27 407.83 155.11 409.47 156.46 C 409.75 156.94 410.31 157.90 410.59 158.39 C 410.61 158.42 410.65 158.50 410.66 158.54 L 411.40 160.47 C 411.42 160.51 411.46 160.60 411.48 160.65 C 411.74 161.31 412.26 162.64 412.52 163.30 C 412.54 163.35 412.57 163.47 412.59 163.52 L 412.92 165.07 C 413.12 165.56 413.54 166.53 413.75 167.02 L 413.92 168.09 C 414.15 168.56 414.60 169.52 414.83 169.99 L 414.93 171.09 C 415.14 171.57 415.56 172.53 415.78 173.01 L 415.88 174.22 C 415.75 176.12 416.36 177.92 417.58 179.38 C 417.68 179.80 417.87 180.64 417.96 181.06 C 418.15 181.56 418.52 182.55 418.71 183.05 C 418.78 183.48 418.92 184.36 418.99 184.80 C 419.15 185.31 419.48 186.32 419.64 186.82 C 419.71 187.39 419.84 188.53 419.91 189.10 C 420.11 189.59 420.52 190.56 420.72 191.05 C 420.73 191.61 420.76 192.73 420.77 193.28 C 420.58 194.89 421.11 196.44 421.72 197.91 L 421.87 198.90 C 421.75 200.62 422.05 202.31 422.62 203.93 L 422.84 205.14 C 422.79 206.80 423.02 208.45 423.56 210.03 C 423.66 210.69 423.88 211.99 423.98 212.65 C 423.28 218.85 425.64 225.25 423.68 231.26 C 423.96 231.38 424.51 231.62 424.78 231.74 L 425.19 231.91 L 424.96 233.74 C 424.27 239.58 423.86 245.47 423.96 251.36 C 423.87 251.77 423.70 252.60 423.62 253.02 C 422.96 254.85 422.75 256.78 422.85 258.72 L 422.64 260.00 C 422.11 261.61 421.65 263.28 421.81 265.00 C 421.80 265.32 421.79 265.96 421.78 266.28 C 420.97 269.35 420.31 272.46 419.88 275.61 L 419.63 276.13 C 418.98 277.01 418.70 277.98 418.80 279.06 C 418.78 279.53 418.75 280.46 418.73 280.93 C 418.53 281.42 418.14 282.40 417.94 282.89 C 417.88 283.38 417.75 284.36 417.68 284.84 C 417.48 285.33 417.07 286.31 416.86 286.80 L 416.78 287.92 C 416.55 288.39 416.08 289.34 415.85 289.81 L 415.67 290.67 C 414.38 292.04 413.71 293.81 413.85 295.70 L 413.75 296.97 C 413.50 297.43 413.01 298.35 412.76 298.81 L 412.77 299.61 C 411.17 300.29 410.71 302.04 410.78 303.62 C 410.88 304.84 410.50 305.86 409.66 306.70 C 408.42 307.76 407.96 309.31 407.84 310.88 C 407.51 312.89 406.41 314.65 405.59 316.49 C 405.57 316.53 405.52 316.62 405.50 316.66 C 403.87 319.60 402.72 322.85 400.63 325.51 C 399.25 326.74 398.36 328.35 397.96 330.14 C 397.73 331.09 397.25 331.88 396.55 332.52 C 395.54 333.05 394.97 333.85 394.84 334.92 L 394.70 335.77 C 393.53 336.03 392.91 336.79 392.84 338.03 L 392.72 338.77 C 391.55 338.97 390.93 339.70 390.86 340.94 L 390.72 341.81 C 389.56 342.02 388.93 342.75 388.83 343.99 L 388.69 344.69 C 387.16 345.18 386.48 346.68 385.94 348.06 L 385.64 348.62 C 384.39 349.42 383.39 350.51 382.91 351.94 C 382.62 352.39 382.04 353.28 381.75 353.73 C 380.57 354.53 379.64 355.60 379.01 356.88 C 378.21 358.28 377.07 359.45 375.90 360.55 C 370.40 365.90 364.93 371.30 359.61 376.84 C 358.82 377.64 357.99 378.49 356.90 378.87 C 354.94 379.33 353.78 380.97 352.70 382.53 L 352.03 382.89 C 350.61 383.43 349.41 384.35 348.63 385.66 C 348.20 385.95 347.33 386.54 346.90 386.83 C 345.82 386.96 345.07 387.54 344.66 388.56 C 344.15 389.02 343.11 389.95 342.60 390.41 C 342.56 390.43 342.50 390.48 342.46 390.51 C 340.64 391.68 338.97 393.19 336.89 393.89 C 335.09 394.10 333.55 395.01 332.61 396.58 L 332.14 397.02 C 331.12 397.29 330.26 397.82 329.57 398.62 C 328.63 399.29 327.66 399.91 326.65 400.48 C 326.61 400.50 326.53 400.54 326.49 400.56 C 325.78 400.85 324.36 401.41 323.65 401.70 C 322.32 401.74 321.26 402.55 320.46 403.56 C 318.52 405.11 316.18 406.23 313.76 406.78 C 312.21 406.93 310.64 407.42 309.72 408.77 L 308.97 408.78 C 307.58 408.62 306.20 409.40 305.69 410.71 L 304.80 410.76 C 304.32 411.00 303.38 411.50 302.91 411.74 C 301.98 412.43 300.94 412.79 299.79 412.83 C 299.33 413.08 298.40 413.56 297.93 413.81 L 296.86 413.84 C 296.39 414.07 295.45 414.52 294.98 414.75 L 293.71 414.85 C 291.83 414.71 290.07 415.35 288.67 416.60 L 287.93 416.95 C 286.07 417.03 284.30 417.55 282.71 418.52 C 282.34 418.62 281.62 418.83 281.26 418.94 C 278.55 419.28 275.87 419.86 273.27 420.72 C 273.04 420.77 272.57 420.88 272.34 420.93 C 269.30 421.39 266.31 422.08 263.31 422.74 C 262.74 422.82 261.59 422.96 261.01 423.04 C 255.94 423.74 250.81 423.91 245.77 424.87 L 245.30 424.94 C 236.08 425.23 226.86 425.14 217.64 424.97 L 217.12 424.91 C 211.55 423.97 205.92 423.58 200.32 422.88 C 200.01 422.81 199.38 422.67 199.07 422.60 C 197.81 422.12 196.50 421.71 195.14 421.81 C 194.56 421.76 193.39 421.67 192.80 421.62 C 192.30 421.47 191.28 421.17 190.77 421.02 L 189.97 420.71 C 188.81 420.12 187.55 419.66 186.23 419.81 C 185.70 419.79 184.64 419.75 184.12 419.74 C 183.62 419.55 182.64 419.17 182.15 418.97 L 181.00 418.71 C 180.21 418.00 179.30 417.68 178.26 417.76 L 177.79 417.74 C 174.64 416.68 171.52 415.51 168.25 414.89 L 167.99 414.68 C 167.50 414.49 166.52 414.12 166.02 413.93 L 165.02 413.79 C 164.54 413.58 163.58 413.14 163.09 412.92 L 161.57 412.59 C 161.52 412.57 161.43 412.55 161.39 412.53 C 160.70 412.26 159.34 411.72 158.65 411.45 C 158.61 411.43 158.53 411.40 158.49 411.38 C 157.43 410.96 156.41 410.48 155.42 409.95 C 153.23 408.59 150.92 407.42 148.43 406.75 L 147.51 406.43 C 147.47 406.41 147.38 406.38 147.34 406.36 C 144.34 404.83 141.18 403.55 138.43 401.59 C 137.15 400.29 135.61 399.30 133.80 398.94 C 132.87 398.72 132.10 398.26 131.50 397.54 C 130.94 396.62 130.13 396.05 129.09 395.82 L 128.34 395.50 C 127.77 394.59 126.97 394.03 125.93 393.84 C 123.41 393.09 121.22 391.37 119.40 389.53 C 118.93 388.56 118.18 387.97 117.15 387.76 C 114.87 386.99 112.89 385.38 111.39 383.52 C 110.67 381.60 109.15 380.24 107.09 379.96 C 106.65 379.66 105.77 379.08 105.34 378.79 C 103.18 376.07 100.68 373.67 97.72 371.84 C 95.68 370.20 93.83 368.32 92.16 366.32 C 89.97 362.97 87.22 360.07 84.15 357.53 C 83.37 356.76 82.54 355.99 82.12 354.96 C 81.63 353.55 80.62 352.46 79.40 351.65 C 79.07 351.22 78.42 350.36 78.09 349.93 C 77.76 348.94 77.16 348.18 76.27 347.64 C 75.83 347.13 74.96 346.10 74.52 345.59 C 74.50 345.55 74.45 345.49 74.43 345.46 C 74.16 344.98 73.63 344.03 73.36 343.55 C 72.28 341.21 70.83 339.07 69.05 337.21 L 68.51 336.56 C 68.48 336.52 68.43 336.45 68.40 336.42 C 67.93 335.72 67.00 334.32 66.54 333.62 C 66.51 333.58 66.47 333.51 66.45 333.48 C 65.26 331.40 63.75 329.44 63.10 327.11 C 62.88 325.25 62.08 323.50 60.39 322.58 L 60.29 321.76 C 60.30 320.41 59.36 319.37 58.45 318.51 C 57.33 317.38 56.82 315.84 56.24 314.40 C 55.39 311.93 54.33 309.55 53.20 307.20 L 53.14 306.93 C 53.02 305.35 52.53 303.83 51.38 302.70 C 50.61 301.87 50.20 300.89 50.15 299.76 C 49.92 299.29 49.44 298.35 49.20 297.88 L 49.17 296.83 C 48.93 296.36 48.45 295.43 48.21 294.97 L 48.17 293.86 C 47.94 293.40 47.46 292.47 47.22 292.01 L 47.21 290.81 C 47.27 289.77 46.96 288.85 46.27 288.05 L 46.01 287.25 C 45.84 286.75 45.50 285.75 45.32 285.24 L 45.02 283.95 C 44.86 283.45 44.54 282.45 44.38 281.94 L 44.11 281.44 C 43.73 278.64 43.12 275.87 42.15 273.21 C 42.13 272.69 42.09 271.64 42.07 271.11 C 42.17 270.04 41.95 269.03 41.42 268.09 L 41.18 266.76 C 41.21 265.44 40.91 264.16 40.41 262.96 C 40.33 262.58 40.18 261.83 40.10 261.45 C 39.34 255.25 38.97 249.01 38.08 242.84 C 38.05 242.53 37.98 241.93 37.95 241.62 C 37.96 235.31 37.97 229.01 37.97 222.70 C 38.03 221.62 38.13 220.55 38.27 219.48 C 39.05 213.74 39.34 207.95 40.12 202.21 C 40.20 201.92 40.34 201.33 40.42 201.04 C 40.88 199.73 41.23 198.38 41.15 196.99 C 41.21 196.51 41.33 195.55 41.39 195.07 C 41.84 193.87 42.46 192.62 42.20 191.31 L 42.09 189.91 C 42.34 189.47 42.83 188.59 43.07 188.14 C 43.14 187.62 43.29 186.56 43.36 186.03 C 44.01 185.19 44.29 184.25 44.21 183.20 L 44.22 181.98 C 44.44 181.51 44.88 180.55 45.09 180.07 C 45.14 179.59 45.22 178.61 45.26 178.13 C 45.45 177.63 45.84 176.65 46.03 176.16 L 46.24 175.04 C 46.44 174.56 46.86 173.59 47.07 173.10 L 47.18 171.99 C 47.41 171.51 47.85 170.55 48.07 170.07 L 48.20 169.01 C 48.42 168.53 48.87 167.58 49.10 167.10 L 49.18 166.00 C 49.43 165.54 49.93 164.61 50.17 164.14 C 50.19 162.98 50.55 161.94 51.25 161.02 C 51.47 160.54 51.91 159.58 52.14 159.10 C 52.17 158.01 52.56 157.07 53.32 156.28 C 54.41 155.18 55.26 153.81 55.25 152.21 L 55.36 151.28 C 56.67 150.81 57.22 149.45 57.23 148.15 C 57.83 144.99 59.56 142.03 61.46 139.47 C 62.92 138.34 63.96 136.79 64.12 134.91 C 65.19 131.45 67.70 128.68 69.49 125.59 C 69.52 125.55 69.56 125.49 69.58 125.46 C 70.05 124.74 70.98 123.29 71.45 122.57 C 71.47 122.54 71.51 122.48 71.53 122.46 C 72.01 121.94 72.97 120.90 73.45 120.38 C 74.54 119.95 75.09 119.19 75.12 118.10 L 75.14 117.49 C 77.92 114.84 80.31 111.84 82.25 108.53 C 82.54 108.20 83.12 107.53 83.41 107.20 C 85.14 106.30 86.58 104.99 87.17 103.08 C 88.44 100.74 90.51 98.99 92.40 97.17 C 93.75 96.05 94.99 94.81 96.09 93.45 C 97.43 91.92 98.92 90.50 100.55 89.29 C 102.74 87.85 104.71 86.11 106.40 84.10 C 107.15 83.27 108.00 82.51 109.06 82.09 C 110.48 81.60 111.63 80.64 112.39 79.34 C 112.80 79.02 113.62 78.39 114.03 78.07 C 115.03 77.77 115.80 77.16 116.33 76.24 C 116.75 75.95 117.60 75.36 118.02 75.06 C 118.99 74.78 119.74 74.19 120.26 73.32 L 121.05 73.15 C 122.12 73.05 122.89 72.50 123.34 71.51 L 123.50 71.30 C 125.74 70.10 127.98 68.86 129.82 67.08 L 130.49 66.53 C 130.53 66.50 130.61 66.44 130.65 66.41 C 131.30 66.14 132.62 65.61 133.27 65.34 C 134.60 65.29 135.68 64.50 136.43 63.45 C 137.30 62.63 138.28 61.96 139.36 61.44 C 139.40 61.41 139.48 61.37 139.52 61.35 C 140.57 60.76 141.67 60.32 142.85 60.05 C 144.93 59.90 146.72 58.86 148.15 57.38 L 148.30 57.27 C 152.21 55.84 156.00 54.12 159.67 52.15 L 160.09 52.02 C 160.58 51.82 161.56 51.43 162.05 51.23 C 162.94 50.50 163.95 50.15 165.10 50.18 C 165.57 49.94 166.51 49.47 166.97 49.23 L 168.09 49.09 C 168.57 48.86 169.52 48.40 169.99 48.17 L 171.11 48.07 C 171.59 47.85 172.55 47.40 173.03 47.18 L 174.16 47.06 C 174.65 46.86 175.62 46.45 176.10 46.25 L 177.28 46.23 C 178.32 46.30 179.24 45.99 180.04 45.28 L 181.11 45.03 C 181.60 44.85 182.60 44.48 183.09 44.30 C 183.60 44.24 184.62 44.12 185.14 44.06 C 185.62 43.85 186.60 43.45 187.09 43.25 C 187.62 43.23 188.67 43.19 189.19 43.17 C 190.24 43.27 191.20 43.02 192.07 42.40 C 192.61 42.33 193.69 42.20 194.24 42.14 C 195.27 42.23 196.22 41.98 197.10 41.40 C 197.49 41.33 198.26 41.18 198.64 41.11 C 203.58 40.59 208.53 40.03 213.42 39.17 M 95.59 132.95 L 95.10 133.26 L 94.33 132.74 L 93.33 133.15 L 93.15 134.06 C 91.74 134.25 90.45 135.00 89.44 135.99 C 87.00 137.13 84.98 139.03 83.87 141.50 C 83.66 141.89 83.23 142.66 83.01 143.04 C 80.97 143.04 80.26 146.47 81.19 148.03 L 80.80 148.59 C 79.54 151.55 80.09 154.83 80.01 157.96 C 80.04 210.64 80.01 263.32 80.02 316.00 C 79.96 317.53 80.36 319.02 80.86 320.46 L 81.29 321.03 L 80.72 321.78 L 81.07 322.79 L 81.96 323.00 C 82.07 323.58 82.31 324.74 82.43 325.32 C 82.44 325.35 82.47 325.42 82.49 325.46 C 82.86 326.00 83.59 327.07 83.96 327.61 C 85.10 330.05 87.07 332.04 89.54 333.14 C 90.52 334.06 91.74 334.91 93.14 334.93 L 93.27 335.85 L 94.25 336.30 L 95.04 335.81 L 95.46 336.05 C 97.26 336.58 99.10 337.01 100.98 337.00 C 186.33 337.00 271.67 336.99 357.02 337.01 C 358.65 337.03 360.22 336.57 361.79 336.13 C 362.06 336.04 362.61 335.87 362.88 335.79 L 363.66 336.29 L 364.66 335.85 L 364.81 334.94 C 366.09 334.79 367.20 334.03 368.22 333.28 C 370.97 332.49 372.92 330.08 373.96 327.51 L 374.08 327.19 C 375.78 327.78 376.85 324.95 375.79 323.81 L 376.34 323.18 L 376.01 322.09 C 377.52 321.53 377.72 320.54 376.61 319.12 C 377.55 311.52 376.88 303.71 377.09 296.03 C 377.11 248.71 377.06 201.38 377.12 154.05 C 377.00 152.41 377.37 150.63 376.64 149.10 C 377.82 147.65 377.56 146.68 375.86 146.20 L 375.63 144.55 C 375.62 144.52 375.60 144.45 375.59 144.42 L 375.27 143.66 C 374.73 140.25 371.86 136.96 368.51 136.04 L 368.18 135.93 C 368.80 134.26 365.98 133.03 364.84 134.13 L 363.61 133.47 C 363.57 133.45 363.49 133.42 363.44 133.41 C 362.96 133.28 361.98 133.04 361.50 132.92 C 360.06 132.39 358.57 131.99 357.04 132.01 C 272.01 131.98 186.98 132.02 101.95 131.98 C 99.79 131.93 97.65 132.29 95.59 132.95 Z" />
<path fill="#020202" opacity="1.00" d=" M 101.17 144.04 C 186.28 143.95 271.39 144.01 356.50 144.01 C 356.04 144.50 355.12 145.48 354.66 145.96 C 353.60 147.03 352.46 148.01 351.27 148.93 C 348.43 150.89 345.89 153.24 343.63 155.85 C 342.89 156.63 342.11 157.37 341.28 158.04 C 338.44 160.03 335.87 162.37 333.55 164.95 C 333.29 165.16 332.77 165.59 332.50 165.81 C 328.65 168.35 325.08 171.36 322.29 175.06 C 321.42 176.14 320.40 177.09 319.27 177.89 C 316.77 179.57 314.53 181.61 312.59 183.91 C 311.57 185.02 310.46 186.04 309.28 186.97 C 306.46 189.04 303.84 191.37 301.49 193.97 C 300.16 195.36 298.79 196.71 297.24 197.84 C 295.17 199.26 293.29 200.94 291.66 202.84 C 290.63 203.98 289.51 205.03 288.31 205.97 C 285.13 208.29 282.23 210.96 279.60 213.89 C 278.89 214.59 278.15 215.25 277.37 215.87 C 274.47 217.87 271.88 220.27 269.57 222.93 C 268.52 224.01 267.43 225.06 266.25 226.00 C 263.43 228.03 260.80 230.32 258.52 232.95 C 257.55 233.99 256.52 234.98 255.33 235.78 C 252.71 237.33 250.54 239.49 248.66 241.87 C 247.96 242.63 247.18 243.30 246.37 243.94 C 243.50 245.94 240.89 248.27 238.62 250.93 C 237.62 252.03 236.51 253.03 235.28 253.87 C 233.09 255.34 230.96 256.92 229.12 258.82 C 227.98 258.21 226.86 257.59 225.74 256.95 C 224.95 256.38 224.30 255.64 223.63 254.95 C 220.69 251.51 217.18 248.63 213.62 245.87 C 212.87 245.27 212.14 244.65 211.47 243.97 C 209.17 241.37 206.58 239.05 203.72 237.06 C 202.88 236.40 202.11 235.65 201.37 234.88 C 199.08 232.27 196.50 229.94 193.68 227.92 C 192.52 227.02 191.48 225.99 190.47 224.93 C 188.46 222.71 186.21 220.72 183.77 218.98 C 182.56 218.05 181.48 216.98 180.43 215.90 C 178.08 213.34 175.51 210.98 172.71 208.92 C 171.54 207.99 170.46 206.98 169.43 205.91 C 166.83 202.88 163.77 200.34 160.60 197.93 C 160.32 197.69 159.77 197.20 159.49 196.95 C 157.10 194.40 154.56 192.00 151.73 189.94 C 150.57 189.02 149.50 188.01 148.48 186.95 C 145.82 183.99 142.87 181.32 139.66 178.98 C 138.85 178.34 138.08 177.65 137.39 176.89 C 135.48 174.54 133.26 172.47 130.71 170.85 C 129.50 170.00 128.47 168.93 127.48 167.85 C 124.93 164.78 121.91 162.17 118.65 159.88 C 117.87 159.26 117.12 158.60 116.42 157.90 C 113.79 154.93 110.83 152.31 107.64 149.97 C 106.55 149.07 105.50 148.12 104.46 147.18 C 103.36 146.14 102.26 145.09 101.17 144.04 Z" />
<path fill="#020202" opacity="1.00" d=" M 92.87 149.30 C 93.29 148.99 94.13 148.37 94.55 148.07 C 96.06 149.52 97.64 150.90 99.29 152.18 C 100.80 153.39 102.26 154.67 103.59 156.07 C 105.60 158.34 107.80 160.45 110.31 162.17 C 111.82 163.28 113.23 164.55 114.44 165.99 C 116.31 168.46 118.64 170.51 121.27 172.12 C 122.49 172.97 123.56 174.00 124.56 175.09 C 126.79 177.76 129.43 180.03 132.28 182.03 C 133.45 182.92 134.53 183.94 135.53 185.03 C 137.52 187.35 139.80 189.40 142.32 191.13 C 143.51 192.02 144.59 193.05 145.61 194.13 C 148.45 197.46 151.83 200.22 155.27 202.88 L 155.63 203.22 C 157.88 205.84 160.41 208.20 163.29 210.13 C 164.46 211.00 165.53 212.00 166.53 213.06 C 168.83 215.68 171.43 218.02 174.28 220.03 C 175.06 220.65 175.76 221.38 176.45 222.12 C 178.89 224.86 181.53 227.42 184.22 229.93 C 176.29 238.10 168.12 246.05 160.12 254.17 C 156.97 257.48 153.30 260.35 150.83 264.26 C 150.39 264.89 149.84 265.41 149.18 265.82 C 146.85 267.06 144.94 268.88 143.74 271.25 C 143.36 271.90 142.86 272.42 142.24 272.82 C 138.95 274.37 136.35 276.94 134.80 280.23 C 122.88 292.79 110.39 304.87 98.29 317.29 C 97.25 318.31 96.27 319.48 94.92 320.12 C 94.48 320.14 93.59 320.17 93.15 320.19 L 93.11 319.43 C 92.82 263.07 93.14 206.70 92.95 150.34 C 92.93 150.08 92.89 149.56 92.87 149.30 Z" />
<path fill="#020202" opacity="1.00" d=" M 361.17 149.83 C 362.40 149.73 363.64 149.76 364.88 149.73 C 365.24 190.49 364.93 231.26 365.04 272.02 C 364.85 287.81 365.42 303.63 364.72 319.40 C 361.97 316.32 359.04 313.40 356.05 310.56 C 354.34 308.88 352.65 307.18 351.13 305.33 C 346.88 300.06 342.19 295.15 337.16 290.63 C 335.00 288.64 333.03 286.45 331.07 284.28 C 326.42 278.67 321.37 273.38 316.05 268.41 C 314.61 267.13 313.24 265.77 312.07 264.25 C 307.83 259.03 303.24 254.05 298.15 249.65 C 296.45 248.14 295.01 246.37 293.43 244.75 C 293.39 244.71 293.32 244.63 293.28 244.60 C 292.51 243.81 291.75 243.02 291.01 242.22 C 286.48 236.78 281.33 231.92 276.62 226.63 C 278.66 224.85 280.59 222.94 282.46 220.98 C 283.10 220.35 283.78 219.75 284.49 219.19 C 287.44 217.13 290.12 214.73 292.47 212.01 C 293.48 210.93 294.55 209.91 295.73 209.02 C 298.53 207.08 301.04 204.77 303.29 202.22 C 304.65 200.78 306.11 199.44 307.68 198.23 C 310.17 196.42 312.41 194.32 314.46 192.03 C 315.44 190.99 316.50 190.02 317.64 189.15 C 320.15 187.40 322.42 185.33 324.44 183.03 C 325.45 181.93 326.54 180.91 327.74 180.01 C 330.58 178.03 333.16 175.72 335.42 173.09 C 336.71 171.69 338.11 170.38 339.64 169.25 C 342.20 167.51 344.46 165.39 346.49 163.06 C 347.80 161.69 349.21 160.42 350.68 159.23 C 353.13 157.37 355.40 155.29 357.50 153.06 C 358.65 151.91 359.74 150.65 361.17 149.83 Z" />
<path fill="#020202" opacity="1.00" d=" M 264.74 237.09 C 266.89 235.38 269.22 233.82 270.89 231.59 C 271.95 232.60 273.02 233.61 273.96 234.74 C 277.44 239.41 281.61 243.50 285.93 247.39 C 288.27 249.77 290.72 252.07 292.81 254.69 C 296.28 259.42 300.59 263.49 304.93 267.41 C 307.44 269.69 309.68 272.25 311.97 274.75 C 316.77 280.14 321.50 285.65 326.91 290.44 C 328.33 291.69 329.61 293.09 330.80 294.56 C 335.09 299.84 339.76 304.82 344.85 309.34 C 347.60 312.03 350.28 314.80 352.80 317.72 C 354.76 320.29 356.74 322.91 359.39 324.83 L 358.46 324.89 C 272.54 325.10 186.62 325.01 100.70 324.94 C 111.31 314.16 122.07 303.52 132.64 292.70 C 132.67 292.67 132.73 292.60 132.76 292.57 C 134.17 291.17 135.60 289.79 137.03 288.42 C 155.16 270.93 172.50 252.64 190.47 234.99 C 192.36 236.73 194.34 238.36 196.31 240.01 C 197.09 240.67 197.84 241.36 198.57 242.10 C 200.88 244.69 203.43 247.07 206.30 249.05 C 207.47 249.94 208.54 250.97 209.55 252.06 C 211.55 254.35 213.81 256.39 216.28 258.17 C 217.82 259.35 219.24 260.69 220.59 262.10 C 222.65 264.32 224.81 266.48 227.38 268.12 C 227.79 268.42 228.61 269.02 229.02 269.32 C 230.20 268.16 231.45 267.06 232.75 266.04 C 235.54 264.01 238.08 261.67 240.38 259.10 C 241.09 258.37 241.85 257.69 242.67 257.07 C 245.58 255.07 248.25 252.74 250.50 250.01 C 251.45 248.93 252.52 247.96 253.68 247.10 C 257.00 244.84 259.89 242.03 262.59 239.07 C 263.28 238.38 263.99 237.71 264.74 237.09 Z" />
</g>
<g id="#2424247c">
<path fill="#242424" opacity="0.49" d=" M 250.07 39.36 C 251.83 38.36 255.81 38.07 256.63 40.16 C 254.40 40.29 252.18 40.09 250.07 39.36 Z" />
</g>
<g id="#1d1d1d9c">
<path fill="#1d1d1d" opacity="0.61" d=" M 257.42 40.18 C 261.48 39.95 265.55 40.84 269.40 42.07 C 265.36 41.75 261.38 41.04 257.42 40.18 Z" />
</g>
<g id="#2c2c2c70">
<path fill="#2c2c2c" opacity="0.44" d=" M 194.24 42.14 C 194.67 40.46 195.63 40.21 197.10 41.40 C 196.22 41.98 195.27 42.23 194.24 42.14 Z" />
</g>
<g id="#2b2b2b6e">
<path fill="#2b2b2b" opacity="0.43" d=" M 189.19 43.17 C 189.65 41.50 190.61 41.24 192.07 42.40 C 191.20 43.02 190.24 43.27 189.19 43.17 Z" />
</g>
<g id="#2c2c2c83">
<path fill="#2c2c2c" opacity="0.51" d=" M 271.02 42.40 L 271.75 41.78 L 272.79 42.09 L 273.04 43.00 C 272.53 42.85 271.53 42.55 271.02 42.40 Z" />
</g>
<g id="#2c2c2c6f">
<path fill="#2c2c2c" opacity="0.44" d=" M 185.33 43.16 L 186.33 42.75 L 187.09 43.25 C 186.60 43.45 185.62 43.85 185.14 44.06 L 185.33 43.16 Z" />
</g>
<g id="#20202073">
<path fill="#202020" opacity="0.45" d=" M 274.46 43.08 C 277.21 43.09 279.89 43.77 282.32 45.05 C 279.62 44.73 276.99 44.05 274.46 43.08 Z" />
</g>
<g id="#2e2e2e71">
<path fill="#2e2e2e" opacity="0.44" d=" M 181.32 44.13 L 182.34 43.76 L 183.09 44.30 C 182.60 44.48 181.60 44.85 181.11 45.03 L 181.32 44.13 Z" />
</g>
<g id="#2424246c">
<path fill="#242424" opacity="0.42" d=" M 177.28 46.23 C 177.63 44.53 178.55 44.22 180.04 45.28 C 179.24 45.99 178.32 46.30 177.28 46.23 Z" />
</g>
<g id="#2c2c2c87">
<path fill="#2c2c2c" opacity="0.53" d=" M 283.00 45.36 L 283.76 44.80 L 284.79 45.16 L 284.97 46.07 C 284.48 45.89 283.49 45.54 283.00 45.36 Z" />
<path fill="#2c2c2c" opacity="0.53" d=" M 190.77 421.02 C 191.28 421.17 192.30 421.47 192.80 421.62 L 192.07 422.23 L 191.02 421.92 L 190.77 421.02 Z" />
</g>
<g id="#2a2a2a69">
<path fill="#2a2a2a" opacity="0.41" d=" M 174.33 46.15 L 175.33 45.74 L 176.10 46.25 C 175.62 46.45 174.65 46.86 174.16 47.06 L 174.33 46.15 Z" />
<path fill="#2a2a2a" opacity="0.41" d=" M 289.96 47.25 L 290.76 46.80 L 291.72 47.29 L 291.84 48.20 C 291.37 47.96 290.43 47.49 289.96 47.25 Z" />
</g>
<g id="#26262699">
<path fill="#262626" opacity="0.60" d=" M 286.24 46.24 L 287.05 45.77 L 288.04 46.21 L 288.18 47.10 C 287.70 46.89 286.72 46.45 286.24 46.24 Z" />
</g>
<g id="#29292980">
<path fill="#292929" opacity="0.50" d=" M 171.26 47.16 L 172.24 46.71 L 173.03 47.18 C 172.55 47.40 171.59 47.85 171.11 48.07 L 171.26 47.16 Z" />
</g>
<g id="#28282884">
<path fill="#282828" opacity="0.52" d=" M 168.23 48.18 L 169.20 47.71 L 169.99 48.17 C 169.52 48.40 168.57 48.86 168.09 49.09 L 168.23 48.18 Z" />
</g>
<g id="#2020209c">
<path fill="#202020" opacity="0.61" d=" M 292.62 48.41 C 294.17 47.72 296.41 48.23 297.35 49.71 L 297.22 50.09 C 295.52 50.08 293.96 49.41 292.62 48.41 Z" />
</g>
<g id="#2c2c2c7d">
<path fill="#2c2c2c" opacity="0.49" d=" M 165.21 49.28 L 166.17 48.79 L 166.97 49.23 C 166.51 49.47 165.57 49.94 165.10 50.18 L 165.21 49.28 Z" />
<path fill="#2c2c2c" opacity="0.49" d=" M 48.18 167.25 L 49.10 167.10 C 48.87 167.58 48.42 168.53 48.20 169.01 L 47.73 168.23 L 48.18 167.25 Z" />
</g>
<g id="#30303064">
<path fill="#303030" opacity="0.39" d=" M 299.36 50.48 C 299.40 50.50 299.48 50.52 299.52 50.54 C 299.48 50.52 299.40 50.50 299.36 50.48 Z" />
</g>
<g id="#2626268f">
<path fill="#262626" opacity="0.56" d=" M 160.29 51.12 L 161.29 50.72 L 162.05 51.23 C 161.56 51.43 160.58 51.82 160.09 52.02 L 160.29 51.12 Z" />
</g>
<g id="#2c2c2c7a">
<path fill="#2c2c2c" opacity="0.48" d=" M 300.93 51.25 L 301.71 50.75 L 302.71 51.18 L 302.88 52.09 C 302.40 51.88 301.42 51.46 300.93 51.25 Z" />
</g>
<g id="#181818b5">
<path fill="#181818" opacity="0.71" d=" M 148.30 57.27 C 151.50 54.61 155.68 53.21 159.67 52.15 C 156.00 54.12 152.21 55.84 148.30 57.27 Z" />
</g>
<g id="#2828286d">
<path fill="#282828" opacity="0.43" d=" M 305.90 53.25 L 306.69 52.79 L 307.67 53.26 L 307.81 54.17 C 307.33 53.94 306.38 53.48 305.90 53.25 Z" />
</g>
<g id="#1a1a1a9e">
<path fill="#1a1a1a" opacity="0.62" d=" M 142.85 60.05 C 143.02 58.19 146.41 56.64 148.15 57.38 C 146.72 58.86 144.93 59.90 142.85 60.05 Z" />
</g>
<g id="#2c2c2c8f">
<path fill="#2c2c2c" opacity="0.56" d=" M 319.48 59.40 C 319.52 59.43 319.62 59.47 319.67 59.50 C 319.62 59.47 319.52 59.43 319.48 59.40 Z" />
</g>
<g id="#2e2e2e8b">
<path fill="#2e2e2e" opacity="0.55" d=" M 139.36 61.44 C 139.40 61.41 139.48 61.37 139.52 61.35 C 139.48 61.37 139.40 61.41 139.36 61.44 Z" />
<path fill="#2e2e2e" opacity="0.55" d=" M 412.52 163.30 C 412.54 163.35 412.57 163.47 412.59 163.52 C 412.57 163.47 412.54 163.35 412.52 163.30 Z" />
</g>
<g id="#1e1e1e92">
<path fill="#1e1e1e" opacity="0.57" d=" M 133.27 65.34 C 132.73 63.80 135.26 62.54 136.43 63.45 C 135.68 64.50 134.60 65.29 133.27 65.34 Z" />
</g>
<g id="#1a1a1a9b">
<path fill="#1a1a1a" opacity="0.61" d=" M 326.48 63.49 C 328.22 62.87 329.07 63.40 329.04 65.11 C 327.98 64.90 327.12 64.37 326.48 63.49 Z" />
</g>
<g id="#3030307a">
<path fill="#303030" opacity="0.48" d=" M 130.49 66.53 C 130.53 66.50 130.61 66.44 130.65 66.41 C 130.61 66.44 130.53 66.50 130.49 66.53 Z" />
<path fill="#303030" opacity="0.48" d=" M 147.34 406.36 C 147.38 406.38 147.47 406.41 147.51 406.43 C 147.47 406.41 147.38 406.38 147.34 406.36 Z" />
</g>
<g id="#191919a7">
<path fill="#191919" opacity="0.65" d=" M 123.50 71.30 C 125.13 69.26 127.45 68.05 129.82 67.08 C 127.98 68.86 125.74 70.10 123.50 71.30 Z" />
</g>
<g id="#3131316a">
<path fill="#313131" opacity="0.42" d=" M 335.36 68.49 C 335.40 68.52 335.47 68.56 335.51 68.59 C 335.47 68.56 335.40 68.52 335.36 68.49 Z" />
</g>
<g id="#1c1c1c9b">
<path fill="#1c1c1c" opacity="0.61" d=" M 121.05 73.15 C 120.93 71.46 121.70 70.92 123.34 71.51 C 122.89 72.50 122.12 73.05 121.05 73.15 Z" />
</g>
<g id="#1c1c1ca3">
<path fill="#1c1c1c" opacity="0.64" d=" M 340.60 72.44 C 342.26 71.91 343.06 72.45 342.99 74.08 C 341.89 74.03 341.10 73.49 340.60 72.44 Z" />
</g>
<g id="#1d1d1d48">
<path fill="#1d1d1d" opacity="0.28" d=" M 118.02 75.06 C 117.79 73.26 118.54 72.68 120.26 73.32 C 119.74 74.19 118.99 74.78 118.02 75.06 Z" />
</g>
<g id="#1c1c1c44">
<path fill="#1c1c1c" opacity="0.27" d=" M 343.81 74.13 C 345.42 73.71 346.14 74.33 345.94 76.00 C 344.78 75.80 344.07 75.17 343.81 74.13 Z" />
</g>
<g id="#1f1f1f49">
<path fill="#1f1f1f" opacity="0.29" d=" M 114.03 78.07 C 113.84 76.30 114.61 75.69 116.33 76.24 C 115.80 77.16 115.03 77.77 114.03 78.07 Z" />
</g>
<g id="#191919b1">
<path fill="#191919" opacity="0.69" d=" M 347.57 77.44 C 348.97 76.85 351.53 78.54 350.97 80.10 C 349.39 79.89 348.19 78.86 347.57 77.44 Z" />
</g>
<g id="#1c1c1c71">
<path fill="#1c1c1c" opacity="0.44" d=" M 109.06 82.09 C 108.36 80.47 110.91 78.45 112.39 79.34 C 111.63 80.64 110.48 81.60 109.06 82.09 Z" />
</g>
<g id="#1f1f1fa0">
<path fill="#1f1f1f" opacity="0.63" d=" M 352.65 81.36 C 354.30 80.87 355.03 81.48 354.84 83.19 C 353.76 82.99 353.04 82.37 352.65 81.36 Z" />
<path fill="#1f1f1f" opacity="0.63" d=" M 392.84 338.03 C 392.91 336.79 393.53 336.03 394.70 335.77 C 395.01 337.35 394.39 338.10 392.84 338.03 Z" />
</g>
<g id="#17171796">
<path fill="#171717" opacity="0.59" d=" M 100.55 89.29 C 102.04 87.09 104.02 85.27 106.40 84.10 C 104.71 86.11 102.74 87.85 100.55 89.29 Z" />
</g>
<g id="#18181886">
<path fill="#181818" opacity="0.53" d=" M 357.50 85.09 C 360.65 86.75 363.23 89.36 365.30 92.23 C 362.44 90.14 359.79 87.78 357.50 85.09 Z" />
</g>
<g id="#17171726">
<path fill="#171717" opacity="0.15" d=" M 92.40 97.17 C 91.21 95.15 94.07 92.30 96.09 93.45 C 94.99 94.81 93.75 96.05 92.40 97.17 Z" />
</g>
<g id="#1414148a">
<path fill="#141414" opacity="0.54" d=" M 368.96 95.74 C 372.37 98.51 375.52 101.70 377.87 105.41 C 374.52 102.55 371.65 99.22 368.96 95.74 Z" />
</g>
<g id="#1b1b1b81">
<path fill="#1b1b1b" opacity="0.51" d=" M 83.41 107.20 C 82.88 105.40 85.33 102.65 87.17 103.08 C 86.58 104.99 85.14 106.30 83.41 107.20 Z" />
</g>
<g id="#1a1a1a68">
<path fill="#1a1a1a" opacity="0.41" d=" M 379.85 108.01 C 381.48 107.27 383.58 109.84 382.61 111.31 C 381.36 110.50 380.36 109.41 379.85 108.01 Z" />
<path fill="#1a1a1a" opacity="0.41" d=" M 383.97 113.04 C 385.58 112.38 387.43 114.87 386.73 116.33 C 385.22 115.84 384.52 114.40 383.97 113.04 Z" />
</g>
<g id="#1a1a1a98">
<path fill="#1a1a1a" opacity="0.60" d=" M 75.14 117.49 C 76.97 114.14 79.27 110.95 82.25 108.53 C 80.31 111.84 77.92 114.84 75.14 117.49 Z" />
</g>
<g id="#1f1f1f9b">
<path fill="#1f1f1f" opacity="0.61" d=" M 386.81 117.04 C 388.49 116.91 389.06 117.67 388.53 119.34 C 387.50 118.86 386.92 118.10 386.81 117.04 Z" />
</g>
<g id="#1c1c1ca6">
<path fill="#1c1c1c" opacity="0.65" d=" M 73.45 120.38 C 72.92 118.76 73.48 118.00 75.12 118.10 C 75.09 119.19 74.54 119.95 73.45 120.38 Z" />
</g>
<g id="#30303078">
<path fill="#303030" opacity="0.47" d=" M 390.46 121.42 C 390.48 121.45 390.53 121.51 390.55 121.54 C 390.53 121.51 390.48 121.45 390.46 121.42 Z" />
</g>
<g id="#30303076">
<path fill="#303030" opacity="0.46" d=" M 71.45 122.57 C 71.47 122.54 71.51 122.48 71.53 122.46 C 71.51 122.48 71.47 122.54 71.45 122.57 Z" />
</g>
<g id="#1c1c1c86">
<path fill="#1c1c1c" opacity="0.53" d=" M 391.84 123.67 C 394.08 125.94 396.03 128.63 396.89 131.74 C 394.98 129.20 393.24 126.53 391.84 123.67 Z" />
</g>
<g id="#30303072">
<path fill="#303030" opacity="0.45" d=" M 69.49 125.59 C 69.52 125.55 69.56 125.49 69.58 125.46 C 69.56 125.49 69.52 125.55 69.49 125.59 Z" />
</g>
<g id="#3232325f">
<path fill="#323232" opacity="0.37" d=" M 95.59 132.95 C 97.65 132.29 99.79 131.93 101.95 131.98 C 186.98 132.02 272.01 131.98 357.04 132.01 C 358.57 131.99 360.06 132.39 361.50 132.92 C 272.86 133.07 184.22 133.00 95.59 132.95 Z" />
</g>
<g id="#1b1b1b43">
<path fill="#1b1b1b" opacity="0.26" d=" M 397.00 131.97 C 398.80 131.89 399.33 132.71 398.60 134.43 C 397.80 133.78 397.26 132.95 397.00 131.97 Z" />
</g>
<g id="#2e2e2e8f">
<path fill="#2e2e2e" opacity="0.56" d=" M 93.33 133.15 L 94.33 132.74 L 95.10 133.26 C 94.61 133.46 93.64 133.86 93.15 134.06 L 93.33 133.15 Z" />
</g>
<g id="#33333387">
<path fill="#333333" opacity="0.53" d=" M 363.44 133.41 C 363.49 133.42 363.57 133.45 363.61 133.47 C 363.57 133.45 363.49 133.42 363.44 133.41 Z" />
</g>
<g id="#2222228d">
<path fill="#222222" opacity="0.55" d=" M 364.84 134.13 C 365.98 133.03 368.80 134.26 368.18 135.93 C 366.89 135.68 365.81 134.96 364.84 134.13 Z" />
</g>
<g id="#1c1c1c9e">
<path fill="#1c1c1c" opacity="0.62" d=" M 61.46 139.47 C 60.97 137.85 62.26 134.79 64.12 134.91 C 63.96 136.79 62.92 138.34 61.46 139.47 Z" />
<path fill="#1c1c1c" opacity="0.62" d=" M 125.93 393.84 C 126.97 394.03 127.77 394.59 128.34 395.50 C 126.63 396.12 125.83 395.56 125.93 393.84 Z" />
</g>
<g id="#1a1a1a36">
<path fill="#1a1a1a" opacity="0.21" d=" M 83.87 141.50 C 84.98 139.03 87.00 137.13 89.44 135.99 C 87.70 137.94 85.84 139.78 83.87 141.50 Z" />
</g>
<g id="#1c1c1cbb">
<path fill="#1c1c1c" opacity="0.73" d=" M 368.51 136.04 C 371.86 136.96 374.73 140.25 375.27 143.66 C 373.36 140.84 371.23 138.11 368.51 136.04 Z" />
</g>
<g id="#2929299b">
<path fill="#292929" opacity="0.61" d=" M 402.56 141.28 C 402.59 141.32 402.63 141.40 402.65 141.44 C 402.63 141.40 402.59 141.32 402.56 141.28 Z" />
</g>
<g id="#24242491">
<path fill="#242424" opacity="0.57" d=" M 81.19 148.03 C 80.26 146.47 80.97 143.04 83.01 143.04 C 82.78 144.82 82.35 146.61 81.19 148.03 Z" />
</g>
<g id="#1c1c1c27">
<path fill="#1c1c1c" opacity="0.15" d=" M 100.73 142.99 C 186.23 143.00 271.72 142.95 357.22 143.02 C 357.28 144.68 356.41 145.90 354.66 145.96 C 355.12 145.48 356.04 144.50 356.50 144.01 C 271.39 144.01 186.28 143.95 101.17 144.04 C 102.26 145.09 103.36 146.14 104.46 147.18 C 102.45 146.68 100.73 145.19 100.73 142.99 Z" />
</g>
<g id="#34343474">
<path fill="#343434" opacity="0.45" d=" M 375.59 144.42 C 375.60 144.45 375.62 144.52 375.63 144.55 C 375.62 144.52 375.60 144.45 375.59 144.42 Z" />
</g>
<g id="#1e1e1e88">
<path fill="#1e1e1e" opacity="0.53" d=" M 403.65 144.23 C 405.40 143.99 406.56 146.82 405.75 148.22 C 404.57 147.17 403.72 145.83 403.65 144.23 Z" />
</g>
<g id="#2a2a2a80">
<path fill="#2a2a2a" opacity="0.50" d=" M 375.86 146.20 C 377.56 146.68 377.82 147.65 376.64 149.10 C 376.06 148.22 375.80 147.25 375.86 146.20 Z" />
</g>
<g id="#1d1d1d70">
<path fill="#1d1d1d" opacity="0.44" d=" M 92.87 149.30 C 93.20 148.77 93.84 147.69 94.17 147.16 C 96.30 148.34 97.86 150.26 99.29 152.18 C 97.64 150.90 96.06 149.52 94.55 148.07 C 94.13 148.37 93.29 148.99 92.87 149.30 Z" />
</g>
<g id="#202020a6">
<path fill="#202020" opacity="0.65" d=" M 361.17 149.83 C 361.17 148.65 362.57 147.00 363.87 147.32 C 364.67 147.94 365.00 148.75 364.88 149.73 C 363.64 149.76 362.40 149.73 361.17 149.83 Z" />
</g>
<g id="#1d1d1dae">
<path fill="#1d1d1d" opacity="0.68" d=" M 55.36 151.28 C 54.66 150.13 55.74 147.70 57.23 148.15 C 57.22 149.45 56.67 150.81 55.36 151.28 Z" />
</g>
<g id="#1e1e1ec5">
<path fill="#1e1e1e" opacity="0.77" d=" M 80.01 157.96 C 80.09 154.83 79.54 151.55 80.80 148.59 C 81.24 161.06 80.87 173.55 80.99 186.03 C 80.91 230.84 81.17 275.65 80.86 320.46 C 80.36 319.02 79.96 317.53 80.02 316.00 C 80.01 263.32 80.04 210.64 80.01 157.96 Z" />
</g>
<g id="#1a1a1a87">
<path fill="#1a1a1a" opacity="0.53" d=" M 343.63 155.85 C 345.89 153.24 348.43 150.89 351.27 148.93 C 349.21 151.72 346.53 153.99 343.63 155.85 Z" />
</g>
<g id="#17171783">
<path fill="#171717" opacity="0.51" d=" M 107.64 149.97 C 110.83 152.31 113.79 154.93 116.42 157.90 C 113.09 155.74 110.17 153.00 107.64 149.97 Z" />
</g>
<g id="#2626263a">
<path fill="#262626" opacity="0.23" d=" M 91.97 154.96 C 92.21 153.45 91.38 151.31 92.95 150.34 C 93.14 206.70 92.82 263.07 93.11 319.43 C 91.63 318.41 92.14 316.48 91.98 314.99 C 92.00 261.64 92.04 208.30 91.97 154.96 Z" />
</g>
<g id="#191919b8">
<path fill="#191919" opacity="0.72" d=" M 406.91 151.10 C 408.78 151.34 409.77 154.72 409.47 156.46 C 407.83 155.11 406.77 153.27 406.91 151.10 Z" />
</g>
<g id="#1e1e1e8b">
<path fill="#1e1e1e" opacity="0.55" d=" M 53.32 156.28 C 52.47 154.92 53.47 151.99 55.25 152.21 C 55.26 153.81 54.41 155.18 53.32 156.28 Z" />
</g>
<g id="#19191962">
<path fill="#191919" opacity="0.38" d=" M 350.68 159.23 C 352.37 156.62 354.76 154.51 357.50 153.06 C 355.40 155.29 353.13 157.37 350.68 159.23 Z" />
</g>
<g id="#1b1b1b84">
<path fill="#1b1b1b" opacity="0.52" d=" M 103.59 156.07 C 106.34 157.46 108.49 159.72 110.31 162.17 C 107.80 160.45 105.60 158.34 103.59 156.07 Z" />
</g>
<g id="#1919197d">
<path fill="#191919" opacity="0.49" d=" M 333.55 164.95 C 335.87 162.37 338.44 160.03 341.28 158.04 C 339.04 160.68 336.61 163.25 333.55 164.95 Z" />
<path fill="#191919" opacity="0.49" d=" M 203.72 237.06 C 206.58 239.05 209.17 241.37 211.47 243.97 C 208.44 242.23 205.94 239.73 203.72 237.06 Z" />
</g>
<g id="#2b2b2b95">
<path fill="#2b2b2b" opacity="0.58" d=" M 410.59 158.39 C 410.61 158.42 410.65 158.50 410.66 158.54 C 410.65 158.50 410.61 158.42 410.59 158.39 Z" />
</g>
<g id="#2a2a2a83">
<path fill="#2a2a2a" opacity="0.51" d=" M 51.24 159.25 L 52.14 159.10 C 51.91 159.58 51.47 160.54 51.25 161.02 L 50.78 160.22 L 51.24 159.25 Z" />
</g>
<g id="#1a1a1aa1">
<path fill="#1a1a1a" opacity="0.63" d=" M 118.65 159.88 C 121.91 162.17 124.93 164.78 127.48 167.85 C 124.04 165.82 121.24 162.88 118.65 159.88 Z" />
</g>
<g id="#2f2f2f60">
<path fill="#2f2f2f" opacity="0.38" d=" M 411.40 160.47 C 411.42 160.51 411.46 160.60 411.48 160.65 C 411.46 160.60 411.42 160.51 411.40 160.47 Z" />
</g>
<g id="#1d1d1d7f">
<path fill="#1d1d1d" opacity="0.50" d=" M 339.64 169.25 C 341.36 166.65 343.74 164.53 346.49 163.06 C 344.46 165.39 342.20 167.51 339.64 169.25 Z" />
</g>
<g id="#29292975">
<path fill="#292929" opacity="0.46" d=" M 49.27 164.25 L 50.17 164.14 C 49.93 164.61 49.43 165.54 49.18 166.00 L 48.76 165.20 L 49.27 164.25 Z" />
<path fill="#292929" opacity="0.46" d=" M 294.98 414.75 C 295.45 414.52 296.39 414.07 296.86 413.84 L 296.75 414.75 L 295.79 415.22 L 294.98 414.75 Z" />
</g>
<g id="#2a2a2a7e">
<path fill="#2a2a2a" opacity="0.49" d=" M 412.92 165.07 L 413.84 165.26 L 414.26 166.26 L 413.75 167.02 C 413.54 166.53 413.12 165.56 412.92 165.07 Z" />
</g>
<g id="#1d1d1db3">
<path fill="#1d1d1d" opacity="0.70" d=" M 114.44 165.99 C 117.16 167.49 119.34 169.73 121.27 172.12 C 118.64 170.51 116.31 168.46 114.44 165.99 Z" />
</g>
<g id="#1b1b1bbb">
<path fill="#1b1b1b" opacity="0.73" d=" M 322.29 175.06 C 325.08 171.36 328.65 168.35 332.50 165.81 C 329.36 169.13 326.24 172.67 322.29 175.06 Z" />
</g>
<g id="#2828288b">
<path fill="#282828" opacity="0.55" d=" M 413.92 168.09 L 414.83 168.23 L 415.29 169.20 L 414.83 169.99 C 414.60 169.52 414.15 168.56 413.92 168.09 Z" />
</g>
<g id="#28282886">
<path fill="#282828" opacity="0.53" d=" M 47.16 170.23 L 48.07 170.07 C 47.85 170.55 47.41 171.51 47.18 171.99 L 46.71 171.21 L 47.16 170.23 Z" />
</g>
<g id="#1d1d1d98">
<path fill="#1d1d1d" opacity="0.60" d=" M 130.71 170.85 C 133.26 172.47 135.48 174.54 137.39 176.89 C 134.73 175.42 132.52 173.27 130.71 170.85 Z" />
<path fill="#1d1d1d" opacity="0.60" d=" M 60.39 322.58 C 62.08 323.50 62.88 325.25 63.10 327.11 C 61.25 327.24 60.14 324.16 60.39 322.58 Z" />
</g>
<g id="#2929298b">
<path fill="#292929" opacity="0.55" d=" M 414.93 171.09 L 415.84 171.24 L 416.28 172.23 L 415.78 173.01 C 415.56 172.53 415.14 171.57 414.93 171.09 Z" />
</g>
<g id="#2d2d2d78">
<path fill="#2d2d2d" opacity="0.47" d=" M 46.16 173.27 L 47.07 173.10 C 46.86 173.59 46.44 174.56 46.24 175.04 L 45.74 174.27 L 46.16 173.27 Z" />
</g>
<g id="#1919198e">
<path fill="#191919" opacity="0.56" d=" M 327.74 180.01 C 329.95 177.36 332.38 174.80 335.42 173.09 C 333.16 175.72 330.58 178.03 327.74 180.01 Z" />
</g>
<g id="#1f1f1f9a">
<path fill="#1f1f1f" opacity="0.60" d=" M 415.88 174.22 C 417.74 174.51 418.31 177.80 417.58 179.38 C 416.36 177.92 415.75 176.12 415.88 174.22 Z" />
<path fill="#1f1f1f" opacity="0.60" d=" M 186.23 419.81 C 187.55 419.66 188.81 420.12 189.97 420.71 C 189.08 421.95 186.07 421.55 186.23 419.81 Z" />
</g>
<g id="#1a1a1a8e">
<path fill="#1a1a1a" opacity="0.56" d=" M 124.56 175.09 C 127.60 176.81 130.08 179.34 132.28 182.03 C 129.43 180.03 126.79 177.76 124.56 175.09 Z" />
</g>
<g id="#2a2a2a68">
<path fill="#2a2a2a" opacity="0.41" d=" M 45.13 176.36 L 46.03 176.16 C 45.84 176.65 45.45 177.63 45.26 178.13 L 44.74 177.37 L 45.13 176.36 Z" />
</g>
<g id="#1b1b1b9b">
<path fill="#1b1b1b" opacity="0.61" d=" M 312.59 183.91 C 314.53 181.61 316.77 179.57 319.27 177.89 C 317.43 180.28 315.23 182.42 312.59 183.91 Z" />
</g>
<g id="#17171782">
<path fill="#171717" opacity="0.51" d=" M 139.66 178.98 C 142.87 181.32 145.82 183.99 148.48 186.95 C 145.16 184.75 142.19 182.05 139.66 178.98 Z" />
</g>
<g id="#2b2b2b85">
<path fill="#2b2b2b" opacity="0.52" d=" M 44.19 180.21 L 45.09 180.07 C 44.88 180.55 44.44 181.51 44.22 181.98 L 43.74 181.19 L 44.19 180.21 Z" />
</g>
<g id="#2d2d2d7f">
<path fill="#2d2d2d" opacity="0.50" d=" M 417.96 181.06 L 418.85 181.28 L 419.23 182.29 L 418.71 183.05 C 418.52 182.55 418.15 181.56 417.96 181.06 Z" />
</g>
<g id="#2a2a2a6e">
<path fill="#2a2a2a" opacity="0.43" d=" M 43.36 186.03 C 42.24 184.56 42.52 183.62 44.21 183.20 C 44.29 184.25 44.01 185.19 43.36 186.03 Z" />
</g>
<g id="#1a1a1a83">
<path fill="#1a1a1a" opacity="0.51" d=" M 317.64 189.15 C 319.52 186.72 321.75 184.54 324.44 183.03 C 322.42 185.33 320.15 187.40 317.64 189.15 Z" />
</g>
<g id="#1a1a1a86">
<path fill="#1a1a1a" opacity="0.53" d=" M 135.53 185.03 C 138.31 186.40 140.43 188.73 142.32 191.13 C 139.80 189.40 137.52 187.35 135.53 185.03 Z" />
</g>
<g id="#2b2b2b89">
<path fill="#2b2b2b" opacity="0.54" d=" M 418.99 184.80 L 419.88 185.02 L 420.22 186.07 L 419.64 186.82 C 419.48 186.32 419.15 185.31 418.99 184.80 Z" />
</g>
<g id="#1919197b">
<path fill="#191919" opacity="0.48" d=" M 301.49 193.97 C 303.84 191.37 306.46 189.04 309.28 186.97 C 307.06 189.68 304.59 192.28 301.49 193.97 Z" />
</g>
<g id="#2c2c2c81">
<path fill="#2c2c2c" opacity="0.51" d=" M 41.71 189.16 C 42.05 188.90 42.73 188.40 43.07 188.14 C 42.83 188.59 42.34 189.47 42.09 189.91 L 41.71 189.16 Z" />
</g>
<g id="#2f2f2f72">
<path fill="#2f2f2f" opacity="0.45" d=" M 419.91 189.10 L 420.81 189.28 L 421.23 190.28 L 420.72 191.05 C 420.52 190.56 420.11 189.59 419.91 189.10 Z" />
</g>
<g id="#1919195e">
<path fill="#191919" opacity="0.37" d=" M 151.73 189.94 C 154.56 192.00 157.10 194.40 159.49 196.95 C 156.34 195.33 153.89 192.68 151.73 189.94 Z" />
</g>
<g id="#25252561">
<path fill="#252525" opacity="0.38" d=" M 41.39 195.07 C 40.13 194.20 40.42 191.14 42.20 191.31 C 42.46 192.62 41.84 193.87 41.39 195.07 Z" />
</g>
<g id="#1b1b1b83">
<path fill="#1b1b1b" opacity="0.51" d=" M 307.68 198.23 C 309.42 195.66 311.75 193.54 314.46 192.03 C 312.41 194.32 310.17 196.42 307.68 198.23 Z" />
</g>
<g id="#2121218c">
<path fill="#212121" opacity="0.55" d=" M 420.77 193.28 C 422.65 193.38 422.89 196.75 421.72 197.91 C 421.11 196.44 420.58 194.89 420.77 193.28 Z" />
</g>
<g id="#16161691">
<path fill="#161616" opacity="0.57" d=" M 145.61 194.13 C 149.16 196.65 152.45 199.56 155.27 202.88 C 151.83 200.22 148.45 197.46 145.61 194.13 Z" />
</g>
<g id="#27272782">
<path fill="#272727" opacity="0.51" d=" M 40.42 201.04 C 39.25 200.08 39.32 196.95 41.15 196.99 C 41.23 198.38 40.88 199.73 40.42 201.04 Z" />
</g>
<g id="#18181885">
<path fill="#181818" opacity="0.52" d=" M 160.60 197.93 C 163.77 200.34 166.83 202.88 169.43 205.91 C 166.00 203.85 163.22 200.90 160.60 197.93 Z" />
</g>
<g id="#1c1c1c94">
<path fill="#1c1c1c" opacity="0.58" d=" M 291.66 202.84 C 293.29 200.94 295.17 199.26 297.24 197.84 C 295.85 199.98 293.93 201.70 291.66 202.84 Z" />
</g>
<g id="#23232396">
<path fill="#232323" opacity="0.59" d=" M 421.87 198.90 C 423.77 199.23 423.69 202.67 422.62 203.93 C 422.05 202.31 421.75 200.62 421.87 198.90 Z" />
</g>
<g id="#1818188f">
<path fill="#181818" opacity="0.56" d=" M 295.73 209.02 C 297.80 206.30 300.37 203.99 303.29 202.22 C 301.04 204.77 298.53 207.08 295.73 209.02 Z" />
</g>
<g id="#21212183">
<path fill="#212121" opacity="0.51" d=" M 39.30 203.91 C 39.50 203.48 39.92 202.63 40.12 202.21 C 39.34 207.95 39.05 213.74 38.27 219.48 C 37.30 214.25 39.22 209.13 39.30 203.91 Z" />
</g>
<g id="#1b1b1b99">
<path fill="#1b1b1b" opacity="0.60" d=" M 155.63 203.22 C 158.64 204.95 161.15 207.41 163.29 210.13 C 160.41 208.20 157.88 205.84 155.63 203.22 Z" />
</g>
<g id="#2a2a2a74">
<path fill="#2a2a2a" opacity="0.45" d=" M 422.84 205.14 C 424.79 205.33 424.73 208.85 423.56 210.03 C 423.02 208.45 422.79 206.80 422.84 205.14 Z" />
</g>
<g id="#19191983">
<path fill="#191919" opacity="0.51" d=" M 279.60 213.89 C 282.23 210.96 285.13 208.29 288.31 205.97 C 285.81 209.01 282.95 211.79 279.60 213.89 Z" />
<path fill="#191919" opacity="0.51" d=" M 183.77 218.98 C 186.21 220.72 188.46 222.71 190.47 224.93 C 187.85 223.44 185.57 221.40 183.77 218.98 Z" />
</g>
<g id="#1a1a1a75">
<path fill="#1a1a1a" opacity="0.46" d=" M 172.71 208.92 C 175.51 210.98 178.08 213.34 180.43 215.90 C 177.41 214.13 174.79 211.72 172.71 208.92 Z" />
<path fill="#1a1a1a" opacity="0.46" d=" M 397.96 330.14 C 398.36 328.35 399.25 326.74 400.63 325.51 C 401.27 327.16 399.86 330.42 397.96 330.14 Z" />
</g>
<g id="#19191992">
<path fill="#191919" opacity="0.57" d=" M 284.49 219.19 C 286.77 216.42 289.42 213.91 292.47 212.01 C 290.12 214.73 287.44 217.13 284.49 219.19 Z" />
</g>
<g id="#19191974">
<path fill="#191919" opacity="0.45" d=" M 166.53 213.06 C 169.55 214.85 172.12 217.28 174.28 220.03 C 171.43 218.02 168.83 215.68 166.53 213.06 Z" />
<path fill="#191919" opacity="0.45" d=" M 232.75 266.04 C 234.82 263.25 237.45 260.93 240.38 259.10 C 238.08 261.67 235.54 264.01 232.75 266.04 Z" />
</g>
<g id="#191919a2">
<path fill="#191919" opacity="0.64" d=" M 423.98 212.65 C 425.38 218.89 425.15 225.43 424.78 231.74 C 424.51 231.62 423.96 231.38 423.68 231.26 C 425.64 225.25 423.28 218.85 423.98 212.65 Z" />
</g>
<g id="#1a1a1a8c">
<path fill="#1a1a1a" opacity="0.55" d=" M 269.57 222.93 C 271.88 220.27 274.47 217.87 277.37 215.87 C 275.23 218.67 272.55 221.04 269.57 222.93 Z" />
<path fill="#1a1a1a" opacity="0.55" d=" M 253.68 247.10 C 256.19 243.98 259.16 241.16 262.59 239.07 C 259.89 242.03 257.00 244.84 253.68 247.10 Z" />
</g>
<g id="#1919195d">
<path fill="#191919" opacity="0.36" d=" M 275.73 226.42 C 278.01 224.65 279.76 222.17 282.46 220.98 C 280.59 222.94 278.66 224.85 276.62 226.63 C 281.33 231.92 286.48 236.78 291.01 242.22 C 287.89 239.99 285.48 236.98 282.78 234.29 C 280.39 231.70 277.66 229.39 275.73 226.42 Z" />
</g>
<g id="#191919b5">
<path fill="#191919" opacity="0.71" d=" M 176.45 222.12 C 179.58 224.38 182.89 226.85 185.06 230.01 C 176.85 238.81 168.08 247.10 159.68 255.74 C 156.73 258.58 154.06 261.72 150.83 264.26 C 153.30 260.35 156.97 257.48 160.12 254.17 C 168.12 246.05 176.29 238.10 184.22 229.93 C 181.53 227.42 178.89 224.86 176.45 222.12 Z" />
</g>
<g id="#24242439">
<path fill="#242424" opacity="0.22" d=" M 37.26 224.01 C 37.44 223.68 37.80 223.03 37.97 222.70 C 37.97 229.01 37.96 235.31 37.95 241.62 C 36.22 235.96 37.09 229.84 37.26 224.01 Z" />
</g>
<g id="#19191978">
<path fill="#191919" opacity="0.47" d=" M 258.52 232.95 C 260.80 230.32 263.43 228.03 266.25 226.00 C 264.07 228.71 261.56 231.21 258.52 232.95 Z" />
</g>
<g id="#19191977">
<path fill="#191919" opacity="0.47" d=" M 193.68 227.92 C 196.50 229.94 199.08 232.27 201.37 234.88 C 198.39 233.08 195.77 230.71 193.68 227.92 Z" />
</g>
<g id="#1a1a1a89">
<path fill="#1a1a1a" opacity="0.54" d=" M 264.74 237.09 C 266.55 234.60 268.86 232.50 271.47 230.87 L 270.89 231.59 C 269.22 233.82 266.89 235.38 264.74 237.09 Z" />
</g>
<g id="#1919195f">
<path fill="#191919" opacity="0.37" d=" M 139.25 285.39 C 156.49 268.38 173.18 250.79 190.62 233.97 C 192.58 235.92 194.61 237.81 196.31 240.01 C 194.34 238.36 192.36 236.73 190.47 234.99 C 172.50 252.64 155.16 270.93 137.03 288.42 C 137.70 287.35 138.35 286.27 139.25 285.39 Z" />
</g>
<g id="#1c1c1c99">
<path fill="#1c1c1c" opacity="0.60" d=" M 423.96 251.36 C 423.86 245.47 424.27 239.58 424.96 233.74 C 424.84 239.61 425.55 245.61 423.96 251.36 Z" />
</g>
<g id="#1b1b1b8b">
<path fill="#1b1b1b" opacity="0.55" d=" M 273.96 234.74 C 278.38 238.49 282.53 242.69 285.93 247.39 C 281.61 243.50 277.44 239.41 273.96 234.74 Z" />
</g>
<g id="#1d1d1d99">
<path fill="#1d1d1d" opacity="0.60" d=" M 248.66 241.87 C 250.54 239.49 252.71 237.33 255.33 235.78 C 253.67 238.34 251.26 240.30 248.66 241.87 Z" />
</g>
<g id="#1a1a1a77">
<path fill="#1a1a1a" opacity="0.47" d=" M 198.57 242.10 C 201.59 243.85 204.19 246.26 206.30 249.05 C 203.43 247.07 200.88 244.69 198.57 242.10 Z" />
</g>
<g id="#1e1e1e87">
<path fill="#1e1e1e" opacity="0.53" d=" M 38.08 242.84 C 38.97 249.01 39.34 255.25 40.10 261.45 C 38.48 255.46 37.80 249.07 38.08 242.84 Z" />
</g>
<g id="#18181895">
<path fill="#181818" opacity="0.58" d=" M 238.62 250.93 C 240.89 248.27 243.50 245.94 246.37 243.94 C 244.12 246.61 241.63 249.12 238.62 250.93 Z" />
</g>
<g id="#272727b2">
<path fill="#272727" opacity="0.70" d=" M 293.28 244.60 C 293.32 244.63 293.39 244.71 293.43 244.75 C 293.39 244.71 293.32 244.63 293.28 244.60 Z" />
</g>
<g id="#1919199a">
<path fill="#191919" opacity="0.60" d=" M 213.62 245.87 C 217.18 248.63 220.69 251.51 223.63 254.95 C 219.72 252.67 216.61 249.22 213.62 245.87 Z" />
</g>
<g id="#1b1b1b92">
<path fill="#1b1b1b" opacity="0.57" d=" M 242.67 257.07 C 244.95 254.39 247.38 251.72 250.50 250.01 C 248.25 252.74 245.58 255.07 242.67 257.07 Z" />
</g>
<g id="#1b1b1b9a">
<path fill="#1b1b1b" opacity="0.60" d=" M 298.15 249.65 C 303.24 254.05 307.83 259.03 312.07 264.25 C 307.09 259.76 302.13 255.07 298.15 249.65 Z" />
</g>
<g id="#1b1b1b7f">
<path fill="#1b1b1b" opacity="0.50" d=" M 209.55 252.06 C 212.26 253.50 214.50 255.68 216.28 258.17 C 213.81 256.39 211.55 254.35 209.55 252.06 Z" />
</g>
<g id="#2626267b">
<path fill="#262626" opacity="0.48" d=" M 422.85 258.72 C 422.75 256.78 422.96 254.85 423.62 253.02 C 424.69 254.49 424.89 258.23 422.85 258.72 Z" />
</g>
<g id="#1a1a1abd">
<path fill="#1a1a1a" opacity="0.74" d=" M 229.12 258.82 C 230.96 256.92 233.09 255.34 235.28 253.87 C 233.38 256.21 231.09 258.16 228.95 260.27 C 227.82 259.21 226.74 258.12 225.74 256.95 C 226.86 257.59 227.98 258.21 229.12 258.82 Z" />
</g>
<g id="#1a1a1aa3">
<path fill="#1a1a1a" opacity="0.64" d=" M 292.81 254.69 C 297.30 258.42 301.44 262.72 304.93 267.41 C 300.59 263.49 296.28 259.42 292.81 254.69 Z" />
</g>
<g id="#2424248d">
<path fill="#242424" opacity="0.55" d=" M 421.81 265.00 C 421.65 263.28 422.11 261.61 422.64 260.00 C 423.73 261.26 423.68 264.68 421.81 265.00 Z" />
</g>
<g id="#1a1a1a85">
<path fill="#1a1a1a" opacity="0.52" d=" M 220.59 262.10 C 223.28 263.56 225.50 265.72 227.38 268.12 C 224.81 266.48 222.65 264.32 220.59 262.10 Z" />
</g>
<g id="#28282876">
<path fill="#282828" opacity="0.46" d=" M 40.41 262.96 C 40.91 264.16 41.21 265.44 41.18 266.76 C 39.35 266.94 39.08 263.79 40.41 262.96 Z" />
</g>
<g id="#191919c6">
<path fill="#191919" opacity="0.78" d=" M 143.74 271.25 C 144.94 268.88 146.85 267.06 149.18 265.82 C 147.66 267.91 145.89 269.80 143.74 271.25 Z" />
</g>
<g id="#1f1f1f8a">
<path fill="#1f1f1f" opacity="0.54" d=" M 419.88 275.61 C 420.31 272.46 420.97 269.35 421.78 266.28 C 421.84 269.47 421.22 272.71 419.88 275.61 Z" />
</g>
<g id="#2525259f">
<path fill="#252525" opacity="0.62" d=" M 41.42 268.09 C 41.95 269.03 42.17 270.04 42.07 271.11 C 40.43 270.57 40.22 269.56 41.42 268.09 Z" />
</g>
<g id="#1919197f">
<path fill="#191919" opacity="0.50" d=" M 316.05 268.41 C 321.37 273.38 326.42 278.67 331.07 284.28 C 325.55 279.54 320.45 274.18 316.05 268.41 Z" />
</g>
<g id="#161616cf">
<path fill="#161616" opacity="0.81" d=" M 134.80 280.23 C 136.35 276.94 138.95 274.37 142.24 272.82 C 140.06 275.57 137.60 278.11 134.80 280.23 Z" />
</g>
<g id="#21212163">
<path fill="#212121" opacity="0.39" d=" M 42.15 273.21 C 43.12 275.87 43.73 278.64 44.11 281.44 C 42.79 278.91 42.12 276.06 42.15 273.21 Z" />
</g>
<g id="#1818187b">
<path fill="#181818" opacity="0.48" d=" M 311.97 274.75 C 316.34 278.12 319.74 282.50 323.66 286.36 C 324.92 287.57 326.05 288.91 326.91 290.44 C 321.50 285.65 316.77 280.14 311.97 274.75 Z" />
</g>
<g id="#27272793">
<path fill="#272727" opacity="0.58" d=" M 418.80 279.06 C 418.70 277.98 418.98 277.01 419.63 276.13 C 420.72 277.62 420.44 278.60 418.80 279.06 Z" />
</g>
<g id="#2c2c2c74">
<path fill="#2c2c2c" opacity="0.45" d=" M 417.94 282.89 C 418.14 282.40 418.53 281.42 418.73 280.93 L 419.25 281.69 L 418.85 282.69 L 417.94 282.89 Z" />
</g>
<g id="#2b2b2b7d">
<path fill="#2b2b2b" opacity="0.49" d=" M 44.38 281.94 C 44.54 282.45 44.86 283.45 45.02 283.95 L 44.13 283.73 L 43.80 282.69 L 44.38 281.94 Z" />
</g>
<g id="#2727279c">
<path fill="#272727" opacity="0.61" d=" M 45.32 285.24 C 45.50 285.75 45.84 286.75 46.01 287.25 L 45.12 287.04 L 44.76 286.00 L 45.32 285.24 Z" />
</g>
<g id="#2b2b2b57">
<path fill="#2b2b2b" opacity="0.34" d=" M 416.86 286.80 C 417.07 286.31 417.48 285.33 417.68 284.84 L 418.18 285.62 L 417.76 286.61 L 416.86 286.80 Z" />
</g>
<g id="#22222292">
<path fill="#222222" opacity="0.57" d=" M 46.27 288.05 C 46.96 288.85 47.27 289.77 47.21 290.81 C 45.51 290.47 45.19 289.55 46.27 288.05 Z" />
</g>
<g id="#2a2a2a67">
<path fill="#2a2a2a" opacity="0.40" d=" M 415.85 289.81 C 416.08 289.34 416.55 288.39 416.78 287.92 L 417.24 288.71 L 416.76 289.68 L 415.85 289.81 Z" />
</g>
<g id="#1a1a1a90">
<path fill="#1a1a1a" opacity="0.56" d=" M 337.16 290.63 C 342.19 295.15 346.88 300.06 351.13 305.33 C 346.00 300.94 341.27 295.99 337.16 290.63 Z" />
</g>
<g id="#1f1f1f9c">
<path fill="#1f1f1f" opacity="0.61" d=" M 413.85 295.70 C 413.71 293.81 414.38 292.04 415.67 290.67 C 416.43 292.24 415.66 295.36 413.85 295.70 Z" />
<path fill="#1f1f1f" opacity="0.61" d=" M 58.45 318.51 C 59.36 319.37 60.30 320.41 60.29 321.76 C 58.70 322.25 57.51 319.68 58.45 318.51 Z" />
</g>
<g id="#2929297b">
<path fill="#292929" opacity="0.48" d=" M 47.22 292.01 C 47.46 292.47 47.94 293.40 48.17 293.86 L 47.27 293.76 L 46.78 292.82 L 47.22 292.01 Z" />
</g>
<g id="#2b2b2b47">
<path fill="#2b2b2b" opacity="0.28" d=" M 132.64 292.70 C 132.67 292.67 132.73 292.60 132.76 292.57 C 132.73 292.60 132.67 292.67 132.64 292.70 Z" />
<path fill="#2b2b2b" opacity="0.28" d=" M 95.46 336.05 C 184.24 336.04 273.01 335.88 361.79 336.13 C 360.22 336.57 358.65 337.03 357.02 337.01 C 271.67 336.99 186.33 337.00 100.98 337.00 C 99.10 337.01 97.26 336.58 95.46 336.05 Z" />
</g>
<g id="#2c2c2c6c">
<path fill="#2c2c2c" opacity="0.42" d=" M 48.21 294.97 C 48.45 295.43 48.93 296.36 49.17 296.83 L 48.26 296.73 L 47.77 295.77 L 48.21 294.97 Z" />
</g>
<g id="#1a1a1a94">
<path fill="#1a1a1a" opacity="0.58" d=" M 330.80 294.56 C 335.84 299.10 340.80 303.88 344.85 309.34 C 339.76 304.82 335.09 299.84 330.80 294.56 Z" />
</g>
<g id="#2a2a2a6d">
<path fill="#2a2a2a" opacity="0.43" d=" M 412.76 298.81 C 413.01 298.35 413.50 297.43 413.75 296.97 L 414.19 297.76 L 413.70 298.70 L 412.76 298.81 Z" />
</g>
<g id="#26262657">
<path fill="#262626" opacity="0.34" d=" M 49.20 297.88 C 49.44 298.35 49.92 299.29 50.15 299.76 L 49.24 299.64 L 48.76 298.68 L 49.20 297.88 Z" />
</g>
<g id="#1a1a1aa6">
<path fill="#1a1a1a" opacity="0.65" d=" M 410.78 303.62 C 410.71 302.04 411.17 300.29 412.77 299.61 C 413.18 300.98 412.44 303.66 410.78 303.62 Z" />
<path fill="#1a1a1a" opacity="0.65" d=" M 352.80 317.72 C 355.58 319.87 358.07 322.42 360.09 325.30 L 359.39 324.83 C 356.74 322.91 354.76 320.29 352.80 317.72 Z" />
</g>
<g id="#20202091">
<path fill="#202020" opacity="0.57" d=" M 51.38 302.70 C 52.53 303.83 53.02 305.35 53.14 306.93 C 51.34 307.11 50.49 304.03 51.38 302.70 Z" />
</g>
<g id="#20202094">
<path fill="#202020" opacity="0.58" d=" M 407.84 310.88 C 407.96 309.31 408.42 307.76 409.66 306.70 C 410.52 308.04 409.60 311.03 407.84 310.88 Z" />
</g>
<g id="#1d1d1d8c">
<path fill="#1d1d1d" opacity="0.55" d=" M 53.20 307.20 C 54.33 309.55 55.39 311.93 56.24 314.40 C 54.62 312.31 53.33 309.89 53.20 307.20 Z" />
</g>
<g id="#1a1a1a59">
<path fill="#1a1a1a" opacity="0.35" d=" M 356.05 310.56 C 359.04 313.40 361.97 316.32 364.72 319.40 C 364.88 319.67 365.21 320.20 365.38 320.47 C 361.70 317.81 358.55 314.33 356.05 310.56 Z" />
</g>
<g id="#2d2d2d8d">
<path fill="#2d2d2d" opacity="0.55" d=" M 405.50 316.66 C 405.52 316.62 405.57 316.53 405.59 316.49 C 405.57 316.53 405.52 316.62 405.50 316.66 Z" />
</g>
<g id="#28282845">
<path fill="#282828" opacity="0.27" d=" M 376.01 322.09 C 375.70 321.03 375.90 320.04 376.61 319.12 C 377.72 320.54 377.52 321.53 376.01 322.09 Z" />
</g>
<g id="#24242490">
<path fill="#242424" opacity="0.56" d=" M 93.15 320.19 C 93.59 320.17 94.48 320.14 94.92 320.12 C 96.83 322.03 91.97 322.17 93.15 320.19 Z" />
</g>
<g id="#2d2d2d5d">
<path fill="#2d2d2d" opacity="0.36" d=" M 81.29 321.03 C 81.46 321.52 81.79 322.51 81.96 323.00 L 81.07 322.79 L 80.72 321.78 L 81.29 321.03 Z" />
</g>
<g id="#202020ac">
<path fill="#202020" opacity="0.67" d=" M 374.08 327.19 C 374.38 325.95 374.85 324.72 375.79 323.81 C 376.85 324.95 375.78 327.78 374.08 327.19 Z" />
</g>
<g id="#2f2f2f98">
<path fill="#2f2f2f" opacity="0.60" d=" M 82.43 325.32 C 82.44 325.35 82.47 325.42 82.49 325.46 C 82.47 325.42 82.44 325.35 82.43 325.32 Z" />
</g>
<g id="#2727273c">
<path fill="#272727" opacity="0.24" d=" M 99.82 325.84 C 100.04 325.62 100.48 325.16 100.70 324.94 C 186.62 325.01 272.54 325.10 358.46 324.89 C 357.58 326.57 355.50 325.83 354.02 326.03 C 273.01 325.94 192.00 326.03 110.99 325.99 C 107.27 326.00 103.54 326.11 99.82 325.84 Z" />
</g>
<g id="#1a1a1a32">
<path fill="#1a1a1a" opacity="0.20" d=" M 83.96 327.61 C 85.97 329.29 87.86 331.12 89.54 333.14 C 87.07 332.04 85.10 330.05 83.96 327.61 Z" />
</g>
<g id="#1c1c1c7c">
<path fill="#1c1c1c" opacity="0.49" d=" M 368.22 333.28 C 370.21 331.43 372.13 329.52 373.96 327.51 C 372.92 330.08 370.97 332.49 368.22 333.28 Z" />
</g>
<g id="#2f2f2f87">
<path fill="#2f2f2f" opacity="0.53" d=" M 66.45 333.48 C 66.47 333.51 66.51 333.58 66.54 333.62 C 66.51 333.58 66.47 333.51 66.45 333.48 Z" />
</g>
<g id="#21212191">
<path fill="#212121" opacity="0.57" d=" M 394.84 334.92 C 394.97 333.85 395.54 333.05 396.55 332.52 C 397.06 334.22 396.49 335.03 394.84 334.92 Z" />
</g>
<g id="#2f2f2f7f">
<path fill="#2f2f2f" opacity="0.50" d=" M 93.14 334.93 C 93.62 335.15 94.57 335.59 95.04 335.81 L 94.25 336.30 L 93.27 335.85 L 93.14 334.93 Z" />
</g>
<g id="#2c2c2c93">
<path fill="#2c2c2c" opacity="0.58" d=" M 362.88 335.79 C 363.36 335.57 364.32 335.15 364.81 334.94 L 364.66 335.85 L 363.66 336.29 L 362.88 335.79 Z" />
</g>
<g id="#2e2e2e87">
<path fill="#2e2e2e" opacity="0.53" d=" M 68.40 336.42 C 68.43 336.45 68.48 336.52 68.51 336.56 C 68.48 336.52 68.43 336.45 68.40 336.42 Z" />
</g>
<g id="#1a1a1aac">
<path fill="#1a1a1a" opacity="0.67" d=" M 69.05 337.21 C 70.83 339.07 72.28 341.21 73.36 343.55 C 71.28 341.94 70.04 339.59 69.05 337.21 Z" />
</g>
<g id="#1c1c1c9f">
<path fill="#1c1c1c" opacity="0.62" d=" M 390.86 340.94 C 390.93 339.70 391.55 338.97 392.72 338.77 C 393.03 340.33 392.41 341.05 390.86 340.94 Z" />
</g>
<g id="#1e1e1e97">
<path fill="#1e1e1e" opacity="0.59" d=" M 388.83 343.99 C 388.93 342.75 389.56 342.02 390.72 341.81 C 391.01 343.40 390.38 344.13 388.83 343.99 Z" />
</g>
<g id="#31313176">
<path fill="#313131" opacity="0.46" d=" M 74.43 345.46 C 74.45 345.49 74.50 345.55 74.52 345.59 C 74.50 345.55 74.45 345.49 74.43 345.46 Z" />
<path fill="#313131" opacity="0.46" d=" M 342.46 390.51 C 342.50 390.48 342.56 390.43 342.60 390.41 C 342.56 390.43 342.50 390.48 342.46 390.51 Z" />
</g>
<g id="#19191972">
<path fill="#191919" opacity="0.45" d=" M 385.94 348.06 C 386.48 346.68 387.16 345.18 388.69 344.69 C 389.32 346.15 387.57 348.68 385.94 348.06 Z" />
</g>
<g id="#1f1f1f45">
<path fill="#1f1f1f" opacity="0.27" d=" M 76.27 347.64 C 77.16 348.18 77.76 348.94 78.09 349.93 C 76.30 350.13 75.69 349.37 76.27 347.64 Z" />
</g>
<g id="#1b1b1b72">
<path fill="#1b1b1b" opacity="0.45" d=" M 382.91 351.94 C 383.39 350.51 384.39 349.42 385.64 348.62 C 386.58 350.09 384.52 352.68 382.91 351.94 Z" />
</g>
<g id="#1b1b1b66">
<path fill="#1b1b1b" opacity="0.40" d=" M 79.40 351.65 C 80.62 352.46 81.63 353.55 82.12 354.96 C 80.48 355.72 78.45 353.11 79.40 351.65 Z" />
</g>
<g id="#1c1c1c3e">
<path fill="#1c1c1c" opacity="0.24" d=" M 379.01 356.88 C 379.64 355.60 380.57 354.53 381.75 353.73 C 382.85 355.22 380.64 357.86 379.01 356.88 Z" />
</g>
<g id="#171717a0">
<path fill="#171717" opacity="0.63" d=" M 84.15 357.53 C 87.22 360.07 89.97 362.97 92.16 366.32 C 89.04 363.87 86.17 360.96 84.15 357.53 Z" />
</g>
<g id="#18181883">
<path fill="#181818" opacity="0.51" d=" M 359.61 376.84 C 364.93 371.30 370.40 365.90 375.90 360.55 C 373.97 363.94 370.95 366.49 368.31 369.30 C 365.53 371.94 363.00 374.95 359.61 376.84 Z" />
</g>
<g id="#1818189f">
<path fill="#181818" opacity="0.62" d=" M 97.72 371.84 C 100.68 373.67 103.18 376.07 105.34 378.79 C 102.36 377.02 99.72 374.67 97.72 371.84 Z" />
</g>
<g id="#1a1a1a7e">
<path fill="#1a1a1a" opacity="0.49" d=" M 352.70 382.53 C 353.78 380.97 354.94 379.33 356.90 378.87 C 357.35 380.74 354.52 383.12 352.70 382.53 Z" />
</g>
<g id="#1c1c1ca8">
<path fill="#1c1c1c" opacity="0.66" d=" M 107.09 379.96 C 109.15 380.24 110.67 381.60 111.39 383.52 C 109.60 383.86 107.11 381.71 107.09 379.96 Z" />
</g>
<g id="#1a1a1a7c">
<path fill="#1a1a1a" opacity="0.49" d=" M 348.63 385.66 C 349.41 384.35 350.61 383.43 352.03 382.89 C 352.72 384.53 350.11 386.50 348.63 385.66 Z" />
</g>
<g id="#1e1e1e9c">
<path fill="#1e1e1e" opacity="0.61" d=" M 344.66 388.56 C 345.07 387.54 345.82 386.96 346.90 386.83 C 347.05 388.51 346.30 389.09 344.66 388.56 Z" />
</g>
<g id="#25252591">
<path fill="#252525" opacity="0.57" d=" M 117.15 387.76 C 118.18 387.97 118.93 388.56 119.40 389.53 C 117.71 390.08 116.96 389.49 117.15 387.76 Z" />
</g>
<g id="#2020209a">
<path fill="#202020" opacity="0.60" d=" M 332.61 396.58 C 333.55 395.01 335.09 394.10 336.89 393.89 C 337.08 395.61 334.16 397.26 332.61 396.58 Z" />
</g>
<g id="#1b1b1b95">
<path fill="#1b1b1b" opacity="0.58" d=" M 129.09 395.82 C 130.13 396.05 130.94 396.62 131.50 397.54 C 129.79 398.12 128.98 397.54 129.09 395.82 Z" />
</g>
<g id="#1c1c1c48">
<path fill="#1c1c1c" opacity="0.28" d=" M 329.57 398.62 C 330.26 397.82 331.12 397.29 332.14 397.02 C 332.17 398.80 331.31 399.33 329.57 398.62 Z" />
</g>
<g id="#1a1a1a70">
<path fill="#1a1a1a" opacity="0.44" d=" M 133.80 398.94 C 135.61 399.30 137.15 400.29 138.43 401.59 C 136.78 402.33 133.59 400.84 133.80 398.94 Z" />
</g>
<g id="#2f2f2f81">
<path fill="#2f2f2f" opacity="0.51" d=" M 326.49 400.56 C 326.53 400.54 326.61 400.50 326.65 400.48 C 326.61 400.50 326.53 400.54 326.49 400.56 Z" />
</g>
<g id="#1b1b1b89">
<path fill="#1b1b1b" opacity="0.54" d=" M 320.46 403.56 C 321.26 402.55 322.32 401.74 323.65 401.70 C 324.21 403.25 321.62 404.48 320.46 403.56 Z" />
</g>
<g id="#1b1b1b9d">
<path fill="#1b1b1b" opacity="0.62" d=" M 148.43 406.75 C 150.92 407.42 153.23 408.59 155.42 409.95 C 152.93 409.28 150.40 408.49 148.43 406.75 Z" />
</g>
<g id="#1f1f1f88">
<path fill="#1f1f1f" opacity="0.53" d=" M 309.72 408.77 C 310.64 407.42 312.21 406.93 313.76 406.78 C 314.04 408.52 311.08 409.47 309.72 408.77 Z" />
</g>
<g id="#1b1b1bb2">
<path fill="#1b1b1b" opacity="0.70" d=" M 305.69 410.71 C 306.20 409.40 307.58 408.62 308.97 408.78 L 309.06 409.31 C 308.24 410.53 307.12 411.00 305.69 410.71 Z" />
</g>
<g id="#2e2e2e56">
<path fill="#2e2e2e" opacity="0.34" d=" M 158.49 411.38 C 158.53 411.40 158.61 411.43 158.65 411.45 C 158.61 411.43 158.53 411.40 158.49 411.38 Z" />
</g>
<g id="#28282874">
<path fill="#282828" opacity="0.45" d=" M 302.91 411.74 C 303.38 411.50 304.32 411.00 304.80 410.76 L 304.65 411.71 L 303.68 412.20 L 302.91 411.74 Z" />
</g>
<g id="#2e2e2e89">
<path fill="#2e2e2e" opacity="0.54" d=" M 161.39 412.53 C 161.43 412.55 161.52 412.57 161.57 412.59 C 161.52 412.57 161.43 412.55 161.39 412.53 Z" />
</g>
<g id="#29292982">
<path fill="#292929" opacity="0.51" d=" M 163.09 412.92 C 163.58 413.14 164.54 413.58 165.02 413.79 L 164.25 414.28 L 163.26 413.84 L 163.09 412.92 Z" />
</g>
<g id="#28282863">
<path fill="#282828" opacity="0.39" d=" M 297.93 413.81 C 298.40 413.56 299.33 413.08 299.79 412.83 L 299.69 413.74 L 298.74 414.24 L 297.93 413.81 Z" />
</g>
<g id="#2727278d">
<path fill="#272727" opacity="0.55" d=" M 166.02 413.93 C 166.52 414.12 167.50 414.49 167.99 414.68 L 167.22 415.21 L 166.21 414.83 L 166.02 413.93 Z" />
</g>
<g id="#1d1d1d9d">
<path fill="#1d1d1d" opacity="0.62" d=" M 168.25 414.89 C 171.52 415.51 174.64 416.68 177.79 417.74 C 174.44 417.65 171.14 416.53 168.25 414.89 Z" />
</g>
<g id="#1e1e1e9f">
<path fill="#1e1e1e" opacity="0.62" d=" M 288.67 416.60 C 290.07 415.35 291.83 414.71 293.71 414.85 C 293.42 416.69 290.24 417.38 288.67 416.60 Z" />
</g>
<g id="#1f1f1f58">
<path fill="#1f1f1f" opacity="0.35" d=" M 282.71 418.52 C 284.30 417.55 286.07 417.03 287.93 416.95 C 287.86 419.00 284.23 419.45 282.71 418.52 Z" />
</g>
<g id="#2424247f">
<path fill="#242424" opacity="0.50" d=" M 178.26 417.76 C 179.30 417.68 180.21 418.00 181.00 418.71 C 179.50 419.77 178.59 419.45 178.26 417.76 Z" />
</g>
<g id="#2c2c2c69">
<path fill="#2c2c2c" opacity="0.41" d=" M 182.15 418.97 C 182.64 419.17 183.62 419.55 184.12 419.74 L 183.36 420.26 L 182.35 419.87 L 182.15 418.97 Z" />
</g>
<g id="#1f1f1f91">
<path fill="#1f1f1f" opacity="0.57" d=" M 273.27 420.72 C 275.87 419.86 278.55 419.28 281.26 418.94 C 278.80 420.22 276.04 420.85 273.27 420.72 Z" />
</g>
<g id="#20202076">
<path fill="#202020" opacity="0.46" d=" M 263.31 422.74 C 266.31 422.08 269.30 421.39 272.34 420.93 L 272.35 421.75 C 269.30 421.76 266.37 423.18 263.31 422.74 Z" />
</g>
<g id="#2828287c">
<path fill="#282828" opacity="0.49" d=" M 195.14 421.81 C 196.50 421.71 197.81 422.12 199.07 422.60 C 198.16 423.80 195.01 423.62 195.14 421.81 Z" />
</g>
<g id="#1e1e1e8f">
<path fill="#1e1e1e" opacity="0.56" d=" M 200.32 422.88 C 205.92 423.58 211.55 423.97 217.12 424.91 C 211.50 425.09 205.69 424.47 200.32 422.88 Z" />
</g>
<g id="#1f1f1f8c">
<path fill="#1f1f1f" opacity="0.55" d=" M 245.77 424.87 C 250.81 423.91 255.94 423.74 261.01 423.04 L 261.93 423.60 C 256.51 423.73 251.22 425.56 245.77 424.87 Z" />
</g>
<g id="#2b2b2b5e">
<path fill="#2b2b2b" opacity="0.37" d=" M 217.64 424.97 C 226.86 425.14 236.08 425.23 245.30 424.94 C 240.02 426.57 234.43 425.86 229.00 426.02 C 225.20 425.97 221.27 426.30 217.64 424.97 Z" />
</g>
</svg>
