<?xml version="1.0" encoding="UTF-8" ?>
<!DOCTYPE svg PUBLIC "-//W3C//DTD SVG 1.1//EN" "http://www.w3.org/Graphics/SVG/1.1/DTD/svg11.dtd">
<svg width="800pt" height="600pt" viewBox="0 0 800 600" version="1.1" xmlns="http://www.w3.org/2000/svg">
<g id="#ffffffff">
<path fill="#ffffff" opacity="1.00" d=" M 249.04 477.19 C 249.39 476.74 249.74 476.30 250.08 475.86 C 252.20 478.97 254.62 481.87 256.84 484.91 C 256.43 484.71 255.62 484.32 255.22 484.13 C 253.52 481.50 251.27 479.33 249.04 477.19 Z" />
</g>
<g id="#222222ff">
<path fill="#222222" opacity="1.00" d=" M 326.82 62.06 C 337.49 58.03 349.67 55.19 360.74 59.34 C 367.38 61.77 370.97 68.55 372.64 75.03 C 375.07 82.39 375.43 90.46 373.29 97.94 C 370.42 109.01 364.31 118.80 358.74 128.66 C 353.26 138.05 347.99 147.61 343.84 157.68 C 339.52 168.32 336.25 179.35 331.93 190.00 C 329.24 196.65 324.97 202.47 321.08 208.46 C 326.19 210.77 331.70 211.87 337.10 213.25 C 354.20 217.19 371.52 220.06 388.91 222.34 C 405.81 224.21 422.94 225.68 439.89 223.67 C 451.61 223.10 463.28 222.00 474.93 220.62 C 499.51 218.45 523.42 211.39 546.16 202.02 C 553.98 198.22 562.59 195.93 569.61 190.62 C 571.26 189.62 572.80 187.73 574.96 188.23 C 577.77 190.38 579.87 193.30 582.18 195.96 C 595.17 183.46 603.34 166.88 616.49 154.52 C 628.39 143.06 640.66 131.98 653.30 121.34 C 665.08 111.71 677.34 101.99 691.95 97.09 C 695.77 95.63 699.84 94.98 703.92 95.13 C 703.63 95.68 703.05 96.80 702.76 97.35 C 696.05 96.97 689.73 99.81 683.82 102.64 C 670.53 109.43 658.89 118.95 647.62 128.62 C 636.70 138.35 625.83 148.15 615.43 158.44 C 605.94 167.85 599.44 179.70 590.74 189.78 C 588.58 193.23 583.71 195.32 583.65 199.75 C 587.91 197.01 590.62 192.62 594.01 188.98 C 602.52 180.35 607.87 169.11 616.81 160.86 C 630.11 148.45 643.87 136.54 657.36 124.34 C 665.72 116.40 675.83 110.66 685.69 104.82 C 693.94 99.90 704.61 96.92 713.74 101.25 C 720.09 103.85 723.00 110.54 725.74 116.34 C 728.34 121.63 727.91 127.72 727.13 133.38 C 725.80 141.62 724.69 149.91 722.73 158.02 C 719.49 167.89 714.47 177.09 708.81 185.77 C 703.92 193.16 700.50 201.37 696.10 209.04 C 693.98 213.00 691.69 216.86 689.67 220.87 C 684.99 230.64 681.65 241.01 676.48 250.55 C 671.32 259.96 665.86 269.20 660.32 278.39 C 655.62 285.97 651.50 293.95 645.81 300.86 C 641.18 306.49 636.87 312.49 631.32 317.29 C 623.18 324.73 614.55 332.02 604.23 336.23 C 595.69 339.61 587.58 343.97 579.75 348.74 C 577.27 350.13 575.24 352.16 574.16 354.81 C 583.69 350.80 592.70 345.73 601.82 340.89 C 618.17 332.00 633.16 320.49 645.39 306.44 C 658.27 290.85 667.97 272.99 677.16 255.07 C 684.95 239.96 691.73 224.36 699.37 209.17 C 705.33 197.29 712.77 186.22 718.46 174.20 C 723.44 163.65 726.79 152.41 729.08 140.99 C 730.56 132.78 731.40 124.13 728.96 116.02 C 725.74 105.35 715.22 97.45 704.14 97.03 C 704.82 96.40 705.52 95.76 706.22 95.12 C 713.93 95.86 720.81 100.35 725.91 105.97 C 732.70 114.26 733.29 125.69 731.78 135.87 C 729.47 155.92 721.33 174.81 711.23 192.11 C 699.78 210.21 692.06 230.28 682.25 249.25 C 674.30 264.70 666.37 280.24 656.82 294.78 C 644.11 313.93 626.09 328.96 606.52 340.71 C 596.24 345.97 586.16 351.65 575.67 356.49 C 573.18 357.32 572.20 359.89 570.97 361.96 C 553.77 392.94 531.13 420.92 504.13 443.89 C 472.63 470.80 435.34 490.69 395.77 502.82 C 374.86 509.07 353.17 512.70 331.37 513.64 C 313.91 513.99 295.97 513.99 279.22 508.42 C 242.47 494.44 210.95 468.99 186.09 438.85 C 165.65 414.06 149.56 385.80 137.99 355.85 C 122.21 314.75 115.13 269.83 121.09 226.02 C 121.38 221.66 123.74 217.13 121.84 212.87 C 119.97 207.46 123.37 202.25 125.34 197.40 C 128.90 188.91 135.64 182.16 143.46 177.48 C 156.25 169.73 170.10 163.88 184.06 158.62 C 189.89 156.72 195.76 154.19 202.00 154.36 C 203.60 154.19 204.54 155.50 205.32 156.67 C 229.63 133.53 253.70 109.98 280.53 89.73 C 294.89 78.88 310.04 68.76 326.82 62.06 M 333.01 61.95 C 315.11 67.63 299.32 78.21 284.32 89.24 C 256.26 110.20 231.59 135.21 206.11 159.08 C 205.32 160.26 205.48 161.79 205.19 163.13 C 223.98 143.84 243.69 125.38 265.00 108.88 C 279.63 97.89 292.81 84.91 308.80 75.77 C 319.38 70.04 329.79 62.90 342.07 61.57 C 348.37 61.13 355.24 60.82 360.83 64.27 C 368.06 69.17 371.47 78.40 370.42 86.91 C 369.04 98.83 363.37 109.62 358.28 120.30 C 353.08 129.14 348.07 138.08 343.19 147.10 C 337.63 157.45 335.89 169.31 330.63 179.79 C 326.71 187.64 324.14 196.11 319.75 203.73 C 318.84 205.28 318.20 206.96 317.84 208.73 C 326.46 199.05 331.45 186.81 335.48 174.64 C 340.21 160.44 345.98 146.54 353.56 133.60 C 357.86 125.89 362.88 118.55 366.46 110.44 C 370.90 100.67 374.65 89.61 371.64 78.86 C 369.80 72.20 367.52 64.24 360.51 61.36 C 351.71 58.06 341.82 59.28 333.01 61.95 M 325.77 68.75 C 315.84 73.91 306.04 79.39 296.95 85.94 C 285.93 94.15 275.64 103.30 264.75 111.68 C 243.70 127.86 224.43 146.21 206.02 165.29 C 204.54 166.78 204.65 168.99 204.33 170.90 C 203.83 175.31 202.65 179.58 201.33 183.80 C 214.18 180.91 227.62 181.91 240.11 185.93 C 265.04 193.55 290.09 200.80 315.24 207.69 C 321.19 198.45 324.41 187.86 329.25 178.06 C 334.24 167.82 335.94 156.29 341.35 146.22 C 345.87 138.15 350.11 129.92 354.97 122.04 C 358.80 114.98 361.98 107.60 365.15 100.23 C 368.19 92.65 369.95 83.95 367.13 76.03 C 365.32 70.09 360.36 64.81 354.06 63.85 C 344.41 62.16 334.41 64.33 325.77 68.75 M 689.17 105.13 C 679.11 111.15 668.63 116.76 659.97 124.78 C 646.54 136.75 633.10 148.70 619.66 160.66 C 609.94 169.54 604.18 181.71 594.93 190.99 C 591.68 194.65 588.75 198.59 585.11 201.89 C 586.15 206.45 588.60 211.29 585.90 215.74 C 594.13 238.09 597.14 262.38 594.39 286.05 C 592.41 307.14 586.23 327.59 578.08 347.07 C 581.84 345.23 585.37 342.97 589.10 341.07 C 596.13 337.40 603.59 334.61 610.54 330.79 C 618.94 326.10 626.14 319.62 632.96 312.91 C 645.75 300.04 654.70 284.09 663.78 268.55 C 669.79 258.07 676.43 247.85 680.70 236.48 C 684.08 227.61 688.19 219.02 692.84 210.74 C 697.34 203.13 700.80 194.95 705.40 187.39 C 712.93 175.56 720.72 163.11 722.48 148.91 C 723.40 143.25 724.42 137.61 725.34 131.96 C 725.96 127.06 726.26 121.78 723.87 117.28 C 721.42 112.31 719.29 106.59 714.17 103.75 C 706.47 99.09 696.73 101.30 689.17 105.13 M 183.75 160.87 C 170.44 166.00 157.05 171.32 144.93 178.94 C 138.22 183.32 131.59 188.63 128.31 196.17 C 125.98 201.50 121.99 207.04 123.75 213.14 C 132.99 217.08 143.04 218.45 152.99 219.21 C 160.06 219.53 167.22 219.30 174.11 217.53 C 182.22 215.46 189.53 210.77 197.95 209.84 C 206.90 208.92 216.09 209.31 224.76 211.86 C 274.64 225.90 324.06 242.97 375.74 249.24 C 397.93 252.18 420.40 252.26 442.72 251.19 C 465.33 249.43 487.91 246.80 510.15 242.33 C 532.21 237.83 553.64 230.20 573.43 219.44 C 577.49 217.12 581.91 215.29 585.45 212.17 C 584.83 208.40 583.91 204.66 582.57 201.08 C 580.92 196.57 577.18 193.38 574.04 189.93 C 569.15 194.03 563.53 197.16 557.54 199.32 C 551.93 201.31 546.77 204.33 541.16 206.29 C 525.52 212.10 509.61 217.46 493.12 220.27 C 474.19 222.95 455.14 224.84 436.06 226.02 C 412.31 227.29 388.47 225.17 365.10 220.90 C 335.90 215.89 307.18 208.38 278.90 199.61 C 262.95 194.82 247.19 189.24 230.87 185.80 C 223.70 184.56 216.34 183.14 209.07 184.39 C 200.24 185.30 192.67 190.40 184.11 192.36 C 174.23 194.79 163.95 194.13 153.94 193.04 C 149.28 192.15 144.36 191.89 140.06 189.76 C 138.55 189.18 138.37 187.19 138.77 185.84 C 140.09 183.17 142.65 181.43 145.18 180.03 C 163.45 170.33 183.32 164.21 202.41 156.43 C 195.90 156.13 189.81 158.88 183.75 160.87 M 201.82 159.23 C 201.87 167.14 199.71 174.86 197.42 182.36 C 197.68 174.79 199.97 167.41 199.84 159.80 C 199.38 160.06 198.47 160.58 198.01 160.84 C 197.51 163.89 197.10 166.96 196.08 169.89 C 196.25 167.00 196.27 164.11 196.22 161.23 C 185.53 164.24 175.38 168.86 165.14 173.09 C 157.99 176.25 150.55 178.89 143.96 183.14 C 142.45 184.03 141.46 185.51 140.61 187.00 C 141.17 186.70 142.28 186.09 142.84 185.79 C 149.05 181.60 155.98 178.52 163.10 176.23 C 157.53 179.73 151.37 182.19 145.95 185.94 C 144.71 186.89 143.01 187.74 143.09 189.62 C 148.15 188.95 151.73 184.34 156.95 184.33 C 153.97 186.01 150.91 187.63 148.40 190.01 C 156.07 192.15 164.10 191.80 171.97 191.81 C 181.56 191.97 190.81 188.60 199.27 184.37 C 201.54 176.10 203.23 167.64 203.57 159.06 C 203.13 159.10 202.25 159.19 201.82 159.23 M 181.95 217.00 C 163.67 224.46 143.23 221.42 124.82 216.07 C 123.81 220.69 122.91 225.34 122.44 230.05 C 119.86 256.38 121.20 283.12 126.44 309.06 C 133.59 343.50 146.93 376.61 165.46 406.50 C 187.94 442.61 218.21 474.65 255.72 495.28 C 258.86 497.03 261.99 498.91 265.46 499.97 C 264.08 498.58 262.56 497.34 260.93 496.27 C 240.90 483.04 222.90 466.61 208.70 447.22 C 200.93 436.64 193.41 425.87 186.08 414.98 C 183.15 410.42 180.00 405.95 177.96 400.90 C 181.90 406.06 184.95 411.86 188.85 417.07 C 198.10 429.98 207.23 443.02 217.50 455.16 C 230.80 470.06 245.35 484.17 262.36 494.79 C 250.65 482.02 239.08 468.99 229.62 454.42 C 215.44 433.44 206.13 409.70 197.40 386.06 C 195.19 380.06 192.77 374.12 191.18 367.91 C 196.58 379.14 200.37 391.05 205.16 402.53 C 211.28 417.59 218.38 432.28 226.93 446.11 C 233.18 456.74 240.90 466.39 248.13 476.34 C 248.57 475.92 249.01 475.50 249.45 475.09 C 241.07 464.59 234.08 453.03 227.77 441.19 C 211.80 410.73 201.73 377.32 197.22 343.27 C 197.81 342.56 198.41 341.86 199.00 341.16 C 202.32 370.74 210.98 399.62 223.16 426.73 C 232.12 445.89 242.58 464.55 256.21 480.81 C 257.89 482.87 259.78 484.77 261.94 486.33 C 259.41 482.08 256.34 478.17 254.02 473.79 C 243.29 454.67 233.93 434.77 225.81 414.40 C 224.32 410.31 222.35 406.25 222.30 401.82 C 226.32 414.67 232.02 426.93 237.72 439.11 C 248.89 461.89 261.23 484.65 278.94 503.07 C 281.61 506.39 285.99 507.27 290.01 507.56 C 302.37 508.95 314.82 508.06 327.18 507.21 C 341.65 505.70 356.04 503.25 370.05 499.30 C 409.02 488.92 444.85 469.45 478.30 447.30 C 485.93 442.36 492.95 436.45 500.86 431.97 C 492.75 438.21 484.57 444.39 476.02 450.03 C 459.07 461.39 441.87 472.50 423.64 481.71 C 404.81 490.44 385.23 497.63 365.07 502.62 C 343.44 508.10 321.12 510.34 298.83 510.52 C 306.14 511.75 313.59 511.48 320.98 511.72 C 364.31 512.23 407.18 500.17 445.57 480.48 C 481.50 462.15 513.74 436.51 539.36 405.33 C 563.83 375.39 582.50 340.08 590.06 301.96 C 594.73 278.63 594.44 254.26 588.65 231.15 C 587.23 225.89 586.02 220.49 583.22 215.76 C 580.26 217.29 581.44 220.50 581.89 223.04 C 584.05 232.90 584.87 242.99 585.22 253.05 C 585.15 276.65 580.04 299.98 572.63 322.29 C 566.01 342.63 555.36 361.30 544.67 379.71 C 540.56 386.51 536.48 393.40 531.25 399.41 C 536.34 390.80 541.84 382.43 546.75 373.71 C 565.93 339.74 580.18 302.21 582.89 263.02 C 584.22 248.19 581.87 233.39 579.27 218.84 C 574.23 221.23 569.62 224.45 564.49 226.65 C 527.68 243.44 487.15 250.08 447.04 252.64 C 433.05 253.88 418.99 253.97 404.95 253.63 C 348.39 250.70 293.64 234.72 239.82 218.16 C 230.57 215.73 221.50 212.04 211.86 211.60 C 197.11 252.35 193.57 296.73 198.63 339.62 C 198.09 340.41 197.55 341.21 197.00 342.00 C 191.53 298.30 195.60 253.32 209.65 211.52 C 200.00 209.99 190.69 213.34 181.95 217.00 M 249.04 477.19 C 251.27 479.33 253.52 481.50 255.22 484.13 C 255.62 484.32 256.43 484.71 256.84 484.91 C 254.62 481.87 252.20 478.97 250.08 475.86 C 249.74 476.30 249.39 476.74 249.04 477.19 M 257.96 486.36 C 257.52 487.75 258.01 488.27 259.41 487.92 C 259.84 486.52 259.36 486.00 257.96 486.36 M 262.43 487.30 C 261.71 488.55 263.31 490.94 264.75 490.28 C 265.40 488.97 263.93 486.65 262.43 487.30 M 262.06 490.86 C 263.77 492.72 265.59 494.49 267.48 496.18 C 267.49 495.97 267.52 495.56 267.53 495.35 C 265.65 493.91 263.96 492.26 262.06 490.86 M 266.24 500.13 C 265.60 501.34 267.67 502.51 268.62 501.74 C 269.26 500.50 267.19 499.33 266.24 500.13 Z" />
</g>
<g id="#191919ff">
<path fill="#191919" opacity="1.00" d=" M 140.57 209.40 C 144.61 209.87 148.64 210.44 152.61 211.34 C 148.72 211.96 144.78 211.60 140.89 211.26 C 140.81 210.80 140.65 209.87 140.57 209.40 Z" />
<path fill="#191919" opacity="1.00" d=" M 129.38 230.88 C 129.78 229.38 129.36 227.14 131.50 226.74 C 131.51 231.19 130.50 235.55 130.26 239.98 C 129.11 250.29 129.68 260.69 129.23 271.04 C 129.18 272.88 128.72 274.66 128.25 276.43 C 127.65 274.34 127.34 272.17 127.40 270.00 C 127.46 256.94 127.55 243.82 129.38 230.88 Z" />
<path fill="#191919" opacity="1.00" d=" M 547.84 275.37 C 548.30 275.37 549.21 275.37 549.67 275.37 C 547.19 287.18 544.24 298.93 539.96 310.23 C 539.28 312.03 538.58 313.82 537.86 315.61 C 526.62 342.28 513.92 368.54 497.20 392.26 C 489.90 403.13 482.56 414.03 473.95 423.93 C 460.47 438.97 448.62 455.97 431.97 467.79 C 434.02 464.02 437.49 461.38 440.49 458.42 C 450.11 449.34 458.46 439.05 466.97 428.96 C 478.80 416.20 488.61 401.78 498.15 387.28 C 513.22 365.76 524.35 341.82 534.84 317.83 C 534.97 317.50 535.23 316.85 535.36 316.52 C 540.99 303.30 544.68 289.36 547.84 275.37 Z" />
<path fill="#191919" opacity="1.00" d=" M 516.26 336.28 C 517.50 333.26 518.08 329.87 520.27 327.33 C 520.66 331.08 519.06 334.60 517.81 338.03 C 511.42 353.03 502.05 366.48 493.00 379.96 C 488.36 386.77 483.58 393.50 478.53 400.02 C 478.30 400.50 477.85 401.48 477.62 401.97 C 477.94 400.63 478.37 399.30 479.12 398.14 C 484.87 388.90 490.82 379.79 496.69 370.64 C 503.87 359.59 511.72 348.76 516.26 336.28 Z" />
</g>
<g id="#292929ff">
<path fill="#292929" opacity="1.00" d=" M 466.89 244.59 C 506.42 240.81 544.60 227.74 579.76 209.59 C 579.96 209.91 580.37 210.55 580.58 210.87 C 574.54 215.17 567.58 217.85 560.87 220.87 C 533.24 232.96 504.17 242.40 474.11 245.75 C 458.81 247.93 443.38 248.98 427.94 249.14 C 414.93 248.50 401.84 248.66 388.93 246.70 C 381.15 245.57 373.19 245.10 365.69 242.61 C 370.16 242.26 374.61 243.00 379.04 243.47 C 387.59 244.61 396.18 245.44 404.77 246.22 C 425.48 247.51 446.26 246.53 466.89 244.59 Z" />
</g>
<g id="#3e3e3eff">
<path fill="#3e3e3e" opacity="1.00" d=" M 126.96 210.39 C 134.32 211.61 141.41 214.28 148.93 214.63 C 156.36 215.73 163.89 214.01 171.30 215.18 C 167.24 217.48 162.48 217.18 157.98 217.25 C 148.76 217.34 139.49 216.15 130.71 213.27 C 129.18 212.75 127.58 212.05 126.96 210.39 Z" />
</g>
<g id="#2b2b2bff">
<path fill="#2b2b2b" opacity="1.00" d=" M 199.33 223.15 C 200.79 219.84 201.67 215.78 204.97 213.76 C 203.91 218.41 201.52 222.59 200.04 227.10 C 190.33 254.24 187.83 283.43 188.77 312.08 C 188.96 326.09 190.71 340.02 191.23 354.00 C 187.16 334.66 186.16 314.74 186.58 295.02 C 187.56 270.67 190.93 246.13 199.33 223.15 Z" />
<path fill="#2b2b2b" opacity="1.00" d=" M 188.09 233.96 C 188.73 230.76 189.46 227.48 191.42 224.79 C 191.47 229.34 189.78 233.63 188.88 238.03 C 187.55 243.50 186.63 249.05 185.31 254.52 C 184.85 247.53 186.74 240.74 188.09 233.96 Z" />
</g>
<g id="#242424ff">
<path fill="#242424" opacity="1.00" d=" M 473.94 238.84 C 490.89 236.00 508.04 233.23 524.13 227.00 C 523.46 229.80 520.34 230.31 518.10 231.33 C 506.63 235.07 494.74 237.34 482.87 239.35 C 472.86 240.88 462.73 243.27 452.56 242.23 C 459.41 239.75 466.84 240.13 473.94 238.84 Z" />
</g>
<g id="#272727ff">
<path fill="#272727" opacity="1.00" d=" M 133.69 242.94 C 133.69 241.12 134.35 239.42 135.14 237.83 C 136.21 244.81 134.73 251.91 134.11 258.88 C 133.20 253.62 133.45 248.25 133.69 242.94 Z" />
<path fill="#272727" opacity="1.00" d=" M 206.09 312.98 L 208.09 313.16 C 208.47 322.13 209.82 331.02 210.59 339.96 C 211.06 345.71 212.30 351.49 211.50 357.27 C 209.13 342.59 206.57 327.88 206.09 312.98 Z" />
</g>
<g id="#282828ff">
<path fill="#282828" opacity="1.00" d=" M 209.76 247.34 C 210.05 247.49 210.63 247.78 210.92 247.93 C 209.40 269.60 206.38 291.28 207.91 313.05 L 205.85 312.82 C 205.16 297.50 205.90 282.18 207.32 266.93 C 207.72 260.35 208.40 253.79 209.76 247.34 Z" />
</g>
<g id="#f5f5f5ff">
</g>
<g id="#f8f8f8ff">
</g>
<g id="#e7e7e7ff">
<path fill="#e7e7e7" opacity="1.00" d=" M 260.31 282.47 C 261.52 291.02 260.97 299.71 260.46 308.30 C 260.03 303.29 260.00 298.26 259.79 293.25 C 259.56 289.65 259.84 286.04 260.31 282.47 Z" />
<path fill="#e7e7e7" opacity="1.00" d=" M 273.34 301.48 C 274.43 306.82 274.39 312.27 273.29 317.60 C 272.51 312.25 272.66 306.83 273.34 301.48 Z" />
</g>
<g id="#f7f7f7ff">
</g>
<g id="#f9f9f9ff">
</g>
<g id="#eeeeeeff">
</g>
<g id="#ecececff">
</g>
<g id="#eaeaeaff">
</g>
<g id="#f1f1f1ff">
<path fill="#f1f1f1" opacity="1.00" d=" M 262.43 487.30 C 263.93 486.65 265.40 488.97 264.75 490.28 C 263.31 490.94 261.71 488.55 262.43 487.30 Z" />
<path fill="#f1f1f1" opacity="1.00" d=" M 262.06 490.86 C 263.96 492.26 265.65 493.91 267.53 495.35 C 267.52 495.56 267.49 495.97 267.48 496.18 C 265.59 494.49 263.77 492.72 262.06 490.86 Z" />
</g>
<g id="#8c8c8cff">
<path fill="#8c8c8c" opacity="1.00" d=" M 257.96 486.36 C 259.36 486.00 259.84 486.52 259.41 487.92 C 258.01 488.27 257.52 487.75 257.96 486.36 Z" />
</g>
<g id="#787878ff">
<path fill="#787878" opacity="1.00" d=" M 266.24 500.13 C 267.19 499.33 269.26 500.50 268.62 501.74 C 267.67 502.51 265.60 501.34 266.24 500.13 Z" />
</g>
</svg>
