<?xml version="1.0" encoding="UTF-8" ?>
<!DOCTYPE svg PUBLIC "-//W3C//DTD SVG 1.1//EN" "http://www.w3.org/Graphics/SVG/1.1/DTD/svg11.dtd">
<svg width="960pt" height="920pt" viewBox="0 0 960 920" version="1.1" xmlns="http://www.w3.org/2000/svg">
<g id="#000000ff">
<path fill="#000000" opacity="1.00" d=" M 466.25 33.30 C 534.83 31.14 603.87 46.21 665.30 76.77 C 729.69 108.67 785.78 157.26 826.32 216.63 C 863.67 270.88 887.91 334.09 896.46 399.41 C 906.61 475.24 895.64 553.85 864.83 623.91 C 836.57 688.53 791.81 745.84 735.93 788.86 C 693.68 821.51 645.23 846.15 593.83 860.70 C 524.53 880.46 450.15 882.00 380.06 865.29 C 315.64 850.05 255.18 819.04 204.79 776.18 C 153.53 732.68 112.91 676.70 87.50 614.44 C 59.35 546.07 50.00 470.17 60.21 396.97 C 69.03 332.12 93.39 269.45 130.71 215.68 C 150.79 186.70 174.26 160.00 200.96 136.95 C 273.78 73.00 369.32 35.43 466.25 33.30 M 456.96 234.94 C 440.51 244.83 428.11 260.80 421.75 278.84 C 415.74 294.45 414.01 311.39 414.35 328.01 C 414.26 339.68 414.51 351.37 414.25 363.03 C 414.34 365.33 411.66 365.09 410.10 365.15 C 395.65 365.04 381.20 365.11 366.75 365.11 C 366.33 374.72 366.67 384.35 366.56 393.97 C 366.69 415.94 366.31 437.93 366.75 459.90 C 382.17 460.01 397.60 459.68 413.01 460.03 C 415.05 460.00 414.66 462.61 414.84 463.96 C 414.78 542.70 414.90 621.45 414.78 700.19 C 445.86 700.39 476.96 700.25 508.04 700.26 C 508.43 700.11 509.21 699.82 509.60 699.68 C 509.92 681.79 509.64 663.88 509.74 645.98 C 509.71 584.99 509.80 524.00 509.69 463.02 C 509.42 461.58 510.19 459.64 511.93 459.89 C 534.99 459.86 558.06 459.94 581.12 459.86 C 583.05 434.20 585.49 408.59 588.03 382.99 C 588.25 376.96 589.85 371.03 589.44 364.98 C 564.59 365.21 539.73 365.07 514.89 365.04 C 514.59 364.85 514.01 364.46 513.72 364.27 C 512.92 352.90 513.54 341.43 513.36 330.03 C 513.35 324.26 513.10 318.19 515.90 312.94 C 519.19 306.20 526.63 302.26 533.95 301.98 C 552.17 301.70 570.44 302.47 588.65 301.60 C 588.63 275.72 588.58 249.83 588.69 223.95 C 588.60 222.81 589.02 220.47 587.09 220.83 C 562.73 220.77 538.37 220.81 514.01 220.82 C 494.29 221.05 474.02 224.54 456.96 234.94 Z" />
</g>
</svg>
