<?xml version="1.0" encoding="UTF-8" ?>
<!DOCTYPE svg PUBLIC "-//W3C//DTD SVG 1.1//EN" "http://www.w3.org/Graphics/SVG/1.1/DTD/svg11.dtd">
<svg width="512pt" height="512pt" viewBox="0 0 512 512" version="1.1" xmlns="http://www.w3.org/2000/svg">
<g id="#000000ff">
<path fill="#000000" opacity="1.00" d=" M 149.36 190.58 C 155.23 188.22 162.40 189.70 166.77 194.29 C 196.14 223.58 225.49 252.89 254.84 282.19 C 255.56 283.17 256.32 283.19 257.13 282.24 C 286.52 252.92 315.89 223.58 345.28 194.25 C 349.43 189.90 356.12 188.35 361.80 190.29 C 367.06 191.93 371.19 196.59 372.25 202.00 C 373.51 207.53 371.48 213.52 367.33 217.33 C 333.64 250.97 300.03 284.69 266.31 318.29 C 260.92 323.92 251.10 323.95 245.73 318.30 C 211.68 284.32 177.66 250.30 143.67 216.26 C 136.03 208.71 139.18 194.13 149.36 190.58 Z" />
</g>
</svg>
