<?xml version="1.0" encoding="UTF-8" ?>
<!DOCTYPE svg PUBLIC "-//W3C//DTD SVG 1.1//EN" "http://www.w3.org/Graphics/SVG/1.1/DTD/svg11.dtd">
<svg width="900pt" height="520pt" viewBox="0 0 900 520" version="1.1" xmlns="http://www.w3.org/2000/svg">
<g id="#333333ff">
<path fill="#333333" opacity="1.00" d=" M 580.45 0.00 L 593.49 0.00 C 593.19 7.26 591.61 14.40 590.37 21.54 C 589.94 24.18 586.67 24.12 584.71 23.44 C 583.29 21.99 583.28 19.82 582.83 17.97 C 581.88 12.00 580.35 6.08 580.45 0.00 Z" />
<path fill="#333333" opacity="1.00" d=" M 636.36 12.06 C 640.44 13.72 644.95 15.56 647.69 19.12 C 644.36 24.75 639.38 29.24 635.44 34.45 C 634.09 36.69 630.88 36.43 629.31 34.60 C 627.60 33.28 629.12 31.17 629.54 29.60 C 631.92 23.79 633.47 17.65 636.36 12.06 Z" />
<path fill="#333333" opacity="1.00" d=" M 534.45 13.38 C 535.84 12.48 538.23 11.99 538.70 14.18 C 540.84 20.14 543.21 26.03 545.12 32.08 C 546.28 35.23 540.74 37.82 538.98 35.02 C 535.03 30.24 530.89 25.60 527.09 20.70 C 525.87 19.52 526.70 17.71 528.06 17.10 C 530.07 15.68 532.23 14.47 534.45 13.38 Z" />
<path fill="#333333" opacity="1.00" d=" M 556.44 46.58 C 569.36 40.59 583.98 39.25 598.01 40.82 C 618.27 43.78 636.90 55.68 648.28 72.67 C 656.69 85.02 661.03 100.07 660.66 115.00 C 660.87 128.76 656.86 142.65 648.85 153.89 C 642.58 163.18 634.83 171.41 628.97 180.99 C 624.48 188.63 621.40 197.12 620.10 205.90 C 619.70 207.61 619.86 209.37 620.23 211.07 L 620.33 211.67 C 621.38 211.99 622.47 212.16 623.59 212.18 C 626.67 212.18 630.31 214.55 629.80 217.99 C 630.07 220.79 628.03 223.32 625.59 224.42 C 623.61 224.98 621.54 225.01 619.52 225.29 C 619.37 229.10 616.98 233.01 612.89 233.37 C 597.92 234.81 582.98 236.55 568.03 238.18 C 565.08 238.56 562.12 238.31 559.18 238.32 C 553.72 237.08 553.19 228.54 558.13 226.07 C 560.30 227.05 559.93 223.75 558.02 225.15 C 554.35 225.35 550.46 225.28 547.02 223.89 C 543.90 222.34 543.84 218.37 544.49 215.42 C 546.27 211.55 551.06 211.65 554.68 211.43 C 553.63 199.72 550.00 188.29 543.70 178.33 C 534.59 163.54 520.96 151.29 515.98 134.19 C 511.37 117.81 512.48 99.74 519.31 84.13 C 526.51 67.62 540.09 54.06 556.44 46.58 M 542.47 76.46 C 530.68 90.20 526.02 109.76 530.36 127.33 C 533.95 141.11 544.18 151.50 552.09 162.88 C 561.95 176.43 569.59 192.47 569.60 209.52 C 581.00 209.35 592.41 209.31 603.82 209.54 C 604.62 203.35 605.36 197.12 607.28 191.16 C 610.48 180.50 616.48 170.94 623.04 162.04 C 628.56 154.49 635.02 147.53 639.32 139.15 C 645.30 128.19 646.17 115.10 644.09 102.98 C 641.49 89.59 634.10 77.10 623.42 68.58 C 611.63 59.05 596.04 54.27 580.94 55.98 C 566.12 57.46 551.93 64.94 542.47 76.46 Z" />
<path fill="#333333" opacity="1.00" d=" M 488.22 61.94 C 489.35 57.56 491.64 53.41 494.91 50.26 C 500.46 53.88 505.24 58.51 510.38 62.66 C 513.33 64.42 511.60 70.24 508.03 69.30 C 501.37 67.02 494.64 64.84 488.22 61.94 Z" />
<path fill="#333333" opacity="1.00" d=" M 573.92 78.82 C 573.63 76.07 574.97 72.49 578.11 72.19 C 582.37 71.50 586.72 71.64 591.02 71.68 C 594.12 71.87 598.12 72.15 599.65 75.37 C 600.42 81.25 598.78 87.10 598.45 92.95 C 596.67 106.94 595.34 120.98 593.69 134.99 C 593.53 137.74 591.77 140.99 588.69 141.08 C 587.55 141.04 586.42 141.05 585.29 141.13 C 582.66 141.06 580.65 138.31 580.41 135.82 C 577.99 116.85 576.19 97.81 573.92 78.82 Z" />
<path fill="#333333" opacity="1.00" d=" M 476.30 104.86 C 481.93 103.98 487.41 106.26 492.97 106.83 C 495.21 107.49 498.44 106.89 499.60 109.44 C 499.79 111.04 499.55 112.65 499.42 114.25 C 491.67 114.93 484.07 118.07 476.26 117.27 C 476.24 113.13 476.23 108.99 476.30 104.86 Z" />
<path fill="#333333" opacity="1.00" d=" M 682.03 106.67 C 687.26 106.24 692.38 104.09 697.67 104.80 C 697.66 108.73 698.20 112.70 697.58 116.60 C 697.03 118.55 694.54 117.54 693.14 117.48 C 687.61 116.27 681.94 115.81 676.45 114.47 C 674.10 114.04 673.91 111.30 674.38 109.42 C 675.86 106.74 679.49 107.39 682.03 106.67 Z" />
<path fill="#333333" opacity="1.00" d=" M 582.40 152.62 C 586.71 151.84 591.81 151.60 595.31 154.73 C 600.44 158.56 601.01 166.59 597.64 171.72 C 593.08 178.56 581.61 178.89 576.77 172.22 C 571.68 165.95 574.17 154.79 582.40 152.62 Z" />
<path fill="#333333" opacity="1.00" d=" M 488.07 160.37 C 494.79 157.28 501.81 154.78 508.92 152.75 C 511.95 153.09 511.91 156.24 511.74 158.57 C 506.01 162.92 500.82 167.97 494.90 172.07 C 491.76 168.78 489.31 164.75 488.07 160.37 Z" />
<path fill="#333333" opacity="1.00" d=" M 663.49 159.53 C 660.74 157.69 662.26 151.85 665.98 152.94 C 672.71 155.17 679.47 157.44 685.92 160.38 C 684.66 164.26 682.63 167.91 680.11 171.09 C 679.03 172.51 677.61 171.11 676.58 170.44 C 672.16 166.87 667.87 163.15 663.49 159.53 Z" />
<path fill="#333333" opacity="1.00" d=" M 325.28 198.02 C 340.44 196.77 356.17 201.40 368.11 210.90 C 380.08 219.99 388.39 233.68 391.27 248.41 C 394.05 263.82 391.26 280.45 382.68 293.65 C 373.62 307.95 358.61 318.46 341.92 321.57 C 326.98 324.31 311.01 321.84 297.92 314.01 C 285.41 306.38 275.35 294.46 270.69 280.50 C 267.28 269.56 266.25 257.71 269.06 246.51 C 274.33 220.29 298.56 199.41 325.28 198.02 Z" />
<path fill="#333333" opacity="1.00" d=" M 566.34 239.93 C 581.93 238.48 597.46 236.31 613.06 234.98 C 620.29 234.73 621.20 247.06 614.18 248.02 C 610.03 248.16 605.90 248.59 601.85 249.46 C 588.26 251.30 574.60 252.62 560.96 254.00 C 555.35 254.07 552.64 246.17 556.50 242.43 C 559.14 239.96 563.05 240.51 566.34 239.93 Z" />
<path fill="#333333" opacity="1.00" d=" M 561.08 255.58 C 575.90 254.04 590.74 252.52 605.53 250.62 C 608.58 250.71 611.69 250.38 614.70 251.08 C 616.66 252.28 617.92 254.29 619.27 256.10 C 619.11 258.84 618.22 262.12 615.29 263.07 C 611.62 263.97 607.81 264.01 604.07 264.46 C 605.41 266.43 607.14 268.44 606.80 271.01 C 607.08 273.89 604.79 276.28 602.27 277.27 C 592.17 277.04 582.06 277.49 571.97 277.04 C 567.98 276.64 566.97 272.12 566.78 268.82 C 563.10 268.68 558.14 270.07 555.90 266.18 C 552.88 262.05 555.99 255.73 561.08 255.58 Z" />
<path fill="#333333" opacity="1.00" d=" M 428.75 272.97 C 430.40 263.91 437.36 255.97 446.22 253.35 C 454.53 250.89 464.23 252.30 470.75 258.27 C 477.81 264.06 480.52 273.49 480.58 282.32 C 480.80 282.41 481.24 282.58 481.46 282.67 C 483.02 296.94 486.91 310.83 489.03 325.02 C 489.92 332.09 491.98 338.94 492.98 345.99 C 494.10 353.44 496.31 360.74 496.61 368.30 C 496.82 368.40 497.23 368.59 497.44 368.69 C 498.30 376.12 500.45 384.09 497.16 391.26 C 493.47 400.55 483.93 406.83 474.02 407.20 C 442.95 405.31 411.93 402.76 380.84 401.06 C 380.58 437.96 380.72 474.87 380.78 511.78 C 351.85 511.69 322.93 511.77 294.00 511.74 C 288.26 511.80 282.52 511.56 276.79 511.96 C 276.90 491.47 276.88 470.98 276.81 450.49 C 276.82 450.01 276.84 449.03 276.85 448.54 C 275.21 450.08 273.72 451.82 272.94 453.97 C 269.38 462.33 264.12 469.83 260.11 477.95 C 258.15 489.17 256.32 500.44 254.62 511.72 C 237.11 511.77 219.60 511.73 202.09 511.74 C 204.64 496.58 207.47 481.47 209.62 466.25 C 210.37 459.87 214.00 454.44 217.01 448.95 C 228.46 428.70 239.56 408.26 251.19 388.13 C 260.45 372.36 273.13 357.82 290.09 350.21 C 308.89 341.74 330.26 341.37 350.37 344.15 C 380.74 346.93 411.02 350.60 441.42 353.05 C 440.79 342.44 436.91 332.30 436.40 321.67 C 436.19 321.59 435.77 321.42 435.55 321.34 C 434.74 311.42 431.85 301.83 430.50 291.99 C 429.56 285.70 427.36 279.38 428.75 272.97 Z" />
</g>
<g id="#343434ff">
<path fill="#343434" opacity="1.00" d=" M 666.90 59.88 C 670.98 56.85 674.35 52.70 678.99 50.52 C 682.60 52.95 684.20 57.79 685.93 61.73 C 679.67 64.80 672.92 66.67 666.48 69.28 C 664.39 70.40 661.94 68.03 662.19 65.91 C 661.73 62.87 665.19 61.74 666.90 59.88 Z" />
</g>
<g id="#3636368f">
<path fill="#363636" opacity="0.56" d=" M 585.29 141.13 C 586.42 141.05 587.55 141.04 588.69 141.08 C 589.10 142.95 584.92 143.00 585.29 141.13 Z" />
</g>
<g id="#2c2c2c4a">
<path fill="#2c2c2c" opacity="0.29" d=" M 620.23 211.07 C 621.12 209.96 623.83 210.60 623.59 212.18 C 622.47 212.16 621.38 211.99 620.33 211.67 L 620.23 211.07 Z" />
</g>
<g id="#a2a2a2ff">
<path fill="#a2a2a2" opacity="1.00" d=" M 558.02 225.15 C 559.93 223.75 560.30 227.05 558.13 226.07 L 558.02 225.15 Z" />
</g>
<g id="#bbbbbbf5">
<path fill="#bbbbbb" opacity="0.96" d=" M 568.03 238.18 C 582.98 236.55 597.92 234.81 612.89 233.37 L 613.06 234.98 C 597.46 236.31 581.93 238.48 566.34 239.93 C 564.64 237.44 561.50 239.40 559.18 238.32 C 562.12 238.31 565.08 238.56 568.03 238.18 Z" />
</g>
<g id="#3f3f3fac">
<path fill="#3f3f3f" opacity="0.67" d=" M 601.85 249.46 C 605.90 248.59 610.03 248.16 614.18 248.02 C 611.59 249.65 607.74 247.65 605.70 250.06 C 608.96 250.44 612.28 249.85 615.52 250.48 C 617.75 251.50 618.73 253.84 619.27 256.10 C 617.92 254.29 616.66 252.28 614.70 251.08 C 611.69 250.38 608.58 250.71 605.53 250.62 C 604.30 250.20 603.07 249.81 601.85 249.46 Z" />
</g>
<g id="#ccccccff">
<path fill="#cccccc" opacity="1.00" d=" M 560.96 254.00 C 574.60 252.62 588.26 251.30 601.85 249.46 C 603.07 249.81 604.30 250.20 605.53 250.62 C 590.74 252.52 575.90 254.04 561.08 255.58 L 560.96 254.00 Z" />
</g>
<g id="#36363673">
<path fill="#363636" opacity="0.45" d=" M 571.97 277.04 C 582.06 277.49 592.17 277.04 602.27 277.27 C 600.69 278.26 598.78 278.06 597.01 278.08 C 588.68 277.94 580.35 278.07 572.03 278.03 L 571.97 277.04 Z" />
</g>
<g id="#5a5a5ac9">
<path fill="#5a5a5a" opacity="0.79" d=" M 272.94 453.97 C 273.72 451.82 275.21 450.08 276.85 448.54 C 276.84 449.03 276.82 450.01 276.81 450.49 L 276.21 451.15 C 275.13 452.09 274.03 453.03 272.94 453.97 Z" />
</g>
<g id="#1c1c1c27">
<path fill="#1c1c1c" opacity="0.15" d=" M 276.21 451.15 L 276.81 450.49 C 276.88 470.98 276.90 491.47 276.79 511.96 C 275.84 508.72 276.51 505.33 276.31 502.02 C 275.78 486.68 276.85 471.32 276.07 455.98 C 276.04 454.36 276.01 452.74 276.21 451.15 Z" />
</g>
</svg>
