<?xml version="1.0" encoding="UTF-8" ?>
<!DOCTYPE svg PUBLIC "-//W3C//DTD SVG 1.1//EN" "http://www.w3.org/Graphics/SVG/1.1/DTD/svg11.dtd">
<svg width="304pt" height="531pt" viewBox="0 0 304 531" version="1.1" xmlns="http://www.w3.org/2000/svg">
<g id="#030104ff">
<path fill="#030104" opacity="1.00" d=" M 252.51 10.74 C 262.83 8.90 273.91 11.34 282.27 17.72 C 293.39 25.84 299.20 40.39 297.17 53.96 C 296.21 61.55 292.80 68.82 287.62 74.45 C 229.11 138.05 170.72 201.75 112.15 265.30 C 112.16 265.65 112.16 266.37 112.17 266.72 C 167.55 326.83 222.76 387.09 278.12 447.23 C 282.84 453.09 288.98 457.81 292.63 464.49 C 298.77 475.16 299.16 488.79 293.90 499.89 C 289.68 509.21 281.48 516.60 271.76 519.81 C 261.49 523.35 249.67 522.26 240.34 516.64 C 233.75 512.80 229.01 506.69 223.60 501.46 C 159.41 435.89 95.14 370.39 30.93 304.84 C 23.54 296.86 14.17 289.85 10.72 279.08 C 5.62 265.19 9.31 248.57 20.03 238.31 C 89.37 167.49 158.80 96.75 228.15 25.93 C 234.55 18.63 242.72 12.39 252.51 10.74 Z" />
</g>
</svg>
