<?xml version="1.0" encoding="UTF-8" ?>
<!DOCTYPE svg PUBLIC "-//W3C//DTD SVG 1.1//EN" "http://www.w3.org/Graphics/SVG/1.1/DTD/svg11.dtd">
<svg width="1571pt" height="701pt" viewBox="0 0 1571 701" version="1.1" xmlns="http://www.w3.org/2000/svg">
<g id="#010101ff">
<path fill="#010101" opacity="1.00" d=" M 601.95 34.78 C 603.78 31.13 606.40 26.57 611.01 26.47 C 614.89 26.06 618.52 28.10 620.99 30.96 C 623.87 33.56 623.82 38.51 621.36 41.37 C 618.93 45.12 614.20 47.97 614.68 53.01 C 616.11 59.27 619.20 65.01 621.03 71.15 C 621.54 71.28 622.57 71.52 623.09 71.65 C 622.70 76.81 625.46 81.27 627.13 85.95 C 630.95 94.52 634.04 103.42 638.15 111.87 C 642.29 119.10 648.16 125.72 655.93 129.11 C 663.02 131.68 670.58 128.62 676.25 124.26 C 690.39 113.13 704.94 102.43 718.10 90.13 C 720.33 87.79 723.77 87.89 726.71 87.19 C 725.31 92.54 722.72 97.46 720.87 102.65 C 717.96 109.49 715.57 116.54 712.70 123.40 C 714.33 125.39 711.57 126.99 710.85 128.77 C 707.34 136.51 705.03 144.78 701.33 152.44 C 701.86 152.62 702.94 153.00 703.48 153.19 C 700.31 153.15 700.06 156.76 698.98 158.96 C 697.10 163.11 696.40 167.90 693.66 171.60 C 680.12 172.08 666.54 171.66 652.98 171.80 C 612.13 171.74 571.28 171.92 530.43 171.71 C 527.73 163.08 523.92 154.84 520.85 146.33 C 512.96 126.38 505.56 106.22 496.97 86.55 C 499.44 87.18 501.90 87.88 504.39 88.46 C 510.53 93.68 516.34 99.40 523.09 103.83 C 531.53 111.52 540.90 118.18 550.01 125.09 C 555.61 128.79 562.96 132.57 569.63 129.48 C 575.63 126.37 579.77 120.71 583.18 115.05 C 593.10 98.57 602.35 81.43 607.74 62.88 C 608.73 58.58 610.23 54.29 610.34 49.85 C 607.48 44.86 603.40 40.49 601.95 34.78 Z" />
<path fill="#010101" opacity="1.00" d=" M 371.51 48.46 C 379.33 47.86 387.25 46.48 395.06 48.02 C 421.05 48.93 444.96 67.44 453.37 91.88 C 456.30 101.25 457.93 111.33 456.10 121.08 C 454.33 142.67 445.73 162.93 436.15 182.11 C 417.75 215.22 392.27 244.16 362.58 267.57 C 343.08 283.45 321.56 296.68 299.35 308.39 C 278.96 318.79 257.92 328.01 236.18 335.20 C 230.36 336.48 226.28 341.36 223.02 346.01 C 213.31 361.96 202.60 377.28 191.11 391.99 C 183.95 400.62 177.46 409.80 170.02 418.20 C 170.02 418.75 170.00 419.84 170.00 420.39 C 200.85 430.08 231.44 442.23 263.98 444.81 C 273.66 444.52 283.42 445.51 293.03 443.97 C 308.92 442.29 324.33 435.81 336.46 425.39 C 343.73 418.50 350.49 410.22 352.55 400.18 C 354.38 391.30 353.00 381.72 348.34 373.90 C 344.31 368.19 338.95 363.25 332.45 360.50 C 323.90 356.78 314.72 354.92 305.79 352.33 C 303.92 348.68 303.03 344.08 305.40 340.43 C 307.96 334.83 313.84 331.79 319.65 330.71 C 321.36 331.41 323.20 331.51 325.02 331.59 C 339.50 333.80 353.49 339.96 364.47 349.75 C 378.14 362.84 386.74 381.07 387.93 399.99 C 389.21 405.26 387.74 410.55 387.47 415.84 C 384.87 434.47 376.65 452.18 364.66 466.63 C 361.35 470.00 358.88 474.17 354.93 476.90 C 342.65 488.46 327.63 496.76 311.90 502.64 C 292.75 509.56 272.24 512.20 251.96 511.83 C 238.65 511.04 225.36 509.35 212.18 507.00 C 190.50 502.55 170.89 491.83 150.00 484.95 C 137.23 480.80 123.71 478.08 110.25 479.46 C 100.64 480.87 90.72 482.37 82.08 487.07 C 75.22 490.76 72.18 498.63 65.54 502.58 C 60.60 505.72 55.05 508.59 49.05 508.53 C 44.19 507.66 39.33 505.78 35.76 502.27 C 29.07 495.43 26.05 485.88 25.42 476.52 C 24.17 472.38 25.87 468.25 25.97 464.08 C 27.92 453.99 33.94 445.26 40.72 437.76 C 47.91 431.73 55.47 425.73 64.49 422.71 C 71.73 419.84 79.40 418.32 86.71 415.71 C 93.00 412.18 96.67 405.60 101.82 400.76 C 112.67 387.90 122.64 374.29 132.13 360.41 C 128.03 359.28 124.07 361.28 119.97 360.90 C 116.56 360.56 113.30 362.02 109.89 361.73 C 105.87 361.32 102.00 362.94 97.98 362.63 C 86.95 362.33 75.64 363.66 64.94 360.27 C 55.76 357.79 47.98 350.32 45.83 340.95 C 44.52 334.41 44.49 327.58 45.54 321.01 C 46.43 307.98 49.42 294.28 57.98 284.03 C 60.49 281.03 64.15 279.25 67.71 277.78 C 77.22 275.41 86.37 279.97 94.35 284.68 C 98.25 287.16 102.08 289.83 106.31 291.74 C 110.73 293.62 115.40 291.08 119.98 291.60 C 124.37 292.07 128.58 290.27 132.96 290.71 C 147.30 289.38 161.72 288.11 176.00 285.86 C 179.09 285.77 179.82 282.39 181.30 280.31 C 193.07 261.70 202.21 241.65 212.16 222.06 C 216.24 214.37 219.32 206.22 223.47 198.57 C 233.92 177.86 242.45 156.21 253.89 136.00 C 265.82 114.01 281.24 93.52 301.11 78.13 C 321.42 62.29 345.90 51.66 371.51 48.46 M 357.04 109.06 C 346.91 119.21 340.42 132.18 333.73 144.69 C 316.08 179.03 298.46 213.39 280.58 247.62 C 278.77 250.97 277.66 254.82 274.74 257.44 C 277.17 258.21 279.31 256.38 281.43 255.50 C 298.23 247.38 314.20 237.47 328.51 225.47 C 353.58 204.66 373.95 177.62 384.85 146.76 C 388.03 136.60 393.20 126.87 393.92 116.08 C 394.00 111.22 393.28 105.82 389.70 102.21 C 385.99 98.27 380.11 97.21 374.97 98.23 C 367.85 99.42 362.04 104.15 357.04 109.06 Z" />
<path fill="#010101" opacity="1.00" d=" M 552.85 63.92 C 553.78 60.34 557.84 59.55 561.00 59.12 C 563.24 58.57 564.75 60.74 566.46 61.79 C 567.39 67.80 564.08 73.22 563.87 79.03 C 567.37 89.84 573.11 99.75 578.09 109.92 C 578.57 110.16 579.53 110.64 580.01 110.88 C 579.27 114.66 575.41 116.40 572.82 118.82 C 566.84 123.89 556.97 125.07 551.26 118.99 C 551.70 104.38 558.72 90.93 560.50 76.49 C 556.90 73.14 553.31 69.03 552.85 63.92 Z" />
<path fill="#010101" opacity="1.00" d=" M 659.38 60.47 C 661.07 59.44 663.09 58.91 665.09 59.00 C 668.50 60.38 671.06 63.22 673.27 66.07 C 670.00 69.10 667.29 72.69 665.36 76.71 C 663.76 76.76 662.16 76.81 660.57 76.84 C 659.81 71.48 655.89 65.59 659.38 60.47 Z" />
<path fill="#010101" opacity="1.00" d=" M 723.62 69.07 C 722.97 61.98 733.02 57.14 738.29 61.69 C 741.18 63.90 744.11 67.06 743.87 70.97 C 744.36 74.42 742.15 77.54 739.42 79.38 C 734.85 81.51 729.71 82.14 724.71 81.70 C 724.04 77.52 723.24 73.32 723.62 69.07 Z" />
<path fill="#010101" opacity="1.00" d=" M 483.41 77.63 C 477.67 71.28 484.40 60.79 492.10 60.74 C 497.28 61.72 504.21 66.06 501.44 72.28 C 503.51 73.45 502.63 76.28 500.56 76.81 C 500.57 78.42 500.61 80.04 500.67 81.66 C 494.77 82.03 487.81 82.26 483.41 77.63 Z" />
<path fill="#010101" opacity="1.00" d=" M 656.93 86.99 C 657.89 83.05 661.85 81.27 664.66 78.81 C 666.59 86.66 667.40 95.17 671.98 102.05 C 671.66 102.42 671.03 103.18 670.72 103.56 C 672.01 108.23 673.48 112.90 673.99 117.75 C 671.10 121.27 666.67 123.50 662.11 123.54 C 655.16 122.68 647.10 117.90 647.11 110.10 C 649.65 102.12 654.07 94.87 656.93 86.99 Z" />
<path fill="#010101" opacity="1.00" d=" M 535.04 183.25 C 586.42 183.14 637.81 183.22 689.20 183.21 C 688.29 186.65 687.10 190.01 686.03 193.40 C 644.02 193.41 602.00 193.40 559.99 193.40 C 552.98 193.30 545.92 193.86 539.00 192.51 C 537.48 189.51 536.37 186.33 535.04 183.25 Z" />
<path fill="#010101" opacity="1.00" d=" M 1303.88 239.61 C 1309.83 238.61 1315.97 238.72 1321.93 239.72 C 1330.97 239.70 1340.25 240.63 1348.57 244.45 C 1353.55 246.31 1355.81 252.02 1356.02 256.98 C 1355.79 262.13 1353.76 266.97 1351.76 271.65 C 1323.77 324.47 1289.02 374.05 1268.38 430.51 C 1266.00 435.86 1266.05 442.18 1268.50 447.49 C 1271.93 454.01 1278.78 458.32 1285.99 459.39 C 1291.07 460.73 1296.28 458.78 1300.93 456.80 C 1318.42 448.81 1332.34 434.55 1342.59 418.52 C 1346.68 410.55 1350.74 402.55 1354.31 394.33 C 1360.08 383.51 1364.63 372.11 1370.42 361.30 C 1373.80 353.26 1377.89 345.55 1381.76 337.73 C 1387.59 323.97 1395.25 311.06 1401.19 297.34 C 1403.52 292.23 1402.89 286.50 1403.86 281.10 C 1405.18 271.35 1407.87 261.15 1414.69 253.74 C 1427.60 242.41 1445.34 239.30 1461.96 238.95 C 1466.36 238.92 1470.63 240.31 1475.06 239.91 C 1481.21 240.97 1487.74 240.66 1493.46 243.57 C 1498.61 245.87 1503.28 250.98 1502.66 256.98 C 1503.11 265.35 1498.34 272.56 1494.78 279.75 C 1491.68 284.85 1489.20 290.29 1486.51 295.60 C 1476.89 312.43 1469.23 330.27 1460.49 347.56 C 1451.45 366.83 1442.31 386.05 1433.43 405.40 C 1431.42 410.61 1427.96 415.35 1427.42 421.05 C 1431.98 419.94 1435.52 416.77 1439.42 414.35 C 1456.51 403.14 1472.87 390.84 1488.60 377.79 C 1500.96 366.80 1513.74 356.12 1524.31 343.30 C 1527.16 339.85 1530.91 337.35 1534.99 335.58 C 1543.81 336.71 1547.82 348.05 1543.02 355.10 C 1532.03 370.25 1517.77 382.63 1503.28 394.33 C 1477.92 415.08 1451.19 434.17 1423.22 451.24 C 1419.03 453.61 1414.84 456.03 1410.93 458.85 C 1406.94 461.83 1404.98 466.57 1403.06 470.98 C 1400.95 476.37 1398.00 481.35 1395.57 486.59 C 1391.00 497.41 1385.28 507.71 1380.16 518.27 C 1363.82 551.96 1344.47 584.46 1319.71 612.67 C 1315.56 618.13 1310.14 622.43 1306.00 627.89 C 1301.20 631.43 1297.40 636.06 1292.69 639.71 C 1276.24 653.83 1257.16 665.40 1236.12 671.09 C 1220.00 674.88 1202.10 674.89 1187.27 666.73 C 1179.67 663.12 1173.09 657.39 1169.04 649.96 C 1162.52 639.20 1160.29 626.19 1162.09 613.81 C 1163.16 603.71 1167.14 594.26 1171.06 585.00 C 1180.40 565.55 1193.79 548.19 1209.36 533.33 C 1216.33 525.95 1223.96 519.28 1231.70 512.72 C 1231.67 512.14 1231.62 510.96 1231.59 510.38 C 1221.65 508.01 1211.18 504.60 1204.19 496.72 C 1199.48 491.83 1197.10 485.33 1194.90 479.05 C 1190.74 464.74 1192.11 449.54 1195.04 435.14 C 1195.75 430.84 1197.20 426.68 1197.54 422.32 C 1194.87 422.56 1193.32 424.84 1191.55 426.52 C 1188.17 429.86 1185.03 433.45 1181.24 436.32 C 1152.82 463.03 1119.91 485.82 1082.88 498.76 C 1069.59 503.02 1055.95 506.64 1041.98 507.60 C 1032.06 509.11 1021.99 508.11 1012.00 508.42 C 999.60 507.44 987.10 504.80 976.01 499.01 C 964.23 493.19 953.54 484.12 947.89 472.06 C 942.78 462.53 940.59 451.74 939.80 441.04 C 939.73 436.19 939.87 431.33 939.76 426.48 C 936.71 427.13 934.96 429.88 932.82 431.87 C 927.62 436.97 922.63 442.30 917.29 447.24 C 911.55 451.51 907.30 457.40 901.61 461.72 C 891.65 470.81 881.12 479.28 869.96 486.85 C 858.06 494.82 845.52 502.12 831.82 506.53 C 825.01 508.23 818.12 510.26 811.02 510.02 C 805.70 509.82 800.29 510.54 795.06 509.24 C 786.33 507.47 777.49 504.29 771.32 497.60 C 764.86 489.98 760.98 480.02 761.55 469.98 C 761.59 456.30 768.34 443.91 775.93 432.97 C 794.44 407.26 810.72 380.03 826.72 352.72 C 831.89 343.55 837.83 334.04 838.33 323.24 C 834.26 323.07 830.91 325.51 827.58 327.48 C 819.37 332.08 812.19 338.24 804.19 343.17 C 787.93 353.36 770.24 362.10 751.13 365.14 C 733.40 386.39 716.39 408.30 697.79 428.82 C 694.65 433.31 690.04 436.48 686.88 440.97 C 680.03 448.42 672.60 455.31 665.56 462.58 C 648.11 478.21 629.84 493.92 607.84 502.77 C 597.69 506.65 586.94 509.84 575.95 509.20 C 565.26 509.66 553.90 507.42 545.27 500.79 C 537.00 494.33 535.26 483.07 534.81 473.25 C 534.30 473.32 533.29 473.46 532.79 473.54 C 529.02 477.91 524.05 480.95 519.73 484.71 C 503.06 497.49 483.39 507.92 461.96 508.43 C 457.98 508.34 454.00 508.49 450.02 508.38 C 438.33 507.50 426.60 503.30 417.95 495.19 C 407.86 485.10 402.27 471.12 400.74 457.08 C 400.87 454.02 400.36 451.01 399.89 448.01 C 399.42 444.98 400.68 442.07 400.74 439.06 C 400.83 430.54 402.92 422.21 404.70 413.92 C 413.28 378.97 430.82 346.49 454.12 319.16 C 471.25 298.46 492.05 280.86 515.07 267.02 C 539.84 252.28 567.97 242.31 596.96 241.57 C 603.34 241.37 609.84 241.82 615.86 244.12 C 623.81 246.66 630.67 251.63 636.98 256.95 C 641.47 253.84 645.08 249.62 649.83 246.86 C 656.07 242.63 663.42 239.58 671.08 239.85 C 683.16 239.81 696.14 238.83 707.07 244.98 C 712.08 247.25 714.84 252.75 715.01 258.07 C 714.49 263.16 712.65 267.98 710.50 272.59 C 700.73 290.87 690.86 309.10 681.68 327.70 C 674.93 339.19 669.89 351.59 663.17 363.09 C 655.13 379.58 646.23 395.61 637.83 411.92 C 632.33 421.77 628.04 432.59 627.47 443.98 C 632.87 443.78 638.53 444.82 643.67 442.70 C 652.84 439.38 660.05 432.54 667.27 426.26 C 673.70 419.68 680.37 413.32 686.72 406.66 C 689.62 402.61 693.62 399.55 696.63 395.60 C 707.20 383.68 717.32 371.37 727.59 359.19 C 727.04 354.74 724.41 350.94 723.52 346.57 C 722.06 341.91 722.21 336.97 722.55 332.16 C 726.02 310.75 734.04 290.30 744.29 271.26 C 749.52 262.57 755.45 253.38 764.96 248.94 C 772.90 244.62 782.81 246.23 790.45 250.48 C 802.15 255.66 811.56 265.01 823.73 269.30 C 826.89 270.25 830.28 271.32 833.60 270.42 C 859.49 264.81 880.83 246.57 907.21 242.52 C 920.97 240.50 935.16 251.07 937.20 264.82 C 938.39 271.04 936.81 277.33 935.34 283.36 C 932.29 294.02 928.45 304.49 923.40 314.37 C 921.27 320.52 917.42 325.80 914.70 331.66 C 899.75 359.23 881.63 384.92 866.22 412.22 C 860.78 420.95 854.96 429.77 852.68 439.95 C 852.56 441.39 852.49 442.84 852.49 444.30 C 854.97 448.51 860.31 450.91 865.04 449.30 C 878.05 445.92 889.10 437.73 899.15 429.11 C 904.25 425.61 908.12 420.72 913.03 417.00 C 924.26 405.93 935.68 395.02 945.90 383.00 C 949.02 379.06 952.87 375.60 955.16 371.05 C 973.14 333.88 998.83 299.75 1032.67 275.67 C 1055.71 258.92 1082.47 246.99 1110.73 242.73 C 1119.41 241.97 1128.18 240.78 1136.88 242.13 C 1143.67 242.62 1150.51 243.57 1156.84 246.21 C 1168.62 251.47 1178.25 261.56 1182.42 273.83 C 1185.36 281.78 1185.43 290.45 1184.68 298.79 C 1182.84 319.98 1174.02 340.00 1162.30 357.54 C 1153.93 370.16 1142.85 380.70 1131.08 390.12 C 1102.44 412.69 1067.07 427.25 1030.54 429.28 C 1033.83 438.56 1040.13 447.36 1049.31 451.46 C 1056.04 453.44 1063.00 455.13 1070.07 454.82 C 1074.72 454.66 1079.40 455.05 1084.06 454.64 C 1104.93 452.21 1124.51 443.25 1142.04 431.99 C 1173.59 411.34 1200.58 384.37 1223.48 354.54 C 1229.54 347.07 1232.86 337.95 1237.78 329.78 C 1242.54 320.48 1247.09 311.07 1251.84 301.76 C 1258.26 291.28 1255.44 278.17 1260.12 267.08 C 1263.48 259.15 1269.09 251.89 1276.70 247.64 C 1284.82 242.52 1294.46 240.61 1303.88 239.61 M 579.49 291.60 C 571.49 292.77 564.78 297.68 558.45 302.37 C 542.20 314.88 530.98 332.53 521.33 350.33 C 513.48 365.12 505.71 380.03 499.89 395.75 C 495.36 408.10 492.38 422.00 495.91 434.97 C 499.14 442.52 508.50 446.35 516.27 444.23 C 530.62 440.55 544.31 431.26 550.32 417.34 C 566.24 381.28 587.20 347.77 604.57 312.43 C 608.09 305.85 603.60 297.71 597.44 294.60 C 592.15 291.22 585.54 290.90 579.49 291.60 M 1097.42 291.64 C 1092.15 292.88 1087.12 295.42 1083.26 299.25 C 1076.39 306.20 1070.17 313.79 1064.72 321.90 C 1050.48 342.81 1041.52 366.66 1033.53 390.50 C 1040.38 390.84 1046.98 388.86 1053.63 387.53 C 1059.40 384.76 1065.49 382.55 1070.84 378.91 C 1096.24 362.56 1112.31 333.07 1113.13 302.96 C 1113.25 299.50 1112.18 295.77 1109.37 293.57 C 1106.02 290.94 1101.41 290.80 1097.42 291.64 M 1288.36 506.35 C 1265.17 519.86 1244.58 537.68 1227.20 558.08 C 1217.00 570.70 1206.97 584.60 1204.67 601.08 C 1203.69 605.61 1205.16 610.42 1208.07 613.95 C 1211.26 617.34 1216.49 618.16 1220.84 616.83 C 1226.89 614.92 1232.21 611.14 1236.65 606.67 C 1250.47 593.76 1260.82 577.73 1271.01 561.95 C 1280.55 546.19 1289.27 529.93 1297.36 513.38 C 1299.19 508.45 1302.57 504.14 1303.48 498.88 C 1297.93 500.23 1293.32 503.71 1288.36 506.35 Z" />
</g>
</svg>
