<?xml version="1.0" encoding="UTF-8" ?>
<!DOCTYPE svg PUBLIC "-//W3C//DTD SVG 1.1//EN" "http://www.w3.org/Graphics/SVG/1.1/DTD/svg11.dtd">
<svg width="1885pt" height="841pt" viewBox="0 0 1885 841" version="1.1" xmlns="http://www.w3.org/2000/svg">
<g id="#000000ff">
<path fill="#000000" opacity="1.00" d=" M 728.47 33.56 C 736.31 27.53 750.07 34.06 749.87 44.08 C 749.92 48.82 745.91 52.02 743.18 55.39 C 740.72 58.16 738.44 62.03 740.23 65.77 C 747.54 86.29 756.25 106.28 764.42 126.47 C 768.93 137.38 776.26 147.65 786.83 153.36 C 790.94 155.68 795.96 156.24 800.48 154.80 C 808.50 152.25 814.92 146.57 821.51 141.57 C 835.36 130.81 849.18 119.98 862.22 108.23 C 865.58 104.73 870.78 104.85 875.11 103.37 C 861.25 137.69 848.22 172.34 834.79 206.84 C 769.16 206.80 703.54 206.82 637.91 206.83 C 624.30 172.25 611.32 137.41 596.89 103.16 C 600.69 104.46 604.86 104.74 608.43 106.64 C 623.67 120.22 639.78 132.79 655.98 145.21 C 663.14 150.33 670.83 156.70 680.18 156.12 C 688.49 154.39 694.36 147.46 698.78 140.65 C 707.54 126.96 714.96 112.45 721.90 97.76 C 727.24 85.70 731.70 73.12 733.52 60.01 C 730.24 55.21 726.12 50.76 724.26 45.15 C 722.58 40.82 725.18 36.29 728.47 33.56 Z" />
<path fill="#000000" opacity="1.00" d=" M 338.26 114.21 C 373.12 75.17 426.53 52.06 479.03 57.46 C 513.46 60.67 543.74 89.67 547.79 124.11 C 550.15 146.87 544.86 169.71 536.70 190.85 C 530.44 206.51 523.20 221.85 513.93 235.96 C 494.96 265.74 470.85 292.03 444.01 314.86 C 396.07 355.15 339.47 384.32 280.27 404.15 C 269.98 408.90 266.27 420.46 259.89 428.98 C 243.21 455.39 222.99 479.26 203.88 503.89 C 224.72 510.14 245.17 517.64 266.11 523.57 C 289.77 530.30 314.36 535.03 339.07 533.43 C 354.46 532.89 369.92 529.72 383.76 522.80 C 398.20 515.86 410.75 504.66 418.58 490.62 C 425.64 478.04 425.11 461.71 417.45 449.52 C 413.08 442.66 406.68 437.13 399.34 433.64 C 389.76 428.88 379.11 427.11 368.97 423.98 C 365.02 423.19 364.15 418.37 364.10 414.99 C 364.61 404.76 374.74 395.82 385.01 396.91 C 402.91 398.37 420.56 404.91 434.51 416.34 C 450.85 430.09 461.82 449.93 465.02 471.03 C 470.42 505.72 456.74 541.64 432.71 566.64 C 411.17 589.62 381.61 604.01 351.04 610.44 C 322.70 616.23 293.36 615.24 264.91 610.72 C 258.10 609.54 251.25 608.48 244.58 606.60 C 220.34 600.04 198.06 587.96 174.01 580.80 C 160.93 576.96 147.19 574.42 133.53 575.71 C 120.72 577.85 107.02 579.35 96.17 587.14 C 91.18 590.43 88.27 595.83 83.89 599.77 C 76.78 606.54 67.00 611.33 56.99 610.26 C 50.56 609.71 44.88 606.03 40.69 601.29 C 31.68 591.01 29.34 576.59 29.98 563.35 C 30.32 551.65 35.35 540.54 42.60 531.52 C 49.70 522.88 58.55 515.71 68.41 510.45 C 77.67 505.48 88.03 503.28 97.99 500.18 C 100.88 499.21 104.08 498.58 106.36 496.41 C 126.25 477.52 141.85 454.80 157.74 432.59 C 132.55 433.96 107.16 437.88 82.00 434.08 C 68.50 431.83 55.40 421.26 54.14 407.00 C 52.68 388.60 54.35 369.57 61.45 352.40 C 65.32 343.49 72.26 334.88 82.09 332.48 C 87.69 331.62 93.55 332.01 98.92 333.87 C 107.95 336.82 115.66 342.52 123.76 347.29 C 126.29 348.69 128.82 350.78 131.91 350.28 C 159.00 348.53 186.13 346.60 212.94 342.20 C 232.98 311.18 248.25 277.46 264.40 244.34 C 275.40 222.46 285.08 199.94 295.99 178.01 C 307.51 155.22 320.62 132.86 338.26 114.21 M 436.01 124.03 C 422.26 134.31 413.28 149.35 405.28 164.21 C 394.61 184.06 384.67 204.28 374.23 224.25 C 359.51 252.95 344.50 281.50 329.86 310.24 C 341.38 305.50 352.35 299.53 363.03 293.15 C 407.17 266.31 444.22 225.90 461.81 176.86 C 465.06 166.14 470.24 156.01 472.19 144.92 C 473.34 138.82 473.08 132.31 470.64 126.55 C 468.31 121.47 463.06 118.23 457.62 117.57 C 449.92 116.61 442.02 119.24 436.01 124.03 Z" />
<path fill="#000000" opacity="1.00" d=" M 664.63 77.94 C 663.99 74.60 667.05 71.98 670.04 71.38 C 673.09 70.70 676.55 70.04 679.43 71.67 C 681.47 73.05 681.99 75.71 681.86 78.02 C 681.92 83.30 679.46 88.10 678.33 93.14 C 678.99 96.60 680.59 99.78 681.89 103.02 C 686.71 113.97 692.40 124.50 697.71 135.21 C 692.32 141.92 684.76 147.66 675.90 148.28 C 670.88 148.67 666.18 146.51 662.14 143.75 C 663.16 125.97 670.85 109.53 673.51 92.05 C 669.40 88.29 665.31 83.69 664.63 77.94 Z" />
<path fill="#000000" opacity="1.00" d=" M 790.99 74.83 C 791.54 71.11 795.96 70.38 799.05 70.65 C 804.11 71.20 807.89 75.26 809.82 79.73 C 806.20 83.32 803.13 87.43 800.67 91.89 C 798.24 92.30 795.80 92.61 793.38 92.93 C 793.03 86.83 789.59 81.00 790.99 74.83 Z" />
<path fill="#000000" opacity="1.00" d=" M 869.59 79.08 C 870.69 74.40 875.64 72.24 879.94 71.46 C 887.22 70.56 894.01 76.81 894.70 83.92 C 895.36 88.83 892.85 94.19 888.20 96.22 C 882.53 98.66 876.20 98.18 870.21 98.94 C 870.48 92.30 868.18 85.69 869.59 79.08 Z" />
<path fill="#000000" opacity="1.00" d=" M 582.16 77.01 C 585.40 73.21 591.02 71.45 595.74 73.39 C 598.95 74.67 602.79 76.26 603.67 80.02 C 604.97 86.14 602.38 92.19 602.21 98.31 C 595.49 98.74 587.73 99.42 582.20 94.81 C 576.76 90.40 577.96 81.84 582.16 77.01 Z" />
<path fill="#000000" opacity="1.00" d=" M 789.80 102.69 C 790.92 98.15 795.87 96.61 799.15 93.95 C 802.88 109.67 807.66 125.14 810.98 140.97 C 804.86 150.75 789.92 150.44 782.21 142.83 C 778.61 139.48 776.17 133.91 778.27 129.14 C 781.70 120.14 786.43 111.71 789.80 102.69 Z" />
<path fill="#000000" opacity="1.00" d=" M 642.83 219.94 C 705.10 219.69 767.38 220.22 829.65 219.59 C 827.94 223.75 826.85 228.13 825.29 232.35 C 802.19 232.20 779.11 232.78 756.01 232.58 C 735.33 232.93 714.63 232.97 693.95 232.57 C 678.57 232.62 663.20 232.34 647.83 231.76 C 646.15 227.83 644.27 223.97 642.83 219.94 Z" />
<path fill="#000000" opacity="1.00" d=" M 764.86 307.72 C 774.69 297.92 786.63 288.58 800.97 287.38 C 813.84 287.36 826.99 286.31 839.61 289.55 C 845.40 291.25 851.52 293.72 855.16 298.81 C 858.33 303.16 858.55 308.88 857.80 314.03 C 856.41 322.65 851.85 330.25 847.75 337.81 C 821.25 387.24 796.44 437.56 770.06 487.05 C 762.56 501.18 754.05 515.81 753.78 532.27 C 761.33 533.77 769.25 532.55 776.06 529.00 C 783.81 525.23 790.45 519.60 796.84 513.91 C 824.73 488.38 848.74 459.06 872.83 430.02 C 869.68 423.05 866.89 415.78 866.25 408.10 C 865.58 401.34 867.22 394.68 868.50 388.10 C 872.46 369.54 879.22 351.66 887.57 334.66 C 893.28 322.76 900.25 311.03 910.49 302.46 C 917.78 296.36 927.77 293.57 937.12 295.77 C 958.41 300.15 973.05 318.84 993.98 324.12 C 996.96 325.07 1000.01 323.93 1002.93 323.27 C 1029.21 316.55 1051.54 299.76 1077.72 292.77 C 1084.04 291.28 1090.55 289.59 1097.09 290.48 C 1109.55 292.06 1120.97 301.26 1124.36 313.48 C 1126.34 321.74 1125.27 330.39 1123.41 338.57 C 1118.19 359.39 1108.82 378.85 1098.74 397.70 C 1080.99 430.42 1059.59 460.97 1041.19 493.31 C 1034.41 504.67 1026.48 515.82 1023.71 529.00 C 1022.53 535.94 1030.96 540.45 1036.91 538.79 C 1054.94 534.30 1069.48 522.06 1083.38 510.38 C 1100.24 495.27 1116.55 479.49 1131.54 462.51 C 1136.40 456.72 1141.82 451.28 1145.80 444.82 C 1161.66 411.14 1183.19 380.01 1210.02 354.14 C 1236.54 328.75 1268.32 308.31 1303.53 297.38 C 1324.01 291.07 1345.71 288.17 1367.10 290.30 C 1374.04 291.00 1381.07 291.93 1387.60 294.52 C 1406.62 301.92 1420.61 320.69 1422.25 341.04 C 1424.85 376.73 1409.75 411.45 1388.32 439.26 C 1351.39 482.78 1296.91 511.23 1239.90 515.56 C 1239.36 515.65 1238.28 515.83 1237.73 515.92 C 1241.02 524.25 1246.13 532.24 1253.45 537.58 C 1259.08 541.81 1266.15 543.19 1272.91 544.56 C 1291.52 547.86 1310.73 544.85 1328.39 538.57 C 1346.41 532.23 1363.22 522.80 1378.81 511.82 C 1412.26 488.48 1441.06 459.04 1466.14 427.00 C 1469.39 423.14 1472.09 418.87 1474.48 414.42 C 1485.09 395.43 1494.08 375.59 1504.38 356.43 C 1508.16 346.39 1507.29 335.35 1509.97 325.04 C 1513.49 310.71 1524.54 298.82 1538.09 293.24 C 1556.95 285.15 1578.00 286.09 1598.01 287.85 C 1605.70 288.57 1613.58 289.90 1620.45 293.64 C 1625.77 296.69 1628.00 303.20 1627.61 309.07 C 1627.10 317.48 1623.54 325.34 1619.48 332.60 C 1588.43 390.27 1551.15 444.85 1526.95 506.01 C 1524.63 512.93 1520.78 519.55 1520.42 526.97 C 1520.99 543.70 1541.02 555.78 1556.24 549.36 C 1579.47 540.30 1598.00 521.94 1610.97 500.99 C 1614.09 495.35 1616.62 489.39 1619.53 483.63 C 1639.77 441.53 1659.75 399.29 1680.52 357.44 C 1681.53 355.35 1682.52 353.18 1682.77 350.83 C 1684.22 337.99 1684.83 324.55 1690.89 312.85 C 1694.69 305.30 1701.33 299.60 1708.82 295.89 C 1727.57 286.15 1749.47 285.79 1770.05 287.58 C 1778.46 288.62 1787.47 288.38 1794.99 292.85 C 1799.81 295.43 1803.46 300.35 1803.82 305.89 C 1804.40 313.78 1801.86 321.51 1798.42 328.51 C 1770.05 380.83 1744.87 434.82 1719.94 488.85 C 1717.57 494.38 1714.58 499.64 1712.73 505.37 C 1720.20 501.57 1726.84 496.36 1733.91 491.88 C 1760.20 474.00 1785.38 454.38 1808.44 432.47 C 1813.74 427.10 1819.62 422.30 1824.38 416.41 C 1829.21 410.66 1834.36 404.10 1842.08 402.39 C 1847.19 402.42 1851.81 406.06 1853.39 410.87 C 1855.44 417.03 1854.58 424.41 1850.30 429.46 C 1838.01 445.02 1823.29 458.46 1808.01 471.01 C 1775.79 497.32 1742.08 521.92 1706.36 543.28 C 1700.18 547.27 1692.71 550.22 1688.70 556.72 C 1670.19 595.16 1652.62 634.17 1630.85 670.93 C 1613.67 700.08 1593.27 727.38 1569.69 751.67 C 1555.18 766.41 1539.09 779.73 1521.17 790.14 C 1506.31 798.87 1490.01 805.50 1472.84 807.80 C 1452.74 810.70 1430.73 807.49 1414.50 794.54 C 1401.42 784.49 1394.64 768.08 1393.64 751.93 C 1392.07 733.22 1398.41 714.99 1406.33 698.34 C 1421.16 668.30 1444.51 643.50 1469.49 621.62 C 1472.49 618.95 1475.81 616.60 1478.35 613.45 C 1467.63 610.63 1456.58 607.31 1447.94 600.07 C 1441.87 595.11 1438.07 588.01 1435.29 580.81 C 1429.25 564.97 1429.51 547.54 1432.02 531.01 C 1433.17 522.76 1435.21 514.68 1436.90 506.54 C 1432.95 508.94 1430.19 512.73 1426.84 515.83 C 1402.16 539.92 1375.05 561.78 1344.95 578.76 C 1326.64 589.05 1307.21 597.42 1286.95 603.02 C 1265.22 609.11 1242.51 611.30 1219.99 610.85 C 1200.82 610.17 1181.31 606.20 1164.69 596.26 C 1155.38 590.57 1146.78 583.37 1140.83 574.14 C 1128.78 555.75 1126.41 533.02 1127.14 511.55 C 1113.59 524.20 1101.11 537.99 1087.26 550.33 C 1072.50 564.04 1056.84 576.84 1039.96 587.85 C 1026.22 596.62 1011.82 604.83 995.97 609.09 C 977.57 614.24 957.34 614.64 939.40 607.48 C 929.22 603.53 921.32 594.89 917.17 584.91 C 912.15 573.66 912.66 560.82 915.38 549.06 C 918.56 537.08 925.33 526.49 932.41 516.46 C 953.05 487.52 971.29 456.99 989.38 426.43 C 996.40 414.27 1004.03 401.88 1006.03 387.72 C 992.46 392.34 981.46 401.88 969.66 409.65 C 948.99 423.51 926.04 434.69 901.35 438.97 C 881.07 464.37 860.61 489.66 839.05 513.99 C 821.38 533.61 803.14 552.80 783.01 569.94 C 769.38 581.34 754.99 592.06 738.97 599.88 C 722.34 608.22 703.62 612.96 684.96 611.60 C 672.55 610.96 659.25 607.81 650.43 598.47 C 643.09 590.23 642.13 578.70 641.08 568.22 C 626.41 581.25 610.67 593.49 592.70 601.64 C 575.93 609.29 557.13 611.98 538.83 610.48 C 524.69 609.26 510.20 604.31 500.28 593.76 C 488.96 582.82 482.98 567.43 480.90 552.06 C 477.82 529.84 481.86 507.36 487.91 485.99 C 499.01 447.14 519.52 411.29 545.81 380.75 C 568.74 353.97 596.31 331.08 627.40 314.36 C 653.45 300.34 682.37 290.96 712.07 289.73 C 720.19 289.55 728.50 289.09 736.39 291.42 C 747.11 294.30 756.50 300.60 764.86 307.72 M 1306.77 353.72 C 1300.60 356.96 1296.41 362.69 1291.71 367.63 C 1266.64 396.62 1251.39 432.63 1240.36 468.97 C 1259.55 468.47 1278.17 461.09 1293.16 449.25 C 1319.10 428.63 1335.36 396.16 1335.91 362.99 C 1336.35 357.30 1332.68 351.45 1327.08 349.94 C 1320.13 348.15 1312.89 350.43 1306.77 353.72 M 691.45 350.57 C 683.63 352.77 676.91 357.62 670.45 362.37 C 652.65 375.89 639.85 394.71 628.92 413.94 C 620.27 429.58 612.08 445.50 604.89 461.87 C 598.17 477.37 592.40 493.94 593.18 511.09 C 593.54 515.93 593.73 521.20 596.69 525.30 C 601.93 532.86 612.40 535.60 621.00 532.92 C 636.41 528.59 651.00 519.02 658.78 504.74 C 662.37 497.31 665.52 489.67 669.25 482.30 C 686.73 446.29 707.45 411.96 725.16 376.07 C 729.49 369.40 726.32 360.25 720.41 355.64 C 712.37 349.29 701.16 348.16 691.45 350.57 M 1475.36 667.41 C 1462.22 683.39 1448.95 700.92 1445.95 721.99 C 1444.31 730.04 1449.91 738.98 1458.10 740.50 C 1463.72 741.37 1468.92 738.27 1473.63 735.63 C 1486.68 727.26 1496.20 714.68 1505.48 702.50 C 1518.89 684.41 1530.57 665.09 1541.25 645.28 C 1549.33 629.97 1557.42 614.61 1564.30 598.72 C 1530.07 614.74 1500.34 639.26 1475.36 667.41 Z" />
<path fill="#000000" opacity="1.00" d=" M 682.38 635.05 C 686.05 637.22 689.62 639.56 693.23 641.84 C 684.62 646.60 675.51 650.48 665.96 652.85 C 666.23 650.44 666.30 647.83 667.94 645.89 C 671.70 641.01 677.75 638.92 682.38 635.05 Z" />
<path fill="#000000" opacity="1.00" d=" M 1216.78 643.74 C 1221.43 640.04 1227.62 639.92 1233.23 640.79 C 1237.34 641.51 1241.51 641.32 1245.67 641.41 C 1248.77 644.82 1245.07 650.39 1240.95 650.52 C 1234.41 650.99 1227.69 647.69 1221.40 650.79 C 1219.90 648.40 1218.36 646.06 1216.78 643.74 Z" />
<path fill="#000000" opacity="1.00" d=" M 545.46 658.38 C 547.75 656.99 550.16 655.38 552.94 655.39 C 562.25 655.08 571.41 657.38 580.12 660.50 C 578.90 664.42 577.10 668.12 575.65 671.95 C 568.54 670.97 561.76 668.34 554.64 667.33 C 550.70 672.01 547.60 677.75 547.55 684.02 C 547.13 690.89 550.22 697.43 554.66 702.52 C 561.70 701.28 568.56 699.22 575.60 698.01 C 576.97 701.59 578.50 705.10 580.02 708.63 C 570.48 713.68 558.92 715.94 548.50 712.35 C 541.61 710.03 536.08 704.49 533.31 697.82 C 527.40 684.03 532.75 666.40 545.46 658.38 Z" />
<path fill="#000000" opacity="1.00" d=" M 669.53 655.74 C 685.27 652.58 702.02 665.01 703.75 680.91 C 704.23 689.05 703.01 698.10 697.13 704.24 C 686.51 716.39 665.21 718.24 653.82 706.19 C 641.40 695.06 642.79 673.65 654.71 662.69 C 658.68 658.76 664.06 656.57 669.53 655.74 M 671.35 668.47 C 659.75 672.94 657.04 690.52 666.42 698.50 C 670.11 702.19 676.37 702.87 680.65 699.81 C 688.92 693.92 690.83 680.71 684.05 672.99 C 681.02 669.51 676.01 666.55 671.35 668.47 Z" />
<path fill="#000000" opacity="1.00" d=" M 864.94 656.97 C 867.15 654.24 871.02 654.84 874.10 655.24 C 879.33 655.96 884.64 659.25 886.26 664.50 C 886.89 667.35 886.94 670.75 884.79 673.02 C 882.16 676.07 879.06 678.68 876.40 681.72 C 877.84 683.90 879.16 686.18 880.87 688.19 C 886.57 684.24 892.62 680.13 899.84 679.91 C 899.81 683.74 899.81 687.58 899.82 691.42 C 896.16 693.26 892.57 695.25 888.96 697.19 C 891.13 701.66 896.46 701.45 900.61 702.59 C 900.39 706.60 900.30 710.62 900.31 714.64 C 894.80 714.61 889.12 714.13 884.10 711.69 C 882.02 710.69 880.23 709.15 878.12 708.26 C 870.99 712.10 863.19 714.92 854.98 714.90 C 851.11 709.65 845.84 704.00 847.31 696.90 C 847.62 689.33 855.03 685.55 859.25 680.22 C 858.35 672.22 858.79 662.94 864.94 656.97 M 868.28 665.09 C 867.93 668.12 867.95 671.18 867.79 674.23 C 870.20 674.17 873.18 675.13 875.05 673.04 C 877.58 671.02 879.23 667.70 877.52 664.62 C 874.68 662.98 870.32 661.56 868.28 665.09 M 863.13 688.97 C 861.66 694.57 859.25 700.84 862.93 706.17 C 867.15 705.18 871.11 703.35 874.71 700.94 C 871.02 696.81 867.75 692.14 863.13 688.97 Z" />
<path fill="#000000" opacity="1.00" d=" M 1205.18 655.59 C 1209.80 655.75 1214.44 655.65 1219.05 656.07 C 1220.37 656.04 1220.75 657.60 1221.51 658.43 C 1226.88 667.20 1232.89 675.57 1239.39 683.53 C 1240.30 684.73 1241.53 685.63 1242.81 686.46 C 1243.03 676.19 1242.88 665.91 1242.42 655.65 C 1247.87 655.55 1253.33 655.82 1258.80 655.92 C 1257.67 675.20 1258.48 694.54 1257.87 713.82 C 1253.04 714.47 1248.14 714.09 1243.30 713.82 C 1237.12 704.70 1230.44 695.92 1223.85 687.09 C 1222.84 685.67 1221.54 684.50 1220.13 683.53 C 1220.59 693.60 1220.93 703.69 1221.47 713.76 C 1216.05 714.38 1210.60 714.02 1205.18 714.12 C 1205.15 700.73 1206.07 687.35 1205.45 673.97 C 1205.47 667.84 1205.07 661.72 1205.18 655.59 Z" />
<path fill="#000000" opacity="1.00" d=" M 1306.60 655.78 C 1323.23 652.04 1340.79 666.21 1341.36 683.08 C 1341.40 690.46 1339.90 698.30 1334.88 704.01 C 1325.90 714.09 1309.86 717.47 1297.83 711.06 C 1291.14 707.21 1285.64 700.86 1283.85 693.23 C 1281.71 684.00 1283.43 673.78 1289.19 666.16 C 1293.22 660.45 1299.75 656.84 1306.60 655.78 M 1311.11 668.20 C 1300.85 670.22 1295.63 682.90 1299.58 692.15 C 1301.52 699.47 1310.59 704.00 1317.44 700.47 C 1320.25 698.66 1322.23 695.79 1324.04 693.03 C 1327.41 686.77 1325.82 678.82 1321.79 673.25 C 1319.37 669.93 1315.33 667.47 1311.11 668.20 Z" />
<path fill="#000000" opacity="1.00" d=" M 72.04 658.03 C 75.01 656.22 78.53 656.07 81.91 656.11 C 84.20 659.36 86.50 662.61 88.87 665.81 C 84.87 668.07 80.84 670.28 76.92 672.69 C 80.19 679.02 85.80 684.04 87.90 690.98 C 89.65 696.20 87.68 702.11 83.77 705.84 C 79.39 710.42 73.30 712.65 67.45 714.67 C 63.02 711.63 60.97 706.58 58.17 702.22 C 62.94 700.09 67.77 698.10 72.59 696.11 C 69.19 687.77 61.19 681.41 60.62 672.01 C 60.40 665.08 66.82 661.13 72.04 658.03 Z" />
<path fill="#000000" opacity="1.00" d=" M 113.54 655.93 C 118.99 655.82 124.45 655.55 129.90 655.64 C 130.56 669.63 128.37 683.76 130.48 697.68 C 133.28 703.46 142.95 703.61 145.97 697.92 C 146.73 694.67 146.47 691.29 146.64 687.98 C 146.64 677.40 146.74 666.82 146.57 656.24 C 152.18 655.66 157.84 655.75 163.45 656.20 C 162.34 674.06 164.70 692.32 159.85 709.80 C 148.94 713.16 137.08 716.63 125.75 713.23 C 121.23 711.56 115.74 708.52 115.50 703.09 C 113.16 687.46 115.55 671.59 113.54 655.93 Z" />
<path fill="#000000" opacity="1.00" d=" M 188.61 655.89 C 200.90 657.06 213.66 653.10 225.60 657.47 C 229.47 659.16 233.90 661.41 235.29 665.72 C 236.91 672.28 231.98 678.43 233.35 684.98 C 234.52 688.32 236.88 691.28 237.00 694.94 C 237.70 701.59 234.16 708.02 229.00 712.02 C 227.56 713.03 226.06 714.43 224.15 714.20 C 212.24 714.01 200.32 714.16 188.41 714.10 C 189.45 694.72 189.49 675.28 188.61 655.89 M 205.22 668.53 C 205.16 671.30 205.16 674.07 205.21 676.85 C 208.84 676.79 212.77 676.96 216.03 675.08 C 218.30 673.74 218.75 670.93 218.92 668.53 C 214.36 668.48 209.79 668.50 205.22 668.53 M 205.71 689.20 C 205.50 693.26 205.85 697.32 206.09 701.38 C 210.33 701.39 214.56 701.43 218.80 701.26 C 218.55 697.39 219.41 693.27 218.36 689.56 C 214.24 688.68 209.91 689.42 205.71 689.20 Z" />
<path fill="#000000" opacity="1.00" d=" M 261.14 655.88 C 266.70 655.89 272.27 655.89 277.83 655.88 C 277.62 671.05 277.46 686.23 277.36 701.40 C 285.56 701.25 293.75 701.75 301.95 701.64 C 301.65 705.76 301.11 709.86 300.63 713.98 C 287.47 714.28 274.30 714.02 261.14 714.11 C 261.58 694.71 261.58 675.28 261.14 655.88 Z" />
<path fill="#000000" opacity="1.00" d=" M 325.31 655.87 C 331.00 655.90 336.69 655.88 342.38 655.89 C 342.18 675.30 342.22 694.70 342.42 714.11 C 336.74 714.11 331.06 714.11 325.38 714.10 C 326.05 694.70 326.12 675.27 325.31 655.87 Z" />
<path fill="#000000" opacity="1.00" d=" M 369.33 656.03 C 374.54 655.54 379.77 655.73 384.98 655.49 C 389.62 665.80 394.06 676.21 398.21 686.74 C 404.32 677.13 409.14 666.73 413.60 656.27 C 418.98 655.57 424.41 655.99 429.82 655.88 C 430.02 668.58 429.32 681.27 429.66 693.97 C 429.96 700.68 429.77 707.40 429.82 714.12 C 424.06 714.04 418.30 714.31 412.56 713.85 C 413.07 706.11 412.90 698.35 412.83 690.61 C 412.35 690.91 411.39 691.51 410.91 691.81 C 407.40 699.05 405.13 706.90 400.99 713.84 C 396.98 714.55 393.98 711.08 392.38 707.87 C 390.02 702.60 388.75 696.92 387.01 691.44 C 386.59 691.32 385.75 691.08 385.33 690.96 C 385.24 698.68 385.68 706.40 385.86 714.12 C 380.35 714.08 374.84 714.18 369.33 714.02 C 369.96 703.70 369.53 693.36 369.66 683.04 C 369.56 674.03 369.92 665.02 369.33 656.03 Z" />
<path fill="#000000" opacity="1.00" d=" M 471.71 657.47 C 472.24 655.04 475.23 656.12 476.99 655.86 C 480.61 656.12 484.44 655.29 487.92 656.40 C 495.50 675.50 502.62 694.80 509.69 714.10 C 503.60 714.05 497.50 714.33 491.43 713.83 C 490.73 711.07 489.99 708.32 489.25 705.58 C 483.12 705.58 477.00 705.59 470.87 705.58 C 469.98 708.26 469.11 710.96 468.43 713.72 C 462.80 714.37 457.11 714.24 451.48 713.79 C 458.01 694.94 465.03 676.27 471.71 657.47 Z" />
<path fill="#000000" opacity="1.00" d=" M 602.30 655.88 C 608.05 655.90 613.81 655.88 619.58 655.89 C 619.11 675.26 618.99 694.65 619.63 714.01 C 613.88 714.19 608.13 714.08 602.38 714.10 C 603.13 694.71 603.18 675.27 602.30 655.88 Z" />
<path fill="#000000" opacity="1.00" d=" M 727.58 656.23 C 732.48 655.72 737.44 655.67 742.34 656.27 C 749.91 667.13 757.49 678.06 766.07 688.16 C 766.32 677.40 765.57 666.65 765.49 655.89 C 770.94 655.88 776.38 655.89 781.83 655.88 C 781.67 669.59 780.99 683.30 781.04 697.02 C 780.35 702.62 781.52 708.26 780.85 713.85 C 776.07 714.42 771.23 714.19 766.45 713.73 C 760.37 705.17 753.78 696.97 747.80 688.33 C 746.50 686.51 745.34 684.39 743.13 683.57 C 743.37 693.74 743.36 703.92 743.60 714.10 C 738.25 714.03 732.88 714.38 727.56 713.75 C 728.26 706.48 727.62 699.16 728.01 691.88 C 728.27 687.27 728.26 682.66 728.01 678.06 C 727.63 670.79 728.25 663.49 727.58 656.23 Z" />
<path fill="#000000" opacity="1.00" d=" M 964.08 656.00 C 975.53 656.11 987.30 654.25 998.49 657.46 C 1006.32 659.52 1012.59 665.89 1015.19 673.47 C 1018.38 682.64 1017.50 693.24 1012.62 701.67 C 1009.28 706.93 1004.35 711.65 998.13 713.12 C 986.81 715.30 975.30 713.65 963.90 713.81 C 965.11 694.55 964.54 675.26 964.08 656.00 M 979.58 667.48 C 979.58 678.87 979.59 690.26 979.58 701.65 C 983.78 701.65 987.99 701.64 992.20 701.67 C 996.90 697.31 1001.45 691.78 1001.40 685.02 C 1001.13 680.74 1000.46 675.94 997.04 672.96 C 992.44 668.49 985.67 667.77 979.58 667.48 Z" />
<path fill="#000000" opacity="1.00" d=" M 1042.20 656.17 C 1047.72 655.51 1053.32 656.04 1058.89 655.93 C 1058.80 675.31 1058.72 694.69 1058.94 714.08 C 1053.35 713.94 1047.71 714.51 1042.16 713.82 C 1042.04 702.90 1042.64 691.96 1042.42 681.03 C 1042.71 672.75 1041.76 664.40 1042.20 656.17 Z" />
<path fill="#000000" opacity="1.00" d=" M 1138.38 655.94 C 1151.71 655.47 1165.06 655.49 1178.38 656.22 C 1178.65 660.17 1178.85 664.13 1178.85 668.09 C 1170.39 668.21 1161.93 668.40 1153.48 668.78 C 1154.34 671.50 1155.04 675.11 1158.22 676.03 C 1164.60 677.98 1171.32 675.74 1177.85 676.50 C 1177.51 680.68 1177.30 684.86 1176.89 689.04 C 1169.58 689.19 1162.26 688.98 1154.96 689.38 C 1155.32 693.29 1155.71 697.20 1155.92 701.12 C 1164.15 701.41 1172.38 701.63 1180.61 701.66 C 1179.97 705.50 1179.83 709.41 1179.12 713.24 C 1178.87 713.43 1178.39 713.81 1178.15 714.00 C 1164.90 714.27 1151.64 714.03 1138.40 714.10 C 1138.88 694.72 1139.28 675.32 1138.38 655.94 Z" />
<path fill="#000000" opacity="1.00" d=" M 1089.30 663.31 C 1093.62 659.10 1099.73 655.35 1105.99 656.73 C 1110.32 657.70 1112.38 661.94 1113.81 665.71 C 1109.94 668.17 1105.71 670.08 1102.08 672.90 C 1104.70 678.95 1110.09 683.38 1112.33 689.66 C 1114.38 694.84 1113.20 701.23 1109.21 705.17 C 1104.43 710.25 1097.56 712.32 1091.62 715.65 C 1088.70 711.19 1085.83 706.71 1082.99 702.20 C 1087.82 700.13 1092.59 697.93 1097.47 695.97 C 1094.43 689.23 1089.02 683.85 1086.37 676.93 C 1084.47 672.34 1085.53 666.63 1089.30 663.31 Z" />
</g>
</svg>
