<?xml version="1.0" encoding="UTF-8" ?>
<!DOCTYPE svg PUBLIC "-//W3C//DTD SVG 1.1//EN" "http://www.w3.org/Graphics/SVG/1.1/DTD/svg11.dtd">
<svg width="980pt" height="980pt" viewBox="0 0 980 980" version="1.1" xmlns="http://www.w3.org/2000/svg">
<g id="#ffffffff">
</g>
<g id="#000000ff">
<path fill="#000000" opacity="1.00" d=" M 453.09 249.07 C 489.36 240.68 528.43 244.95 561.94 261.24 C 594.16 276.72 620.93 303.00 637.21 334.80 C 646.57 353.24 652.52 373.41 654.48 394.01 C 654.97 401.99 655.89 410.02 654.83 418.01 C 654.00 430.57 650.87 442.87 646.93 454.79 C 642.38 468.28 636.51 481.28 630.23 494.05 C 621.31 511.52 611.47 528.50 601.24 545.24 C 590.65 562.69 579.68 579.91 569.41 597.55 C 553.42 625.44 537.21 653.21 521.23 681.11 C 516.59 689.18 511.84 697.19 507.24 705.28 C 503.14 712.48 498.94 719.62 494.80 726.80 C 493.38 729.08 492.31 731.58 490.75 733.77 C 488.31 734.01 488.27 730.50 486.79 729.13 C 469.71 699.29 452.36 669.58 435.27 639.74 C 424.18 620.81 413.50 601.64 402.17 582.85 C 385.42 555.11 367.64 527.94 352.77 499.11 C 340.44 475.23 329.50 450.06 325.89 423.21 C 322.76 390.75 330.23 357.51 346.20 329.14 C 363.81 297.69 392.01 272.33 425.15 258.15 C 434.18 254.35 443.52 251.20 453.09 249.07 M 441.78 342.71 C 434.65 347.84 428.44 354.14 423.20 361.17 C 410.62 378.43 405.01 400.67 408.26 421.80 C 410.72 440.05 419.80 457.20 433.09 469.89 C 434.11 470.87 435.17 471.82 436.27 472.73 C 442.60 478.02 449.56 482.65 457.19 485.85 C 471.12 491.95 486.75 494.06 501.80 491.89 C 519.34 489.40 536.05 481.16 548.52 468.54 C 561.08 456.22 569.42 439.74 572.04 422.35 C 573.71 409.83 572.92 396.94 569.17 384.85 C 564.14 369.34 554.50 355.47 541.85 345.20 C 540.26 344.11 538.74 342.92 537.22 341.76 C 536.40 341.25 535.58 340.74 534.77 340.24 C 532.94 339.04 531.08 337.89 529.17 336.84 C 527.81 336.18 526.48 335.51 525.16 334.82 C 514.43 330.07 502.80 327.07 491.01 327.23 C 473.47 326.80 455.99 332.51 441.78 342.71 Z" />
</g>
</svg>
