<?xml version="1.0" encoding="UTF-8" ?>
<!DOCTYPE svg PUBLIC "-//W3C//DTD SVG 1.1//EN" "http://www.w3.org/Graphics/SVG/1.1/DTD/svg11.dtd">
<svg width="1242pt" height="1229pt" viewBox="0 0 1242 1229" version="1.1" xmlns="http://www.w3.org/2000/svg">
<g id="#ffffffff">
</g>
<g id="#000000ff">
<path fill="#000000" opacity="1.00" d=" M 1208.61 32.46 C 1219.15 30.55 1230.88 40.00 1229.85 50.98 C 1224.45 128.84 1209.95 205.89 1189.16 281.07 C 1171.77 342.30 1151.08 402.73 1124.70 460.71 C 1074.91 570.63 1005.65 672.78 916.15 754.23 C 921.22 781.02 921.90 808.86 916.61 835.67 C 906.75 888.48 882.34 937.12 854.66 982.67 C 815.62 1046.13 767.33 1103.27 716.69 1157.69 C 705.68 1169.01 695.48 1181.14 683.60 1191.58 C 678.57 1195.53 672.53 1199.91 665.70 1198.30 C 659.19 1196.01 654.71 1190.28 651.70 1184.32 C 617.36 1108.11 582.86 1031.96 548.10 955.94 C 544.58 947.68 537.32 942.04 531.34 935.66 C 511.14 913.88 489.60 893.40 468.75 872.25 C 425.74 829.25 382.76 786.24 339.74 743.26 C 331.62 735.37 324.68 726.19 315.44 719.52 C 305.54 712.41 294.23 707.77 283.18 702.81 C 217.47 673.28 152.06 643.10 86.25 613.80 C 77.47 610.41 69.69 605.04 62.73 598.78 C 63.28 593.51 62.65 587.90 65.07 583.02 C 67.63 577.83 72.69 574.64 76.64 570.62 C 131.02 516.49 189.34 465.99 252.99 422.98 C 294.62 395.06 338.75 369.90 386.68 354.54 C 425.76 341.69 468.18 336.32 508.75 345.07 C 560.17 288.65 620.07 240.16 684.77 199.77 C 756.38 155.19 833.75 120.30 913.69 93.57 C 1009.22 62.16 1108.25 40.26 1208.61 32.46 M 1000.05 106.92 C 982.79 111.15 966.12 117.59 948.55 120.59 C 952.01 125.64 955.61 130.66 960.34 134.63 C 970.44 143.51 979.72 153.27 989.25 162.75 C 1029.27 202.73 1069.22 242.78 1109.27 282.73 C 1119.97 293.06 1129.19 304.86 1140.60 314.47 C 1143.06 307.42 1144.98 300.19 1147.00 293.00 C 1167.31 220.58 1183.08 146.71 1191.02 71.85 C 1126.56 78.32 1062.61 90.12 1000.05 106.92 M 633.95 280.95 C 596.27 310.16 560.55 342.20 529.47 378.44 C 448.72 470.59 388.65 580.10 350.42 696.31 C 348.79 700.04 353.32 702.24 355.17 704.82 C 381.83 731.17 408.21 757.79 434.76 784.24 C 459.71 810.93 485.76 836.59 512.26 861.73 C 530.12 879.09 546.90 897.58 565.58 914.07 C 579.47 907.01 594.47 902.67 608.88 896.85 C 705.29 858.89 797.04 807.49 875.84 739.84 C 942.69 682.48 998.45 612.81 1042.86 536.90 C 1074.57 483.02 1100.74 425.99 1122.39 367.36 C 1124.00 362.70 1126.59 358.19 1126.75 353.17 C 1122.90 346.66 1116.17 342.39 1111.24 336.76 C 1089.48 313.21 1066.28 291.05 1043.75 268.25 C 999.12 223.71 954.66 179.00 909.94 134.56 C 811.31 169.13 716.83 216.93 633.95 280.95 M 373.30 397.29 C 328.84 415.41 287.92 441.14 248.89 468.86 C 200.54 504.51 154.84 543.74 111.61 585.43 C 179.22 617.28 247.62 647.43 315.66 678.34 C 350.37 582.49 396.03 490.03 457.11 408.13 C 465.09 397.32 474.03 387.23 481.57 376.10 C 444.45 374.97 407.45 382.98 373.30 397.29 M 837.92 816.90 C 760.01 872.63 672.99 914.54 583.07 946.96 C 613.78 1014.45 644.79 1081.82 674.67 1149.68 C 678.12 1146.80 681.18 1143.50 684.35 1140.34 C 734.48 1086.52 783.13 1030.66 821.92 967.91 C 840.18 938.92 856.36 908.47 868.28 876.30 C 879.51 845.42 887.40 812.69 884.80 779.59 C 870.73 793.88 854.10 805.20 837.92 816.90 Z" />
<path fill="#000000" opacity="1.00" d=" M 786.45 356.55 C 841.05 352.68 895.03 394.94 903.71 449.12 C 906.16 463.72 907.44 478.97 903.47 493.43 C 895.32 530.25 868.52 562.69 833.16 576.25 C 812.96 583.60 790.69 585.89 769.56 581.53 C 731.42 574.00 698.09 545.53 685.38 508.70 C 672.28 473.05 678.37 430.89 701.98 400.98 C 714.41 384.35 731.81 371.73 750.97 363.92 C 762.34 359.74 774.40 357.56 786.45 356.55 M 782.43 392.50 C 749.02 396.65 719.74 424.48 715.03 458.00 C 710.87 480.88 718.71 504.81 733.96 522.04 C 752.61 543.59 783.34 553.16 810.94 546.02 C 838.31 539.58 860.27 516.63 867.83 489.86 C 871.20 478.34 870.24 466.11 868.48 454.40 C 862.00 415.53 821.16 386.95 782.43 392.50 Z" />
<path fill="#000000" opacity="1.00" d=" M 261.44 756.54 C 269.01 754.44 274.70 760.77 279.77 765.22 C 353.69 839.30 427.81 913.20 501.73 987.28 C 508.66 993.73 508.60 1005.29 501.76 1011.74 C 497.11 1015.25 491.26 1017.63 485.33 1016.69 C 480.29 1015.47 476.63 1011.39 472.79 1008.22 C 396.66 932.47 321.09 856.13 244.77 780.57 C 243.73 770.02 250.56 758.29 261.44 756.54 Z" />
<path fill="#000000" opacity="1.00" d=" M 228.39 856.57 C 233.61 856.32 239.31 857.17 243.51 860.53 C 248.99 867.88 250.38 879.51 243.42 886.41 C 228.08 901.39 212.81 916.47 197.81 931.81 C 183.95 947.26 168.79 961.46 154.25 976.25 C 139.65 990.65 125.55 1005.57 110.33 1019.34 C 100.79 1028.12 92.26 1037.95 82.69 1046.70 C 77.18 1050.02 69.28 1051.83 63.29 1048.70 C 56.74 1042.79 52.28 1032.85 56.30 1024.29 C 61.47 1016.94 68.53 1011.18 74.74 1004.74 C 121.73 957.73 168.82 910.81 215.70 863.68 C 219.15 860.28 223.34 856.83 228.39 856.57 Z" />
<path fill="#000000" opacity="1.00" d=" M 298.26 939.26 C 307.20 929.34 325.63 937.34 327.01 949.94 C 329.13 958.37 322.23 965.36 316.83 970.83 C 285.76 1001.09 255.90 1032.62 224.37 1062.40 C 219.40 1067.66 211.28 1065.26 204.93 1066.49 C 200.86 1060.98 195.37 1055.40 195.99 1047.96 C 195.40 1042.07 199.93 1037.56 203.69 1033.70 C 235.32 1002.33 266.69 970.69 298.26 939.26 Z" />
<path fill="#000000" opacity="1.00" d=" M 386.41 1014.60 C 396.12 1012.70 403.87 1021.35 407.50 1029.31 C 407.50 1037.55 401.84 1044.68 396.30 1050.29 C 346.20 1100.19 296.27 1150.27 246.26 1200.27 C 241.96 1204.08 237.27 1208.83 231.10 1208.69 C 221.07 1207.74 211.31 1198.83 212.32 1188.32 C 214.36 1181.30 219.92 1175.95 224.73 1170.74 C 273.76 1121.76 322.76 1072.75 371.74 1023.73 C 376.09 1020.04 380.43 1015.30 386.41 1014.60 Z" />
</g>
</svg>
