<?xml version="1.0" encoding="UTF-8" ?>
<!DOCTYPE svg PUBLIC "-//W3C//DTD SVG 1.1//EN" "http://www.w3.org/Graphics/SVG/1.1/DTD/svg11.dtd">
<svg width="520pt" height="512pt" viewBox="0 0 520 512" version="1.1" xmlns="http://www.w3.org/2000/svg">
<g id="#000000fc">
<path fill="#000000" opacity="1.00" d=" M 175.55 0.00 L 180.61 0.00 C 191.08 10.77 196.39 25.01 203.09 38.16 C 206.72 36.04 210.41 34.02 214.20 32.20 C 237.27 21.53 267.01 29.56 281.66 50.30 C 295.62 68.71 296.45 96.07 282.93 114.95 C 276.33 125.84 264.96 132.52 253.59 137.51 C 259.07 148.66 265.38 159.43 270.15 170.92 C 272.24 175.73 269.31 181.44 264.89 183.78 C 255.94 189.18 246.24 193.15 237.07 198.12 C 230.63 201.34 224.47 205.42 217.47 207.35 C 212.56 209.34 206.58 205.84 205.34 200.85 C 202.57 191.71 202.41 181.11 194.67 174.31 C 182.03 159.82 156.97 159.90 144.39 174.39 C 134.96 182.69 133.72 196.33 136.02 207.93 C 138.30 215.76 144.30 221.54 149.40 227.58 C 154.14 232.05 152.81 241.05 146.85 243.82 C 130.99 252.07 115.22 260.75 98.68 267.53 C 91.59 270.29 87.83 262.90 85.01 258.03 C 63.49 216.11 42.41 173.97 20.93 132.04 C 16.98 123.78 11.93 115.80 10.30 106.67 C 9.37 97.24 12.34 87.00 19.70 80.70 C 29.52 72.40 41.74 67.91 52.96 61.92 C 77.07 49.14 101.65 37.30 126.00 25.00 C 142.50 16.65 158.63 7.50 175.55 0.00 M 63.99 79.99 C 54.36 84.96 44.30 89.24 35.33 95.39 C 31.38 98.16 30.68 103.91 32.97 107.96 C 55.23 153.19 78.73 197.79 101.03 243.01 C 108.53 239.16 116.11 235.45 123.72 231.82 C 120.45 225.71 117.04 219.57 115.13 212.87 C 109.56 192.39 116.80 168.81 133.35 155.38 C 150.24 140.39 176.43 137.84 196.01 149.00 C 209.33 155.23 217.63 168.15 223.24 181.24 C 230.88 177.60 238.44 173.81 246.00 170.00 C 240.16 157.92 233.64 146.17 228.12 133.94 C 225.88 129.47 226.63 122.91 231.36 120.42 C 237.90 117.63 245.46 118.18 251.79 114.78 C 269.39 107.20 276.31 83.39 267.02 67.00 C 260.21 53.02 242.80 45.98 227.97 49.97 C 218.50 51.51 212.46 59.75 205.22 65.17 C 200.46 68.28 193.55 65.96 191.21 60.89 C 184.53 49.26 178.54 37.24 172.75 25.15 C 136.27 42.99 100.49 62.18 63.99 79.99 Z" />
<path fill="#000000" opacity="1.00" d=" M 307.99 127.01 C 311.99 122.66 318.60 122.98 323.97 122.88 C 370.65 123.09 417.34 122.95 464.02 122.97 C 474.87 123.67 487.47 122.32 496.71 129.33 C 505.89 135.61 510.37 147.08 509.99 157.96 C 510.12 261.31 509.81 364.67 510.14 468.02 C 509.62 478.38 510.83 490.23 503.93 498.90 C 498.95 505.52 491.33 509.68 483.50 512.00 L 148.48 512.00 C 135.03 509.02 121.87 497.62 122.28 482.97 C 121.43 444.66 122.31 406.32 122.01 368.00 C 122.29 349.85 120.95 331.62 122.71 313.53 C 123.91 309.15 128.85 307.32 132.96 307.07 C 144.70 306.56 156.45 306.93 168.20 307.05 C 168.28 299.47 167.76 291.76 169.60 284.34 C 175.19 258.59 201.67 239.19 227.97 242.03 C 246.88 242.75 264.04 254.56 273.30 270.73 C 279.68 281.68 280.53 294.70 279.60 307.07 C 288.06 307.01 296.53 306.99 305.00 306.99 C 304.96 293.08 304.28 279.12 305.58 265.25 C 305.88 260.67 309.73 256.67 314.35 256.49 C 320.62 256.48 326.27 259.99 332.53 260.37 C 350.99 262.97 370.38 246.85 369.85 227.98 C 372.25 209.59 356.22 191.75 337.96 191.12 C 329.07 191.50 320.54 195.65 311.55 194.37 C 308.25 193.40 305.89 190.15 305.47 186.81 C 304.33 171.89 304.71 156.90 304.98 141.96 C 305.60 137.05 304.37 131.04 307.99 127.01 M 325.97 145.01 C 326.03 153.29 326.03 161.57 325.98 169.86 C 333.86 170.04 341.83 169.84 349.59 171.49 C 370.45 176.65 387.60 194.74 390.84 216.11 C 395.87 242.10 379.73 269.99 354.74 278.69 C 345.72 282.80 335.62 280.89 326.11 282.02 C 325.75 290.35 325.93 298.68 325.93 307.02 C 338.95 306.99 351.98 306.66 365.01 307.15 C 372.05 305.69 379.67 313.66 376.01 320.55 C 374.53 328.45 372.03 336.44 373.56 344.55 C 376.38 361.13 393.17 373.87 409.96 371.88 C 426.68 371.59 441.64 356.69 441.91 339.95 C 442.75 331.16 437.62 323.13 438.31 314.38 C 439.86 310.05 444.40 307.07 448.96 307.05 C 462.30 306.67 475.64 307.02 488.99 307.02 C 488.86 257.69 489.28 208.34 488.84 159.01 C 490.19 151.56 484.19 143.18 476.04 145.01 C 426.02 144.92 375.99 145.04 325.97 145.01 M 205.95 267.97 C 194.52 274.82 186.94 289.00 189.77 302.35 C 190.69 307.71 192.52 312.86 193.31 318.25 C 193.47 323.23 189.12 328.01 184.05 327.99 C 170.37 328.35 156.69 327.93 143.01 327.99 C 143.00 376.67 143.00 425.35 142.96 474.03 C 143.65 478.13 142.04 483.41 145.19 486.81 C 148.84 490.89 154.90 491.20 159.97 491.07 C 208.32 490.96 256.67 491.02 305.02 490.99 C 304.95 482.39 304.95 473.80 305.02 465.22 C 290.47 466.52 274.82 464.17 263.13 454.83 C 244.12 441.62 235.17 416.18 242.08 394.00 C 249.04 367.27 277.87 349.17 305.01 353.81 C 304.95 345.20 304.96 336.59 305.03 327.99 C 290.49 327.92 275.91 328.62 261.40 327.48 C 257.77 326.60 255.14 323.00 254.77 319.38 C 255.23 310.68 260.31 302.47 258.42 293.61 C 257.45 284.82 253.17 276.34 246.08 270.91 C 235.13 261.58 218.22 260.69 205.95 267.97 M 326.43 327.87 C 325.65 342.43 326.56 357.05 325.45 371.59 C 324.79 376.83 318.25 380.44 313.47 377.98 C 303.03 375.38 291.04 372.71 281.04 378.08 C 267.75 384.30 258.87 399.77 261.59 414.40 C 263.65 431.84 281.14 446.78 298.95 443.72 C 305.32 442.88 311.53 441.11 317.91 440.28 C 322.02 441.13 325.95 444.52 325.99 448.95 C 326.52 462.49 325.29 476.07 326.35 489.61 C 327.57 492.66 332.22 489.28 333.97 491.10 C 378.99 490.89 424.01 491.08 469.03 491.00 C 474.23 490.40 480.61 491.71 484.99 488.01 C 489.18 484.34 489.01 478.07 489.06 473.02 C 488.97 424.67 489.02 376.32 488.99 327.98 C 480.42 328.04 471.87 328.04 463.31 327.99 C 463.93 334.28 463.94 340.66 462.73 346.88 C 459.73 368.51 442.19 387.09 421.00 391.95 C 398.88 397.93 373.45 388.28 361.06 368.95 C 352.42 357.27 350.54 342.17 351.82 328.04 C 343.35 327.99 334.89 327.94 326.43 327.87 Z" />
</g>
</svg>
