<?xml version="1.0" encoding="UTF-8" ?>
<!DOCTYPE svg PUBLIC "-//W3C//DTD SVG 1.1//EN" "http://www.w3.org/Graphics/SVG/1.1/DTD/svg11.dtd">
<svg width="225pt" height="225pt" viewBox="0 0 225 225" version="1.1" xmlns="http://www.w3.org/2000/svg">
<g id="#ffffffff">
</g>
<g id="#231f20ff">
<path fill="#231f20" opacity="1.00" d=" M 84.26 30.19 C 90.95 25.84 99.29 25.65 107.00 25.10 C 115.69 24.96 124.63 25.19 132.95 27.97 C 136.74 29.11 139.72 32.08 141.40 35.60 C 143.85 40.63 144.93 46.22 145.42 51.76 C 156.91 56.21 167.06 65.45 170.29 77.63 C 175.89 97.03 179.17 117.00 182.65 136.86 C 184.26 150.16 184.83 163.72 183.02 177.03 C 182.07 185.13 178.52 192.54 175.92 200.18 C 172.26 201.26 168.63 199.50 165.02 199.00 C 162.67 198.37 160.04 198.37 157.99 196.96 C 157.11 194.44 157.16 191.70 156.84 189.08 C 155.37 176.11 154.20 163.10 153.82 150.05 C 152.93 146.57 151.47 143.27 150.38 139.85 C 149.99 155.25 149.37 170.80 151.80 186.07 C 151.81 187.90 150.44 189.39 149.68 190.96 C 150.44 192.76 152.51 194.79 151.03 196.78 C 148.85 199.48 145.77 201.26 142.71 202.81 C 129.10 209.04 113.68 209.00 99.03 208.04 C 90.09 207.12 80.79 205.72 72.99 200.99 C 68.94 199.04 71.54 194.20 71.75 190.92 C 70.93 189.24 69.44 187.61 69.72 185.62 C 72.08 170.52 71.62 155.15 71.13 139.93 C 69.88 143.59 68.11 147.15 67.49 150.98 C 67.42 166.12 65.17 181.11 64.06 196.17 C 63.13 196.90 62.27 197.89 61.02 198.04 C 56.36 198.98 51.73 200.20 47.00 200.71 C 44.16 199.26 44.16 195.53 42.89 192.93 C 35.68 175.91 36.94 156.88 38.52 138.89 C 41.97 118.21 45.45 97.45 51.25 77.28 C 54.51 65.25 64.58 56.26 75.89 51.78 C 77.05 44.20 78.10 35.52 84.26 30.19 M 90.37 33.49 C 88.60 34.21 86.04 35.56 86.42 37.82 C 87.32 41.90 91.08 44.72 95.08 45.34 C 100.98 46.59 106.32 49.71 110.75 53.75 C 114.54 50.32 118.93 47.45 123.88 46.02 C 127.03 45.08 130.65 44.64 132.90 41.95 C 134.68 40.07 136.36 36.25 133.31 34.71 C 127.55 31.31 120.55 31.27 114.06 30.97 C 106.13 30.88 97.93 30.78 90.37 33.49 M 124.89 51.73 C 129.77 51.26 134.63 50.45 139.56 50.65 C 139.22 48.53 138.87 46.42 138.56 44.30 C 135.33 48.78 130.07 50.62 124.89 51.73 M 82.95 44.45 C 82.56 46.49 82.19 48.55 81.89 50.61 C 86.68 50.50 91.42 51.18 96.16 51.70 C 91.19 50.52 86.14 48.70 82.95 44.45 M 74.01 59.03 C 66.40 63.03 59.68 69.52 57.13 77.92 C 52.83 91.73 50.30 106.00 47.59 120.19 C 43.42 140.78 40.92 162.28 45.40 183.04 C 50.02 181.52 54.89 181.87 59.43 183.47 C 60.45 172.33 61.76 161.18 61.72 149.97 C 61.80 147.52 63.12 145.35 63.83 143.06 C 67.25 133.14 70.26 122.75 69.75 112.16 C 61.93 103.49 60.24 91.15 60.19 79.92 C 60.25 76.62 65.78 76.68 65.83 79.97 C 66.17 88.63 66.98 97.74 71.69 105.27 C 72.80 107.30 75.45 108.54 75.44 111.08 C 76.23 121.38 76.64 131.71 77.07 142.02 C 77.15 156.68 78.00 171.50 75.41 186.01 C 79.45 191.14 85.99 193.15 92.13 194.41 C 104.76 196.56 117.82 196.57 130.43 194.18 C 136.08 192.78 142.53 191.02 145.93 185.88 C 143.00 165.69 144.45 145.21 145.10 124.90 C 145.80 119.75 145.36 114.42 146.35 109.36 C 154.29 101.64 155.06 89.94 155.79 79.56 C 156.09 76.47 161.45 76.95 161.25 80.04 C 161.33 91.31 159.25 103.32 151.87 112.24 C 150.97 124.59 155.31 136.64 159.46 148.11 C 160.04 149.99 159.77 152.00 159.88 153.94 C 159.95 163.81 161.06 173.63 162.03 183.45 C 166.55 181.95 171.41 181.41 175.96 183.12 C 180.12 164.06 178.47 144.18 174.75 125.18 C 172.59 113.13 170.30 101.10 167.43 89.21 C 165.53 81.80 163.98 73.85 158.78 67.93 C 154.10 62.57 147.87 58.37 140.97 56.53 C 133.64 55.82 126.36 57.58 119.19 58.87 C 119.85 63.27 120.66 67.66 121.14 72.08 C 121.04 74.80 117.86 75.04 115.89 74.17 C 114.84 69.60 114.34 64.93 113.58 60.30 C 111.88 60.89 110.13 61.03 108.40 60.49 C 107.91 64.02 107.37 67.54 106.82 71.06 C 106.46 72.15 106.62 73.94 105.25 74.33 C 103.59 75.44 100.87 74.14 100.89 72.12 C 101.30 67.73 102.20 63.40 102.87 59.04 C 93.45 57.49 82.91 53.82 74.01 59.03 M 47.54 188.73 C 48.22 190.67 48.90 192.61 49.61 194.54 C 52.60 193.91 55.58 193.28 58.57 192.64 C 58.61 191.59 58.65 190.55 58.69 189.50 C 55.14 188.19 51.21 187.32 47.54 188.73 M 164.08 189.10 C 162.15 189.29 163.14 191.50 163.01 192.72 C 165.99 193.25 168.94 193.92 171.93 194.44 C 172.59 192.50 173.24 190.55 173.92 188.61 C 170.68 187.72 167.19 187.77 164.08 189.10 M 76.57 195.12 C 76.70 195.49 76.97 196.23 77.11 196.59 C 80.18 198.69 83.92 199.46 87.45 200.45 C 97.12 202.68 107.11 202.97 116.99 202.69 C 125.18 202.16 133.48 200.95 140.89 197.23 C 128.53 201.86 115.09 202.20 102.06 201.50 C 93.25 201.10 84.39 199.33 76.57 195.12 Z" />
<path fill="#231f20" opacity="1.00" d=" M 88.34 142.82 C 88.20 140.88 90.37 140.02 91.99 140.23 C 104.65 140.25 117.32 140.20 129.98 140.26 C 131.49 140.09 133.31 141.26 133.10 142.94 C 133.02 151.33 132.86 160.67 138.36 167.60 C 140.32 170.39 135.42 173.41 133.56 170.55 C 127.73 163.89 127.56 154.41 127.25 146.03 C 116.20 146.11 105.16 146.05 94.11 146.07 C 94.06 154.52 93.60 164.11 87.70 170.75 C 85.37 173.30 81.66 170.26 82.91 167.33 C 88.96 160.81 88.18 151.07 88.34 142.82 Z" />
</g>
</svg>
