<?xml version="1.0" encoding="UTF-8" ?>
<!DOCTYPE svg PUBLIC "-//W3C//DTD SVG 1.1//EN" "http://www.w3.org/Graphics/SVG/1.1/DTD/svg11.dtd">
<svg width="202pt" height="264pt" viewBox="0 0 202 264" version="1.1" xmlns="http://www.w3.org/2000/svg">
<g id="#ffffffff">
</g>
<g id="#434343ff">
<path fill="#434343" opacity="1.00" d=" M 50.36 2.37 C 57.95 4.26 60.60 15.62 55.33 21.33 C 52.18 25.57 45.63 27.31 44.75 33.06 C 44.92 38.54 50.90 40.47 54.11 43.97 C 59.71 48.80 59.30 59.00 52.94 62.99 C 51.66 64.04 49.77 62.98 48.97 61.81 C 47.60 58.68 51.80 56.97 51.90 54.02 C 52.86 48.93 47.45 46.55 44.32 43.75 C 39.69 40.43 37.39 34.04 39.70 28.68 C 41.70 23.53 47.18 21.35 50.69 17.48 C 52.26 15.76 52.15 13.17 51.59 11.07 C 50.56 9.23 48.78 7.94 47.78 6.08 C 47.29 4.39 48.81 2.76 50.36 2.37 Z" />
<path fill="#434343" opacity="1.00" d=" M 112.47 2.72 C 114.35 1.56 116.05 3.46 117.31 4.66 C 121.70 8.89 122.32 16.56 118.34 21.25 C 115.80 24.45 111.98 26.26 109.26 29.28 C 107.38 31.37 107.22 34.84 109.03 37.03 C 111.75 40.33 115.87 42.12 118.49 45.53 C 122.67 50.71 121.53 59.41 115.86 63.06 C 113.29 64.63 109.93 60.58 112.44 58.53 C 114.51 56.20 115.98 52.72 114.11 49.81 C 111.02 45.62 105.52 43.75 103.09 38.98 C 100.24 33.63 102.11 26.66 106.94 23.13 C 110.07 20.24 115.60 17.98 114.89 12.83 C 114.84 9.88 111.85 8.40 110.57 6.03 C 110.61 4.71 111.14 3.24 112.47 2.72 Z" />
<path fill="#434343" opacity="1.00" d=" M 80.25 3.19 C 81.40 1.83 83.56 2.28 84.58 3.55 C 88.86 6.81 90.82 12.85 88.79 17.92 C 87.03 22.82 82.05 25.20 78.45 28.53 C 75.98 30.65 75.58 34.76 77.75 37.23 C 80.88 40.79 85.66 42.75 88.01 47.03 C 91.17 52.38 89.43 60.20 83.94 63.29 C 81.94 63.75 80.02 62.07 80.05 60.06 C 81.26 57.44 84.15 55.22 83.49 52.04 C 82.43 47.44 77.44 45.73 74.47 42.57 C 69.70 38.57 68.89 30.75 72.78 25.89 C 75.63 21.92 80.86 20.25 83.13 15.82 C 84.68 12.71 82.33 9.76 80.28 7.62 C 78.93 6.50 78.84 4.30 80.25 3.19 Z" />
<path fill="#434343" opacity="1.00" d=" M 32.84 77.40 C 44.81 75.67 56.91 75.37 68.97 74.96 C 88.94 74.85 109.02 74.80 128.83 77.64 C 134.46 78.66 140.32 79.63 145.26 82.71 C 147.45 84.00 149.06 86.33 149.01 88.95 C 149.21 95.98 148.91 103.02 149.12 110.05 C 162.12 109.17 175.43 114.07 184.44 123.54 C 192.57 131.86 197.17 143.40 197.02 155.03 C 196.78 164.38 197.48 173.76 196.78 183.10 C 195.45 199.32 184.20 214.10 169.11 220.05 C 162.79 222.73 155.87 223.48 149.06 223.24 C 149.00 227.85 149.23 232.48 148.67 237.07 C 147.52 242.88 142.59 246.98 137.59 249.61 C 129.35 253.77 120.17 255.57 111.09 256.76 C 95.50 258.81 79.73 258.91 64.05 258.18 C 51.89 257.30 39.54 256.17 27.97 252.05 C 20.03 249.27 10.93 243.49 10.98 234.03 C 11.12 185.67 11.06 137.31 10.96 88.95 C 10.67 85.67 13.29 83.24 15.98 81.91 C 21.20 79.22 27.10 78.29 32.84 77.40 M 29.97 83.97 C 25.30 84.87 20.36 85.67 16.56 88.77 C 18.57 89.80 20.53 91.29 22.84 91.44 C 45.55 86.58 68.93 87.22 92.02 87.22 C 106.76 87.65 121.64 88.01 136.08 91.29 C 138.74 91.94 141.00 89.82 143.29 88.85 C 138.70 85.09 132.55 84.49 126.92 83.48 C 108.41 80.88 89.66 80.89 71.01 80.95 C 57.30 81.37 43.52 81.65 29.97 83.97 M 29.83 93.15 C 46.36 96.16 63.27 96.13 80.02 96.31 C 96.75 96.14 113.62 96.13 130.13 93.17 C 109.96 89.86 89.43 90.19 69.05 90.21 C 55.95 90.58 42.77 90.93 29.83 93.15 M 17.02 96.03 C 17.06 97.93 17.10 99.83 17.16 101.72 C 25.00 105.42 33.74 106.15 42.24 107.10 C 60.09 108.61 78.03 108.73 95.93 108.30 C 107.35 107.95 118.81 107.39 130.10 105.49 C 134.46 104.76 138.74 103.53 142.77 101.70 C 142.91 99.79 143.04 97.87 143.16 95.96 C 128.71 101.12 113.14 101.32 97.98 102.08 C 78.64 102.52 59.23 102.58 39.96 100.71 C 32.18 99.94 24.36 98.81 17.02 96.03 M 114.86 110.36 C 92.98 111.91 71.00 111.92 49.10 110.64 C 38.24 109.88 27.18 108.99 16.91 105.10 C 17.00 146.07 16.87 187.05 16.98 228.01 C 17.05 231.76 16.26 236.05 18.82 239.21 C 22.30 243.48 27.61 245.67 32.72 247.31 C 44.81 250.96 57.51 251.84 70.06 252.35 C 86.37 252.67 102.82 252.51 118.90 249.43 C 125.15 248.08 131.51 246.44 136.96 242.98 C 139.72 241.12 142.52 238.54 142.90 235.05 C 143.21 191.70 142.82 148.32 143.10 104.97 C 134.14 108.62 124.41 109.51 114.86 110.36 M 148.97 116.06 C 148.91 120.61 148.89 125.15 149.06 129.69 C 154.18 129.69 159.54 129.54 164.28 131.82 C 172.62 135.43 178.54 143.89 178.96 152.99 C 179.26 162.00 178.97 171.03 178.92 180.05 C 178.94 187.27 175.25 194.23 169.63 198.68 C 163.96 203.49 156.25 204.46 149.08 204.07 C 149.09 208.46 148.86 212.85 149.02 217.24 C 158.63 217.77 168.52 215.21 176.09 209.13 C 184.99 202.21 190.64 191.31 190.98 180.02 C 191.14 171.36 191.09 162.70 190.93 154.04 C 190.90 142.68 185.35 131.55 176.47 124.51 C 168.86 118.19 158.76 115.43 148.97 116.06 M 149.06 135.81 C 149.09 156.56 149.00 177.31 149.12 198.05 C 153.00 197.86 157.04 198.31 160.74 196.84 C 167.65 194.35 172.82 187.46 172.91 180.06 C 172.97 171.36 172.94 162.67 172.91 153.97 C 172.92 148.08 169.73 142.45 164.95 139.09 C 160.42 135.62 154.50 135.57 149.06 135.81 Z" />
<path fill="#434343" opacity="1.00" d=" M 133.28 118.19 C 133.91 116.23 136.31 118.67 135.74 119.94 C 135.82 147.27 135.83 174.62 135.74 201.95 C 136.19 204.23 132.49 204.45 132.83 202.12 C 132.72 175.75 132.88 149.36 132.75 122.98 C 132.90 121.40 132.41 119.61 133.28 118.19 Z" />
<path fill="#434343" opacity="1.00" d=" M 183.30 150.08 C 183.64 148.23 186.61 149.34 186.23 150.97 C 186.79 160.29 186.42 169.65 186.48 178.98 C 186.40 189.84 180.53 200.14 171.83 206.48 C 171.16 205.74 170.49 205.01 169.83 204.27 C 177.44 198.54 183.04 189.73 183.37 180.03 C 183.56 170.05 183.48 160.06 183.30 150.08 Z" />
<path fill="#434343" opacity="1.00" d=" M 157.20 209.34 C 160.17 208.44 163.16 207.60 166.09 206.59 C 166.37 207.20 166.92 208.41 167.20 209.01 C 164.01 210.38 160.62 212.24 157.09 211.92 C 155.64 212.07 155.82 209.27 157.20 209.34 Z" />
<path fill="#434343" opacity="1.00" d=" M 132.91 211.46 C 133.58 211.70 134.90 212.18 135.57 212.42 C 135.94 216.50 135.94 220.64 135.63 224.73 C 135.20 226.15 133.87 225.54 132.82 225.42 C 132.80 220.77 132.70 216.11 132.91 211.46 Z" />
</g>
</svg>
