<?xml version="1.0" encoding="UTF-8" ?>
<!DOCTYPE svg PUBLIC "-//W3C//DTD SVG 1.1//EN" "http://www.w3.org/Graphics/SVG/1.1/DTD/svg11.dtd">
<svg width="512pt" height="512pt" viewBox="0 0 512 512" version="1.1" xmlns="http://www.w3.org/2000/svg">
<g id="#000000ff">
<path fill="#000000" opacity="1.00" d=" M 88.44 0.00 L 90.24 0.00 C 105.39 1.26 120.47 6.96 131.87 17.18 C 141.84 25.95 149.99 37.19 153.59 50.09 C 159.49 71.63 165.35 93.18 171.22 114.74 C 174.79 127.80 173.16 141.83 168.46 154.39 C 165.72 161.71 161.62 168.55 156.13 174.13 C 148.22 182.18 140.18 190.11 132.23 198.12 C 146.01 248.89 175.58 295.27 216.14 328.81 C 244.49 352.72 278.23 370.01 313.95 379.84 C 321.76 372.04 329.54 364.20 337.38 356.43 C 347.37 346.51 361.09 341.07 374.91 339.37 C 382.27 338.46 389.81 338.82 396.97 340.79 C 418.48 346.62 439.98 352.51 461.48 358.40 C 475.74 362.16 487.91 371.60 497.13 382.89 C 505.93 393.80 510.81 407.65 512.00 421.54 L 512.00 424.48 C 511.40 439.45 506.33 454.75 495.64 465.57 C 484.52 476.81 473.27 487.92 462.13 499.15 C 454.87 506.98 443.88 509.20 434.01 512.00 L 432.34 512.00 C 359.35 512.15 286.30 493.88 222.42 458.46 C 169.82 429.62 123.47 389.49 87.30 341.64 C 45.99 287.22 17.98 222.78 6.44 155.44 C 1.94 130.44 0.14 105.02 0.00 79.64 L 0.00 77.45 C 2.73 67.73 5.22 57.05 12.94 49.94 C 24.14 38.81 35.23 27.56 46.44 16.44 C 57.49 5.54 73.16 0.46 88.44 0.00 Z" />
</g>
</svg>
