<?xml version="1.0" encoding="UTF-8" ?>
<!DOCTYPE svg PUBLIC "-//W3C//DTD SVG 1.1//EN" "http://www.w3.org/Graphics/SVG/1.1/DTD/svg11.dtd">
<svg width="1574pt" height="907pt" viewBox="0 0 1574 907" version="1.1" xmlns="http://www.w3.org/2000/svg">
<g id="#000000ff">
<path fill="#000000" opacity="1.00" d=" M 1131.94 79.20 C 1175.17 72.81 1220.82 82.45 1257.16 106.90 C 1268.78 114.65 1279.25 123.97 1289.00 133.94 C 1314.24 159.13 1335.98 187.57 1355.73 217.19 C 1389.01 267.11 1416.72 320.43 1448.86 371.06 C 1456.14 382.24 1463.66 393.30 1470.01 405.06 C 1491.03 443.06 1503.59 485.69 1506.54 529.01 C 1509.46 570.32 1503.62 612.21 1489.44 651.12 C 1468.75 707.89 1430.45 758.16 1380.98 792.89 C 1351.73 813.41 1318.76 828.63 1284.13 837.45 C 1209.82 856.40 1128.17 845.84 1061.74 807.25 C 1006.20 775.21 961.03 725.00 936.29 665.73 C 926.83 643.13 919.56 619.49 916.34 595.15 C 911.07 558.45 913.00 521.24 915.91 484.43 C 893.88 528.16 851.54 561.78 803.23 571.14 C 784.38 574.48 764.91 575.50 746.00 572.01 C 703.25 564.41 664.58 538.74 639.09 503.85 C 645.20 548.67 641.71 594.83 628.45 638.10 C 611.04 695.53 575.17 747.03 527.71 783.69 C 502.43 803.36 473.99 818.97 443.85 829.80 C 368.27 856.62 281.83 851.12 210.35 814.71 C 152.35 785.67 104.56 736.84 76.67 678.29 C 60.16 643.47 50.34 605.49 47.96 567.02 C 45.65 531.71 50.15 496.09 60.57 462.30 C 69.83 427.44 89.68 396.86 108.65 366.64 C 117.19 353.35 124.93 339.60 132.86 325.95 C 154.45 290.49 174.66 254.18 197.41 219.44 C 216.94 189.63 238.45 160.91 263.83 135.79 C 275.74 124.25 288.01 112.89 302.04 103.94 C 331.06 85.51 365.77 76.84 400.02 77.55 C 413.52 77.73 426.87 79.97 440.14 82.28 C 503.26 92.29 560.49 130.58 596.44 183.05 C 628.32 174.19 661.17 169.56 694.00 165.97 C 705.31 164.66 716.73 163.94 727.88 161.45 C 748.28 157.25 769.35 150.86 790.24 155.73 C 845.00 168.31 902.03 169.76 955.73 187.16 C 988.90 135.83 1042.52 98.19 1102.06 84.44 C 1111.90 82.04 1121.97 80.87 1131.94 79.20 M 346.02 125.03 C 320.24 135.05 299.08 153.75 280.40 173.67 C 304.12 167.15 328.37 162.23 352.96 160.58 C 388.03 158.00 423.45 162.75 457.03 173.00 C 506.04 188.38 549.67 218.02 585.69 254.26 C 578.04 224.60 561.53 197.60 540.03 175.94 C 501.50 137.20 446.74 114.82 392.04 116.59 C 376.43 117.23 360.63 119.23 346.02 125.03 M 1017.32 173.37 C 994.52 195.46 977.02 223.48 969.26 254.41 C 1015.54 204.44 1079.61 171.51 1147.07 162.44 C 1189.60 156.69 1233.57 160.28 1274.24 174.20 C 1256.93 155.38 1237.40 137.87 1213.98 127.06 C 1198.69 119.88 1181.70 117.23 1164.95 116.66 C 1110.74 114.25 1056.23 135.74 1017.32 173.37 M 703.45 229.44 C 691.77 245.49 684.80 264.58 681.32 284.02 C 705.18 268.85 732.82 259.54 761.07 257.83 C 797.16 255.36 833.97 264.86 864.14 284.87 C 859.30 261.36 851.68 237.02 834.22 219.68 C 819.28 203.60 797.92 193.68 776.00 192.63 C 747.49 190.94 719.86 206.65 703.45 229.44 M 1074.76 222.76 C 1031.73 243.62 994.21 276.66 970.20 318.20 C 966.86 323.70 963.39 329.40 962.44 335.87 C 959.71 354.07 959.39 372.49 958.16 390.82 C 994.41 334.67 1049.54 290.67 1112.73 268.66 C 1155.69 253.88 1202.04 248.72 1247.12 254.86 C 1284.74 259.79 1321.39 271.72 1354.84 289.60 C 1345.91 275.67 1338.81 260.56 1328.60 247.47 C 1325.32 243.44 1322.08 239.21 1317.66 236.37 C 1304.25 226.80 1289.26 219.70 1273.91 213.88 C 1251.11 205.50 1227.27 199.69 1203.03 197.73 C 1159.04 194.33 1114.38 203.54 1074.76 222.76 M 299.07 207.41 C 276.23 214.11 254.39 224.31 234.73 237.75 C 230.16 240.85 227.09 245.52 223.89 249.91 C 214.53 263.26 207.08 277.83 197.86 291.28 C 248.61 262.49 307.86 248.74 366.10 253.10 C 396.92 255.35 427.34 262.52 456.01 274.03 C 513.48 297.05 562.61 339.11 596.53 390.67 C 595.42 374.13 595.12 357.52 593.03 341.06 C 592.33 335.40 591.21 329.65 588.37 324.64 C 568.55 288.17 538.28 257.96 503.59 235.50 C 443.56 197.62 367.10 187.45 299.07 207.41 M 615.29 217.58 C 622.08 243.24 625.53 269.62 628.69 295.93 C 633.43 293.96 638.22 292.13 642.93 290.08 C 645.35 260.72 654.77 231.93 670.56 207.03 C 652.13 210.51 633.66 213.79 615.29 217.58 M 875.88 208.16 C 888.72 229.42 897.41 253.19 901.13 277.76 C 909.72 282.27 918.59 286.23 927.31 290.49 C 928.93 267.49 933.10 244.71 937.68 222.19 C 917.22 216.93 896.62 212.20 875.88 208.16 M 320.60 291.81 C 256.92 297.28 196.38 328.48 153.37 375.51 C 129.77 401.35 111.59 432.10 100.17 465.18 C 86.23 505.33 82.97 548.97 89.65 590.88 C 100.38 658.72 139.27 722.04 196.03 760.99 C 224.75 780.95 257.42 795.20 291.61 802.61 C 330.85 811.10 372.19 810.43 410.91 799.58 C 429.73 794.42 448.20 787.73 465.41 778.46 C 536.66 740.55 588.56 668.02 600.66 588.14 C 603.90 566.27 604.13 543.98 601.94 522.00 C 593.32 440.94 544.34 364.84 473.04 324.93 C 427.19 298.67 373.19 287.14 320.60 291.81 M 1185.62 291.87 C 1128.49 297.25 1073.43 322.35 1031.86 361.90 C 989.37 402.44 961.43 457.77 953.52 515.93 C 949.18 546.26 951.23 577.25 958.02 607.06 C 971.52 670.41 1011.43 726.93 1064.71 763.29 C 1098.08 786.18 1136.95 800.91 1177.06 806.12 C 1248.04 815.51 1322.57 793.53 1377.02 747.03 C 1430.16 701.43 1464.43 634.02 1468.42 563.97 C 1470.58 522.48 1462.74 480.45 1445.38 442.68 C 1431.27 411.84 1411.17 383.74 1386.50 360.47 C 1333.54 310.17 1258.26 284.60 1185.62 291.87 M 759.55 295.81 C 724.14 299.48 691.46 320.45 671.97 350.02 C 660.93 366.61 654.41 386.08 652.65 405.90 C 650.61 428.48 655.91 451.43 666.48 471.39 C 679.13 495.52 700.14 515.17 725.29 525.76 C 748.63 536.01 775.28 537.74 800.01 532.02 C 828.53 525.49 854.10 507.72 870.76 483.75 C 882.70 466.44 889.91 445.97 891.76 425.04 C 895.09 390.33 881.72 354.52 856.69 330.30 C 831.36 305.53 794.98 291.68 759.55 295.81 M 911.97 327.85 C 908.44 338.35 911.75 350.76 920.22 357.95 C 928.15 351.20 927.19 338.50 921.28 330.77 C 919.09 327.97 915.24 327.67 911.97 327.85 Z" />
<path fill="#000000" opacity="1.00" d=" M 326.54 356.89 C 348.08 354.75 370.02 356.23 390.95 361.87 C 402.90 363.89 407.91 380.40 400.54 389.49 C 397.86 392.57 394.23 395.07 390.10 395.59 C 384.05 396.45 378.11 394.59 372.15 393.91 C 360.47 392.59 348.75 390.88 336.96 391.60 C 279.07 394.02 223.83 431.33 200.94 484.73 C 196.17 495.93 192.90 507.73 187.76 518.79 C 186.77 521.29 184.43 522.90 182.12 524.09 C 174.06 527.87 163.30 525.00 158.52 517.40 C 156.11 513.74 156.31 509.09 157.00 504.96 C 165.33 464.17 188.97 427.24 220.86 400.78 C 250.57 375.91 287.85 360.04 326.54 356.89 Z" />
<path fill="#000000" opacity="1.00" d=" M 1191.55 356.81 C 1212.74 354.74 1234.30 356.33 1254.93 361.62 C 1258.19 362.49 1261.60 363.46 1264.21 365.73 C 1273.00 373.53 1270.89 390.30 1259.99 395.13 C 1242.84 396.72 1226.05 391.19 1208.94 391.39 C 1151.40 391.58 1095.22 426.19 1069.82 477.93 C 1063.84 489.86 1060.53 502.89 1054.99 515.01 C 1053.51 518.60 1051.52 522.30 1047.88 524.08 C 1040.13 528.05 1029.90 524.98 1024.83 518.13 C 1022.51 515.00 1021.64 510.89 1022.53 507.10 C 1030.79 463.35 1056.87 423.98 1091.82 396.82 C 1120.41 374.43 1155.42 360.41 1191.55 356.81 Z" />
</g>
</svg>
