<?xml version="1.0" encoding="UTF-8" ?>
<!DOCTYPE svg PUBLIC "-//W3C//DTD SVG 1.1//EN" "http://www.w3.org/Graphics/SVG/1.1/DTD/svg11.dtd">
<svg width="960pt" height="959pt" viewBox="0 0 960 959" version="1.1" xmlns="http://www.w3.org/2000/svg">
<g id="#000000ff">
<path fill="#000000" opacity="1.00" d=" M 476.39 34.53 C 508.10 34.16 539.89 36.87 570.95 43.37 C 646.53 58.57 717.56 94.65 775.10 145.86 C 834.09 198.49 878.71 267.16 902.27 342.65 C 923.88 411.33 927.97 485.35 914.70 556.08 C 905.14 606.78 886.54 655.76 859.94 699.96 C 811.82 780.46 737.39 845.08 650.55 880.63 C 592.42 905.00 528.90 916.00 465.97 913.62 C 392.89 911.12 320.57 889.73 257.82 852.19 C 206.00 821.32 160.55 779.73 125.45 730.66 C 79.54 667.18 51.25 591.11 44.60 513.04 C 37.84 436.88 51.09 358.90 83.47 289.57 C 103.48 246.20 130.70 206.15 163.69 171.63 C 172.53 161.55 182.66 152.73 192.52 143.70 C 227.45 113.22 267.00 87.93 309.70 69.80 C 362.22 47.23 419.23 35.18 476.39 34.53 M 377.42 261.51 C 342.52 283.40 313.08 314.09 293.15 350.20 C 273.18 386.03 262.92 427.06 262.83 468.04 C 262.74 511.40 274.77 554.71 297.03 591.91 C 298.40 594.04 297.05 596.49 296.48 598.66 C 285.62 630.45 274.84 662.28 263.98 694.08 C 260.94 703.98 256.98 713.59 254.27 723.59 C 298.71 709.69 343.04 695.42 387.47 681.50 C 389.72 680.74 391.81 682.29 393.76 683.21 C 438.29 706.74 490.18 715.38 540.04 709.06 C 578.55 704.14 615.91 690.01 647.87 667.95 C 672.31 651.14 693.75 629.93 710.61 605.52 C 733.80 572.41 748.20 533.27 752.45 493.10 C 753.34 481.77 754.43 470.37 753.18 459.02 C 751.40 400.19 726.99 342.31 685.98 300.06 C 658.92 271.58 624.80 249.95 587.60 237.36 C 518.61 213.62 439.18 222.55 377.42 261.51 Z" />
<path fill="#000000" opacity="1.00" d=" M 501.44 261.57 C 537.35 260.47 573.57 268.70 605.33 285.55 C 639.59 303.60 668.72 331.34 688.07 364.91 C 707.36 397.69 717.11 436.00 715.71 474.01 C 714.98 487.29 713.59 500.59 710.48 513.54 C 703.59 543.69 689.49 572.09 670.20 596.20 C 647.13 625.10 616.11 647.42 581.57 660.55 C 548.35 672.93 511.94 677.06 476.88 671.51 C 455.86 668.55 435.48 661.83 416.39 652.62 C 408.57 649.08 401.60 643.92 393.86 640.29 C 382.82 643.12 372.09 647.15 361.18 650.47 C 346.12 655.10 331.17 660.12 316.11 664.72 C 315.77 664.55 315.07 664.22 314.73 664.05 C 314.80 661.48 316.05 659.15 316.78 656.73 C 324.09 635.23 331.18 613.66 338.45 592.15 C 338.82 590.78 339.45 589.42 339.30 587.99 C 337.12 583.37 333.63 579.55 331.00 575.21 C 325.71 565.65 320.00 556.26 316.13 546.00 C 302.14 512.50 297.06 475.12 302.69 439.19 C 308.09 399.40 325.91 361.53 352.53 331.53 C 376.35 304.58 407.32 283.98 441.39 272.43 C 460.73 265.85 481.04 262.36 501.44 261.57 M 419.47 357.81 C 413.17 359.68 409.02 365.11 404.67 369.67 C 395.04 380.04 389.73 393.98 388.96 408.03 C 387.56 423.07 392.40 437.85 398.73 451.29 C 404.44 463.62 412.82 474.39 420.42 485.57 C 441.80 514.61 467.97 540.99 500.11 557.94 C 509.09 562.79 518.73 566.22 528.26 569.78 C 539.71 574.02 551.27 578.05 563.22 580.62 C 568.64 581.54 574.20 582.87 579.69 581.69 C 584.38 580.73 589.16 580.18 593.80 578.95 C 601.90 576.48 609.31 572.16 616.07 567.14 C 621.01 563.04 625.90 558.40 628.22 552.26 C 630.57 546.11 631.83 539.59 632.63 533.07 C 632.91 529.19 633.09 524.16 629.15 521.98 C 623.07 518.48 616.55 515.80 610.32 512.59 C 600.65 507.97 591.16 503.00 581.38 498.63 C 578.45 497.33 575.20 496.41 571.97 496.82 C 569.11 497.19 567.45 499.80 565.87 501.91 C 561.36 508.27 556.19 514.12 551.24 520.13 C 548.73 522.92 546.30 526.12 542.71 527.55 C 538.34 528.88 534.28 526.09 530.37 524.58 C 499.95 512.40 474.26 489.92 456.27 462.72 C 453.91 458.96 450.94 455.40 449.79 451.03 C 449.04 447.66 451.20 444.63 453.24 442.20 C 458.75 435.99 465.12 430.20 468.49 422.44 C 469.86 419.67 470.53 416.33 469.30 413.39 C 462.37 397.35 456.09 381.04 449.07 365.05 C 447.68 362.25 445.90 359.41 443.16 357.79 C 439.86 356.89 436.39 357.37 433.03 357.22 C 428.51 357.25 423.89 356.59 419.47 357.81 Z" />
</g>
</svg>
